<svg width="524" height="408" viewBox="0 0 524 408" fill="none" xmlns="http://www.w3.org/2000/svg">
<path d="M59.973 397.166H156.773C158.434 397.166 158.434 394.61 156.773 394.61C124.492 394.61 92.2113 394.61 59.973 394.61C58.3121 394.61 58.3121 397.166 59.973 397.166Z" fill="#E8E8E8"/>
<path d="M91.5299 387.157H188.671H216.224C217.885 387.157 217.885 384.602 216.224 384.602C183.858 384.602 151.492 384.602 119.084 384.602C109.885 384.602 100.686 384.602 91.5299 384.602C89.9116 384.602 89.9116 387.157 91.5299 387.157Z" fill="#E8E8E8"/>
<path d="M214.138 371.4H279.892C281.553 371.4 281.553 368.844 279.892 368.844C257.96 368.844 236.027 368.844 214.138 368.844C212.477 368.844 212.477 371.4 214.138 371.4Z" fill="#E8E8E8"/>
<path d="M270.437 407.173H407.354H445.64C447.301 407.173 447.301 404.618 445.64 404.618C399.987 404.618 354.334 404.618 308.723 404.618C295.947 404.618 283.214 404.618 270.437 404.618C268.777 404.618 268.777 407.173 270.437 407.173Z" fill="#E8E8E8"/>
<path d="M378.31 397.166H468.807C470.468 397.166 470.468 394.61 468.807 394.61C438.656 394.61 408.462 394.61 378.31 394.61C376.649 394.61 376.649 397.166 378.31 397.166Z" fill="#E8E8E8"/>
<path d="M139.866 87.1318C137.651 87.5151 134.159 88.4094 130.497 90.6665C128.197 92.0719 123.513 95.4789 120.574 101.739C119.509 103.954 117.125 109.107 118.317 115.495C120.063 124.949 128.368 129.676 129.688 130.4C133.904 123.969 138.077 117.496 142.293 111.066C141.442 103.102 140.633 95.1382 139.866 87.1318Z" fill="#EC615B"/>
<path d="M143.017 110.3C149.235 106.935 155.41 103.571 161.628 100.164C162.991 101.868 165.546 105.658 165.503 110.768C165.503 111.918 165.375 112.983 165.163 113.962C157.752 112.727 150.385 111.492 143.017 110.3Z" fill="#5222D0"/>
<path d="M76.3264 139.685C77.093 149.692 77.817 159.743 78.5835 169.751C81.3091 169.581 84.0347 169.368 86.7176 169.197C85.8233 159.019 84.929 148.883 84.0347 138.705C81.4369 139.046 78.8816 139.344 76.3264 139.685Z" fill="#5222D0"/>
<path d="M91.5299 150.119C91.9558 156.294 92.3816 162.427 92.8501 168.602C95.5757 168.346 98.3012 168.133 100.984 167.878C100.388 161.703 99.8343 155.57 99.2381 149.395C96.6403 149.608 94.0851 149.863 91.5299 150.119Z" fill="#EC615B"/>
<path d="M188.415 188.276C146.169 192.151 103.965 195.984 61.719 199.86C57.8436 138.023 53.9256 76.1873 50.0502 14.3085C92.1686 12.818 134.33 11.3275 176.448 9.83691C180.451 69.3308 184.454 128.825 188.415 188.276V188.276Z" stroke="#161616" stroke-width="2" stroke-miterlimit="10"/>
<path d="M93.6167 2.59877C94.0851 5.96314 94.5962 9.32751 95.0646 12.6919C95.1924 13.501 96.4274 13.1603 96.2997 12.3512C95.8312 8.98681 95.3202 5.62244 94.8517 2.25808C94.7239 1.44892 93.4889 1.78962 93.6167 2.59877Z" fill="#E8E8E8"/>
<path d="M94.511 2.51263C104.093 1.87382 113.718 1.49054 123.3 1.27761C124.109 1.27761 124.109 0 123.3 0C113.675 0.212935 104.093 0.638802 94.511 1.23502C93.7018 1.27761 93.7018 2.55522 94.511 2.51263Z" fill="#E8E8E8"/>
<path d="M122.916 0.767019C123.342 4.3869 123.683 7.9642 123.896 11.5841C123.938 12.3932 125.216 12.3932 125.173 11.5841C124.961 7.9642 124.62 4.34432 124.194 0.767019C124.066 -0.0421313 122.789 -0.0421313 122.916 0.767019Z" fill="#E8E8E8"/>
<path d="M94.5536 2.47015C94.8517 5.62158 95.1498 8.8156 95.4479 11.967C95.4905 12.3077 95.7034 12.6058 96.0867 12.6058C105.243 12.691 114.356 11.2431 123.555 11.5412C124.364 11.5838 124.364 10.3061 123.555 10.2636C114.399 9.96545 105.285 11.3708 96.0867 11.3282L96.7255 11.967C96.4274 8.8156 96.1293 5.62158 95.8312 2.47015C95.746 1.66099 94.4684 1.66099 94.5536 2.47015Z" fill="#E8E8E8"/>
<path d="M95.235 2.89594C96.6403 3.74768 98.4716 3.32181 100.005 3.23664C102.56 3.10887 105.115 2.98111 107.67 2.85335C112.781 2.59783 117.849 2.29973 122.959 2.0442C122.746 1.83127 122.533 1.61834 122.32 1.4054C122.448 4.17354 122.576 6.94168 122.703 9.75241C122.746 10.5616 124.024 10.5616 123.981 9.75241C123.853 6.98427 123.726 4.21613 123.598 1.4054C123.598 1.06471 123.3 0.766602 122.959 0.766602C118.445 1.02212 113.888 1.23505 109.374 1.49058C107.117 1.61834 104.86 1.7461 102.56 1.83127C100.771 1.91644 97.4495 2.76818 95.8738 1.78868C95.1924 1.36281 94.5536 2.47007 95.235 2.89594Z" fill="#E8E8E8"/>
<path d="M95.1924 3.15108C95.8312 5.74888 96.2571 8.38928 96.5126 11.0723C96.9385 11.0297 97.3644 10.9445 97.7476 10.9019C97.2792 8.60221 97.407 6.3451 97.8328 4.00282C97.407 3.96023 96.9811 3.87506 96.5978 3.83247C96.683 6.38769 96.8533 8.81514 97.8328 11.1574C98.1309 11.8388 99.1956 11.3278 98.9827 10.6464C98.2587 7.92082 97.5773 5.23784 98.3013 2.4271C97.8754 2.4271 97.4921 2.4271 97.0663 2.4271C97.4495 4.98232 97.8328 7.53754 98.2161 10.0928C98.3439 10.9019 99.5789 10.5612 99.4511 9.75206C99.0678 7.19684 98.6846 4.64162 98.3013 2.0864C98.2161 1.4476 97.194 1.53277 97.0663 2.0864C96.2997 5.11008 96.9811 8.04858 97.7476 10.9871C98.1309 10.8167 98.5142 10.6464 98.8975 10.476C98.0032 8.34669 97.918 6.04699 97.8328 3.78988C97.8328 3.10849 96.7256 2.89556 96.5978 3.61954C96.1294 6.17475 95.959 8.6448 96.5126 11.2C96.6404 11.8814 97.8328 11.7536 97.7476 11.0297C97.4921 8.26151 97.0237 5.49336 96.3849 2.7678C96.2145 2.00123 95.0221 2.34193 95.1924 3.15108Z" fill="#E8E8E8"/>
<path d="M98.4715 5.40774C98.94 4.64118 99.4084 3.87462 99.8769 3.10806C99.4936 2.89512 99.1529 2.68219 98.7696 2.46926C98.216 3.70427 97.705 4.93929 97.1513 6.17431C96.8958 6.77052 97.6624 7.57967 98.1734 6.94087C99.0252 5.8762 99.8343 4.76894 100.686 3.70427C100.345 3.49134 99.9621 3.2784 99.6214 3.06547C99.2807 4.08755 98.8548 5.02446 98.2586 5.96137C97.8753 6.55759 98.8122 7.32415 99.2807 6.72794C99.9195 5.91879 100.558 5.10964 101.24 4.30049C100.899 4.04497 100.558 3.78945 100.218 3.53393C99.3659 5.53551 98.5141 7.4945 97.6624 9.49608C97.4069 10.0923 98.1734 10.9014 98.6845 10.2626C100.218 8.34624 101.793 6.38724 103.326 4.47083C102.986 4.21531 102.645 3.95979 102.304 3.70427C101.155 5.57809 100.005 7.4945 98.8548 9.36832C98.5567 9.83677 99.0252 10.4756 99.5788 10.3052C100.26 10.0923 100.345 10.0071 100.856 9.58125C100.516 9.36832 100.132 9.15538 99.7917 8.94245C99.5362 9.66642 99.1103 10.2201 98.4715 10.6885C97.8327 11.157 98.3864 12.2216 99.1103 11.7958C99.7917 11.4125 100.431 11.157 101.197 11.0718C100.942 10.8163 100.686 10.5607 100.431 10.3052C99.3233 9.7516 98.9826 8.98503 99.4084 7.96295C99.5362 7.40932 99.7491 6.89828 100.005 6.42983C100.345 5.83361 100.984 4.38566 101.623 5.66327C102.091 6.60018 100.132 11.8383 99.8769 8.60175C99.8343 7.75002 99.9195 6.89828 100.175 6.13172C100.345 5.5355 100.601 4.98187 100.899 4.42825C101.325 3.57651 101.538 3.57651 101.58 4.42825C102.39 6.13172 101.41 8.81469 100.601 10.3052C100.984 10.3478 101.367 10.3904 101.751 10.4756C101.41 9.28315 101.282 8.1333 101.538 6.94087C101.623 6.47242 102.049 4.21532 102.517 4.93929C103.497 6.34466 101.878 9.53867 101.197 10.7737C101.58 10.9014 102.006 10.9866 102.39 11.1144C102.262 9.96453 102.219 8.85728 102.432 7.70743C102.56 6.94087 103.028 4.47084 103.837 4.38566C104.987 4.2579 102.773 9.49608 102.262 10.2626C102.645 10.3052 103.028 10.3478 103.412 10.433C103.028 8.51658 103.028 4.42825 105.626 3.78944C105.371 3.66168 105.115 3.49134 104.86 3.36358C105.328 5.96137 104.604 8.47399 102.815 10.3904C103.156 10.4756 103.539 10.5608 103.88 10.6885C103.582 9.49608 103.539 8.34623 103.837 7.1538C104.008 6.515 104.902 3.83203 105.754 4.04497C106.35 4.17273 105.584 6.64276 105.413 7.19639C104.945 8.55916 104.221 9.7516 103.156 10.7737C103.497 10.8589 103.88 10.944 104.221 11.0718C103.539 8.21847 104.732 5.36516 107.244 3.83203C106.946 3.70427 106.606 3.57651 106.308 3.44875C107.287 6.04655 104.774 9.4109 103.114 11.157C103.454 11.2421 103.837 11.3273 104.178 11.4551C103.88 10.22 103.88 9.02762 104.263 7.79261C104.391 7.40933 105.669 4.51342 106.265 4.72636C107.117 5.02447 105.669 7.62226 105.413 8.00554C105.115 8.55917 104.561 9.53866 104.008 9.87936C103.369 10.3052 103.412 10.3904 103.369 9.45349C103.326 8.17589 104.178 6.72794 104.902 5.79103C105.285 5.27999 105.924 4.47083 106.52 4.2579C107.202 3.95979 107.117 3.87462 107.032 4.76894C106.733 7.40932 105.243 9.79419 103.369 11.6254C103.71 11.7106 104.093 11.7958 104.434 11.9235C104.05 9.4109 104.902 6.81311 106.776 5.06705C107.33 4.55601 107.968 4.21531 108.181 5.27998C108.267 5.70585 107.755 6.72793 107.585 7.11122C106.989 8.51658 106.137 9.70901 105.073 10.7737H105.967C105.2 9.87936 106.18 7.92037 106.648 7.06863C106.861 6.68535 108.692 3.87462 109.203 4.13014C109.8 4.42825 108.479 7.28156 108.309 7.57967C107.713 8.72952 106.946 9.7516 106.052 10.6885C106.435 10.8589 106.776 10.9866 107.159 11.157C107.202 8.04812 108.65 5.40775 111.29 3.74686C110.95 3.57651 110.651 3.36358 110.311 3.19323C110.353 6.04655 109.331 8.55917 107.287 10.5607C107.67 10.7311 108.011 10.8589 108.394 11.0292C108.65 7.92036 110.098 5.2374 112.483 3.23582C112.142 3.19323 111.801 3.15065 111.461 3.10806C112.823 5.15223 109.842 8.98503 108.65 10.5182C109.033 10.6885 109.374 10.8163 109.757 10.9866C109.8 9.79419 110.013 8.68693 110.481 7.57967C110.737 6.89828 111.801 4.55601 112.568 4.38566C113.59 4.17273 112.525 6.13172 112.185 6.8557C111.588 8.09072 110.779 9.15538 109.842 10.1349C110.183 10.3478 110.566 10.5607 110.907 10.7737C111.29 8.1333 112.355 4.64118 115.123 3.66169C114.867 3.44875 114.569 3.23582 114.314 3.06547C113.973 5.96137 112.696 8.4314 110.566 10.3904C110.949 10.5607 111.29 10.6885 111.673 10.8589C111.801 9.49608 112.099 8.17588 112.696 6.89828C113.079 6.08913 114.101 3.95979 115.038 3.78944C115.506 3.70427 115.038 4.42825 114.867 4.8967C114.612 5.57809 114.271 6.21689 113.931 6.81311C113.249 8.00554 112.397 9.07021 111.418 10.0497C111.801 10.2201 112.142 10.3478 112.525 10.5182C112.696 7.7926 113.973 5.45033 116.103 3.78944C115.804 3.53392 115.464 3.32099 115.166 3.06547C114.825 5.06705 113.803 6.64276 112.44 8.1333C111.631 9.02762 111.375 8.81469 111.29 7.62226C111.205 6.00396 112.185 4.38566 113.803 3.95979C113.547 3.74686 113.249 3.53392 112.994 3.36358C112.866 5.91878 112.099 8.21847 110.737 10.3478C111.12 10.4756 111.546 10.5608 111.929 10.6885C112.057 9.41091 112.397 8.17589 112.994 7.02604C113.377 6.25948 114.356 4.34307 115.208 4.13014C116.443 3.78944 115.208 6.21689 114.91 6.81311C114.314 8.00554 113.505 9.02762 112.568 10.0071C112.951 10.1775 113.292 10.3052 113.675 10.4756C113.505 7.36674 115.379 4.64118 118.317 3.70427C118.062 3.49134 117.763 3.27841 117.508 3.10806C117.167 6.13172 115.719 8.68693 113.377 10.6459C113.76 10.8163 114.101 10.944 114.484 11.1144C114.825 8.17589 116.315 5.66327 118.743 3.95979C118.445 3.83203 118.104 3.70427 117.806 3.57651C118.487 5.79102 116.145 8.68693 114.867 10.2626C115.251 10.433 115.591 10.5607 115.975 10.7311C116.145 8.55917 117.38 4.59859 119.978 4.21531C119.722 3.95979 119.467 3.70428 119.211 3.44875C118.743 5.8762 117.763 8.04812 116.188 9.96453C116.571 10.1349 116.912 10.2626 117.295 10.433C117.423 7.83519 118.445 5.57809 120.233 3.74686C119.893 3.70427 119.552 3.66169 119.211 3.6191C120.191 5.40774 118.189 8.55917 117.295 10.1349L118.445 10.6459C118.871 8.60175 119.211 5.15222 121.128 3.91721C120.872 3.87462 120.617 3.83203 120.361 3.83203C121.426 5.02446 119.382 9.02762 118.913 10.2201C119.339 10.3478 119.722 10.433 120.148 10.5607C120.744 8.38882 121.298 6.25948 121.894 4.08756C121.468 4.04497 121.043 3.95979 120.659 3.91721C120.744 5.96137 120.446 7.87778 119.765 9.83677C120.191 9.87936 120.617 9.96453 121 10.0071C121.213 8.09071 121 5.10964 122.107 3.49134C121.724 3.44875 121.341 3.40617 120.957 3.32099C121.554 5.40775 121.341 7.40932 121.043 9.58125C121.468 9.62384 121.894 9.70901 122.278 9.7516C122.107 7.36673 121.937 4.93929 121.767 2.55443C121.383 2.72478 121.043 2.85254 120.659 3.02289C122.278 4.68377 121.639 6.8557 120.915 8.7721C121.298 8.72952 121.681 8.68693 122.065 8.60175C121.596 7.70743 120.659 6.2169 120.702 5.15223C120.276 4.47084 120.446 4.13014 121.256 4.17273C121.639 4.85412 121.767 5.57809 121.596 6.30207C121.98 6.13172 122.32 6.00396 122.703 5.83361C122.022 5.02446 121.681 4.2579 121.468 3.2784C121.17 3.53392 120.83 3.74686 120.532 4.00238C120.702 4.47083 120.872 4.98188 121.043 5.45033C121.426 5.49292 121.809 5.5355 122.192 5.62068C121.894 4.76894 121.767 4.00238 121.809 3.10806C121.554 3.32099 121.256 3.53392 121 3.70427C122.661 4.38566 121.511 8.81469 121.298 9.96453C121.511 9.79418 121.724 9.66643 121.894 9.49608C118.658 9.58125 115.421 9.66642 112.185 9.7516C111.375 9.79418 111.375 10.9866 112.185 11.0292C115.038 11.1144 117.849 10.6885 120.659 10.2626C120.532 9.83677 120.446 9.45349 120.319 9.02762C116.997 9.92194 113.675 10.5182 110.268 10.7737C109.459 10.8163 109.459 12.0087 110.268 12.0513C113.59 12.179 116.826 11.0292 120.148 11.157C120.106 10.7311 120.021 10.3052 119.978 9.92195C117.423 10.7737 114.867 11.0292 112.185 10.7311V12.0087C115.251 11.7106 118.317 11.4125 121.383 11.1144C121.341 10.6885 121.256 10.2626 121.213 9.87936C119.169 10.4756 117.167 10.6885 115.038 10.6033V11.8809C117.125 11.8809 119.126 11.6254 121.128 11.1144C121.937 10.9014 121.596 9.70901 120.787 9.87936C118.402 10.3904 116.017 10.6459 113.59 10.6459V11.9235C116.486 11.5402 119.382 11.0718 122.278 10.4756C122.959 10.3478 122.831 9.15538 122.107 9.24056C119.339 9.58125 116.614 9.53866 113.888 9.11279C113.079 8.98503 112.738 10.2201 113.547 10.3478C116.401 10.7737 119.254 10.8589 122.107 10.5182C122.065 10.0923 121.98 9.66643 121.937 9.28314C119.169 9.83677 116.401 10.3478 113.59 10.6885C112.781 10.7737 112.738 11.9661 113.59 11.9661C116.145 11.9661 118.615 11.7106 121.128 11.157C121 10.7311 120.915 10.3478 120.787 9.92195C118.871 10.3904 116.997 10.6459 115.038 10.6459C114.229 10.6459 114.229 11.8809 115.038 11.9235C117.252 12.0087 119.382 11.7532 121.554 11.157C122.235 10.944 122.107 9.83677 121.383 9.92195C118.317 10.2201 115.251 10.5182 112.185 10.8163C111.375 10.9014 111.375 12.0087 112.185 12.0939C114.995 12.392 117.678 12.0939 120.319 11.2421C121 11.0292 120.872 10.0071 120.148 10.0071C116.826 9.87936 113.59 11.0292 110.268 10.9014V12.179C113.803 11.9235 117.252 11.3273 120.659 10.3904C121.468 10.1775 121.128 9.02762 120.319 9.15538C117.593 9.58125 114.91 9.96453 112.185 9.87936V11.157C115.421 11.0718 118.658 10.9866 121.894 10.9014C122.15 10.9014 122.448 10.6885 122.491 10.433C122.916 8.04813 124.237 3.83204 121.298 2.59702C120.872 2.42667 120.532 2.85254 120.489 3.19323C120.404 4.2579 120.532 5.06705 120.915 6.04655C121.085 6.515 121.809 6.72794 122.065 6.2169C122.661 4.98188 122.32 3.74686 121.085 3.02289C120.574 2.72478 120.021 3.19323 120.148 3.74686C120.404 4.98188 120.915 5.91878 121.724 6.89828C122.107 7.36674 122.789 6.94087 122.831 6.42983C122.959 5.06705 121.767 1.02131 119.595 2.25632C117.636 3.40617 120.233 8.04813 120.872 9.36832C121.128 9.92195 121.852 9.66643 122.022 9.19797C122.959 6.77052 123.385 4.21531 121.426 2.21373C121.043 1.83045 120.276 2.08598 120.319 2.68219C120.489 5.06705 120.659 7.4945 120.83 9.87936C120.872 10.5607 121.98 10.8163 122.065 10.0497C122.405 7.70743 122.661 5.45033 121.979 3.10806C121.809 2.55443 121.128 2.51184 120.83 2.93771C119.509 4.81153 119.765 7.92036 119.552 10.0923C119.467 10.8589 120.574 10.9014 120.787 10.2626C121.511 8.21848 121.809 6.1743 121.724 4.00238C121.681 3.2784 120.659 3.10806 120.489 3.83203C119.893 6.00396 119.339 8.1333 118.743 10.3052C118.53 11.1144 119.68 11.4125 119.978 10.6459C120.744 8.68693 122.789 4.93929 121.085 2.9803C120.915 2.76736 120.532 2.72478 120.319 2.89512C117.976 4.42825 117.55 7.87778 117.039 10.3904C116.912 11.0718 117.849 11.5402 118.189 10.9014C119.339 8.81469 121.383 5.45033 120.106 3.06547C119.893 2.72477 119.382 2.6396 119.084 2.93771C117.039 5.06705 115.932 7.57967 115.762 10.5182C115.719 11.0292 116.486 11.4125 116.869 10.9866C118.615 8.89986 119.722 6.55759 120.233 3.91721C120.319 3.40616 119.935 3.06547 119.467 3.15064C116.273 3.6191 114.74 8.1333 114.527 10.9014C114.484 11.4551 115.251 11.7532 115.634 11.3699C117.295 9.36832 119.765 6.2169 118.913 3.44875C118.785 3.06547 118.317 2.80995 117.976 3.06547C115.166 5.02446 113.462 7.87778 113.079 11.2847C112.994 11.8809 113.803 12.0513 114.186 11.7532C116.784 9.58125 118.274 6.64276 118.658 3.32099C118.7 2.89512 118.232 2.59701 117.849 2.72477C114.356 3.83203 112.057 7.06863 112.27 10.7311C112.312 11.2847 112.951 11.5828 113.377 11.1996C114.356 10.2201 119.467 3.2784 116.273 2.51184C114.953 2.17115 113.462 4.21531 112.823 5.06705C111.503 6.81311 110.822 8.81469 110.566 10.9866C110.481 11.668 111.461 11.7958 111.759 11.3273C113.292 9.02763 114.101 6.47241 114.229 3.70427C114.229 3.2784 113.803 2.9803 113.42 3.10806C111.673 3.57651 110.609 4.85412 110.183 6.60017C109.885 7.70743 109.587 9.79418 110.779 10.5182C111.929 11.2421 112.866 9.96453 113.505 9.19797C114.867 7.62226 115.975 5.91879 116.315 3.83203C116.401 3.36358 115.89 2.72478 115.379 3.10806C112.823 5.06705 111.375 7.75002 111.162 10.944C111.12 11.4977 111.886 11.7532 112.27 11.4125C113.292 10.3904 118.743 3.66169 115.804 2.55443C114.484 2.04339 113.079 4.17273 112.483 5.02446C111.162 6.89828 110.524 8.98503 110.311 11.2421C110.268 11.8383 111.035 12.0513 111.418 11.7106C113.803 9.49608 115.208 6.72793 115.549 3.49134C115.591 3.10806 115.123 2.76736 114.74 2.89512C111.503 4.04497 110.098 7.75002 109.629 10.9014C109.544 11.4977 110.226 12.0513 110.694 11.5402C111.716 10.4756 116.571 3.78944 113.59 2.93771C112.227 2.55443 110.737 4.8967 110.14 5.83361C109.033 7.53708 108.522 9.49608 108.437 11.4977C108.394 12.0087 109.161 12.392 109.544 11.9661C111.162 9.96453 114.314 5.70585 112.568 3.02289C112.312 2.63961 111.886 2.6396 111.546 2.89512C108.905 5.10964 107.372 8.17589 107.074 11.6254C107.031 12.179 107.798 12.4346 108.181 12.0939C110.438 9.83677 111.588 6.98346 111.546 3.83203C111.546 3.36358 110.992 3.02288 110.566 3.2784C107.543 5.15222 105.839 8.26106 105.796 11.7958C105.796 12.3494 106.52 12.6475 106.904 12.2642C108.522 10.5607 109.842 8.51658 110.396 6.2169C110.651 5.2374 110.822 3.32099 109.246 3.40616C107.585 3.49134 105.839 6.38724 105.243 7.66484C104.604 9.1128 103.923 10.9866 105.073 12.3068C105.285 12.5623 105.754 12.5197 105.967 12.3068C107.67 10.6459 108.948 8.55917 109.416 6.2169C109.629 5.15223 109.714 3.36358 108.181 3.36358C106.563 3.36358 104.817 5.74844 104.178 6.98345C103.156 8.81469 102.901 10.8163 103.241 12.8604C103.326 13.3715 104.008 13.4566 104.306 13.1585C106.222 11.2847 107.628 8.94245 108.224 6.30207C108.479 5.15222 108.82 3.19323 107.117 3.23582C104.178 3.32099 100.132 10.6885 102.901 12.6049C103.114 12.7327 103.369 12.6901 103.539 12.6049C105.03 11.8809 110.311 4.72635 107.074 3.78944C105.711 3.36358 104.178 5.66327 103.667 6.64276C102.688 8.474 102.475 10.4756 102.943 12.4346C103.028 12.903 103.71 13.0734 104.008 12.7327C106.009 10.6033 108.692 6.81311 107.543 3.78944C107.415 3.40616 106.989 3.19323 106.606 3.40616C103.582 5.2374 102.177 8.68693 102.986 12.0939C103.114 12.5623 103.71 12.6901 104.05 12.392C105.754 10.7311 106.691 8.64434 107.117 6.30207C107.287 5.27999 107.67 3.40616 106.35 2.9803C104.945 2.55443 103.625 4.93929 103.156 5.96137C102.304 7.7926 102.177 9.79418 102.645 11.7958C102.773 12.2642 103.369 12.4346 103.71 12.0939C105.839 9.79418 106.691 6.89828 106.095 3.83203C106.009 3.49134 105.626 3.32099 105.328 3.40616C102.006 4.21531 101.666 8.89986 102.219 11.6254C102.347 12.2216 103.114 12.179 103.369 11.7958C104.476 10.2201 105.2 8.47399 105.371 6.515C105.456 5.57809 105.711 3.6191 104.434 3.2784C103.156 2.93771 102.39 4.81153 102.006 5.70585C101.112 7.70743 100.899 9.83677 101.155 12.0087C101.24 12.6049 102.006 12.9456 102.347 12.3494C103.667 10.0497 104.774 6.60017 103.582 4.04497C103.497 3.83203 103.241 3.70427 103.028 3.74686C99.8769 3.78945 100.047 9.79418 100.601 11.7958C100.729 12.3068 101.495 12.4346 101.751 11.9661C102.943 9.87936 103.71 6.81311 102.688 4.47083C101.964 2.80995 100.643 3.57651 99.8343 4.81153C98.6845 6.60018 97.9605 9.96453 99.1103 11.9235C100.005 13.4566 101.155 12.3068 101.793 11.157C102.56 9.7516 103.795 6.30207 102.517 4.81153C101.367 3.49134 99.8769 5.32257 99.2381 6.25948C98.2586 7.75002 97.3217 10.4756 98.5567 12.0939C99.4936 13.3289 101.197 13.0734 101.708 11.668C101.921 11.157 101.367 10.8163 100.942 10.9014C100.047 11.0292 99.3233 11.2847 98.5567 11.7532C98.7696 12.1365 98.9826 12.4772 99.1955 12.8604C100.09 12.179 100.686 11.4125 101.112 10.3478C101.367 9.70901 100.473 9.36832 100.047 9.70901C99.7917 9.83677 99.5788 9.96453 99.3233 10.0923C99.5788 10.3904 99.7917 10.7311 100.047 11.0292C101.197 9.15538 102.347 7.23898 103.497 5.36516C103.88 4.76894 102.943 4.00238 102.475 4.5986C100.942 6.515 99.3659 8.47399 97.8327 10.3904C98.1734 10.6459 98.5141 10.9014 98.8548 11.157C99.7066 9.15538 100.558 7.19639 101.41 5.19481C101.666 4.59859 100.899 3.78944 100.388 4.42825C99.7491 5.23739 99.1103 6.04655 98.4289 6.8557C98.7696 7.11122 99.1103 7.36673 99.451 7.62226C100.09 6.60017 100.558 5.57809 100.942 4.42825C101.112 3.83203 100.26 3.2784 99.8769 3.78944C99.0252 4.85411 98.216 5.96137 97.3643 7.02604C97.705 7.28156 98.0457 7.53709 98.3864 7.79261C98.94 6.55759 99.451 5.32257 100.005 4.08756C100.345 3.36358 99.3233 2.72478 98.8974 3.44875C98.4289 4.21532 97.9605 4.98188 97.492 5.74844C96.9384 5.49292 98.0457 6.13172 98.4715 5.40774Z" fill="#E8E8E8"/>
<path d="M121.596 1.78869C121.596 3.23665 121.639 4.72719 121.681 6.17514C121.724 7.23982 122.192 9.49692 121.511 10.3061C121.085 10.8171 121.639 11.7114 122.278 11.3282C122.576 11.1152 122.661 11.0726 122.916 10.8171C123.172 10.4764 123.129 9.8802 122.618 9.75244C121.852 9.58209 121.298 9.5821 120.532 9.83762C119.765 10.0931 120.063 11.3282 120.872 11.0726C121.341 11.03 121.809 11.0301 122.278 10.9875C122.192 10.6468 122.107 10.2635 121.979 9.92279C121.852 10.0506 121.724 10.1357 121.639 10.2635C121.894 10.6042 122.15 10.9449 122.405 11.2856C123.342 10.1783 123.087 9.41175 123.002 7.92121C122.916 5.91963 122.874 3.87545 122.874 1.87387C122.874 0.936955 121.596 0.936956 121.596 1.78869Z" fill="#E8E8E8"/>
<path d="M58.6102 38.8809C76.1134 37.9014 93.6592 37.5182 111.205 37.7311C112.014 37.7311 112.014 36.4535 111.205 36.4535C93.6592 36.2406 76.1134 36.6239 58.6102 37.6033C57.8011 37.6459 57.8011 38.9235 58.6102 38.8809Z" fill="#E8E8E8"/>
<path d="M60.8673 50.5507C73.4304 49.2305 86.0362 48.5491 98.6419 48.5491C99.4511 48.5491 99.4511 47.2715 98.6419 47.2715C86.0362 47.2715 73.4304 47.9103 60.8673 49.2731C60.0581 49.3582 60.0156 50.6358 60.8673 50.5507Z" fill="#E8E8E8"/>
<path d="M62.0172 72.3126C78.7964 70.5665 95.6182 69.587 112.483 69.4593C113.292 69.4593 113.292 68.1816 112.483 68.1816C95.6182 68.3094 78.7964 69.2889 62.0172 71.035C61.208 71.1201 61.208 72.3978 62.0172 72.3126Z" fill="#E8E8E8"/>
<path d="M130.923 130.571C122.661 127.377 117.763 118.221 118.573 109.533C119.424 100.718 125.983 93.1798 133.861 89.6451C139.27 87.2177 145.232 86.7066 150.555 89.5599C154.729 91.7745 158.306 95.1814 160.819 99.1846C166.057 107.532 165.674 117.625 160.137 125.801C156.816 130.699 150.555 132.104 145.062 132.956C139.61 133.808 133.861 133.51 129.262 130.145C128.58 129.677 127.942 130.784 128.623 131.252C132.882 134.361 138.12 135 143.23 134.489C148.298 133.978 154.303 132.871 158.391 129.634C162.437 126.44 164.865 120.393 165.716 115.453C166.525 110.726 165.631 105.956 163.63 101.612C159.158 91.9448 148.852 84.194 137.907 86.877C128.453 89.1767 120.106 96.7997 117.806 106.382C115.336 116.56 120.659 127.931 130.539 131.764C131.349 132.104 131.689 130.869 130.923 130.571Z" fill="#E8E8E8"/>
<path d="M139.909 87.0903C140.42 94.9688 140.931 102.847 141.484 110.726C141.527 111.535 142.805 111.535 142.762 110.726C142.251 102.847 141.74 94.9688 141.186 87.0903C141.144 86.2811 139.866 86.2811 139.909 87.0903Z" fill="#E8E8E8"/>
<path d="M142.677 111.493C149.15 107.958 155.538 104.253 161.841 100.335C162.522 99.9095 161.883 98.8022 161.202 99.2281C154.942 103.146 148.554 106.851 142.038 110.386C141.314 110.812 141.953 111.919 142.677 111.493Z" fill="#E8E8E8"/>
<path d="M142.932 111.706C150.257 111.706 157.497 113.452 164.694 114.687C165.503 114.815 165.844 113.58 165.035 113.452C157.753 112.217 150.385 110.429 142.932 110.429C142.123 110.429 142.123 111.706 142.932 111.706Z" fill="#E8E8E8"/>
<path d="M141.825 110.854C137.737 117.625 133.648 124.354 129.517 131.125C129.092 131.849 130.199 132.488 130.625 131.764C134.713 124.992 138.801 118.264 142.932 111.492C143.358 110.811 142.251 110.13 141.825 110.854Z" fill="#E8E8E8"/>
<path d="M69.2995 171.198C87.8248 169.793 106.308 168.175 124.748 166.258C125.557 166.173 125.557 164.895 124.748 164.981C106.265 166.854 87.7822 168.515 69.2995 169.921C68.4904 170.006 68.4904 171.284 69.2995 171.198Z" fill="#E8E8E8"/>
<path d="M75.6024 139.812C76.2838 149.607 77.0078 159.445 77.6892 169.24C77.7318 170.049 79.0094 170.049 78.9668 169.24C78.2854 159.445 77.5614 149.607 76.88 139.812C76.7948 139.003 75.5172 139.003 75.6024 139.812Z" fill="#E8E8E8"/>
<path d="M76.8375 139.941C79.2649 139.515 81.6924 139.387 84.1624 139.515C83.9495 139.302 83.7365 139.089 83.5236 138.876C84.1624 148.841 85.0993 158.764 86.2492 168.644C86.3343 169.453 87.6119 169.453 87.5268 168.644C86.3343 158.764 85.44 148.799 84.8012 138.876C84.7586 138.535 84.5457 138.237 84.1624 138.237C81.5646 138.11 79.052 138.28 76.4968 138.706C75.6876 138.876 76.0709 140.111 76.8375 139.941Z" fill="#E8E8E8"/>
<path d="M90.2523 149.905C91.2318 155.825 91.828 161.83 92.041 167.834C92.0835 168.644 93.3612 168.644 93.3186 167.834C93.1056 161.702 92.5094 155.612 91.4873 149.565C91.3596 148.756 90.1245 149.096 90.2523 149.905Z" fill="#E8E8E8"/>
<path d="M91.7855 150.545C94.2555 150.545 96.683 150.417 99.1104 150.076C98.8975 149.863 98.6845 149.65 98.4716 149.437C99.0678 155.357 99.7066 161.234 100.303 167.154C100.388 167.963 101.666 167.963 101.58 167.154C100.984 161.234 100.345 155.357 99.7492 149.437C99.7066 149.139 99.4937 148.756 99.1104 148.799C96.683 149.097 94.2129 149.267 91.7855 149.267C90.9763 149.267 90.9763 150.545 91.7855 150.545Z" fill="#E8E8E8"/>
<path d="M105.413 139.728C106.435 148.927 107.074 158.125 107.33 167.409C107.372 168.219 108.65 168.219 108.607 167.409C108.309 158.168 107.67 148.927 106.691 139.728C106.606 138.919 105.328 138.919 105.413 139.728Z" fill="#E8E8E8"/>
<path d="M106.052 140.238C107.415 140.323 108.82 140.366 110.183 140.451C112.099 140.536 112.142 140.579 112.184 142.495C112.312 145.263 112.44 147.989 112.61 150.757C112.994 156.038 113.59 161.276 114.569 166.472C114.74 167.281 115.932 166.94 115.804 166.131C114.569 159.573 113.973 152.887 113.632 146.2C113.547 144.667 113.505 143.177 113.419 141.644C113.377 141.047 113.462 140.153 112.994 139.642C112.483 139.131 111.588 139.216 110.949 139.173C109.289 139.088 107.67 139.003 106.009 138.918C105.243 138.918 105.243 140.196 106.052 140.238Z" fill="#E8E8E8"/>
<path d="M122.618 180.27C139.057 179.121 155.453 177.034 171.636 174.01C172.445 173.84 172.104 172.647 171.295 172.775C155.197 175.799 138.929 177.843 122.618 178.993C121.767 179.035 121.767 180.313 122.618 180.27Z" fill="#E8E8E8"/>
<path d="M147.659 172.136C154.644 171.412 161.671 170.688 168.655 169.964C169.464 169.879 169.464 168.602 168.655 168.687C161.671 169.411 154.644 170.135 147.659 170.859C146.85 170.944 146.85 172.221 147.659 172.136Z" fill="#E8E8E8"/>
<path d="M159.584 163.619C162.778 163.491 166.014 163.363 169.208 163.236C170.017 163.193 170.017 161.915 169.208 161.958C166.014 162.086 162.778 162.214 159.584 162.341C158.732 162.384 158.732 163.662 159.584 163.619Z" fill="#E8E8E8"/>
<path d="M125.855 20.3993C126.664 22.7415 127.005 25.1264 126.877 27.5964C126.834 28.4056 128.112 28.4056 128.155 27.5964C128.282 24.9986 127.942 22.5286 127.09 20.0586C126.792 19.292 125.557 19.6327 125.855 20.3993Z" fill="#E8E8E8"/>
<path d="M126.92 20.5267C138.631 19.3342 150.342 18.5677 162.096 18.1844C162.906 18.1418 162.906 16.8642 162.096 16.9068C150.342 17.2901 138.588 18.0566 126.92 19.2491C126.11 19.3342 126.11 20.6119 126.92 20.5267Z" fill="#E8E8E8"/>
<path d="M128.155 28.2777C139.823 27.426 151.45 26.5742 163.119 25.7225C163.928 25.6799 163.928 24.4023 163.119 24.4449C151.45 25.2966 139.823 26.1484 128.155 27.0001C127.346 27.0427 127.346 28.3203 128.155 28.2777Z" fill="#E8E8E8"/>
<path d="M162.267 18.3976C162.65 21.038 163.033 23.6358 163.417 26.2762C163.544 27.0853 164.779 26.7446 164.652 25.9355C164.268 23.2951 163.885 20.6973 163.502 18.0569C163.374 17.2478 162.139 17.5884 162.267 18.3976Z" fill="#E8E8E8"/>
<path d="M368.217 53.0634C368.26 54.6817 368.345 56.2574 368.558 57.8757C368.685 58.6848 369.963 58.6848 369.835 57.8757C369.622 56.3 369.495 54.6817 369.495 53.0634C369.495 52.2543 368.217 52.2543 368.217 53.0634Z" fill="#E8E8E8"/>
<path d="M369.154 53.7019H451.815C452.624 53.7019 452.624 52.4243 451.815 52.4243C424.261 52.4243 396.708 52.4243 369.154 52.4243C368.345 52.4243 368.345 53.7019 369.154 53.7019Z" fill="#E8E8E8"/>
<path d="M451.049 53.5748V56.3856C451.049 57.1948 452.326 57.1948 452.326 56.3856C452.326 55.4487 452.326 54.5118 452.326 53.5748C452.326 52.7231 451.049 52.7231 451.049 53.5748Z" fill="#E8E8E8"/>
<path d="M369.921 58.344H451.517C452.326 58.344 452.326 57.0664 451.517 57.0664C424.304 57.0664 397.091 57.0664 369.921 57.0664C369.069 57.0664 369.069 58.344 369.921 58.344Z" fill="#E8E8E8"/>
<path d="M369.793 38.3712C370.857 43.1836 371.752 48.0385 372.476 52.8934C372.603 53.7025 373.838 53.3618 373.711 52.5527C372.944 47.6978 372.05 42.8429 371.028 38.0305C370.815 37.2214 369.622 37.5621 369.793 38.3712Z" fill="#E8E8E8"/>
<path d="M370.559 38.286C376.138 38.4563 381.973 39.1377 387.551 38.4563C388.361 38.3712 388.361 37.0935 387.551 37.1787C381.973 37.8601 376.138 37.1787 370.559 37.0084C369.75 36.9658 369.75 38.2434 370.559 38.286Z" fill="#E8E8E8"/>
<path d="M386.913 38.7114C386.316 43.3107 385.763 47.9101 385.167 52.5521C385.081 53.3612 386.359 53.3612 386.444 52.5521C387.04 47.9527 387.594 43.3533 388.19 38.7114C388.275 37.9022 386.998 37.9022 386.913 38.7114Z" fill="#E8E8E8"/>
<path d="M376.905 36.8807C376.053 36.4974 375.031 36.1141 374.392 35.4327C373.285 34.3254 373.37 32.8349 373.2 31.387C372.944 29.4705 371.879 27.7671 371.752 25.8081C371.411 25.9784 371.113 26.1913 370.772 26.3617C374.733 28.9169 378.225 32.5368 378.097 37.5621C378.055 38.3712 379.332 38.3712 379.375 37.5621C379.545 32.0683 375.755 28.0652 371.411 25.2544C371.028 24.9989 370.432 25.3396 370.432 25.8081C370.517 26.9579 370.857 27.98 371.241 29.0873C371.794 30.6204 371.794 32.1109 372.092 33.6866C372.561 36.0289 374.179 37.051 376.223 37.9879C376.99 38.286 377.629 37.2214 376.905 36.8807Z" fill="#E8E8E8"/>
<path d="M378.14 31.4296C377.671 28.193 379.801 25.0841 380.993 22.2308C381.93 19.9737 382.611 17.674 382.484 15.204C382.058 15.2465 381.632 15.3317 381.249 15.3743C382.824 22.7419 384.783 29.7261 381.419 36.9659C381.078 37.6899 382.185 38.3712 382.526 37.6047C384.059 34.2829 384.868 30.7056 384.698 27.0431C384.485 22.9974 383.335 18.9942 382.484 15.0336C382.356 14.3096 381.206 14.48 381.249 15.204C381.504 21.1235 376.053 25.8933 376.947 31.7703C377.032 32.5794 378.267 32.2387 378.14 31.4296Z" fill="#E8E8E8"/>
<path d="M398.965 6.77162C399.476 22.2732 399.646 37.7323 399.348 53.2339C399.348 54.043 400.625 54.043 400.625 53.2339C400.881 37.7323 400.753 22.2306 400.242 6.77162C400.242 5.91988 398.965 5.91988 398.965 6.77162Z" fill="#E8E8E8"/>
<path d="M399.944 6.98443C401.775 5.45131 404.884 6.1327 406.928 6.77149C407.695 7.02701 408.036 5.79201 407.269 5.53649C404.671 4.72734 401.264 4.2163 399.05 6.09011C398.411 6.60115 399.305 7.49547 399.944 6.98443Z" fill="#E8E8E8"/>
<path d="M406.417 6.77162C406.503 22.0603 406.588 37.3064 406.673 52.5951C406.673 53.4043 407.951 53.4043 407.951 52.5951C407.865 37.3064 407.78 22.0603 407.695 6.77162C407.695 5.91988 406.417 5.91988 406.417 6.77162Z" fill="#E8E8E8"/>
<path d="M400.881 17.0779C402.585 15.6725 405.097 15.8002 406.673 17.2908C407.269 17.8444 408.164 16.9501 407.567 16.3965C405.438 14.3949 402.201 14.3523 399.987 16.1835C399.348 16.6946 400.242 17.5889 400.881 17.0779Z" fill="#E8E8E8"/>
<path d="M400.328 12.1795C402.201 10.5612 404.884 10.5186 406.843 12.0091C407.525 12.5202 408.121 11.3703 407.482 10.9019C405.012 9.07063 401.69 9.32615 399.391 11.2852C398.794 11.8388 399.731 12.7331 400.328 12.1795Z" fill="#E8E8E8"/>
<path d="M407.738 17.7165C409.654 17.7165 411.528 17.9295 413.402 18.3979C413.231 18.185 413.104 17.9721 412.933 17.8017C413.189 29.3002 413.061 40.7561 412.465 52.2545C412.422 53.0637 413.7 53.0637 413.742 52.2545C414.339 40.7986 414.466 29.3002 414.211 17.8017C414.211 17.5462 413.998 17.2481 413.742 17.2055C411.741 16.6944 409.782 16.4815 407.738 16.4815C406.886 16.4389 406.886 17.7165 407.738 17.7165Z" fill="#E8E8E8"/>
<path d="M408.036 29.8112C409.739 28.704 411.783 28.6614 413.529 29.6835C414.253 30.1093 414.892 29.0021 414.168 28.5762C412.039 27.2986 409.441 27.3412 407.397 28.704C406.716 29.1298 407.354 30.2371 408.036 29.8112Z" fill="#E8E8E8"/>
<path d="M407.823 23.7204C409.313 22.9964 411.017 22.9538 412.55 23.5926C413.317 23.8907 413.955 22.826 413.189 22.4853C411.187 21.6336 409.143 21.6762 407.184 22.6131C406.46 22.9964 407.099 24.1037 407.823 23.7204Z" fill="#E8E8E8"/>
<path d="M417.022 52.3818C417.022 51.6578 416.553 49.0174 416.979 48.5064C417.575 47.7824 420.854 48.038 421.706 47.9954C424.645 47.825 427.626 47.6973 430.564 47.6547C436.484 47.5695 442.403 47.7824 448.28 48.2509C448.067 48.0379 447.855 47.825 447.642 47.6121C447.897 49.5285 448.025 51.4449 447.982 53.4039C447.982 54.213 449.26 54.213 449.26 53.4039C449.26 51.4449 449.175 49.5285 448.919 47.6121C448.877 47.2288 448.664 47.0159 448.28 46.9733C440.998 46.4197 433.631 46.2493 426.348 46.5048C424.645 46.5474 422.984 46.6326 421.28 46.7603C420.045 46.8455 417.746 46.59 416.596 47.1436C414.935 47.9102 415.701 51.019 415.744 52.4244C415.744 53.1909 417.022 53.2335 417.022 52.3818Z" fill="#E8E8E8"/>
<path d="M421.408 46.5472C421.323 46.0787 420.897 44.6733 420.982 44.2049C421.28 42.9273 422.515 43.2254 423.452 43.2254C424.985 43.1828 426.561 43.1828 428.094 43.1402C431.331 43.0976 434.567 43.0125 437.847 42.9699C440.955 42.9273 444.064 42.8421 447.173 42.7995C448.877 42.7569 450.58 42.7569 452.241 42.7143C453.433 42.7143 454.115 42.2885 454.498 43.8216C454.668 44.503 454.541 45.3973 454.498 46.0787C454.455 46.8879 455.733 46.8879 455.776 46.0787C455.818 44.9715 456.159 42.7995 455.265 41.8626C454.455 41.0535 452.795 41.4367 451.815 41.4793C447.003 41.5645 442.233 41.6497 437.421 41.7348C432.779 41.82 428.094 41.9052 423.452 41.9904C422.515 41.9904 420.514 41.6071 419.832 42.4588C419.023 43.4383 420.003 45.8658 420.173 46.9304C420.343 47.697 421.578 47.3563 421.408 46.5472Z" fill="#E8E8E8"/>
<path d="M448.025 48.208C449.941 48.2506 451.9 48.2932 453.817 48.1654C454.753 48.0802 455.69 47.7395 455.605 46.6323C455.52 45.8231 454.242 45.8231 454.328 46.6323C454.37 47.1007 448.578 46.973 448.025 46.9304C447.216 46.8878 447.216 48.1654 448.025 48.208Z" fill="#E8E8E8"/>
<path d="M425.156 42.2463C425.113 41.5223 424.9 40.5428 424.985 39.8188C425.071 38.9671 424.858 38.8393 425.837 38.7116C427.2 38.5412 428.946 39.0097 430.309 39.0948C433.162 39.3078 436.058 39.4355 438.911 39.4781C441.765 39.5207 444.66 39.5207 447.514 39.3929C448.791 39.3504 450.324 39.0097 451.602 39.18C452.198 38.9245 452.667 39.0948 452.965 39.6485C453.433 39.8614 453.604 40.2447 453.561 40.7131C453.689 41.0538 453.731 41.4797 453.859 41.863C454.157 42.6295 455.392 42.2888 455.094 41.5223C454.711 40.5854 454.966 39.18 454.2 38.3709C453.518 37.6469 452.539 37.8172 451.602 37.8598C447.386 38.0728 443.127 38.2005 438.911 38.1579C434.823 38.0728 430.735 37.8598 426.646 37.4766C425.794 37.3914 424.474 37.0507 423.878 37.9024C423.197 38.9245 423.793 41.0964 423.878 42.2037C423.963 43.0554 425.241 43.0554 425.156 42.2463Z" fill="#E8E8E8"/>
<path d="M457.82 84.4076V103.359C457.82 104.168 459.097 104.168 459.097 103.359C459.097 97.056 459.097 90.7105 459.097 84.4076C459.097 83.5985 457.82 83.5985 457.82 84.4076Z" fill="#E8E8E8"/>
<path d="M458.884 84.407H492.102C492.911 84.407 492.911 83.1294 492.102 83.1294C481.03 83.1294 469.957 83.1294 458.884 83.1294C458.075 83.1294 458.075 84.407 458.884 84.407Z" fill="#E8E8E8"/>
<path d="M491.506 83.9809V102.932C491.506 103.741 492.784 103.741 492.784 102.932C492.784 96.6292 492.784 90.2838 492.784 83.9809C492.784 83.1717 491.506 83.1717 491.506 83.9809Z" fill="#E8E8E8"/>
<path d="M458.459 104.423H491.676C492.486 104.423 492.486 103.145 491.676 103.145C480.604 103.145 469.531 103.145 458.459 103.145C457.649 103.145 457.649 104.423 458.459 104.423Z" fill="#E8E8E8"/>
<path d="M472.938 83.1284C472.938 82.0211 473.023 80.999 473.321 79.9344C473.449 79.4659 473.62 78.7419 473.918 78.4012C474.045 77.9754 474.344 77.8476 474.855 78.018C475.536 77.7198 475.877 77.9328 475.919 78.6993C476.43 80.488 476.515 82.5322 476.771 84.406C476.899 85.2151 478.134 84.8744 478.006 84.0653C477.75 82.1915 477.665 80.1899 477.154 78.3586C476.899 77.3366 476.132 76.2719 474.982 76.1867C472.129 76.0164 471.618 81.212 471.618 83.1284C471.703 83.9375 472.981 83.9375 472.938 83.1284Z" fill="#E8E8E8"/>
<path d="M459.907 87.1752V101.229C459.907 102.038 461.184 102.038 461.184 101.229C461.184 96.5444 461.184 91.8598 461.184 87.1752C461.184 86.3661 459.907 86.3661 459.907 87.1752Z" fill="#E8E8E8"/>
<path d="M461.227 87.1756H490.186C490.995 87.1756 490.995 85.8979 490.186 85.8979C480.519 85.8979 470.851 85.8979 461.227 85.8979C460.418 85.8979 460.418 87.1756 461.227 87.1756Z" fill="#E8E8E8"/>
<path d="M489.377 86.7494V101.655C489.377 102.464 490.654 102.464 490.654 101.655C490.654 96.6722 490.654 91.7321 490.654 86.7494C490.654 85.9403 489.377 85.9403 489.377 86.7494Z" fill="#E8E8E8"/>
<path d="M460.801 101.867H488.482C489.292 101.867 489.292 100.59 488.482 100.59C479.241 100.59 470 100.59 460.801 100.59C459.992 100.59 459.992 101.867 460.801 101.867Z" fill="#E8E8E8"/>
<path d="M461.993 96.2038C462.93 94.841 463.782 94.5429 464.506 95.2243C464.634 95.3095 464.719 95.3947 464.847 95.4799C465.145 95.6076 465.358 95.8205 465.656 95.9057C466.167 96.0761 466.763 96.0335 467.274 95.8205C467.657 95.6502 467.998 95.3521 468.126 94.9262C468.339 94.2448 467.828 94.1171 467.785 93.5208C467.572 93.2653 467.657 93.0098 468.041 92.6691C468.126 91.6896 468.722 91.4767 469.744 92.0729C470 92.0729 470.255 92.1581 470.468 92.1155C471.235 91.9877 471.32 91.7322 471.874 91.2637C473.662 89.8158 475.664 90.5398 476.132 92.8395C476.175 93.1376 476.388 95.0966 476.047 95.3095C475.706 94.8836 475.366 94.5003 475.025 94.0745C476.132 94.2448 476.941 94.841 477.41 95.778C477.665 96.2038 478.219 96.1612 478.517 95.778C479.369 94.8836 480.221 94.841 481.072 95.6928C481.37 95.3947 481.668 95.0966 481.967 94.7985C481.626 94.5003 481.328 94.2022 480.987 93.9041C479.88 92.9672 479.965 91.9025 481.285 90.6675C483.074 90.7527 484.011 92.4988 483.244 94.0745C482.265 95.9909 479.922 96.2464 478.006 96.0761V97.3537C480.774 97.524 483.585 97.6944 486.353 97.8647C487.162 97.9073 487.162 96.6297 486.353 96.5871C483.585 96.4168 480.774 96.2464 478.006 96.0761C477.197 96.0335 477.197 97.2685 478.006 97.3537C480.221 97.5666 482.648 97.1407 484.053 95.1817C485.161 93.606 485.075 91.2211 483.457 89.9861C482.222 89.0492 480.348 89.2196 479.326 90.4546C477.793 92.371 479.582 94.4578 481.03 95.7354C481.626 96.289 482.52 95.4373 481.924 94.841C480.561 93.3931 478.475 93.6486 477.367 95.1817H478.474C477.41 93.4357 475.408 92.1581 473.407 93.2227C471.874 94.0745 471.32 96.289 472.725 97.5666C474.173 98.8868 476.26 97.8647 477.027 96.3742C477.878 94.6707 477.708 91.9877 476.473 90.4546C475.238 88.9214 473.066 88.7511 471.533 89.901C470.468 90.7101 471.107 90.8379 469.318 90.7101C468.722 90.6675 468.211 90.5398 467.615 90.7101C466.976 90.8805 466.38 91.2637 466.082 91.9025C465.869 92.371 465.784 92.7969 465.997 93.3079C466.039 93.4783 466.508 93.8615 466.465 93.9893C466.295 94.9262 463.825 93.2227 463.399 93.1376C461.482 92.8395 460.205 94.8836 460.758 96.5445C461.014 97.3111 462.249 97.013 461.993 96.2038Z" fill="#E8E8E8"/>
<path d="M498.49 60.2177V74.8676C498.49 75.6768 499.768 75.6768 499.768 74.8676C499.768 69.9701 499.768 65.1152 499.768 60.2177C499.768 59.4086 498.49 59.4086 498.49 60.2177Z" fill="#E8E8E8"/>
<path d="M499.853 60.1321H523.361C524.17 60.1321 524.17 58.8545 523.361 58.8545C515.525 58.8545 507.689 58.8545 499.853 58.8545C499.001 58.8545 499.001 60.1321 499.853 60.1321Z" fill="#E8E8E8"/>
<path d="M499.47 75.8894H522.978C523.787 75.8894 523.787 74.6118 522.978 74.6118C515.142 74.6118 507.306 74.6118 499.47 74.6118C498.661 74.6118 498.661 75.8894 499.47 75.8894Z" fill="#E8E8E8"/>
<path d="M522.722 60.048V75.0812C522.722 75.8903 524 75.8903 524 75.0812C524 70.0559 524 65.0732 524 60.048C524 59.1962 522.722 59.1962 522.722 60.048Z" fill="#E8E8E8"/>
<path d="M499.938 60.7716V74.6975C499.938 75.5066 501.216 75.5066 501.216 74.6975C501.216 70.0555 501.216 65.4136 501.216 60.7716C501.216 59.9199 499.938 59.9199 499.938 60.7716Z" fill="#E8E8E8"/>
<path d="M500.407 74.7825H522.85C523.659 74.7825 523.659 73.5049 522.85 73.5049C515.355 73.5049 507.902 73.5049 500.407 73.5049C499.555 73.5049 499.555 74.7825 500.407 74.7825Z" fill="#E8E8E8"/>
<path d="M500.747 61.0277H522.467C523.276 61.0277 523.276 59.75 522.467 59.75C515.227 59.75 507.987 59.75 500.747 59.75C499.938 59.75 499.938 61.0277 500.747 61.0277Z" fill="#E8E8E8"/>
<path d="M522.169 60.5585V73.9308C522.169 74.74 523.446 74.74 523.446 73.9308C523.446 69.4592 523.446 64.9876 523.446 60.5585C523.446 59.7494 522.169 59.7494 522.169 60.5585Z" fill="#E8E8E8"/>
<path d="M504.878 71.4186C508.413 69.7151 512.416 68.906 515.993 70.9927C516.717 71.4186 517.356 70.3113 516.632 69.8855C512.672 67.5432 508.2 68.3949 504.239 70.3113C503.473 70.652 504.154 71.7593 504.878 71.4186Z" fill="#E8E8E8"/>
<path d="M504.878 69.63C504.112 68.6931 506.071 68.395 506.326 67.8839C506.539 67.5006 506.241 66.3082 506.369 66.3508C506.752 66.436 507.178 66.1804 507.178 65.7546C507.135 63.753 509.307 66.947 509.222 66.8193C509.478 67.1174 509.733 67.4155 510.159 67.5858C510.755 67.8414 512.033 67.1599 512.374 67.4155C512.757 67.7562 513.268 67.5858 513.438 67.1174C513.779 66.9896 514.12 66.8618 514.503 66.7767C514.46 67.3303 515.227 67.6284 515.61 67.2451C516.76 68.1395 516.93 68.8634 516.079 69.3745C515.44 69.9281 516.377 70.8224 516.973 70.2688C518.08 69.3319 518.847 67.7136 517.825 66.3934C516.973 65.2861 515.568 65.3713 514.673 66.3508C515.057 66.5211 515.397 66.6489 515.781 66.8193C515.866 65.8823 515.312 65.1158 514.29 65.0306C513.183 64.9454 512.544 65.8823 512.203 66.8193C512.544 66.7341 512.927 66.6489 513.268 66.5212C512.544 65.9249 512.416 66.1804 511.607 66.1379C509.435 66.0527 510.074 64.6899 508.668 63.8808C507.263 63.0716 505.9 64.3066 505.9 65.7546C506.156 65.5416 506.454 65.3287 506.709 65.1584C506.071 65.0306 505.304 64.988 504.878 65.5416C504.41 66.1379 505.134 66.6063 504.963 67.0322C504.708 67.7136 503.473 67.5007 503.175 68.395C502.877 69.2467 503.473 70.0133 503.984 70.6095C504.495 71.2057 505.389 70.2688 504.878 69.63Z" fill="#E8E8E8"/>
<path d="M509.989 58.4289C509.733 57.8753 509.606 57.3217 509.733 56.7254C509.776 56.3422 510.117 55.1071 510.713 55.2775C511.139 55.4052 511.564 56.5125 511.65 56.8958C511.863 57.5772 511.905 58.216 511.82 58.94C511.735 59.7491 513.012 59.7491 513.097 58.94C513.225 57.7901 513.055 56.6829 512.501 55.6608C512.075 54.809 511.266 53.6592 510.159 53.9999C509.307 54.2554 508.754 55.3201 508.541 56.1292C508.285 57.1513 508.413 58.1734 508.882 59.1103C509.265 59.8343 510.329 59.1955 509.989 58.4289Z" fill="#E8E8E8"/>
<path d="M500.364 82.1505V101.698C500.364 102.507 501.642 102.507 501.642 101.698C501.642 95.1821 501.642 88.6663 501.642 82.1505C501.642 81.2988 500.364 81.2988 500.364 82.1505Z" fill="#E8E8E8"/>
<path d="M501.003 81.6819H520.806C521.615 81.6819 521.615 80.4043 520.806 80.4043C514.205 80.4043 507.604 80.4043 501.003 80.4043C500.151 80.4043 500.151 81.6819 501.003 81.6819Z" fill="#E8E8E8"/>
<path d="M520.167 81.0429V101.655C520.167 102.464 521.445 102.464 521.445 101.655C521.445 94.7985 521.445 87.8994 521.445 81.0429C521.445 80.2337 520.167 80.2337 520.167 81.0429Z" fill="#E8E8E8"/>
<path d="M501.514 103.146H520.252C521.061 103.146 521.061 101.868 520.252 101.868C513.992 101.868 507.774 101.868 501.514 101.868C500.705 101.868 500.705 103.146 501.514 103.146Z" fill="#E8E8E8"/>
<path d="M507.348 88.6664C507.05 91.1365 508.626 93.8194 511.266 94.1176C514.035 94.4157 516.079 92.2863 515.994 89.6033C515.951 88.7942 514.673 88.7942 514.716 89.6033C514.801 91.6049 513.268 93.2232 511.181 92.7974C509.265 92.4141 508.456 90.4551 508.626 88.6664C508.711 87.8573 507.434 87.8573 507.348 88.6664Z" fill="#E8E8E8"/>
<path d="M511.65 93.8188C511.565 94.415 511.948 94.8835 511.777 95.4371C511.522 96.2888 510.415 97.098 509.861 97.7368C508.924 98.844 508.243 99.9513 508.2 101.442C508.157 102.251 509.435 102.251 509.478 101.442C509.563 99.4828 511.224 98.333 512.331 96.885C512.672 96.4592 513.013 95.9907 513.14 95.4797C513.268 94.8835 512.842 94.415 512.927 93.8188C513.013 93.0096 511.735 93.0096 511.65 93.8188Z" fill="#E8E8E8"/>
<path d="M508.711 93.7765C507.221 93.6913 504.41 92.7544 505.091 90.6676C505.432 89.5604 506.837 89.5178 507.434 88.7512C508.243 87.7717 507.561 87.2181 506.923 86.4941C506.326 85.8127 505.091 85.5572 506.752 84.0667C507.689 83.2149 509.222 84.2796 509.989 84.9184C510.457 85.3443 510.542 85.8127 511.181 86.1108C511.607 86.3238 512.161 86.4089 512.629 86.2386C513.396 85.8979 514.247 83.6408 515.057 86.4515C515.142 86.7922 515.525 87.0052 515.823 86.8774C515.866 87.7717 515.908 88.6235 515.908 89.5178C515.397 90.1566 516.292 91.0509 516.803 90.4121C517.612 89.39 518.549 88.1124 517.952 86.7496C517.484 85.7276 516.462 85.3443 515.44 85.6424C515.695 85.7701 515.951 85.9405 516.206 86.0682C515.866 84.9184 515.312 83.726 513.992 83.6408C513.566 83.5982 513.183 83.6834 512.842 83.8963C512.927 83.8537 512.331 84.5351 512.331 84.5351C511.437 85.0036 511.181 84.1944 510.67 83.6834C509.776 82.7039 509.052 82.1503 507.604 82.3632C506.497 82.5335 504.921 83.3001 504.538 84.4499C504.069 85.8127 505.219 86.196 505.73 87.2181C506.284 87.431 506.284 87.6865 505.688 87.9847C505.56 88.2402 505.389 88.3679 505.176 88.4531C505.006 88.5809 504.751 88.666 504.58 88.8364C504.24 89.2197 503.984 89.603 503.814 90.0714C502.834 93.1802 506.028 94.8411 508.583 95.0115C509.52 95.0967 509.52 93.8191 508.711 93.7765Z" fill="#E8E8E8"/>
<path d="M509.18 80.9147C509.137 80.2759 508.924 79.1261 509.691 78.7428C510.5 78.3595 510.372 79.5945 510.287 80.0204C510.116 80.8296 511.352 81.1703 511.522 80.3611C511.65 79.6797 511.735 78.9132 511.394 78.2744C511.053 77.6781 510.415 77.3374 509.776 77.4226C508.03 77.6356 507.817 79.5094 507.944 80.9147C507.944 81.7239 509.222 81.7239 509.18 80.9147Z" fill="#E8E8E8"/>
<path d="M501.94 82.0226V100.803C501.94 101.613 503.217 101.613 503.217 100.803C503.217 94.5432 503.217 88.2829 503.217 82.0226C503.217 81.1709 501.94 81.1709 501.94 82.0226Z" fill="#E8E8E8"/>
<path d="M502.706 101.74H519.698C520.508 101.74 520.508 100.463 519.698 100.463C514.034 100.463 508.37 100.463 502.706 100.463C501.897 100.463 501.897 101.74 502.706 101.74Z" fill="#E8E8E8"/>
<path d="M520.167 101.271C520.167 94.713 520.167 88.112 520.167 81.5536C520.167 80.7445 518.89 80.7445 518.89 81.5536V101.271C518.89 102.081 520.167 102.081 520.167 101.271Z" fill="#E8E8E8"/>
<path d="M503.005 82.1927H519.826C520.635 82.1927 520.635 80.915 519.826 80.915C514.205 80.915 508.626 80.915 503.005 80.915C502.195 80.915 502.195 82.1927 503.005 82.1927Z" fill="#E8E8E8"/>
<path d="M265.029 312.332C262.176 310.032 258.3 309.564 255.149 311.139C251.444 313.013 249.442 317.4 250.379 321.786C251.146 327.62 251.912 333.497 252.679 339.332C237.134 346.444 229.724 351.086 230.363 353.215C231.13 355.813 243.735 354.706 268.223 349.979C267.158 337.415 266.094 324.895 265.029 312.332Z" fill="#191919"/>
<path d="M254.638 174.095C254.041 182.655 253.062 196.538 251.401 213.743C249.357 235.335 248.505 257.096 245.609 278.603C242.628 300.918 239.349 316.207 246.887 321.53C249.612 323.447 252.892 323.447 255.234 323.149C257.704 322.51 260.174 321.829 262.644 321.19C265.071 322.382 268.351 323.532 270.991 322.169C278.742 318.209 271.417 297.895 271.971 268.765C272.354 249.559 276.059 230.395 280.999 205.226C284.747 186.019 287.6 176.054 282.277 171.156C275.803 165.151 261.452 170.901 254.638 174.095Z" fill="white" stroke="#161616" stroke-width="2" stroke-miterlimit="10"/>
<path opacity="0.14" d="M266.86 170.092C268.478 177.63 270.31 189.043 270.182 202.926C269.969 225.327 264.731 239.466 260.941 256.288C257.491 271.534 254.169 293.764 255.66 322.425C257.917 321.999 260.217 321.531 262.474 321.105C262.985 321.488 265.071 322.894 267.967 322.638C268.393 322.596 271.204 322.298 273.035 320.211C275.292 317.656 274.824 313.865 274.568 312.034C273.589 304.07 273.376 296.021 272.567 288.015C271.715 279.583 271.843 273.024 271.885 269.064C271.928 266.083 272.141 260.504 273.206 251.433C275.079 235.633 276.783 232.95 280.488 209.996C283.299 192.706 282.064 195.857 283.128 191.939C284.108 188.447 285.769 183.379 284.874 176.948C284.449 173.925 283.682 172.221 282.447 170.986C279.892 168.474 276.102 168.516 273.844 168.559C270.821 168.601 268.351 169.453 266.86 170.092Z" fill="#6D6C6C"/>
<path opacity="0.1" d="M278.997 213.53C275.803 220.6 272.439 229.884 270.395 241.084C266.818 260.844 270.352 270.895 267.329 292.018C266.221 299.811 264.135 309.606 260.046 320.679C261.579 320.892 263.113 321.105 264.688 321.36C266.988 322.169 269.884 322.766 271.971 321.36C275.718 318.848 274.441 311.48 273.504 302.835C273.504 302.835 272.354 292.188 272.184 271.959C272.098 260.759 273.12 252.497 274.611 240.445C275.931 229.628 277.549 220.472 278.997 213.53Z" fill="#6D6C6C"/>
<path d="M318.774 309.095C315.92 306.795 312.045 306.327 308.893 307.903C305.188 309.776 303.187 314.163 304.124 318.549C304.89 324.384 305.657 330.261 306.423 336.095C290.879 343.207 283.469 347.849 284.108 349.978C284.874 352.576 297.48 351.469 321.968 346.742C320.86 334.179 319.796 321.658 318.774 309.095Z" fill="#191919"/>
<path d="M302.889 172.775C305.359 193.003 307.999 213.871 310.81 235.548C312.726 250.453 313.195 253.988 314.685 259.78C317.24 269.83 320.69 278.39 323.671 293.934C325.076 301.174 325.8 307.051 322.436 311.48C319.923 314.802 315.026 317.442 313.919 316.42C313.45 315.952 313.748 314.759 314.174 313.695C313.152 314.674 306.679 320.764 301.526 318.635C298.502 317.4 297.267 313.865 296.671 311.949C290.624 293.423 289.644 274.855 289.644 274.855C289.261 267.701 288.324 260.376 286.493 245.683C285.13 234.909 282.575 219.322 277.081 200.371C276.272 199.86 268.351 194.579 267.84 184.827C267.797 184.103 267.499 176.735 272.141 171.753C278.273 165.152 291.39 164.683 302.889 172.775Z" fill="white" stroke="#161616" stroke-width="2" stroke-miterlimit="10"/>
<path d="M268.521 177.885C266.988 182.314 266.562 187.297 268.989 191.513C271.076 195.133 274.441 199.093 278.529 200.371C279.296 200.627 279.636 199.392 278.87 199.136C275.122 197.986 271.971 194.196 270.097 190.874C267.84 186.956 268.351 182.357 269.756 178.226C270.054 177.459 268.819 177.119 268.521 177.885Z" fill="white"/>
<path d="M267.243 185.806C267.627 192.45 271.885 197.986 278.359 199.817C279.168 200.03 279.508 198.795 278.699 198.582C272.822 196.921 268.904 191.896 268.521 185.806C268.478 184.997 267.201 184.997 267.243 185.806Z" fill="white"/>
<path opacity="0.14" d="M286.109 167.238C287.217 170.56 288.92 175.926 290.794 182.57C296.245 201.819 305.657 235.164 306.253 275.281C306.338 281.967 306.594 315.994 309.66 316.165C310.384 316.207 311.576 314.333 313.195 314.759C314.302 315.057 314.344 316.08 315.324 316.463C317.453 317.272 320.988 313.609 322.692 310.926C323.288 309.99 324.651 307.86 324.949 304.837C325.119 303.474 324.991 302.494 324.523 299.598C323.841 295.127 323.501 292.912 323.245 291.805C321.414 283.16 318.135 274.855 315.452 263.144C314.302 258.204 313.535 253.775 312.598 248.664C312.3 247.046 311.491 242.319 310.597 236.442C308.595 222.985 307.956 213.743 306.636 201.947C305.912 195.516 304.805 186.445 303.102 175.415C302.676 174.478 301.909 173.03 300.546 171.71C300.078 171.284 298.63 169.964 294.712 168.729C292.795 168.047 289.857 167.323 286.109 167.238Z" fill="#6D6C6C"/>
<path opacity="0.2" d="M313.791 256.799C316.133 267.701 317.709 277.028 318.774 284.353C320.477 296.277 320.562 300.621 318.348 305.22C315.026 312.162 308.127 316.293 308.553 316.846C308.723 317.059 309.83 316.633 313.663 314.163C313.791 315.185 314.089 316.335 314.941 316.719C317.113 317.655 321.925 312.971 324.012 308.499C326.865 302.324 324.778 295.979 322.862 289.889C320.477 282.181 317.283 271.193 313.791 256.799Z" fill="#6D6C6C"/>
<path d="M257.15 100.377C252.977 99.8231 249.144 105.274 241.691 116.134C236.581 123.544 233.004 130.06 230.661 134.574C225.593 134.318 220.526 134.063 215.458 133.765C210.731 133.509 206.003 133.254 201.276 132.956C199.403 132.317 196.592 131.38 193.142 130.571C187.563 129.208 176.022 126.951 175.298 128.953C175.085 129.591 175.852 130.912 180.792 134.02C180.451 134.872 179.216 138.449 180.792 142.58C181.048 143.219 182.453 146.669 185.775 148.457C190.033 150.714 195.91 149.479 200.212 145.263C203.533 147.265 221.548 157.784 238.497 150.587C244.034 148.244 247.909 144.667 251.358 141.516C257.619 135.766 265.838 128.229 266.051 117.752C266.221 110.172 262.218 101.058 257.15 100.377Z" fill="white" stroke="#161616" stroke-width="2" stroke-miterlimit="10"/>
<path d="M174.958 129.463C176.619 131.124 178.237 132.913 180.111 134.318C181.942 135.681 184.029 136.447 186.158 137.171C186.754 137.384 187.01 136.447 186.413 136.235C184.156 135.468 181.984 134.616 180.111 133.083C178.492 131.763 177.087 130.23 175.639 128.782C175.213 128.356 174.532 129.037 174.958 129.463Z" fill="#161616"/>
<path d="M195.101 133.85C193.483 134.446 191.992 135.383 190.843 136.661C190.033 137.555 188.841 138.96 189.139 140.238C189.437 141.686 191.226 141.686 192.418 141.686C194.335 141.643 196.166 141.09 197.827 140.11C198.338 139.812 197.869 138.961 197.358 139.301C196.294 139.94 195.144 140.408 193.909 140.621C192.844 140.792 189.735 141.175 190.289 139.173C190.843 137.129 193.568 135.468 195.399 134.787C195.91 134.574 195.655 133.637 195.101 133.85Z" fill="#161616"/>
<path d="M180.238 134.788C179.344 137.641 179.344 140.409 182.41 141.772C184.667 142.794 187.947 142.283 189.096 139.855C189.352 139.302 188.543 138.833 188.287 139.387C187.35 141.389 184.667 141.729 182.794 140.877C180.196 139.728 180.451 137.385 181.175 135.043C181.346 134.447 180.451 134.191 180.238 134.788Z" fill="#161616"/>
<path d="M180.025 141.09C180.196 143.518 181.686 145.903 184.242 146.371C186.499 146.797 188.585 145.434 189.395 143.39C189.608 142.836 188.713 142.581 188.458 143.134C187.776 144.838 185.86 145.86 184.029 145.349C182.155 144.795 181.09 142.921 180.962 141.09C180.962 140.494 179.983 140.494 180.025 141.09Z" fill="#161616"/>
<path d="M189.224 143.858C192.546 143.262 191.439 149.182 189.011 148.969C188.415 148.926 188.415 149.863 189.011 149.948C191.055 150.118 192.163 147.606 192.29 145.902C192.418 144.029 190.8 142.666 188.969 143.006C188.373 143.049 188.628 143.943 189.224 143.858Z" fill="#161616"/>
<path d="M188.969 140.409C188.969 140.367 189.011 140.367 189.011 140.324C188.841 140.367 188.713 140.409 188.543 140.452C188.883 140.537 188.926 141.644 188.884 141.857C188.841 142.411 188.628 142.922 188.202 143.348C187.776 143.774 188.458 144.455 188.884 144.029C189.522 143.39 189.863 142.496 189.82 141.559C189.778 140.878 189.565 139.685 188.756 139.515C188.585 139.472 188.415 139.515 188.287 139.643C188.287 139.685 188.245 139.685 188.245 139.728C187.904 140.196 188.543 140.878 188.969 140.409Z" fill="#161616"/>
<path d="M186.669 137.258C187.691 137.301 188.33 138.28 188.074 139.26C187.904 139.856 188.841 140.111 189.011 139.515C189.437 137.939 188.372 136.364 186.712 136.321C186.03 136.279 186.03 137.258 186.669 137.258Z" fill="#161616"/>
<path opacity="0.12" d="M263.453 107.233C262.218 110.853 260.174 115.751 256.937 121.117C253.616 126.61 249.911 132.7 242.713 137.811C240.073 139.685 232.109 145.221 220.313 145.647C209.197 146.03 201.021 141.686 197.784 139.727C195.229 141.644 193.483 141.771 192.333 141.516C191.311 141.26 190.928 140.749 189.139 140.196C187.606 139.727 186.371 139.642 185.69 139.599C183.22 139.429 180.664 139.259 179.983 140.409C179.089 141.984 181.984 145.349 184.242 147.18C185.264 147.989 187.052 149.394 189.565 149.778C195.485 150.715 199.871 145.562 200.126 145.263C201.574 146.158 203.661 147.393 206.302 148.585C210.603 150.587 216.693 153.355 224.784 153.312C233.983 153.312 240.627 149.693 241.989 148.926C243.608 147.989 246.631 145.349 252.636 140.025C258.215 135.085 260.259 132.913 262.133 129.932C263.24 128.186 264.646 125.929 265.455 122.82C267.201 116.177 264.859 110.129 263.453 107.233Z" fill="#6D6C6C"/>
<path opacity="0.15" d="M265.71 112.344C264.901 115.155 263.496 119.116 261.068 123.502C258.811 127.59 252.849 138.109 240.201 144.582C236.453 146.499 229.98 149.736 220.994 149.565C211.029 149.352 203.874 145.094 200.85 143.049C199.147 144.114 196.592 145.477 193.27 146.371C188.841 147.521 185.647 147.138 185.562 147.777C185.477 148.415 188.543 149.778 191.737 149.693C196.208 149.565 199.36 146.627 200.51 145.434C203.448 147.564 214.436 155.059 228.83 153.142C239.945 151.652 246.972 145.392 253.147 139.855C257.746 135.724 263.07 130.827 265.114 122.65C266.179 118.477 266.008 114.814 265.71 112.344Z" fill="#6D6C6C"/>
<path d="M252.636 100.547C251.784 101.527 250.294 103.613 249.016 113.579C247.313 127.121 248.207 137.853 249.016 145.86C249.953 155.357 251.273 166.812 253.19 179.844C260.6 182.144 272.907 184.741 287.685 182.399C294.371 181.335 300.078 179.503 304.677 177.587C303.698 166.94 303.826 158.338 304.124 152.674C305.572 123.416 306.892 115.282 306.892 115.282C307.871 109.448 308.766 105.828 306.594 102.549C304.422 99.1844 300.291 98.0345 287.131 97.1828C267.158 95.82 257.108 95.2664 252.636 100.547Z" fill="#EC615B"/>
<path opacity="0.14" d="M281.382 97.2686C282.702 101.953 283.81 106.936 284.747 112.217C289.602 139.983 286.195 164.598 281.382 182.953C283.852 182.783 286.45 182.485 289.218 182.016C295.095 181.037 300.248 179.504 304.507 177.928C303.911 169.453 303.74 162.214 303.74 156.464C303.783 140.409 305.188 128.144 305.785 123.247C306.551 117.284 307.36 112.302 308.042 108.682C308.212 107.66 308.382 105.786 307.488 103.827C306.466 101.57 304.55 100.377 303.74 99.9089C300.972 98.2481 298.162 98.2481 296.628 98.2481C292.966 98.1203 288.111 97.9074 281.382 97.2686Z" fill="#6D6C6C"/>
<path opacity="0.16" d="M307.701 107.318C300.163 126.866 298.587 140.834 298.758 150.246C298.8 153.781 299.184 162.255 294.669 171.156C291.901 176.565 288.281 180.355 285.513 182.74C288.069 182.399 290.879 181.888 293.903 181.079C297.778 180.057 301.143 178.779 303.996 177.544C303.613 166.557 303.655 154.632 304.379 141.899C305.018 129.464 306.21 117.922 307.701 107.318Z" fill="#6D6C6C"/>
<path d="M301.909 100.675C307.147 98.3757 314.259 105.104 318.859 109.406C323.884 114.133 334.062 123.715 334.573 139.387C334.999 152.461 328.483 161.915 325.247 165.876C320.179 172.051 314.43 175.288 311.023 176.863C310.98 178.311 310.767 180.611 309.788 183.124C309.234 184.486 306.423 191.641 301.057 191.939C300.333 191.982 297.863 191.982 295.01 189.299C294.84 189.299 293.988 189.171 293.434 188.404C292.923 187.68 292.881 186.616 293.392 185.764C293.264 185.679 292.157 185.125 291.901 183.805C291.603 182.357 292.583 181.292 292.668 181.25C292.71 180.526 292.881 179.589 293.562 179.12C294.329 178.609 295.138 179.035 296.373 178.95C297.182 178.865 298.332 178.567 299.695 177.374C298.161 176.948 294.712 175.841 294.797 174.606C294.84 173.158 299.822 172.306 300.93 172.094C303.655 171.625 305.997 171.71 307.573 171.838C308.51 170.135 309.873 167.622 311.491 164.598C314.217 159.488 315.579 156.933 316.389 155.101C317.922 151.694 319.625 146.541 320.094 139.344C318.177 137.47 315.239 134.787 311.491 131.849C303.4 125.546 300.674 125.418 298.46 121.841C294.286 115.155 296.288 103.145 301.909 100.675Z" fill="white" stroke="#161616" stroke-width="2" stroke-miterlimit="10"/>
<path d="M292.242 180.739C292.923 184.061 298.034 183.294 300.078 182.102C300.589 181.804 300.121 180.952 299.61 181.293C298.119 182.187 293.69 183.167 293.179 180.526C293.051 179.887 292.114 180.143 292.242 180.739Z" fill="#161616"/>
<path d="M292.753 186.062C295.308 187.893 299.056 187.042 301.739 185.807C302.292 185.551 301.824 184.742 301.27 184.998C298.886 186.062 295.521 186.829 293.264 185.253C292.753 184.87 292.285 185.721 292.753 186.062Z" fill="#161616"/>
<path d="M294.67 189.81C297.31 191.088 300.376 190.917 302.804 189.214C303.315 188.873 302.846 188.021 302.335 188.405C300.206 189.895 297.523 190.151 295.181 189.001C294.627 188.703 294.116 189.512 294.67 189.81Z" fill="#161616"/>
<path opacity="0.18" d="M300.078 102.293C299.226 105.189 309.191 107.957 317.922 117.326C320.945 120.563 327.121 127.164 328.569 136.959C330.4 149.096 324.054 158.806 321.712 162.298C317.198 169.154 311.704 173.2 308.382 175.287C308.382 176.479 308.212 180.823 304.89 184.485C304.209 185.252 301.526 188.191 297.608 188.616C295.351 188.872 293.307 188.233 293.221 188.489C293.179 188.744 294.754 189.085 296.799 190.49C298.119 191.385 298.161 191.768 298.8 192.066C301.441 193.301 305.614 189.553 306.083 189.17C310.426 185.209 310.938 179.332 311.023 177.161C312.002 176.607 313.322 175.84 314.856 174.818C316.431 173.754 321.073 170.687 324.736 166.642C325.715 165.577 330.698 159.913 333.125 150.842C333.977 147.648 336.319 138.406 332.572 128.313C330.911 123.927 328.781 121.074 324.949 116.091C321.542 111.619 319.029 109.405 314.174 105.104C310.682 101.995 308.595 100.547 305.785 100.376C303.868 100.249 300.546 100.717 300.078 102.293Z" fill="#6D6C6C"/>
<path opacity="0.18" d="M329.25 121.798C330.698 125.376 332.785 131.891 332.487 140.196C332.188 149.224 329.25 155.783 328.1 158.04C322.819 168.687 314.472 174.393 310.384 176.778C313.706 175.543 318.518 173.201 323.075 168.814C336.405 155.953 334.446 137.811 334.275 136.533C333.509 130.145 331.209 125.163 329.25 121.798Z" fill="#6D6C6C"/>
<path d="M280.445 67.8832C283.001 76.4431 283.938 81.4258 287.557 89.2618C289.261 92.9243 290.879 95.8202 292.029 97.7366C288.324 99.4827 282.319 101.74 274.611 102.038C270.054 102.208 266.136 101.612 263.113 100.931C263.411 98.5883 263.581 95.6498 263.368 92.3281C263.07 88.1545 262.176 84.6198 261.324 82.022C257.236 81.511 253.105 80.9574 249.016 80.4463C248.207 78.6577 247.398 76.8264 246.589 75.0378C245.482 74.9952 244.332 74.9526 243.224 74.91C244.076 72.44 245.354 68.5646 246.844 63.7523C249.612 54.6812 249.57 53.4036 251.06 51.3595C255.191 45.7806 264.433 42.2033 270.523 45.227C274.143 46.973 276.272 53.9573 280.445 67.8832Z" fill="white" stroke="#161616" stroke-width="2" stroke-miterlimit="10"/>
<path d="M243.31 75.592C245.439 75.6346 247.526 75.4643 249.612 75.1662C250.422 75.0384 250.081 73.8034 249.272 73.9311C247.27 74.2292 245.311 74.357 243.31 74.3144C242.5 74.3144 242.5 75.592 243.31 75.592Z" fill="#161616"/>
<path d="M242.5 59.3233C243.693 58.6845 245.269 59.0252 246.035 60.1325C246.504 60.8139 247.611 60.1751 247.143 59.4937C245.95 57.7902 243.693 57.2365 241.862 58.2161C241.138 58.5993 241.776 59.7066 242.5 59.3233Z" fill="#161616"/>
<path d="M252.551 60.8138C254.084 60.3453 255.745 60.8564 256.639 62.2191C257.108 62.9005 258.215 62.2617 257.747 61.5803C256.512 59.7917 254.297 58.94 252.21 59.6213C251.444 59.8343 251.742 61.0693 252.551 60.8138Z" fill="#161616"/>
<path d="M252.849 65.5831C252.806 65.1146 252.892 64.6462 253.147 64.2203C253.19 64.1351 253.275 64.0074 253.36 63.9222C253.19 63.7093 253.105 63.6667 253.147 63.8796C253.062 63.9648 253.105 64.3907 253.062 64.5184C253.019 64.7314 252.934 64.9443 252.849 65.1572C252.806 65.2424 252.764 65.3276 252.721 65.3702C252.934 65.7534 253.062 65.796 253.147 65.4979C253.317 65.3276 253.403 64.9443 253.53 64.7314C253.658 64.4758 253.786 64.2203 253.914 63.9648C254.254 63.326 253.445 62.6872 252.892 63.1982C252.594 63.4963 252.423 63.7945 252.295 64.1777C252.082 64.9869 253.318 65.3276 253.53 64.5184C253.573 64.3055 253.658 64.2203 253.786 64.0926C253.445 63.837 253.105 63.5815 252.764 63.326C252.466 63.9222 252.125 64.5184 251.87 65.1572C251.657 65.6257 251.699 66.1793 252.168 66.4774C253.318 67.2014 254.041 65.7109 254.254 64.8165C254.425 63.9648 254.425 62.1762 253.019 62.5594C251.912 62.9001 251.486 64.5184 251.529 65.4979C251.614 66.3922 252.892 66.3922 252.849 65.5831Z" fill="#161616"/>
<path d="M249.57 53.5737C249.868 51.7424 250.592 48.6762 252.594 45.5247C253.318 44.4175 254.808 42.0752 257.236 40.4995C261.877 37.4758 268.989 37.7313 274.142 41.4364C279.21 45.0563 281.723 51.5295 280.616 58.0027C270.31 56.5548 259.918 55.0642 249.57 53.5737Z" fill="#5222D0"/>
<path d="M232.62 53.7024C248.59 55.7039 264.518 57.7055 280.488 59.7071C282.915 60.0052 282.915 56.1724 280.488 55.8743C264.518 53.8727 248.59 51.8711 232.62 49.8695C230.15 49.5714 230.193 53.4043 232.62 53.7024Z" fill="#161616"/>
<path d="M270.31 57.5774C267.499 58.5995 265.838 60.5585 263.964 62.8156C259.961 67.6705 261.153 69.4592 258.343 72.4828C253.871 77.2952 249.314 74.4418 245.311 79.169C241.904 83.1722 242.373 88.5807 242.5 89.8157C242.628 91.0082 243.224 95.8205 247.185 99.1423C250.635 101.996 255.234 102.634 255.532 101.996C255.617 101.783 255.276 101.186 252.721 99.483C253.445 99.994 254.638 100.633 256.128 100.931C257.874 101.229 259.535 100.931 259.535 100.675C259.535 100.462 258.598 100.505 257.874 99.7385C257.448 99.27 257.278 98.759 257.15 98.2905C258.556 99.1848 260.302 99.994 261.963 99.483C266.519 98.1202 267.329 88.0271 267.584 84.6627C268.436 73.8456 265.327 67.926 269.117 64.0932C269.415 63.7525 270.948 62.2194 272.652 62.5601C274.781 62.9434 276.4 66.2226 275.718 68.3945C275.122 70.2683 272.993 70.7794 273.12 71.1626C273.333 71.5885 276.911 70.9071 279.934 68.5223C281.042 67.6705 281.936 66.9465 282.404 65.6689C283.213 63.4118 282.277 60.8566 280.999 59.3235C278.359 56.2572 273.376 56.4702 270.31 57.5774Z" fill="#161616" stroke="#161616" stroke-width="2" stroke-miterlimit="10"/>
<path opacity="0.22" d="M274.526 71.5459C273.844 71.6311 272.865 71.6311 272.822 71.4182C272.78 71.2904 273.035 71.12 273.035 71.12C273.035 71.12 272.226 72.1421 271.204 72.2699C270.736 72.3125 270.31 72.1847 270.012 72.0144C271.8 75.8046 273.631 80.3614 275.207 85.6422C276.911 91.434 277.89 96.6722 278.444 101.186C280.275 101.186 282.873 100.973 285.854 100.037C288.281 99.27 290.198 98.2479 291.646 97.3536C287.813 91.3488 285.854 86.5365 284.747 83.2573C284.236 81.7242 283.128 78.1043 282.617 76.3157C281.638 73.0791 280.829 70.3961 280.318 68.6074C280.062 68.8629 279.594 69.2462 279.04 69.6295C278.231 70.2257 276.655 71.333 274.526 71.5459Z" fill="#6D6C6C"/>
<path d="M263.07 38.6256C267.201 39.4347 270.31 42.7565 270.821 46.6319C271.374 51.2739 267.967 54.4679 267.627 54.7235C272.056 55.2771 276.442 55.7881 280.871 56.3418C280.957 55.3197 280.999 53.9143 280.701 52.296C279.849 47.1004 276.783 43.8638 276.144 43.225C275.122 42.2029 271.502 38.7533 266.094 38.4552C264.859 38.4126 263.794 38.5404 263.07 38.6256Z" fill="#321693"/>
<path d="M169.336 225.029C169.549 227.329 169.719 229.671 169.932 231.971L386.742 232.354C387.381 230.055 388.02 227.712 388.659 225.413C315.58 225.285 242.458 225.157 169.336 225.029Z" fill="white"/>
<path d="M172.232 225.327H174.532C175.341 225.327 175.341 224.049 174.532 224.049C173.765 224.049 172.999 224.049 172.232 224.049C171.38 224.049 171.38 225.327 172.232 225.327Z" fill="#161616"/>
<path d="M169.89 226.562H255.362C255.362 226.562 312.343 226.562 340.834 226.562H389.297C390.958 226.562 390.958 224.007 389.297 224.007C360.807 224.007 332.316 224.007 303.826 224.007C275.335 224.007 246.844 224.007 218.354 224.007C202.213 224.007 186.03 224.007 169.89 224.007C168.271 224.007 168.271 226.562 169.89 226.562Z" fill="#161616"/>
<path d="M170.486 232.865H338.79H386.402C388.063 232.865 388.063 230.31 386.402 230.31C330.315 230.31 274.185 230.31 218.098 230.31C202.213 230.31 186.371 230.31 170.486 230.31C168.825 230.31 168.825 232.865 170.486 232.865Z" fill="#161616"/>
<path d="M177.257 239.083V346.104V376.682C177.257 378.343 179.813 378.343 179.813 376.682C179.813 340.994 179.813 305.306 179.813 269.661C179.813 259.482 179.813 249.262 179.813 239.083C179.813 237.465 177.257 237.465 177.257 239.083Z" fill="#161616"/>
<path d="M355.185 237.379V334.264V361.775C355.185 363.436 357.74 363.436 357.74 361.775C357.74 329.494 357.74 297.171 357.74 264.89C357.74 255.734 357.74 246.578 357.74 237.379C357.74 235.718 355.185 235.718 355.185 237.379Z" fill="#161616"/>
<path d="M1.24567 346.87H98.6845H196.549H251.444C253.105 346.87 253.105 344.314 251.444 344.314C218.95 344.314 186.499 344.314 154.005 344.314C121.383 344.314 88.7618 344.314 56.1402 344.314C37.8278 344.314 19.558 344.314 1.24567 344.314C-0.415222 344.314 -0.415222 346.87 1.24567 346.87Z" fill="#161616"/>
<path d="M300.419 348.02H386.742H472.64H521.53C523.191 348.02 523.191 345.465 521.53 345.465C492.741 345.465 463.995 345.465 435.206 345.465C406.588 345.465 377.927 345.465 349.308 345.465C332.998 345.465 316.729 345.465 300.419 345.465C298.758 345.465 298.758 348.02 300.419 348.02Z" fill="#161616"/>
<path d="M177.768 239.04V343.719V373.53C177.768 375.191 180.324 375.191 180.324 373.53C180.324 338.651 180.324 303.73 180.324 268.851C180.324 258.928 180.324 249.005 180.324 239.04C180.324 237.379 177.768 237.379 177.768 239.04Z" fill="#161616"/>
<path d="M178.322 239.594V343.847V373.53C178.322 375.191 180.877 375.191 180.877 373.53C180.877 338.779 180.877 304.028 180.877 269.277C180.877 259.397 180.877 249.517 180.877 239.594C180.877 237.976 178.322 237.976 178.322 239.594Z" fill="#161616"/>
<path d="M354.972 236.741V331.582V358.667C354.972 360.328 357.528 360.328 357.528 358.667C357.528 327.067 357.528 295.425 357.528 263.826C357.528 254.797 357.528 245.769 357.528 236.741C357.528 235.122 354.972 235.122 354.972 236.741Z" fill="#161616"/>
<path d="M355.569 237.336V331.368V358.156C355.569 359.817 358.124 359.817 358.124 358.156C358.124 326.812 358.124 295.468 358.124 264.124C358.124 255.18 358.124 246.237 358.124 237.336C358.124 235.676 355.569 235.676 355.569 237.336Z" fill="#161616"/>
<path d="M171.891 233.078C174.106 235.761 176.065 238.572 177.811 241.553C178.663 242.958 180.877 241.68 180.026 240.275C178.152 237.124 176.022 234.142 173.68 231.289C172.615 230.012 170.827 231.8 171.891 233.078Z" fill="#161616"/>
<path d="M180.536 240.658C183.688 238.018 186.797 235.335 189.948 232.694C191.183 231.63 189.395 229.841 188.16 230.906C185.008 233.546 181.899 236.229 178.748 238.869C177.47 239.934 179.301 241.723 180.536 240.658Z" fill="#161616"/>
<path d="M347.86 234.398C350.501 236.059 353.141 237.72 355.782 239.381C357.187 240.275 358.465 238.061 357.059 237.166C354.419 235.506 351.778 233.845 349.138 232.184C347.733 231.332 346.455 233.547 347.86 234.398Z" fill="#161616"/>
<path d="M363.234 231.374C361.02 233.163 358.891 235.079 356.889 237.081C355.739 238.23 357.528 240.062 358.678 238.869C360.679 236.868 362.808 234.951 365.023 233.163C366.3 232.141 364.512 230.352 363.234 231.374Z" fill="#161616"/>
<path d="M349.862 234.526C353.269 235.037 356.591 235.165 359.998 234.824C359.785 234.015 359.572 233.248 359.359 232.439C357.953 233.334 356.506 233.589 354.845 233.76C353.908 233.887 352.971 235.165 353.95 235.931C355.27 236.996 356.591 237.337 358.252 236.911C359.827 236.528 359.189 234.058 357.57 234.441C356.931 234.696 356.293 234.569 355.739 234.1C355.441 234.824 355.143 235.548 354.845 236.272C356.889 236.059 358.89 235.761 360.636 234.569C361.616 233.93 361.36 232.056 359.998 232.184C356.846 232.482 353.652 232.439 350.501 231.971C348.925 231.8 348.244 234.271 349.862 234.526Z" fill="#161616"/>
<path d="M362.212 232.099C361.02 231.843 359.827 232.013 358.805 232.695C358.252 233.078 357.996 233.802 358.337 234.441C358.678 234.994 359.529 235.293 360.083 234.909C360.551 234.569 361.02 234.441 361.488 234.569C362.17 234.696 362.851 234.356 363.064 233.674C363.277 233.036 362.894 232.226 362.212 232.099Z" fill="#161616"/>
<path d="M174.787 234.27C175.554 234.781 178.407 236.101 178.279 237.208L179.557 235.931C179.387 235.931 178.876 233.972 178.748 233.631C178.365 234.27 178.024 234.909 177.641 235.548C180.196 235.42 182.623 234.909 184.965 233.972C184.54 233.248 184.156 232.566 183.73 231.842C182.283 233.333 180.749 234.738 179.089 236.016L180.835 237.762C182.368 235.164 180.196 233.035 177.981 231.928C177.768 232.737 177.555 233.503 177.342 234.313C179.089 234.227 180.835 234.185 182.581 234.27C184.242 234.355 184.199 231.8 182.581 231.715C180.835 231.629 179.089 231.63 177.342 231.757C176.15 231.842 175.511 233.546 176.704 234.142C177.47 234.525 179.344 235.335 178.663 236.484C178.066 237.507 179.344 239.04 180.409 238.231C182.24 236.825 183.986 235.335 185.562 233.674C186.371 232.822 185.562 231.033 184.327 231.544C182.155 232.396 179.983 232.907 177.683 233.035C176.661 233.077 176.193 234.057 176.576 234.951C177.3 236.57 177.257 238.529 179.6 238.486C180.366 238.486 180.792 237.89 180.877 237.208C181.218 234.653 177.854 233.205 176.15 232.098C174.702 231.161 173.424 233.376 174.787 234.27Z" fill="#161616"/>
<path d="M188.756 223.708C188.756 221.622 188.756 219.535 188.756 217.406C188.756 216.597 187.478 216.597 187.478 217.406V223.708C187.478 224.56 188.756 224.56 188.756 223.708Z" fill="#E8E8E8"/>
<path d="M188.117 217.96H223.464C224.273 217.96 224.273 216.682 223.464 216.682C211.667 216.682 199.914 216.682 188.117 216.682C187.308 216.682 187.308 217.96 188.117 217.96Z" fill="#E8E8E8"/>
<path d="M222.825 217.321V223.326C222.825 224.135 224.103 224.135 224.103 223.326C224.103 221.324 224.103 219.323 224.103 217.321C224.103 216.469 222.825 216.469 222.825 217.321Z" fill="#E8E8E8"/>
<path d="M189.735 220.345H216.778C217.587 220.345 217.587 219.067 216.778 219.067C207.75 219.067 198.764 219.067 189.735 219.067C188.926 219.067 188.926 220.345 189.735 220.345Z" fill="#E8E8E8"/>
<path d="M195.74 222.771H216.48C217.289 222.771 217.289 221.494 216.48 221.494C209.581 221.494 202.639 221.494 195.74 221.494C194.931 221.494 194.931 222.771 195.74 222.771Z" fill="#E8E8E8"/>
<path d="M197.188 217.192C197.188 215.744 197.188 214.339 197.188 212.891C197.188 212.082 195.91 212.082 195.91 212.891V217.192C195.91 218.002 197.188 218.002 197.188 217.192Z" fill="#E8E8E8"/>
<path d="M197.358 213.275H228.149C228.958 213.275 228.958 211.998 228.149 211.998C217.885 211.998 207.622 211.998 197.358 211.998C196.549 211.998 196.549 213.275 197.358 213.275Z" fill="#E8E8E8"/>
<path d="M223.847 217.661H227.851C228.66 217.661 228.66 216.384 227.851 216.384C226.53 216.384 225.168 216.384 223.847 216.384C223.038 216.384 223.038 217.661 223.847 217.661Z" fill="#E8E8E8"/>
<path d="M227.51 212.763V216.894C227.51 217.703 228.787 217.703 228.787 216.894C228.787 215.531 228.787 214.126 228.787 212.763C228.787 211.912 227.51 211.912 227.51 212.763Z" fill="#E8E8E8"/>
<path d="M203.533 215.405H210.901C211.71 215.405 211.71 214.127 210.901 214.127C208.431 214.127 206.003 214.127 203.533 214.127C202.682 214.127 202.682 215.405 203.533 215.405Z" fill="#E8E8E8"/>
<path d="M216.224 216.469H222.783C223.592 216.469 223.592 215.191 222.783 215.191C220.611 215.191 218.396 215.191 216.224 215.191C215.415 215.191 215.415 216.469 216.224 216.469Z" fill="#E8E8E8"/>
<path d="M204.343 211.401C203.321 210.422 203.108 208.931 203.193 207.568C203.363 205.311 205.407 205.226 207.111 205.907C207.877 206.205 208.218 204.97 207.451 204.672C205.535 203.906 203.022 203.948 202.171 206.205C201.447 208.122 201.958 210.89 203.448 212.295C204.044 212.892 204.939 211.955 204.343 211.401Z" fill="#E8E8E8"/>
<path d="M206.898 205.268C210.901 203.48 212.562 210.208 209.112 211.912C208.388 212.295 209.027 213.36 209.751 213.019C214.691 210.549 211.795 201.691 206.259 204.161C205.492 204.502 206.174 205.609 206.898 205.268Z" fill="#E8E8E8"/>
<path d="M207.026 204.928C206.813 203.565 206.302 202.33 205.492 201.223C205.024 200.542 203.917 201.18 204.385 201.862C205.109 202.884 205.578 203.991 205.791 205.269C205.918 206.078 207.153 205.737 207.026 204.928Z" fill="#E8E8E8"/>
<path d="M206.429 202.756C206.557 202.415 206.727 202.117 206.94 201.819C207.026 201.692 207.153 201.521 207.281 201.393C207.324 201.308 207.409 201.266 207.494 201.181C207.281 200.755 207.153 200.669 207.068 200.882C206.855 201.095 206.642 201.649 206.514 201.947C206.302 202.33 206.046 202.671 205.791 203.012C205.322 203.693 206.429 204.332 206.898 203.65C207.366 203.012 207.792 202.33 208.133 201.606C208.431 201.01 208.601 200.244 207.835 199.946C206.557 199.477 205.578 201.479 205.237 202.373C204.896 203.182 206.131 203.523 206.429 202.756Z" fill="#E8E8E8"/>
<path d="M415.701 288.483C415.872 290.485 416.042 292.529 416.212 294.531C435.845 294.36 455.478 294.19 475.11 294.02C474.897 292.103 474.684 290.187 474.471 288.313C454.839 288.398 435.291 288.441 415.701 288.483Z" fill="white"/>
<path d="M416.085 295.212H474.94C476.601 295.212 476.601 292.657 474.94 292.657C455.307 292.657 435.717 292.657 416.085 292.657C414.466 292.657 414.424 295.212 416.085 295.212Z" fill="#161616"/>
<path d="M416.468 289.378H474.216C475.877 289.378 475.877 286.823 474.216 286.823C454.966 286.823 435.717 286.823 416.468 286.823C414.807 286.823 414.807 289.378 416.468 289.378Z" fill="#161616"/>
<path d="M414.466 288.483V292.827C414.466 294.488 417.022 294.488 417.022 292.827C417.022 291.379 417.022 289.931 417.022 288.483C417.022 286.823 414.466 286.823 414.466 288.483Z" fill="#161616"/>
<path d="M473.662 288.483V294.275C473.662 295.936 476.217 295.936 476.217 294.275C476.217 292.359 476.217 290.4 476.217 288.483C476.217 286.823 473.662 286.823 473.662 288.483Z" fill="#161616"/>
<path d="M444.959 294.659V368.036C444.959 369.697 447.514 369.697 447.514 368.036C447.514 343.591 447.514 319.146 447.514 294.659C447.514 292.998 444.959 292.998 444.959 294.659Z" fill="#161616"/>
<path d="M444.873 367.653C440.487 370.25 436.1 372.848 431.671 375.446C430.266 376.298 431.544 378.512 432.949 377.66C437.335 375.063 441.722 372.465 446.151 369.867C447.599 369.015 446.279 366.801 444.873 367.653Z" fill="#161616"/>
<path d="M445.597 369.483C450.58 372.251 455.52 375.062 460.503 377.83C461.951 378.64 463.228 376.425 461.78 375.616C456.798 372.848 451.858 370.037 446.875 367.269C445.427 366.46 444.149 368.674 445.597 369.483Z" fill="#161616"/>
<path d="M432.438 378.597C441.892 378.512 451.304 378.214 460.758 377.746C462.377 377.661 462.419 375.105 460.758 375.191C451.347 375.659 441.892 375.957 432.438 376.042C430.777 376.042 430.777 378.597 432.438 378.597Z" fill="#161616"/>
<path d="M433.843 295.595C437.676 301.046 441.168 306.753 444.32 312.63C445.086 314.078 447.301 312.8 446.534 311.352C443.383 305.475 439.891 299.769 436.058 294.317C435.121 292.955 432.906 294.232 433.843 295.595Z" fill="#161616"/>
<path d="M459.438 293.765C453.859 299.088 449.09 305.136 445.214 311.779C444.362 313.185 446.577 314.505 447.429 313.057C451.219 306.584 455.861 300.749 461.269 295.596C462.462 294.446 460.631 292.615 459.438 293.765Z" fill="#161616"/>
<path d="M355.356 343.846C355.015 349.936 354.717 356.026 354.376 362.116C338.108 369.185 330.272 373.827 330.911 375.957C331.635 378.512 344.155 377.618 368.387 373.359C368.558 362.925 368.728 352.491 368.856 342.058C364.384 342.654 359.87 343.25 355.356 343.846Z" fill="#161616"/>
<path d="M405.864 245.172C402.244 248.409 397.091 253.093 391.086 258.885C376.777 272.769 366.258 282.947 359.146 293.466C353.269 302.196 344.539 318.805 343.857 345.975C349.734 347.594 357.144 348.956 365.747 348.871C368.643 348.829 371.411 348.658 373.924 348.36C372.816 342.185 371.922 332.518 374.179 321.19C375.755 313.226 378.395 306.838 380.78 302.196C399.944 293.679 412.891 283.245 421.152 275.281C429.5 267.232 438.996 258.033 436.441 251.518C434.099 245.343 421.621 242.958 405.864 245.172Z" fill="#EC615B"/>
<path opacity="0.18" d="M426.007 245.216C419.577 253.776 411.869 263.06 402.627 272.514C391.044 284.396 379.588 293.978 369.324 301.601C365.747 317.315 362.17 333.03 358.592 348.702C360.125 348.957 361.872 349.17 363.788 349.17C367.663 349.256 370.985 348.702 373.54 348.021C372.731 342.655 372.178 335.287 373.2 326.727C374.477 316.166 377.714 307.861 380.354 302.367C389.979 297.938 397.602 293.424 403.096 289.847C403.096 289.847 420.301 278.689 433.631 261.569C433.929 261.186 434.951 259.866 435.76 257.822C436.399 256.161 437.208 254.116 436.569 251.987C435.973 250.071 434.525 249.006 432.992 247.941C431.799 247.132 429.457 245.727 426.007 245.216Z" fill="#6D6C6C"/>
<path opacity="0.16" d="M380.014 302.579C378.182 305.986 376.394 309.563 374.648 313.311C368.771 325.959 364.682 338.054 361.829 349.042C365.747 348.871 369.622 348.701 373.54 348.573C372.646 343.42 371.965 336.478 372.731 328.429C373.796 317.059 377.245 308.201 380.014 302.579Z" fill="#6D6C6C"/>
<path d="M381.632 349.723C383.591 355.813 385.55 361.903 387.509 367.993C373.029 376.681 366.173 381.919 366.982 383.665C367.961 385.794 380.439 382.643 404.458 374.211C401.137 364.543 397.815 354.876 394.493 345.209C390.192 346.657 385.89 348.19 381.632 349.723Z" fill="#161616"/>
<path d="M451.858 253.434C454.881 268.808 450.324 277.453 448.153 280.775C443.809 287.418 438.017 289.463 421.11 297.852C414.509 301.131 404.458 306.242 392.151 313.013C393.003 318.422 394.365 324.639 396.537 331.411C398.581 337.799 400.966 343.378 403.266 348.062C401.009 350.234 396.452 354.067 389.51 356.282C382.015 358.709 375.585 357.985 372.433 357.431C365.747 344.229 364.043 332.646 363.575 325.576C363.021 317.059 362.383 307.392 367.365 297.852C371.198 290.527 374.903 289.846 390.405 278.007C413.7 260.248 416.042 253.604 428.052 251.134C437.889 249.133 446.619 251.475 451.858 253.434Z" fill="#EC615B"/>
<path opacity="0.22" d="M435.93 250.581C436.143 255.521 435.76 263.272 431.799 271.193C428.478 277.879 424.048 282.649 409.441 292.529C396.452 301.302 386.104 308.073 379.417 312.417C383.676 326.684 387.935 340.95 392.193 355.217C393.471 354.791 395.004 354.152 396.58 353.258C399.476 351.597 401.52 349.596 402.84 348.062C400.966 344.059 399.093 339.588 397.432 334.69C394.706 326.854 393.003 319.529 391.938 313.184C402.499 307.307 409.91 303.474 414.253 301.302C420.727 298.065 423.921 296.447 427.2 294.871C428.307 294.36 430.777 293.211 434.014 291.507C437.634 289.633 439.422 288.739 441.041 287.632C442.361 286.737 445.683 284.395 448.366 280.52C452.198 274.983 452.539 269.192 452.795 264.975C452.965 262.25 452.922 258.289 451.9 253.647C449.686 252.71 446.705 251.688 443.127 251.092C440.359 250.581 437.932 250.496 435.93 250.581Z" fill="#6D6C6C"/>
<path opacity="0.11" d="M452.752 261.952C452.071 264.209 450.836 267.488 448.664 271.023C441.978 281.755 431.757 286.013 424.602 289.591C416.127 293.849 404.714 300.876 392.023 313.013C395.6 311.012 399.987 308.627 405.097 305.901C414.126 301.089 418.597 298.704 423.239 296.49C426.859 294.786 430.99 292.955 437.165 289.676C441.594 287.333 444.022 285.886 446.321 283.203C448.919 280.179 450.069 277.155 450.836 275.111C451.773 272.556 453.093 267.999 452.752 261.952Z" fill="#6D6C6C"/>
<path opacity="0.17" d="M391.853 313.439C391.895 317.017 392.151 320.85 392.619 324.895C393.812 335.244 396.324 344.145 399.007 351.342C399.774 350.916 400.668 350.32 401.605 349.511C402.201 349 402.712 348.488 403.096 348.02C401.307 344.315 399.561 340.184 397.9 335.712C394.962 327.621 393.088 320.083 391.853 313.439Z" fill="#6D6C6C"/>
<path d="M423.793 170.049C418.469 171.838 417.533 178.183 413.955 185.423C413.955 185.423 408.334 196.921 396.026 206.376C391.555 209.825 381.887 215.915 365.747 216.98C364.171 216.341 361.744 215.489 358.677 214.978C354.291 214.254 348.159 213.19 344.028 216.724C342.154 218.343 340.067 221.409 341.004 223.283C342.154 225.582 347.264 224.688 355.654 224.305C367.28 223.794 366.726 225.071 374.818 224.56C382.058 224.092 393.471 223.41 405.353 216.469C416.723 209.868 422.6 201.052 424.006 198.795C426.731 194.536 427.966 191.087 430.479 184.145C433.801 175.032 433.247 172.988 432.31 171.795C430.692 169.581 426.774 169.027 423.793 170.049Z" fill="white" stroke="#161616" stroke-width="2" stroke-miterlimit="10"/>
<path d="M360.679 218.3C357.996 218.811 354.121 218.939 352.162 221.153C351.054 222.431 351.225 224.688 353.269 224.688C353.865 224.688 353.908 223.709 353.269 223.709C352.247 222.644 352.332 221.792 353.61 221.196C354.036 220.898 354.504 220.685 355.015 220.472C355.569 220.259 356.122 220.131 356.676 220.004C358.081 219.706 359.487 219.45 360.935 219.194C361.531 219.109 361.275 218.215 360.679 218.3Z" fill="#161616"/>
<path d="M340.578 222.261C343.091 225.413 347.009 221.75 350.032 222.559C350.629 222.73 350.884 221.793 350.288 221.622C348.968 221.282 347.818 221.452 346.498 221.878C344.752 222.432 342.622 223.369 341.217 221.58C340.876 221.111 340.195 221.793 340.578 222.261Z" fill="#161616"/>
<path d="M342.111 218.385C342.196 219.663 343.048 220.174 344.283 220.174C347.051 220.174 349.479 219.067 352.247 219.961C352.843 220.131 353.099 219.237 352.502 219.024C351.097 218.556 349.734 218.513 348.286 218.641C347.264 218.726 343.176 219.876 343.091 218.343C343.005 217.789 342.069 217.789 342.111 218.385Z" fill="#161616"/>
<path d="M346.285 215.745C346.711 216.767 347.435 217.236 348.542 217.406C350.714 217.704 352.588 217.789 354.589 218.684C355.143 218.939 355.654 218.087 355.058 217.874C353.95 217.406 352.843 216.98 351.651 216.767C350.288 216.512 347.775 216.937 347.179 215.49C346.966 214.936 346.029 215.191 346.285 215.745Z" fill="#161616"/>
<path opacity="0.16" d="M428.946 170.177C426.518 170.773 427.242 177.289 425.965 183.336C423.835 193.089 416.894 199.179 409.228 205.908C404.033 210.464 397.943 215.83 388.659 218.215C385.465 219.024 380.184 219.919 374.52 220.217C366.854 220.6 363.064 220.813 362.808 220.77C361.531 220.643 358.422 220.302 355.1 221.75C354.419 222.048 352.545 222.857 352.673 223.453C352.843 224.348 357.272 224.092 367.237 224.007C374.605 223.964 373.838 224.092 376.096 224.007C380.354 223.837 387.764 223.581 396.111 220.557C407.993 216.299 415.318 208.761 418.682 205.269C421.919 201.862 423.708 199.221 424.261 198.412C426.902 194.452 428.137 190.917 430.564 183.975C433.375 175.884 433.375 173.754 432.268 172.094C431.501 171.114 430.096 169.879 428.946 170.177Z" fill="#6D6C6C"/>
<path opacity="0.13" d="M341.728 223.623C342.026 222.857 343.304 219.705 346.711 218.044C351.821 215.617 356.804 218.896 357.017 219.024C355.909 219.62 354.972 220.046 354.291 220.302C353.226 220.77 352.801 220.855 352.417 221.281C351.778 222.09 351.949 223.283 352.119 224.007C350.756 224.305 348.968 224.518 346.838 224.432C344.794 224.39 343.048 224.007 341.728 223.623Z" fill="#6D6C6C"/>
<path opacity="0.14" d="M432.225 177.161C430.436 183.123 426.518 193.174 417.916 202.884C406.204 216.128 392.449 221.281 386.189 223.198C391.001 222.346 408.887 218.556 421.493 202.202C428.946 192.492 431.331 182.612 432.225 177.161Z" fill="#6D6C6C"/>
<path d="M422.345 170.39C419.662 173.328 417.745 177.204 416.51 191.513C414.679 212.423 417.575 217.236 414.339 227.584C412.848 232.311 409.782 239.168 402.67 246.535C407.695 249.772 415.829 254.201 426.731 256.756C437.506 259.269 446.662 258.886 452.624 258.204C460.29 234.654 459.651 215.617 458.075 203.906C456.585 192.748 453.22 167.068 439.848 163.832C433.503 162.256 426.305 166.089 422.345 170.39Z" fill="white" stroke="#161616" stroke-width="2" stroke-miterlimit="10"/>
<path opacity="0.12" d="M436.441 163.917C436.228 165.664 435.93 168.261 435.632 171.37C433.63 192.195 435.973 195.985 434.44 208.25C433.588 215.235 431.799 228.309 422.6 240.489C418.768 245.557 414.722 249.091 411.826 251.263C416.468 253.606 423.537 256.544 432.566 257.907C440.657 259.099 447.514 258.631 452.369 257.907C453.731 253.989 455.35 248.665 456.627 242.277C459.012 230.438 459.183 220.345 458.884 213.361C458.331 199.861 457.096 170.902 442.276 164.982C439.976 164.088 437.889 163.917 436.441 163.917Z" fill="#6D6C6C"/>
<path opacity="0.24" d="M458.586 225.071C458.075 224.986 456.883 230.267 455.137 235.037C452.922 241.212 448.749 249.516 440.104 258.502C444.277 258.289 448.493 258.119 452.667 257.906C454.072 253.392 455.861 246.663 457.309 238.358C458.246 232.78 459.225 225.199 458.586 225.071Z" fill="#6D6C6C"/>
<path d="M447.642 169.836C452.454 170.773 454.498 178.396 456.202 185.082C457.905 191.811 461.184 205.524 456.585 223.58C454.668 231.033 452.965 237.975 447.045 245.002C439.337 254.2 429.5 257.778 424.9 259.098C419.79 262.633 417.149 264.421 415.659 265.358C414.594 266.04 413.955 266.423 412.805 267.232C411.145 268.424 410.846 268.808 410.037 269.148C409.186 269.489 407.823 269.745 405.779 269.106C405.608 269.148 404.288 269.319 403.309 268.339C402.712 267.743 402.585 267.062 402.585 266.764C402.457 266.764 401.648 266.678 401.094 265.997C400.583 265.358 400.54 264.464 400.924 263.697C400.753 263.357 400.583 262.888 400.583 262.292C400.37 259.311 403.905 256.926 405.864 255.563C407.951 254.115 412.082 251.816 418.47 251.219C421.919 249.388 427.072 246.109 431.629 240.615C433.077 238.912 442.744 226.902 441.978 210.762C441.679 203.99 439.252 191.385 437.889 179.631C437.804 178.779 437.548 176.479 438.784 174.265C440.572 171.241 444.661 169.282 447.642 169.836Z" fill="white" stroke="#161616" stroke-width="2" stroke-miterlimit="10"/>
<path d="M401.052 263.996C401.648 263.996 401.691 263.017 401.052 263.017C400.455 263.017 400.455 263.996 401.052 263.996Z" fill="#161616"/>
<path d="M400.583 263.485V263.783C400.626 264.294 401.179 264.422 401.477 264.039C403.181 261.782 405.481 260.121 408.164 259.269C408.76 259.099 408.504 258.162 407.908 258.332C404.969 259.269 402.499 261.058 400.626 263.528C400.924 263.613 401.222 263.698 401.52 263.783C401.52 263.698 401.52 263.613 401.52 263.485C401.52 262.889 400.54 262.889 400.583 263.485Z" fill="#161616"/>
<path d="M402.968 266.935C405.14 264.465 407.823 262.591 410.889 261.356C411.443 261.143 411.23 260.206 410.634 260.419C407.397 261.697 404.586 263.613 402.286 266.211C401.903 266.722 402.585 267.403 402.968 266.935Z" fill="#161616"/>
<path d="M406.162 269.234C408.376 266.721 410.932 264.635 413.827 262.931C414.338 262.633 413.87 261.781 413.359 262.122C410.421 263.868 407.78 265.998 405.523 268.595C405.097 269.021 405.779 269.703 406.162 269.234Z" fill="#161616"/>
<path opacity="0.13" d="M445.768 171.454C444.149 173.797 446.79 177.928 448.28 180.994C450.452 185.508 450.793 190.405 451.474 200.2C452.709 217.959 444.448 233.163 443.851 234.227C436.313 247.642 424.602 255.691 420.94 258.161C414.722 262.335 405.906 266.891 406.63 268.638C406.886 269.276 408.291 269.362 408.887 269.319C410.932 269.234 411.783 267.658 414.637 265.656C416.127 264.592 416.085 264.932 418.64 263.399C420.13 262.505 422.26 261.142 424.772 259.226C430.479 257.693 434.695 255.35 437.336 253.647C441.168 251.177 448.536 245.513 453.05 235.633C454.583 232.268 455.179 229.585 456.372 224.262C457.607 218.683 459.566 209.527 458.459 197.858C457.948 192.577 457.053 189.043 455.818 184.401C453.902 176.948 452.156 170.517 448.834 170.092C447.727 169.921 446.407 170.56 445.768 171.454Z" fill="#6D6C6C"/>
<path opacity="0.16" d="M457.905 194.75C457.522 194.75 457.607 199.222 455.775 211.103C454.115 221.75 453.263 227.201 450.921 232.184C447.514 239.424 442.872 243.98 440.615 246.152C434.184 252.37 430.309 252.796 420.471 260.036C415.318 263.826 411.485 267.275 409.228 269.405C414.339 265.998 419.406 262.591 424.517 259.227C429.201 257.864 438.826 254.286 446.577 245.13C451.9 238.827 453.987 232.652 455.605 227.84C461.141 210.678 458.586 194.75 457.905 194.75Z" fill="#6D6C6C"/>
<path d="M428.52 151.268C426.604 152.588 426.263 155.143 425.965 157.954C425.667 160.807 425.624 165.79 428.222 171.965C429.84 171.965 431.842 171.837 434.056 171.411C435.802 171.071 437.336 170.602 438.613 170.134C438.443 164.47 438.315 158.806 438.145 153.142C434.567 150.501 430.82 149.692 428.52 151.268Z" fill="white" stroke="#161616" stroke-width="2" stroke-miterlimit="10"/>
<path d="M418.384 122.863C415.403 124.566 414.126 127.419 411.613 132.956C408.802 139.259 406.843 144.71 406.077 148.713C405.949 149.309 406.247 149.905 406.801 150.161C407.525 150.502 408.802 150.629 409.484 150.8C409.484 152.461 409.697 155.314 411.187 158.38C413.913 163.959 418.938 166.216 420.428 166.812C425.156 166.003 428.648 164.385 430.735 163.15C432.651 162.085 435.121 160.637 437.548 157.827C439.72 155.271 440.87 152.716 441.466 151.013C442.361 151.013 443.724 150.927 445.129 150.161C448.025 148.585 450.495 144.454 448.962 141.942C447.812 140.11 444.66 139.344 441.424 140.536C441.466 139.173 441.424 137.3 440.955 135.085C440.828 134.532 439.933 130.486 437.889 127.632C433.971 122.139 424.432 119.413 418.384 122.863Z" fill="white" stroke="#161616" stroke-width="2" stroke-miterlimit="10"/>
<path d="M407.652 142.155C406.588 140.494 404.246 136.32 404.586 130.784C404.714 128.91 404.969 125.333 407.567 121.968C410.719 117.88 415.105 116.815 416.383 116.56C416.979 115.58 418.001 114.133 419.705 112.94C420.386 112.472 422.26 111.322 426.859 111.066C429.287 110.938 432.992 111.024 437.421 112.301C440.87 113.323 443.17 114.771 444.575 115.921C449.984 120.18 449.558 123.544 456.414 130.443C457.99 132.019 459.097 132.573 461.482 134.915C463.995 137.342 465.996 139.685 467.104 141.09C469.616 144.284 474.344 150.331 475.238 158.508C475.536 161.276 476.388 169.07 471.533 175.032C464.932 183.166 450.026 183.805 440.955 177.331C439.252 176.139 432.182 171.029 432.566 162.809C432.906 155.399 439.082 150.97 439.933 150.331C440.657 150.629 442.148 151.098 443.596 150.587C446.619 149.48 447.897 144.838 446.321 142.495C445.683 141.558 444.66 141.175 444.362 141.09C441.892 140.238 439.593 142.07 439.422 142.197C436.1 139.77 433.588 137.428 431.842 135.596C429.457 133.169 428.265 131.551 427.839 130.954C426.518 129.081 425.539 127.377 424.9 126.099C422.941 126.568 420.386 127.462 417.703 129.208C417.064 129.592 414.935 131.04 412.72 133.552C412.465 133.85 411.23 135.256 409.91 137.385C408.93 139.216 408.163 140.834 407.652 142.155Z" fill="#5222D0"/>
<path d="M416.34 145.945C416.34 145.903 416.34 145.903 416.34 145.945C416.34 145.988 416.383 146.073 416.383 146.158V146.201C416.34 146.286 416.298 146.328 416.255 146.414C416.341 146.328 416.255 146.371 416.085 146.499C416 146.456 415.915 146.456 415.829 146.414C415.787 146.371 415.744 146.371 415.744 146.328C415.701 146.243 415.701 146.158 415.659 146.073V146.03C415.701 145.945 415.744 145.903 415.787 145.817C415.872 145.817 415.957 145.775 416.042 145.775L416.383 146.115V146.243C416.17 146.286 415.957 146.371 415.744 146.414L415.701 146.371C415.659 146.286 415.616 146.243 415.574 146.158C415.616 146.03 415.701 145.903 415.744 145.817C415.829 145.775 415.914 145.775 416 145.732H415.957C415.701 145.775 415.488 145.945 415.488 146.201C415.488 146.456 415.701 146.712 415.957 146.669C416.213 146.627 416.468 146.499 416.511 146.201C416.596 145.945 416.468 145.647 416.213 145.519C415.957 145.391 415.701 145.476 415.574 145.689C415.318 146.03 415.488 146.584 415.914 146.627C416.298 146.669 416.639 146.371 416.639 145.988C416.639 145.604 416.255 145.349 415.872 145.434C415.488 145.562 415.318 145.945 415.488 146.328C415.616 146.584 415.957 146.627 416.127 146.499C416.426 146.456 416.426 146.158 416.34 145.945Z" fill="#161616"/>
<path d="M420.088 144.923C420.173 145.349 420.003 145.307 419.619 144.795C419.705 144.753 419.747 144.71 419.832 144.668C420.003 144.668 420.131 144.753 420.216 144.966C420.259 144.71 419.96 144.497 419.747 144.497C419.449 144.497 419.279 144.71 419.279 144.966C419.236 145.349 419.619 145.647 419.96 145.605C420.386 145.605 420.642 145.179 420.514 144.795C420.386 144.412 419.96 144.199 419.577 144.412C419.193 144.625 419.151 145.008 419.321 145.392C419.406 145.647 419.79 145.69 419.96 145.562C420.173 145.434 420.216 145.179 420.088 144.923Z" fill="#161616"/>
<path d="M418.896 147.735C419.151 147.735 419.194 147.82 419.023 148.033C419.023 148.203 418.981 148.288 418.853 148.288C418.81 148.118 418.81 147.905 418.768 147.735C418.896 147.692 418.981 147.692 419.109 147.777C418.683 147.309 418.001 147.99 418.427 148.459C418.725 148.799 419.279 148.714 419.492 148.331C419.705 147.947 419.492 147.479 419.109 147.351C418.683 147.223 418.257 147.522 418.214 147.948C418.214 148.416 418.683 148.757 419.109 148.672C419.748 148.501 419.492 147.564 418.896 147.735Z" fill="#161616"/>
<path d="M411.017 157.017C413.657 156.549 415.957 155.016 417.447 152.759C417.788 152.248 416.979 151.779 416.638 152.29C415.275 154.334 413.231 155.655 410.804 156.123C410.165 156.208 410.421 157.103 411.017 157.017Z" fill="#161616"/>
<path opacity="0.1" d="M425.496 127.505C426.263 129.038 427.242 131.082 428.35 133.51C431.757 140.92 432.14 142.964 432.268 144.753C432.438 147.436 431.97 149.48 431.586 150.928C429.627 158.849 423.878 164.13 421.025 166.429C422.43 166.259 424.134 165.961 426.007 165.322C428.903 164.343 431.16 163.022 432.694 161.915C432.566 163.235 432.566 165.279 433.332 167.579C434.184 170.305 435.717 172.008 436.995 173.627C437.974 174.862 439.72 176.821 442.489 178.396C445.172 179.972 447.684 180.526 449.217 180.781C452.795 181.59 455.776 181.505 457.777 181.335C460.545 181.079 464.932 180.696 469.02 177.545C470.042 176.735 472.385 174.904 473.79 171.668C474.131 170.901 474.642 169.453 474.897 165.62C475.195 161.106 475.408 157.955 474.344 153.951C473.236 149.82 471.235 146.626 469.276 144.284C465.869 153.44 457.649 158.721 450.239 157.614C444.448 156.719 440.955 152.163 439.933 150.757C442.19 151.268 444.49 150.587 445.81 148.926C447.386 147.052 447.854 143.688 445.81 141.899C444.192 140.494 441.509 140.451 439.507 142.027C437.08 140.281 434.312 137.981 431.501 135C428.988 132.402 427.029 129.805 425.496 127.505Z" fill="#6D6C6C"/>
<path d="M415.659 141.346C415.403 140.92 415.361 140.281 415.787 139.94C415.659 139.983 415.574 140.025 415.446 140.068H415.574C415.446 140.025 415.361 139.983 415.233 139.94C415.659 140.281 415.318 141.601 415.148 141.984C415.233 141.899 415.318 141.857 415.446 141.771C415.403 141.771 415.361 141.814 415.361 141.814C415.488 141.814 415.616 141.857 415.744 141.857C415.488 141.729 415.531 141.047 415.574 140.877C415.616 140.494 415.701 140.153 415.872 139.855C415.659 139.898 415.446 139.983 415.233 140.025C415.446 140.196 415.488 140.536 415.446 140.792C415.446 140.92 415.403 141.047 415.361 141.133C415.318 141.346 415.233 141.346 415.446 141.388C415.531 141.473 415.616 141.516 415.744 141.601C415.744 141.559 415.701 141.559 415.701 141.516C415.318 141.047 414.509 141.516 414.892 141.984C415.105 142.24 415.403 142.41 415.744 142.283C416.127 142.155 416.255 141.771 416.34 141.431C416.553 140.579 416.553 139.727 415.787 139.174C415.574 139.003 415.233 139.131 415.148 139.344C414.722 140.196 414.466 141.516 415.02 142.368C415.233 142.708 415.701 142.879 416.042 142.623C416.425 142.325 416.468 141.559 416.511 141.133C416.596 140.494 416.468 138.663 415.361 139.216C414.466 139.685 414.552 141.133 414.977 141.857C415.148 142.368 416 141.857 415.659 141.346Z" fill="#161616"/>
<path d="M413.7 137.002C415.957 136.619 417.873 137.854 419.619 139.174C420.13 139.558 420.599 138.706 420.088 138.365C418.129 136.875 415.999 135.725 413.444 136.108C412.848 136.151 413.104 137.088 413.7 137.002Z" fill="#161616"/>
<path d="M416.255 152.333C416.724 152.631 417.15 153.015 417.533 153.441C417.959 153.909 418.641 153.228 418.215 152.759C417.789 152.291 417.278 151.865 416.724 151.481C416.212 151.141 415.744 151.992 416.255 152.333Z" fill="#161616"/>
</svg>
