<svg width="344" height="228" viewBox="0 0 344 228" fill="none" xmlns="http://www.w3.org/2000/svg">
<path d="M45.7688 198.113C62.0761 198.113 77.2366 204.966 93.2083 207.204C108.732 209.357 124.089 205.805 139.361 203.4C147.053 202.197 154.829 201.246 162.633 201.637C170.689 202.057 178.158 204.239 185.486 207.483C192.115 210.448 198.605 213.889 205.625 215.875C212.311 217.777 219.192 217.861 226.017 216.658C242.072 213.833 256.841 205.078 273.428 205.162C273.96 205.162 273.96 204.323 273.428 204.323C258.911 204.239 245.68 210.868 231.919 214.476C224.758 216.35 217.289 217.357 209.961 216.015C202.549 214.672 195.724 211.26 188.954 208.127C182.241 205.022 175.444 202.309 168.06 201.302C160.452 200.267 152.759 200.714 145.179 201.721C129.795 203.707 114.495 207.903 98.8865 206.952C80.845 205.833 64.0341 197.302 45.8248 197.302C45.2374 197.274 45.2374 198.113 45.7688 198.113Z" fill="#161616"/>
<path d="M23.2791 201.469C26.6077 200.211 30.0202 199.316 33.5446 198.784C34.076 198.7 33.8522 197.889 33.3208 197.973C29.7964 198.477 26.3839 199.372 23.0553 200.658C22.5518 200.854 22.7756 201.665 23.2791 201.469Z" fill="#161616"/>
<path d="M17.2936 208.742C36.0345 200.491 56.2578 209.805 74.5791 214.532C79.9496 215.931 85.432 216.966 90.9983 217.273C91.5297 217.301 91.5297 216.462 90.9983 216.434C70.8029 215.343 52.4537 204.071 32.0066 204.742C26.8039 204.91 21.6572 205.945 16.902 208.043C16.3985 208.239 16.8181 208.966 17.2936 208.742Z" fill="#161616"/>
<path d="M104.061 224.126C108.369 223.483 112.453 222.056 116.564 220.658C120.648 219.287 124.76 218.112 128.956 217.245C137.627 215.483 146.522 214.896 155.333 215.511C160.452 215.875 165.542 216.658 170.521 217.805C171.053 217.917 171.276 217.106 170.745 216.994C153.459 212.994 135.165 213.721 118.271 219.203C113.488 220.742 108.816 222.56 103.809 223.315C103.306 223.399 103.53 224.21 104.061 224.126Z" fill="#161616"/>
<path d="M204.283 225.273C210.101 228.266 216.758 228.322 223.107 227.455C230.464 226.476 237.68 224.518 244.813 222.392C258.995 218.168 273.12 213.022 288.029 212.127C296.225 211.623 304.476 212.49 312.168 215.427C312.672 215.623 312.896 214.812 312.392 214.616C284.225 203.819 255.694 220.35 228.338 225.721C220.59 227.231 212.003 228.266 204.73 224.518C204.227 224.294 203.807 225.021 204.283 225.273Z" fill="#161616"/>
<path d="M290.127 205.525C296.476 205.358 302.77 206.588 308.588 209.218C309.063 209.441 309.511 208.714 309.007 208.49C303.077 205.805 296.644 204.518 290.127 204.686C289.567 204.714 289.567 205.553 290.127 205.525Z" fill="#161616"/>
<path d="M92.3978 206.085C90.216 203.791 88.5097 201.078 87.4189 198.085C86.9433 196.742 86.5797 195.372 86.3559 193.973C86.2161 193.134 85.6567 190.784 87.5867 191.316C88.3419 191.539 89.209 192.714 89.6286 193.33C89.9363 193.777 90.6635 193.358 90.3559 192.91C88.9013 190.812 87.8105 188.491 87.1391 186.029C86.8035 184.798 86.5797 183.512 86.4399 182.225C86.3839 181.61 86.3559 180.994 86.3559 180.351C86.3559 180.043 86.3559 179.736 86.3839 179.428C86.328 178.812 86.6077 178.337 87.279 178.001C87.5587 177.917 87.8105 177.861 88.0902 177.778C87.6426 176.631 87.307 175.456 87.0832 174.253C86.9713 173.582 86.8874 172.883 86.8315 172.183C86.8315 172.099 86.8874 169.526 87.3349 170.001C87.6147 170.309 88.1741 170.001 88.0342 169.582C86.6077 165.078 86.328 160.295 87.3349 155.652C87.5307 154.757 87.6986 153.442 88.3419 152.715C89.181 151.764 90.3838 152.268 90.9992 153.163C91.3908 153.722 91.6425 154.365 91.8663 155.009C92.5656 157.135 92.8173 159.428 93.2369 161.61C95.055 171.148 96.7893 180.715 97.7963 190.393C98.3557 195.819 98.6913 201.274 98.6913 206.728C98.6913 207.259 99.5305 207.259 99.5305 206.728C99.5305 195.4 98.076 184.127 96.1739 172.966C95.2229 167.456 94.2718 161.89 93.097 156.407C92.7054 154.617 92.0621 152.044 90.1321 151.317C88.7055 150.785 87.6706 151.932 87.1951 153.163C85.2091 158.309 85.6287 164.603 87.251 169.778C87.4748 169.638 87.7265 169.498 87.9503 169.358C86.9154 168.295 86.0762 169.666 85.9923 170.645C85.7965 173.078 86.4119 175.68 87.279 177.917C87.4748 178.421 88.258 178.225 88.0902 177.694C87.8384 176.882 86.8594 176.631 86.1881 177.19C85.0693 178.113 85.4888 180.715 85.6007 181.917C85.9084 186.001 87.3349 189.889 89.6286 193.246C89.8803 193.106 90.1041 192.966 90.3559 192.826C89.6286 191.791 87.9223 189.637 86.4119 190.225C84.8735 190.812 85.4049 193.19 85.6007 194.365C86.3839 198.98 88.5937 203.232 91.8104 206.616C92.174 207.064 92.7894 206.476 92.3978 206.085Z" fill="#E8E8E8"/>
<path d="M98.3847 185.582C98.3847 182.84 98.6364 180.127 99.1679 177.47C99.3917 176.435 100.734 169.75 101.937 169.946C102.133 169.974 102.413 169.89 102.441 169.666C103 166.701 103.783 163.792 104.818 160.967C105.825 158.281 106.944 154.813 109.266 152.967C109.07 152.967 108.874 152.967 108.678 152.967C110.161 154.589 109.741 157.526 109.769 159.568C109.769 161.806 109.713 164.044 109.573 166.309C109.294 171.036 108.734 175.736 107.979 180.379C106.524 189.47 104.343 198.448 102.133 207.399C101.993 207.931 102.804 208.155 102.944 207.623C105.35 197.973 107.671 188.323 109.126 178.477C109.825 173.806 110.301 169.134 110.496 164.435C110.608 161.918 110.636 159.4 110.552 156.883C110.496 155.261 110.412 153.638 109.266 152.407C109.098 152.24 108.846 152.268 108.678 152.407C106.44 154.17 105.378 157.247 104.371 159.82C103.14 162.953 102.245 166.169 101.629 169.47C101.797 169.386 101.965 169.274 102.133 169.19C101.266 169.05 100.818 169.554 100.455 170.309C99.7273 171.876 99.2238 173.61 98.8043 175.288C97.9092 178.673 97.5176 182.169 97.5176 185.665C97.5455 186.113 98.3847 186.113 98.3847 185.582Z" fill="#E8E8E8"/>
<path d="M224.254 216.266C222.855 213.972 221.68 211.567 220.757 209.021C220.338 207.875 219.974 206.7 219.666 205.497C219.499 204.854 219.359 204.21 219.219 203.567C219.163 203.259 219.079 202.924 219.023 202.588C218.743 201.917 219.023 201.469 219.834 201.245C220.114 201.217 220.394 201.162 220.645 201.134C219.89 199.064 219.359 196.938 219.079 194.728C218.939 193.637 218.855 192.574 218.855 191.483C218.855 190.952 219.247 188.379 218.939 188.043C219.191 188.323 219.666 188.099 219.666 187.735C219.611 185.078 219.75 182.449 220.198 179.819C220.394 178.617 220.673 177.442 220.981 176.267C221.149 175.68 221.317 175.092 221.485 174.505C221.596 174.169 221.708 173.833 221.82 173.526C221.932 172.799 222.38 172.491 223.219 172.631C223.387 173.05 224.058 173.022 224.03 172.519C224.002 169.75 224.422 167.036 225.401 164.435C225.652 163.792 226.464 161.19 227.415 161.134C228.645 161.079 228.673 164.407 228.729 165.078C229.205 170.589 229.568 176.127 229.764 181.665C230.184 192.938 230.072 204.21 229.401 215.455C229.373 215.986 230.212 215.986 230.24 215.455C230.827 205.581 230.995 195.707 230.743 185.833C230.603 180.938 230.38 176.043 230.044 171.176C229.876 168.771 229.708 166.393 229.456 163.988C229.317 162.505 229.037 161.134 227.75 160.239C227.61 160.155 227.471 160.183 227.331 160.239C225.513 161.106 224.813 163.344 224.254 165.162C223.499 167.54 223.163 170.029 223.191 172.547C223.471 172.519 223.75 172.463 224.002 172.435C223.722 171.68 222.911 171.344 222.156 171.708C220.925 172.267 220.618 174.477 220.282 175.568C219.163 179.54 218.687 183.651 218.799 187.763C219.051 187.651 219.275 187.567 219.527 187.456C219.471 187.4 219.443 187.372 219.387 187.316C219.303 187.204 219.107 187.148 218.967 187.204C218.352 187.428 218.212 187.819 218.1 188.435C217.848 189.917 217.932 191.539 218.044 193.022C218.24 195.875 218.855 198.672 219.834 201.357C219.974 201.777 220.701 201.749 220.645 201.245C220.562 200.378 219.639 199.903 218.827 200.35C217.513 201.05 218.24 203.203 218.464 204.266C219.443 208.658 221.177 212.826 223.499 216.658C223.806 217.133 224.534 216.714 224.254 216.266Z" fill="#E8E8E8"/>
<path d="M230.996 195.288C230.968 193.777 231.108 192.295 231.416 190.812C231.555 190.141 231.751 189.47 231.975 188.826C232.059 188.602 232.954 186.029 233.485 186.812C233.709 187.148 234.241 187.036 234.269 186.589C234.353 185.358 234.52 184.155 234.856 182.98C234.996 182.477 236.227 178.98 236.786 179.316C237.066 179.512 237.401 179.26 237.429 178.952C237.597 176.491 238.157 174.085 239.164 171.848C239.639 170.757 240.227 169.694 240.898 168.715C241.429 167.904 242.241 166.533 243.08 166.002C245.261 164.603 244.87 168.015 244.842 169.022C244.786 170.281 244.702 171.54 244.618 172.827C244.422 175.54 244.143 178.225 243.779 180.91C242.324 191.847 239.751 202.588 237.206 213.301C237.094 213.833 237.877 214.056 238.017 213.525C240.422 203.483 242.828 193.414 244.31 183.176C245.01 178.309 245.513 173.414 245.709 168.491C245.765 167.316 245.933 165.414 244.646 164.771C243.303 164.099 242.185 165.75 241.457 166.617C238.576 170.141 236.898 174.449 236.59 179.008C236.814 178.896 237.01 178.757 237.234 178.645C234.828 177.106 233.513 185.386 233.457 186.644C233.709 186.561 233.989 186.505 234.241 186.421C233.29 185.022 232.087 186.393 231.639 187.428C230.604 189.917 230.157 192.63 230.185 195.316C230.157 195.819 230.996 195.819 230.996 195.288Z" fill="#E8E8E8"/>
<path d="M30.1575 197.805C29.0386 197.357 27.9757 196.714 27.2764 195.707C26.9408 195.232 26.717 194.7 26.5212 194.169C26.4653 194.057 25.9338 192.351 26.6051 192.686C27.0527 192.91 27.4163 192.407 27.1086 192.015C25.5982 190.085 24.5073 187.875 23.9758 185.47C23.836 184.826 23.5003 183.903 23.6402 183.26C23.9199 181.973 25.2066 181.805 26.0457 182.617C26.9408 183.484 27.724 184.547 28.4233 185.581C31.0246 189.358 32.619 193.721 33.0945 198.28C33.1504 198.812 33.9896 198.812 33.9336 198.28C33.626 195.176 32.8148 192.183 31.5281 189.33C30.3253 186.7 28.5631 183.512 26.2695 181.693C25.5143 181.106 24.4513 180.714 23.5842 181.274C22.5773 181.889 22.801 183.26 22.9129 184.239C23.3045 187.344 24.5912 190.197 26.5212 192.658C26.689 192.434 26.8569 192.211 27.0247 191.987C26.5492 191.763 26.0457 191.735 25.6541 192.183C25.0667 192.826 25.4303 193.721 25.7101 194.42C26.4933 196.518 27.8359 197.833 29.9058 198.672C30.4372 198.812 30.661 198.001 30.1575 197.805Z" fill="#E8E8E8"/>
<path d="M31.0814 188.742C29.9346 184.379 28.8157 180.127 28.2563 175.652C28.1165 174.589 27.9766 173.498 27.8927 172.435C27.8088 171.344 27.5291 169.75 27.8088 168.687C27.8088 168.519 27.8367 168.323 27.8367 168.155C28.7039 167.204 29.3472 167.148 29.7668 168.043C30.0185 168.407 30.2423 168.827 30.4381 169.246C30.9695 170.169 31.445 171.12 31.8926 172.099C35.6408 179.959 37.375 188.658 37.0114 197.357C36.9834 197.889 37.8225 197.889 37.8505 197.357C38.2981 187.26 35.9485 176.659 30.6898 167.988C30.0465 166.925 28.4801 165.47 27.3892 166.925C26.9137 167.54 26.9696 168.547 26.9696 169.274C26.9137 170.701 27.0256 172.155 27.1934 173.582C27.4731 176.099 27.7249 178.673 28.2843 181.162C28.8717 183.819 29.6269 186.421 30.3262 189.05C30.4101 189.47 31.2213 189.246 31.0814 188.742Z" fill="#E8E8E8"/>
<path d="M13.7415 123.177C32.2306 122.73 50.2442 127.401 67.7823 132.799C85.3203 138.198 102.719 144.464 120.9 147.457C130.019 148.967 139.277 149.554 148.508 148.855C158.661 148.1 168.647 146.03 178.493 143.513C188.535 140.939 198.465 137.946 208.506 135.289C218.576 132.604 228.702 130.17 238.911 128.072C259.526 123.821 280.477 120.968 301.567 120.464C304.113 120.408 306.686 120.38 309.232 120.38C309.763 120.38 309.763 119.541 309.232 119.541C288.561 119.485 267.946 121.779 247.61 125.527C227.107 129.331 207.08 134.841 186.996 140.38C177.039 143.149 166.997 145.694 156.759 147.149C146.997 148.519 137.151 148.687 127.361 147.54C108.956 145.415 91.3062 139.373 73.7402 133.806C56.3979 128.324 38.692 123.093 20.4267 122.394C18.1889 122.31 15.9512 122.31 13.7135 122.366C13.1821 122.366 13.1821 123.205 13.7415 123.177Z" fill="#E8E8E8"/>
<path d="M195.834 127.485C214.939 122.226 233.568 115.485 252.476 109.555C271.329 103.625 290.573 98.4507 310.293 96.4368C321.286 95.3179 332.391 95.178 343.383 96.4368C343.915 96.4927 343.915 95.6536 343.383 95.5976C323.859 93.3879 304.14 95.5417 285.035 99.7654C265.651 104.045 246.854 110.45 228.029 116.66C217.288 120.212 206.547 123.681 195.638 126.674C195.079 126.814 195.303 127.625 195.834 127.485Z" fill="#E8E8E8"/>
<path d="M134.328 171.904C141.488 173.554 148.873 172.799 156.033 171.484C163.53 170.113 170.886 168.155 178.243 166.086C193.067 161.946 207.808 157.722 223.221 156.547C231.92 155.904 240.675 156.072 249.346 156.995C249.877 157.051 249.877 156.212 249.346 156.156C234.297 154.533 219.081 155.289 204.256 158.421C189.515 161.526 175.25 166.561 160.537 169.722C152.061 171.54 143.166 173.078 134.579 171.092C134.02 170.981 133.796 171.792 134.328 171.904Z" fill="#E8E8E8"/>
<path d="M273.37 177.33C292.111 176.323 309.453 184.687 327.439 188.491C332.474 189.554 337.564 190.253 342.711 190.337C343.243 190.337 343.243 189.498 342.711 189.498C323.998 189.19 306.852 180.603 288.615 177.498C283.58 176.631 278.489 176.211 273.37 176.491C272.839 176.547 272.811 177.386 273.37 177.33Z" fill="#E8E8E8"/>
<path d="M0.398593 91.0102C19.7828 90.7864 39.139 94.3108 57.1806 101.388C62.3553 103.43 67.4181 105.779 72.3411 108.38C72.8166 108.632 73.2361 107.905 72.7606 107.653C55.5582 98.5345 36.6216 92.8283 17.2654 90.8983C11.6711 90.3389 6.02085 90.0871 0.398593 90.1711C-0.132864 90.1711 -0.132864 91.0102 0.398593 91.0102Z" fill="#E8E8E8"/>
<path d="M19.9225 58.1998C35.2228 62.0318 49.1806 69.5561 63.6418 75.6819C78.2429 81.8636 93.5712 86.1432 109.263 88.269C118.102 89.4718 127.053 90.0032 135.976 89.8634C136.507 89.8634 136.507 89.0242 135.976 89.0242C119.892 89.276 103.781 87.318 88.2287 83.2342C80.5925 81.2202 73.1241 78.7028 65.8236 75.6819C58.579 72.6889 51.4742 69.2764 44.3136 66.1157C36.4536 62.6472 28.4817 59.4585 20.1462 57.3886C19.6428 57.2487 19.419 58.0599 19.9225 58.1998Z" fill="#E8E8E8"/>
<path d="M124.174 106.506C138.692 112.101 154.635 109.052 168.873 104.129C176.537 101.472 183.977 98.2828 191.586 95.5137C199.054 92.8004 206.634 90.4508 214.326 88.4649C223.221 86.1712 232.256 84.381 241.347 83.0944C241.878 83.0104 241.654 82.1993 241.123 82.2832C225.375 84.5209 209.879 88.2691 194.858 93.4717C180.089 98.5905 165.796 105.835 150.16 108.045C141.517 109.276 132.594 108.856 124.398 105.695C123.895 105.499 123.671 106.311 124.174 106.506Z" fill="#E8E8E8"/>
<path d="M104.879 74.1861C105.793 74.1861 106.535 73.4591 106.535 72.5624C106.535 71.6657 105.793 70.9387 104.879 70.9387C103.964 70.9387 103.223 71.6657 103.223 72.5624C103.223 73.4591 103.964 74.1861 104.879 74.1861Z" fill="#5222D0"/>
<path d="M168.186 95.6025C168.886 95.6025 169.453 95.05 169.453 94.3685C169.453 93.687 168.886 93.1345 168.186 93.1345C167.487 93.1345 166.92 93.687 166.92 94.3685C166.92 95.05 167.487 95.6025 168.186 95.6025Z" fill="#5222D0"/>
<path d="M106.099 119.195C106.771 119.195 107.316 118.664 107.316 118.01C107.316 117.355 106.771 116.824 106.099 116.824C105.426 116.824 104.881 117.355 104.881 118.01C104.881 118.664 105.426 119.195 106.099 119.195Z" fill="#5222D0"/>
<path d="M211.134 63.1775C211.295 63.1775 211.426 63.0467 211.426 62.8853C211.426 62.7239 211.295 62.593 211.134 62.593C210.973 62.593 210.842 62.7239 210.842 62.8853C210.842 63.0467 210.973 63.1775 211.134 63.1775Z" fill="#5222D0"/>
<path d="M101.598 71.6857C102.485 71.6857 103.205 70.9806 103.205 70.1107C103.205 69.2409 102.485 68.5358 101.598 68.5358C100.71 68.5358 99.9902 69.2409 99.9902 70.1107C99.9902 70.9806 100.71 71.6857 101.598 71.6857Z" fill="#EC615B"/>
<path d="M107.867 113.966C108.171 113.966 108.419 113.727 108.419 113.431C108.419 113.135 108.171 112.895 107.867 112.895C107.562 112.895 107.314 113.135 107.314 113.431C107.314 113.727 107.562 113.966 107.867 113.966Z" fill="#EC615B"/>
<path d="M200.969 52.6886C201.633 52.6886 202.171 52.1652 202.171 51.5195C202.171 50.8739 201.633 50.3505 200.969 50.3505C200.306 50.3505 199.768 50.8739 199.768 51.5195C199.768 52.1652 200.306 52.6886 200.969 52.6886Z" fill="#EC615B"/>
<path d="M205.823 48.3209C206.379 48.3209 206.83 47.8847 206.83 47.3466C206.83 46.8086 206.379 46.3724 205.823 46.3724C205.267 46.3724 204.816 46.8086 204.816 47.3466C204.816 47.8847 205.267 48.3209 205.823 48.3209Z" fill="#EC615B"/>
<path d="M96.2254 95.3915C94.7316 95.424 94.0983 97.5023 94.5854 98.7363C94.8128 99.3046 95.3161 99.4507 95.8844 99.3533C96.063 99.3208 96.2903 99.2072 96.4852 99.2072C97.2483 99.2559 97.232 99.7268 97.0047 100.181C96.8424 100.506 96.6638 100.766 96.5826 101.123C96.4852 101.578 96.5663 102.081 97.0372 102.276C97.297 102.39 97.6055 102.195 97.8328 102.276C98.6447 102.536 97.9952 103.559 97.9302 104.062C97.8653 104.614 98.0114 105.247 98.5472 105.507C99.0181 105.734 99.5864 105.588 99.8299 105.117C99.9761 104.841 99.5539 104.598 99.4078 104.874C98.8557 105.312 98.531 105.15 98.4011 104.354C98.4011 104.127 98.4336 103.916 98.4985 103.705C98.5797 103.348 98.7421 103.023 98.7746 102.649C98.7908 102.39 98.7746 102.114 98.5797 101.919C98.19 101.562 97.2483 102.081 97.0372 101.448C96.9073 101.058 97.4918 100.409 97.6055 100.051C97.8328 99.3533 97.5568 98.6551 96.7287 98.6714C96.0468 98.6876 95.2349 99.3858 94.9914 98.168C94.8128 97.3237 95.2187 95.8786 96.2578 95.8624C96.5339 95.8624 96.5501 95.3753 96.2254 95.3915Z" fill="#EC615B"/>
<path d="M186.713 79.3169C185.074 79.3494 183.547 80.486 183.158 82.1097C182.817 83.5223 183.693 85.2109 185.301 84.3341C185.869 84.0256 186.437 83.4736 186.535 82.7916C186.6 82.2558 186.259 81.8012 185.691 81.8499C184.895 81.9148 184.164 82.8566 183.742 83.4411C183.255 84.1068 182.752 85.0323 182.833 85.8929C182.995 87.3704 185.122 87.6627 185.869 86.4936C185.999 86.2988 185.739 86.0065 185.528 86.1526C184.408 87.0132 183.239 88.4258 183.677 89.9521C184.018 91.1536 185.317 92.0141 186.535 91.592C186.827 91.4946 186.697 91.0237 186.405 91.1211C185.317 91.4946 184.181 90.5853 184.083 89.4812C183.986 88.2959 184.879 87.2567 185.772 86.5748C185.658 86.4611 185.544 86.3475 185.431 86.2338C185.106 86.7534 184.375 86.8671 183.84 86.591C183.076 86.1851 183.288 85.3083 183.58 84.6589C183.823 84.1068 184.181 83.6035 184.586 83.1651C184.749 82.9865 185.171 82.4994 185.398 82.4669C185.609 82.5156 185.837 82.5805 186.048 82.6292C186.032 82.8403 185.967 83.0189 185.853 83.1975C185.415 83.912 184.31 84.4802 183.71 83.6522C183.304 83.1164 183.564 82.1097 183.84 81.5739C184.392 80.5022 185.496 79.8203 186.681 79.804C187.022 79.7878 187.022 79.3007 186.713 79.3169Z" fill="#EC615B"/>
<path d="M59.1888 54.718C59.7084 54.0848 60.6014 54.2959 60.8612 55.0265C61.0235 55.4649 61.0073 55.8384 61.4132 56.1469C62.1439 56.6989 63.1181 56.2768 63.8975 56.1144C65.9271 55.7085 65.2614 57.7381 66.4142 58.5337C66.9175 58.8909 67.6807 58.7935 67.9404 58.209C68.0703 57.9329 67.6482 57.6731 67.5183 57.9654C67.0961 58.9071 66.3168 57.6894 66.1869 57.3159C66.1057 57.0886 66.057 56.8613 65.9595 56.6502C65.8134 56.3092 65.6186 55.9845 65.2938 55.7734C64.3846 55.2051 63.3779 55.9033 62.4524 55.9196C61.4619 55.952 61.5594 55.2701 61.2184 54.6044C61.0723 54.3121 60.8287 54.101 60.5202 53.9711C59.9194 53.7438 59.2375 53.8737 58.8478 54.3771C58.6367 54.6206 58.9939 54.9616 59.1888 54.718Z" fill="#EC615B"/>
<path d="M60.925 59.3131C61.9479 58.209 63.4254 58.7286 64.0262 59.9301C64.3997 60.677 64.6594 61.4888 65.4713 61.8623C66.7053 62.4306 68.3127 61.7973 68.7349 60.5146C68.8323 60.2224 68.3614 60.0925 68.264 60.3847C67.9555 61.3265 66.8189 61.7811 65.9097 61.5051C64.7893 61.1803 64.7082 59.8976 64.0912 59.0858C63.2468 57.9654 61.5257 57.9492 60.584 58.9721C60.3729 59.1994 60.7139 59.5404 60.925 59.3131Z" fill="#EC615B"/>
<path d="M176.157 130.609C176.758 129.911 177.57 129.927 178.301 130.414C178.544 130.577 178.788 130.739 179.096 130.625C179.486 130.479 179.551 129.96 179.827 129.7C180.395 129.164 181.337 129.164 181.921 129.651C182.165 129.846 182.506 129.505 182.262 129.31C181.386 128.579 179.941 128.644 179.242 129.619C179.177 129.716 179.096 129.976 179.015 130.025C178.642 130.268 178.495 129.895 178.252 129.797C177.992 129.7 177.749 129.586 177.473 129.57C176.823 129.521 176.222 129.781 175.8 130.268C175.622 130.495 175.963 130.836 176.157 130.609Z" fill="#5222D0"/>
<path d="M180.916 131.437C182.021 129.797 186.015 132.022 186.421 129.392C186.469 129.083 185.999 128.953 185.95 129.262C185.739 130.642 183.823 130.317 182.849 130.285C181.939 130.268 181.03 130.398 180.494 131.194C180.316 131.454 180.738 131.697 180.916 131.437Z" fill="#5222D0"/>
<path d="M94.863 138.257C95.4962 137.169 96.3405 136.26 97.3797 135.562C97.6395 135.383 97.3959 134.961 97.1361 135.139C96.032 135.902 95.1228 136.86 94.4408 138.013C94.2784 138.273 94.7006 138.517 94.863 138.257Z" fill="#5222D0"/>
<path d="M97.1671 137.477C98.0277 136.893 98.8882 136.292 99.7488 135.708C100.009 135.529 99.765 135.107 99.5052 135.285C98.6447 135.87 97.7841 136.471 96.9236 137.055C96.6638 137.234 96.9073 137.656 97.1671 137.477Z" fill="#5222D0"/>
<path d="M126.099 208.35C127.218 206.952 127.889 206.308 128.141 206.476C128.784 206.868 126.491 212.518 121.232 223.455C108.337 224.07 101.792 223.763 101.624 222.504C101.484 221.413 106.267 219.595 115.973 217.077C118.099 212.574 120.225 208.071 122.351 203.567C123.61 205.162 124.84 206.756 126.099 208.35Z" fill="black"/>
<path d="M132.645 119.177C131.582 126.702 130.351 134.366 129.008 142.142C125.036 164.967 120.197 186.589 114.799 206.924C115.582 207.791 117.624 209.777 120.981 210.7C125.204 211.847 128.701 210.588 129.708 210.196C136.029 188.099 142.323 165.974 148.644 143.876C156.952 134.813 155.357 123.093 149.008 118.842C144.812 116.045 138.323 116.436 132.645 119.177Z" fill="#EC615B"/>
<path opacity="0.15" d="M132.98 119.653C133.792 119.737 133.288 132.296 132.645 143.596C131.19 169.246 126.407 191.763 120.729 210.532C120.114 210.364 119.386 210.112 118.659 209.749C116.869 208.854 115.666 207.679 114.967 206.84C116.673 200.742 119.135 191.567 121.68 180.323C129.652 145.107 131.834 119.569 132.98 119.653Z" fill="#353535"/>
<path opacity="0.13" d="M128.253 148.995C127.637 156.38 126.742 164.156 125.483 172.267C123.442 185.61 120.728 197.861 117.735 208.966C117.4 208.91 116.896 208.77 116.337 208.406C115.582 207.903 115.218 207.259 115.078 206.952C117.316 197.637 119.498 188.239 121.679 178.757C123.945 168.743 126.127 158.813 128.253 148.995Z" fill="#353535"/>
<path d="M179.667 207.511C178.436 206.113 177.681 205.469 177.401 205.637C176.702 206.029 179.219 211.679 184.981 222.616C199.163 223.231 206.324 222.924 206.519 221.665C206.687 220.574 201.429 218.756 190.743 216.238C188.394 211.735 186.072 207.232 183.723 202.728C182.38 204.323 181.037 205.917 179.667 207.511Z" fill="black"/>
<path d="M143.387 125.864C142.352 130.843 144.702 134.955 145.569 136.325C154.8 160.996 164.002 185.695 173.233 210.366C174.799 210.589 178.044 210.813 181.792 209.498C186.016 208.016 188.477 205.359 189.428 204.184C183.918 192.436 180.449 182.59 178.324 175.905C172.757 158.423 165.261 141.528 159.946 123.962C159.051 121.025 157.541 115.878 154.128 115.235C150.156 114.508 144.59 119.99 143.387 125.864Z" fill="#EC615B"/>
<path opacity="0.1" d="M152.058 115.401C150.128 116.8 153.708 124.268 155.414 127.989C159.526 136.967 161.652 146.729 165.596 155.792C169.848 165.554 176.085 181.358 184.896 207.875C185.512 207.567 186.295 207.148 187.078 206.504C188.113 205.665 188.812 204.798 189.26 204.127C187.05 199.344 183.861 192.099 180.505 183.064C179.302 179.848 179.162 179.26 177.848 175.232C176.449 170.953 174.267 164.463 173.82 163.149C171.722 157.107 171.722 157.918 167.778 147.205C166.939 144.939 165.792 141.806 164.421 137.723C163.75 135.737 163.246 134.142 162.883 132.995C162.827 132.828 160.981 127.093 158.379 120.296C157.708 118.506 156.981 116.744 155.163 115.821C155.051 115.737 153.009 114.702 152.058 115.401Z" fill="#353535"/>
<path opacity="0.12" d="M165.708 141.443C165.541 141.499 169.289 153.163 187.218 206.364C187.946 205.665 188.673 204.966 189.4 204.239C188.309 201.805 186.603 197.945 184.645 193.134C180.142 182.141 178.212 175.736 173.177 161.61C170.38 153.75 165.876 141.387 165.708 141.443Z" fill="#353535"/>
<path d="M173.628 37.2775C172.985 37.3334 172.537 35.4314 171.838 35.4594C171.278 35.4873 170.887 36.746 170.859 36.9139C170.523 38.0607 170.691 39.2355 171.838 42.3124C172.173 43.2074 172.621 44.3543 173.208 45.6689C172.901 47.8507 172.341 50.8716 171.334 54.424C170.076 58.8155 167.95 66.0321 162.327 73.4725C160.593 75.7662 157.992 78.815 154.216 81.9478C152.957 84.9688 152.789 87.4862 152.845 89.0526C152.873 89.9756 152.985 94.1434 154.523 94.535C155.558 94.7867 156.789 93.2763 157.404 92.521C163.67 84.6051 166.831 80.6612 168.09 78.3675C171.027 73.1089 173.404 68.8293 175.418 62.3958C176.901 57.6966 177.6 53.5848 177.991 50.5639C178.635 49.501 179.53 47.9906 180.565 46.1444C183.39 41.1096 184.397 38.8439 185.012 36.3265C185.656 33.7251 185.767 31.4874 185.124 31.2357C184.649 31.0679 184.061 31.935 183.53 31.7112C182.747 31.3755 183.586 29.0539 182.747 28.5504C182.439 28.3546 181.824 28.3826 180.565 29.2217C179.698 27.4036 179.138 27.0679 178.775 27.0959C178.019 27.2078 177.656 29.2777 177.488 31.6273C177.264 30.4805 176.705 28.0749 176.005 28.0749C175.418 28.0749 174.803 29.8371 174.635 31.2357C174.383 33.1657 174.943 34.5643 174.243 36.5223C174.103 36.802 173.908 37.2216 173.628 37.2775Z" fill="white"/>
<path d="M172.65 45.3052C172.566 48.9974 171.391 52.5498 170.272 56.0462C169.181 59.3469 167.951 62.6195 166.44 65.7523C163.643 71.5704 159.867 76.8849 154.916 81.0527C154.496 81.3883 155.112 82.0037 155.503 81.6401C160.65 77.3325 164.51 71.7662 167.363 65.7243C168.846 62.5915 170.077 59.3469 171.139 56.0462C172.258 52.5778 173.405 49.0254 173.461 45.3332C173.517 44.7737 172.678 44.7737 172.65 45.3052Z" fill="#161616"/>
<path d="M177.625 50.1723C176.87 59.0112 173.01 67.3187 169.094 75.1507C165.514 82.3114 161.178 89.2763 154.717 94.1713C154.297 94.507 154.717 95.2342 155.136 94.8986C161.738 89.8917 166.185 82.8708 169.821 75.5703C173.821 67.5985 177.681 59.1511 178.464 50.1723C178.492 49.6408 177.653 49.6408 177.625 50.1723Z" fill="#161616"/>
<path d="M173.349 44.8578C172.398 42.8159 171.503 40.4383 171.363 38.1726C171.335 37.8649 171.279 36.5503 171.503 36.3825C172.202 35.907 172.398 36.7181 172.566 37.0538C172.873 37.6412 173.097 38.0608 173.684 38.3964C174.16 38.6482 174.579 37.9489 174.104 37.6692C173.125 37.1097 173.209 35.5713 172.09 35.1517C171.139 34.7881 170.803 35.5713 170.608 36.3825C169.936 39.2635 171.391 42.704 172.566 45.2774C172.873 45.7809 173.572 45.3333 173.349 44.8578Z" fill="#161616"/>
<path d="M174.3 38.1446C175.251 35.9628 175.027 33.7251 175.111 31.4035C175.139 30.872 175.027 29.6413 175.335 29.2217C175.895 28.5224 176.314 30.0049 176.454 30.4804C176.846 31.9909 176.93 33.5013 176.818 35.0397C176.762 35.5712 177.601 35.5712 177.657 35.0397C177.741 33.9768 177.629 26.5644 175.251 27.7672C174.272 28.2707 174.328 30.2566 174.3 31.1237C174.216 33.3335 174.524 35.5992 173.601 37.697C173.377 38.2005 174.104 38.6481 174.3 38.1446Z" fill="#161616"/>
<path d="M177.739 35.0957C177.907 34.0887 178.047 33.0817 178.131 32.0468C178.215 30.9 178.047 29.6133 178.41 28.5224C178.718 27.5154 178.886 27.3196 179.306 28.2147C179.613 28.8581 179.725 29.5294 179.809 30.2007C179.949 31.4594 180.061 32.9419 179.669 34.1726C179.501 34.7041 180.312 34.8999 180.48 34.3964C180.928 32.9139 180.816 31.0958 180.564 29.5853C180.424 28.7741 179.977 26.6483 178.886 26.6483C177.935 26.6483 177.543 28.2427 177.459 28.914C177.18 30.872 177.236 32.8859 176.928 34.8439C176.844 35.4034 177.655 35.6271 177.739 35.0957Z" fill="#161616"/>
<path d="M180.787 34.3684C180.899 33.5013 180.899 32.6062 180.899 31.739C180.927 30.9838 180.871 28.9699 181.822 29.0538C182.521 29.1097 182.465 29.6971 182.521 30.3125C182.549 30.7321 182.549 31.1796 182.549 31.5992C182.549 32.6341 182.493 33.6411 182.298 34.676C182.186 35.2075 182.997 35.4313 183.109 34.8998C183.388 33.5292 184.34 27.907 181.822 27.851C179.5 27.7951 180.116 33.1096 179.948 34.3963C179.892 34.8998 180.731 34.8998 180.787 34.3684Z" fill="#161616"/>
<path d="M183.782 31.9068C184.117 31.8789 184.425 31.8509 184.761 31.8229C184.816 32.0747 184.872 32.3264 184.9 32.6061C184.956 33.1096 184.984 33.5851 184.984 34.0886C184.956 34.9837 184.816 35.9068 184.565 36.7739C184.117 38.4801 183.362 40.1025 182.523 41.6689C180.984 44.5779 179.334 47.4589 177.74 50.34C177.488 50.8155 178.215 51.2351 178.467 50.7596C179.81 48.3261 181.18 45.8926 182.523 43.459C183.782 41.1934 185.04 38.8158 185.572 36.2424C185.851 34.8438 186.439 31.6271 184.984 30.6481C184.061 30.0048 182.858 30.8719 182.97 31.9348C182.998 32.4383 183.837 32.4383 183.782 31.9068Z" fill="#161616"/>
<path opacity="0.08" d="M182.356 28.7461C181.936 28.7741 181.824 30.5083 181.545 32.5782C181.097 36.2145 180.593 40.2983 178.859 43.7108C178.3 44.8297 177.293 46.48 175.475 48.2702C175.195 50.2562 174.664 53.1092 173.768 56.4658C172.202 62.3398 169.908 70.6753 163.419 78.4793C161.657 80.5772 158.944 83.4862 154.944 86.3113C154.832 89.0525 154.72 91.7657 154.58 94.5069C156.314 93.1923 158.832 91.0944 161.433 88.1015C164.846 84.1575 167.055 79.6821 171.335 70.8991C174.747 63.8782 175.671 61.165 176.23 59.207C177.293 55.6267 177.824 52.5218 178.104 50.2841C180.006 47.2912 181.405 44.6339 182.384 42.536C184.09 38.8998 186.831 33.0258 185.153 31.5713C184.677 31.1797 183.978 31.2076 183.447 31.2915C183.195 30.1167 182.747 28.7182 182.356 28.7461Z" fill="#353535"/>
<path opacity="0.1" d="M181.29 45.1375C179.808 46.7039 178.325 48.2982 176.843 49.8646C176.703 51.2072 176.451 53.1932 175.864 55.5708C174.745 60.0462 173.123 63.179 172.479 64.4937C170.829 67.7943 168.675 72.8291 166.605 80.3534C167.529 78.7591 172.424 70.2558 175.165 62.9832C176.2 60.1861 176.759 58.7316 177.207 56.4659C177.766 53.7526 177.626 52.4939 178.353 50.3122C179.165 47.9346 180.395 46.2004 181.29 45.1375Z" fill="#353535"/>
<path d="M103.582 31.1517C102.687 31.4035 102.659 33.837 102.799 35.2076C103.023 37.6411 103.974 39.4592 104.394 40.2424C106.184 43.5431 107.918 46.6479 109.68 49.6408C109.904 51.6548 110.295 54.396 111.079 57.5847C112.449 63.179 114.211 66.9831 116.645 72.2137C120.505 80.4653 122.799 85.1925 127.694 90.2273C129.54 92.1014 131.218 93.5 132.365 94.3951C132.785 93.9196 135.358 90.9546 134.854 86.7309C134.463 83.2904 132.281 81.1926 131.666 80.6331C130.323 79.5143 128.281 77.6962 126.183 75.1228C121.764 69.6404 119.918 64.158 117.232 55.9344C116.505 53.6967 115.526 50.5359 114.547 46.6479C115.079 44.9137 115.526 43.5431 115.834 42.6759C116.757 40.0187 117.344 38.676 116.925 36.9698C116.813 36.5222 116.589 35.6831 116.03 35.5153C115.386 35.3474 114.407 36.1306 113.652 37.5572C113.232 35.2635 113.037 33.3615 112.953 31.9349C112.841 29.865 112.897 28.3546 112.449 28.2427C111.974 28.1308 111.247 29.8091 111.163 29.9769C110.463 31.5433 110.463 33.0258 110.575 33.9489C110.799 28.7462 110.212 27.4315 109.568 27.2637C109.037 27.1238 108.365 27.8231 108.17 28.0469C106.855 29.4455 107.526 31.4874 107.582 31.6272C106.995 28.5224 106.38 28.3266 106.184 28.3266C105.68 28.2986 105.177 29.4175 104.981 30.0608C104.757 30.844 104.897 31.5433 104.981 31.9069C104.533 31.4874 104.002 31.0398 103.582 31.1517Z" fill="white"/>
<path d="M114.294 45.3611C114.378 48.9415 115.413 52.4099 116.475 55.8225C117.538 59.207 118.741 62.5356 120.224 65.7523C122.993 71.7662 126.741 77.3325 131.748 81.668C132.167 82.0317 132.755 81.4163 132.335 81.0806C127.496 76.8849 123.86 71.5704 121.147 65.7803C119.664 62.6475 118.461 59.3748 117.426 56.0742C116.308 52.5778 115.189 49.0254 115.105 45.3332C115.105 44.8297 114.266 44.8297 114.294 45.3611Z" fill="#161616"/>
<path d="M109.481 50.2562C110.208 59.0952 113.901 67.4027 117.705 75.3186C121.229 82.6751 125.565 89.8358 132.054 94.9266C132.474 95.2622 133.061 94.6748 132.642 94.3392C126.292 89.3882 122.096 82.4513 118.6 75.3186C114.768 67.4307 111.02 59.0952 110.292 50.2842C110.264 49.7248 109.425 49.7248 109.481 50.2562Z" fill="#161616"/>
<path d="M115.163 45.3612C116.338 42.7319 117.82 39.1795 117.009 36.2425C116.813 35.5153 116.45 34.9279 115.611 35.2635C114.52 35.6831 114.632 37.2215 113.653 37.781C113.177 38.0607 113.597 38.7879 114.072 38.5082C114.52 38.2565 114.771 37.9208 115.023 37.4733C115.135 37.2495 115.247 36.746 115.443 36.5782C116.534 35.767 116.338 37.5292 116.338 38.0327C116.282 40.3823 115.359 42.8438 114.408 44.9696C114.212 45.4171 114.939 45.8367 115.163 45.3612Z" fill="#161616"/>
<path d="M114.21 37.7811C113.343 35.7671 113.595 33.5854 113.539 31.4595C113.511 30.5644 113.623 28.3827 112.588 27.8512C110.266 26.6484 110.127 34.0888 110.211 35.1238C110.266 35.6552 111.106 35.6552 111.05 35.1238C110.938 33.6693 110.994 32.2148 111.329 30.7882C111.413 30.4246 111.721 28.7463 112.42 29.054C112.728 29.1939 112.7 31.1239 112.7 31.4595C112.756 33.7812 112.56 36.0189 113.483 38.2006C113.707 38.7041 114.434 38.2846 114.21 37.7811Z" fill="#161616"/>
<path d="M110.967 34.9278C110.659 32.9699 110.715 30.9839 110.436 29.0539C110.352 28.3546 109.988 26.7602 109.009 26.7322C108.002 26.7043 107.554 28.7182 107.415 29.4455C107.107 31.0398 106.995 32.9139 107.443 34.4803C107.582 34.9838 108.394 34.788 108.254 34.2565C107.918 33.1377 108.002 31.851 108.086 30.6762C108.142 29.9769 108.254 29.2497 108.506 28.5783C108.925 27.5154 109.093 27.2917 109.485 28.5783C109.792 29.6133 109.652 30.816 109.736 31.879C109.82 32.9698 109.96 34.0607 110.156 35.1516C110.24 35.6831 111.051 35.4593 110.967 34.9278Z" fill="#161616"/>
<path d="M108.029 34.4242C107.862 33.1655 108.477 27.795 106.183 27.8789C103.722 27.9628 104.673 33.5851 104.925 34.9277C105.037 35.4592 105.848 35.2354 105.736 34.7039C105.54 33.697 105.484 32.662 105.484 31.6271C105.484 30.8718 105.26 29.1656 106.155 29.0817C107.078 28.9978 107.023 31.0397 107.05 31.7669C107.078 32.662 107.051 33.5291 107.162 34.3962C107.246 34.9557 108.113 34.9836 108.029 34.4242Z" fill="#161616"/>
<path d="M105.148 31.963C105.26 30.928 104.113 30.033 103.19 30.6763C101.82 31.6273 102.323 34.6762 102.575 36.0188C103.022 38.5083 104.141 40.802 105.344 43.0397C106.715 45.641 108.141 48.2144 109.512 50.7877C109.764 51.2633 110.491 50.8437 110.239 50.3682C108.645 47.4032 106.994 44.4662 105.456 41.4733C104.701 39.9908 104.001 38.4524 103.61 36.802C103.386 35.9349 103.246 35.0398 103.218 34.1168C103.218 33.7811 103.218 33.4455 103.246 33.0818C103.246 32.7182 103.302 32.3546 103.386 32.0189C103.414 31.5994 103.75 31.5714 104.337 31.935C104.253 32.4944 105.092 32.4944 105.148 31.963Z" fill="#161616"/>
<path opacity="0.09" d="M106.407 28.5783C107.19 28.858 106.63 32.2146 106.491 33.4733C106.183 36.3544 106.826 40.7179 111.386 46.9275C112.588 52.9134 114.882 61.0811 119.581 69.92C123.553 77.4164 128.057 83.1225 131.805 87.2064C132.084 89.6679 132.336 92.1293 132.616 94.6188C130.882 93.416 128.476 91.514 126.098 88.7448C124.029 86.3113 122.798 84.1855 121.008 80.8009C116.392 72.0459 114.071 67.6544 112.448 62.3398C111.553 59.4308 110.49 55.2351 109.875 50.0324C107.665 47.1793 106.155 44.55 105.148 42.536C103.19 38.648 102.686 36.1865 102.742 33.9768C102.798 31.4594 103.246 31.1237 103.442 31.0398C103.861 30.872 104.421 31.2076 104.784 31.4873C104.756 31.3475 104.477 30.0888 105.316 29.1657C105.456 29.0538 106.015 28.4384 106.407 28.5783Z" fill="#353535"/>
<path opacity="0.09" d="M104.171 38.5643C104.45 38.4244 106.156 40.83 107.387 42.8439C110.268 47.5711 111.443 51.7948 111.751 52.8297C113.597 59.2352 115.974 64.6616 120.758 75.4866C122.212 78.7592 124.422 83.5144 127.527 89.1366C126.632 88.2975 125.345 87.0387 123.974 85.3884C122.772 83.9619 118.828 79.1228 114.716 68.0182C113.121 63.6826 111.247 57.8366 109.905 50.6479C108.954 49.0256 107.639 46.704 106.24 43.7949C105.625 42.4803 103.863 38.7321 104.171 38.5643Z" fill="#353535"/>
<path d="M143.885 78.1992C142.906 78.1153 141.172 77.9754 138.906 78.1992C136.277 78.4789 133.927 78.7027 132.165 80.2411C130.85 81.3879 130.459 82.8145 129.732 85.6396C129.312 87.2899 128.753 89.5276 128.809 92.5485C128.92 98.1428 131.046 98.8701 132.165 105.639C132.725 108.912 132.669 111.457 132.641 114.506C132.585 118.562 132.165 122.002 131.718 124.66C132.92 125.611 134.766 126.897 137.284 127.904C138.822 128.52 143.186 130.17 148.78 129.191C154.654 128.184 158.262 124.883 159.465 123.681C157.507 118.394 157.311 114.142 157.479 111.261C157.703 107.765 158.43 107.01 159.465 99.4854C160.248 93.8912 160.22 91.5695 160.165 90.3108C159.969 85.276 159.857 82.7306 158.179 81.0243C156.528 79.346 152.305 78.9544 143.885 78.1992Z" fill="white"/>
<path d="M142.489 78.0036C140.419 77.8637 138.349 77.9756 136.307 78.3392C134.573 78.6469 132.783 78.9546 131.636 80.3812C129.538 82.9545 128.643 86.5069 128.475 89.7516C128.056 98.0311 132.167 105.583 133.566 113.583C133.65 114.115 134.461 113.891 134.377 113.359C133.118 106.143 129.65 99.4017 129.314 92.0173C129.174 88.6327 129.678 85.1643 131.412 82.1993C132 81.1923 132.643 80.2133 133.79 79.7937C134.573 79.514 135.44 79.3462 136.251 79.1784C138.293 78.7868 140.391 78.7029 142.461 78.8147C143.02 78.8707 143.02 78.0316 142.489 78.0036Z" fill="#161616"/>
<path d="M131.635 105.528C132.447 111.681 132.363 117.891 131.356 124.017C131.272 124.548 132.083 124.772 132.167 124.24C133.202 118.031 133.314 111.765 132.475 105.528C132.391 104.996 131.551 104.996 131.635 105.528Z" fill="#161616"/>
<path d="M145.927 78.7591C149.676 78.5353 154.291 78.9829 157.48 81.2206C159.41 82.5912 159.494 84.8848 159.689 87.0386C159.885 88.9686 159.969 90.8987 159.829 92.8567C159.27 100.493 156.193 107.737 156.221 115.458C156.221 115.989 157.06 115.989 157.06 115.458C157.032 106.758 161.004 98.5628 160.724 89.8358C160.612 86.5072 160.724 82.2275 157.536 80.2695C154.207 78.2276 149.759 77.6962 145.927 77.9199C145.368 77.9479 145.368 78.7871 145.927 78.7591Z" fill="#161616"/>
<path d="M157.089 107.066C157.033 112.549 157.705 117.975 159.047 123.29C159.187 123.821 159.998 123.597 159.858 123.066C158.544 117.835 157.872 112.465 157.928 107.066C157.928 106.535 157.089 106.535 157.089 107.066Z" fill="#161616"/>
<path d="M131.41 124.8C135.214 127.961 140.053 129.863 145.032 129.891C150.654 129.919 155.353 127.178 159.689 123.849C160.108 123.513 159.689 122.786 159.269 123.122C155.157 126.254 150.766 128.94 145.479 129.024C140.584 129.108 135.773 127.289 132.025 124.185C131.577 123.849 130.99 124.436 131.41 124.8Z" fill="#161616"/>
<path opacity="0.11" d="M152.583 78.5635C153.45 80.6613 154.569 83.8221 155.128 87.7661C156.219 95.682 154.373 101.752 152.163 108.773C150.513 114.003 147.744 121.22 142.877 129.304C144.415 129.443 146.317 129.443 148.443 129.052C153.982 128.045 157.674 125.024 159.324 123.486C159.128 122.087 158.793 119.905 158.317 117.276C157.562 113.164 157.31 112.856 157.226 111.374C157.114 109.556 157.422 109.78 159.072 102.087C159.716 99.0665 160.191 96.3253 160.471 92.745C160.499 92.4373 160.499 92.1296 160.527 91.8219C160.667 87.2066 160.723 84.3815 158.765 81.976C156.891 79.6823 154.177 78.8712 152.583 78.5635Z" fill="#353535"/>
<path opacity="0.08" d="M160.67 91.9617C160.474 91.9057 159.495 93.4441 157.202 99.5699C154.684 106.311 151.579 116.017 149.174 128.576C150.405 128.408 152.111 128.045 153.985 127.206C156.502 126.059 158.181 124.52 159.132 123.485C158.293 120.548 157.341 116.185 157.369 110.87C157.397 100.409 161.118 92.1015 160.67 91.9617Z" fill="#353535"/>
<path d="M133.794 57.8365C132.703 60.0742 133.01 62.3399 133.262 63.4028C133.15 63.4028 131.836 63.3468 131.136 64.2979C130.297 65.4167 131.08 66.8153 131.22 67.0391C131.416 67.3747 131.668 67.8502 132.199 67.9901C133.038 68.2418 133.822 67.5146 133.877 67.4586C134.297 68.5215 134.996 69.8642 136.087 71.2348C137.765 73.3606 139.64 74.6193 140.898 75.3186C140.954 76.6612 141.01 77.9759 141.038 79.3185C141.346 79.5982 141.989 80.1017 142.94 80.2695C144.814 80.6332 146.269 79.4024 146.437 79.2346C146.409 77.5563 146.381 75.878 146.353 74.1997C147.08 73.6403 147.919 72.8571 148.73 71.8222C150.353 69.6963 150.94 67.5426 151.164 66.2559C151.471 66.3678 151.975 66.4796 152.618 66.4796C153.234 66.4796 154.017 66.4517 154.381 65.9482C154.772 65.3887 154.353 64.5776 153.933 63.7105C153.513 62.8993 153.206 62.7874 153.094 62.7594C152.618 62.6196 152.171 62.8993 152.031 62.9832C152.143 62.0881 152.199 60.4098 151.499 58.5357C151.304 58.0043 150.185 55.1512 147.472 53.6408C143.024 51.2352 136.031 53.2771 133.794 57.8365Z" fill="white"/>
<path d="M133.287 57.8923C131.637 65.1369 134.322 74.4793 142.546 76.0457C143.077 76.1576 143.301 75.3464 142.77 75.2345C134.994 73.7521 132.56 64.9411 134.099 58.116C134.21 57.5846 133.399 57.3608 133.287 57.8923Z" fill="#161616"/>
<path d="M142.657 76.0178C143.804 76.3534 145.371 75.2625 146.294 74.6472C147.524 73.836 148.615 72.801 149.482 71.5983C151.636 68.7172 152.447 65.0809 152.112 61.5566C152.056 61.0251 151.217 61.0251 151.273 61.5566C151.58 64.6054 151.021 67.7103 149.371 70.3116C148.671 71.4025 147.804 72.3815 146.797 73.2206C145.986 73.8919 144 75.5143 142.881 75.2066C142.35 75.0667 142.126 75.8779 142.657 76.0178Z" fill="#161616"/>
<path d="M140.197 75.3465C140.616 76.4933 140.728 77.6961 140.532 78.8989C140.448 79.4303 141.259 79.6541 141.343 79.1226C141.567 77.752 141.483 76.4374 141.008 75.1227C140.84 74.6193 140.029 74.815 140.197 75.3465Z" fill="#161616"/>
<path d="M145.988 74.3954C145.848 75.822 145.96 77.2205 146.324 78.6191C146.463 79.1506 147.275 78.9268 147.135 78.3953C146.799 77.0807 146.715 75.738 146.827 74.3954C146.883 73.864 146.044 73.864 145.988 74.3954Z" fill="#161616"/>
<path d="M140.56 79.4304C142.49 81.5842 146.518 81.5282 147.217 78.2556C147.329 77.7241 146.518 77.5003 146.406 78.0318C145.818 80.6891 142.686 80.5213 141.147 78.843C140.784 78.4514 140.196 79.0388 140.56 79.4304Z" fill="#161616"/>
<path d="M140.727 75.9059C142.349 77.3884 144.895 77.0527 145.929 75.0667C146.181 74.5912 145.454 74.1716 145.202 74.6472C144.419 76.1296 142.545 76.4653 141.314 75.3185C140.923 74.9548 140.335 75.5422 140.727 75.9059Z" fill="#161616"/>
<path d="M142.406 76.5212C142.798 76.4932 143.162 76.5212 143.525 76.6331C144.057 76.7729 144.28 75.9618 143.749 75.8219C143.301 75.71 142.854 75.6541 142.406 75.6821C141.875 75.71 141.875 76.5492 142.406 76.5212Z" fill="#161616"/>
<path d="M133.374 67.5423C132.228 68.4654 131.221 67.1787 131.109 66.0878C130.969 65.0249 131.892 63.7103 133.067 64.4375C133.514 64.7172 133.934 63.99 133.486 63.7103C131.752 62.6194 130.074 64.4655 130.27 66.1997C130.493 68.0458 132.311 69.4724 133.962 68.1297C134.381 67.7941 133.794 67.2067 133.374 67.5423Z" fill="#161616"/>
<path d="M152.255 63.4588C153.15 62.6196 154.017 64.214 153.989 64.9412C153.989 65.3888 153.765 65.8363 153.374 66.0881C153.066 66.2839 152.339 66.5356 152.087 66.144C151.807 65.6965 151.08 66.116 151.36 66.5636C151.779 67.2629 152.73 67.2908 153.43 67.0111C154.241 66.6755 154.772 65.9202 154.8 65.0531C154.884 63.5147 153.122 61.4728 151.64 62.8713C151.276 63.235 151.863 63.8504 152.255 63.4588Z" fill="#161616"/>
<path d="M141.008 57.8084C141.232 59.7664 141.12 61.6125 140.924 63.5705C140.812 64.8851 141.511 65.4446 142.546 66.2837C142.966 66.6194 143.553 66.032 143.134 65.6963C142.406 65.081 141.763 64.6614 141.791 63.5425C141.791 63.0111 141.931 62.4237 141.987 61.8922C142.099 60.5216 142.043 59.151 141.875 57.8084C141.791 57.2769 140.952 57.2769 141.008 57.8084Z" fill="#161616"/>
<path d="M136.336 61.7805C136.308 61.1651 137.204 60.7735 137.707 60.8015C138.294 60.8015 138.602 61.277 138.91 61.7245C139.217 62.1721 139.945 61.7525 139.637 61.3049C139.078 60.4938 138.434 59.8224 137.371 59.9903C136.476 60.1581 135.441 60.8014 135.469 61.8084C135.497 62.3399 136.336 62.3399 136.336 61.7805Z" fill="#161616"/>
<path d="M145.933 61.0251C146.688 59.5986 148.73 59.8223 149.094 61.4167C149.206 61.9482 150.017 61.7244 149.905 61.1929C149.401 58.8993 146.297 58.5357 145.206 60.5776C144.982 61.0531 145.681 61.5006 145.933 61.0251Z" fill="#161616"/>
<path d="M135.526 58.8155C136.002 58.0883 136.813 57.6128 137.68 57.5009C138.211 57.4449 138.211 56.6058 137.68 56.6617C136.477 56.8016 135.47 57.389 134.799 58.3959C134.491 58.8435 135.219 59.2631 135.526 58.8155Z" fill="#161616"/>
<path d="M145.931 57.249C146.938 57.1931 147.861 57.5007 148.588 58.1721C148.98 58.5357 149.595 57.9483 149.176 57.5847C148.281 56.7735 147.134 56.3539 145.903 56.4099C145.372 56.4378 145.372 57.277 145.931 57.249Z" fill="#161616"/>
<path d="M136.56 63.9343C136.56 63.9063 136.56 63.9063 136.56 63.8783C136.56 63.6545 136.364 63.4587 136.14 63.4587C135.917 63.4587 135.721 63.6545 135.721 63.8783C135.721 63.9063 135.721 63.9063 135.721 63.9343C135.721 64.158 135.917 64.3538 136.14 64.3538C136.364 64.3538 136.56 64.186 136.56 63.9343Z" fill="#161616"/>
<path d="M137.847 63.7386C137.875 63.7386 137.903 63.7386 137.903 63.7386C138.127 63.7386 138.323 63.5428 138.323 63.319C138.323 63.0952 138.127 62.8994 137.903 62.8994C137.875 62.8994 137.847 62.8994 137.847 62.8994C137.624 62.8994 137.428 63.0952 137.428 63.319C137.456 63.5428 137.624 63.7386 137.847 63.7386Z" fill="#161616"/>
<path d="M137.791 65.5845C137.819 65.5845 137.847 65.5845 137.847 65.5845C138.07 65.5845 138.266 65.3887 138.266 65.1649C138.266 64.9412 138.07 64.7454 137.847 64.7454C137.819 64.7454 137.791 64.7454 137.791 64.7454C137.567 64.7454 137.371 64.9412 137.371 65.1649C137.371 65.3887 137.567 65.5845 137.791 65.5845Z" fill="#161616"/>
<path d="M146.855 63.123C146.883 63.123 146.911 63.123 146.911 63.123C147.135 63.123 147.331 62.9272 147.331 62.7034C147.331 62.4796 147.135 62.2838 146.911 62.2838C146.883 62.2838 146.855 62.2838 146.855 62.2838C146.631 62.2838 146.436 62.4796 146.436 62.7034C146.464 62.9272 146.631 63.123 146.855 63.123Z" fill="#161616"/>
<path d="M149.315 63.067C149.846 63.067 149.846 62.2279 149.315 62.2279C148.783 62.2279 148.783 63.067 149.315 63.067Z" fill="#161616"/>
<path d="M148.394 64.4097C148.926 64.4097 148.926 63.5706 148.394 63.5706C147.835 63.5706 147.835 64.4097 148.394 64.4097Z" fill="#161616"/>
<path d="M139.134 68.074C140.84 71.1509 145.316 70.7034 146.407 67.3748C146.575 66.8713 145.763 66.6475 145.596 67.151C144.729 69.8362 141.204 70.06 139.861 67.6545C139.61 67.179 138.882 67.5985 139.134 68.074Z" fill="#161616"/>
<path d="M129.147 61.2209C128.112 62.7594 126.63 65.4166 126.042 68.969C125.623 71.5144 124.896 75.9619 127.693 79.4863C128.448 80.4373 131.217 83.5421 135.021 83.0386C137.567 82.703 140.28 80.8009 140.783 78.1436C141.035 76.9129 140.755 75.85 140.504 75.2346C139.301 74.6472 137.147 73.4165 135.469 71.0109C134.63 69.8361 134.126 68.6893 133.846 67.7942C133.707 67.9061 133.259 68.2418 132.644 68.2138C131.916 68.1858 131.469 67.6823 131.357 67.5425C130.49 66.5635 130.574 64.5495 131.721 63.8782C132.308 63.5426 132.979 63.6544 133.343 63.7384C133.175 62.7034 133.007 60.4937 134.182 58.172C134.965 56.6056 136.168 55.4588 138.937 53.7246C141.231 52.2981 142.238 52.4099 142.601 52.4659C143.832 52.6896 144.587 53.6686 144.979 54.1721C146.741 56.4098 149.035 59.2909 151.776 62.8433C151.888 62.7873 152.643 62.4237 153.398 62.7594C153.93 63.0111 154.182 63.4866 154.349 63.8502C154.489 64.1579 154.713 64.6055 154.601 65.1369C154.489 65.8082 153.958 66.4236 153.231 66.6474C152.335 66.9271 151.608 66.4516 151.496 66.3677C151.273 67.4306 150.825 69.025 149.762 70.7312C148.671 72.4654 147.413 73.6123 146.545 74.2836C146.434 74.9549 146.294 76.1856 146.825 77.5842C147.664 79.8779 149.846 81.3324 151.86 81.7799C155.636 82.5911 158.685 79.766 159.468 79.0107C162.153 76.4933 163.776 72.2696 162.405 68.2138C161.37 65.1929 159.077 63.5426 158.181 62.9552C157.091 60.4377 155.972 58.4797 155.077 57.0812C152.559 53.1372 150.825 50.4799 147.664 49.5009C145.734 48.9135 143.972 49.1373 142.797 49.417C140.895 48.9974 139.413 49.1653 138.406 49.417C133.762 50.5638 130.238 55.2071 129.147 61.2209Z" fill="#5222D0"/>
<path opacity="0.08" d="M148.335 58.1161C148.111 58.2001 148.559 59.6546 148.783 61.1091C148.811 61.3049 149.286 64.9132 147.944 68.3537C146.433 72.2137 143.3 74.2836 141.93 75.0668C142.797 75.2626 143.692 75.4584 144.559 75.6822C144.811 77.1927 145.035 78.7311 145.286 80.2415C145.846 79.5702 146.433 78.8989 146.993 78.2276C147.244 78.7031 147.692 79.4024 148.391 80.0457C148.615 80.2695 150.237 81.724 152.643 81.9198C155.328 82.1716 157.314 80.717 158.433 79.9059C159.188 79.3744 161.426 77.6961 162.461 74.4794C163.58 70.983 162.489 68.046 162.153 67.2348C161.789 68.6334 161.034 70.7312 159.412 72.7732C159.02 73.2766 155.496 77.6682 153.314 76.9129C151.44 76.2696 150.797 71.8501 151.72 66.06C151.776 66.116 152.223 66.6474 152.867 66.6195C153.678 66.5915 154.041 65.7803 154.097 65.6964C154.489 64.8573 154.013 63.9342 153.538 63.4307C152.922 62.7594 152.083 62.6475 151.832 62.6475C151.468 62.2839 150.936 61.7245 150.377 60.9972C149.034 59.3469 148.531 58.0602 148.335 58.1161Z" fill="#353535"/>
<path opacity="0.09" d="M141.566 64.3258C141.789 63.9622 143.02 63.8782 143.384 64.6335C143.664 65.2209 143.3 66.0041 142.908 66.088C142.293 66.2558 141.258 64.8013 141.566 64.3258Z" fill="#353535"/>
<path opacity="0.09" d="M135.106 76.1577C134.519 77.1646 133.344 78.0877 132.169 77.9758C131.47 77.9199 130.687 77.5003 127.974 73.1647C127.078 71.7382 126.379 70.5074 125.904 69.6963C125.652 70.6193 125.316 72.2696 125.596 74.2556C125.708 75.0388 125.988 76.3814 126.743 77.8359C127.218 78.759 128.337 80.8009 130.715 82.0876C131.414 82.4792 132.645 83.1226 134.295 83.1226C137.064 83.0946 138.854 81.2485 139.218 80.8569C139.861 80.2135 140.784 79.2345 140.924 77.6961C141.064 76.2136 140.365 75.0668 140.197 74.843C139.358 73.5563 138.463 73.6962 137.036 72.4655C135.218 70.8991 134.715 68.969 134.491 69.0529C134.155 69.2487 136.701 73.4165 135.106 76.1577Z" fill="#353535"/>
<path opacity="0.13" d="M151.611 64.3817C151.443 64.3257 150.939 66.0879 149.485 68.4655C147.415 71.85 144.87 74.0598 143.023 75.4024C144.31 75.0388 146.604 74.1996 148.506 72.1297C151.527 68.8851 151.862 64.4656 151.611 64.3817Z" fill="#353535"/>
</svg>
