<svg width="526" height="354" viewBox="0 0 526 354" fill="none" xmlns="http://www.w3.org/2000/svg">
<path d="M421.257 305.987C413.675 298.162 407.877 288.795 404.309 278.496C404.187 278.74 404.025 278.983 403.903 279.226C404.836 279.023 405.728 278.861 406.66 278.658C407.188 278.537 407.269 277.807 406.823 277.564C403.336 275.699 402.93 269.698 402.16 266.251C401.146 261.75 400.214 257.25 399.403 252.749C397.7 243.504 396.402 234.179 395.47 224.812C395.145 224.974 394.861 225.177 394.537 225.339C401.308 229.353 407.755 233.854 413.797 238.923C419.23 243.504 424.663 248.41 428.515 254.411C432.651 260.777 434.638 268.481 435.854 275.861C437.233 284.011 437.233 292.323 435.287 300.392C435.084 301.162 436.26 301.486 436.462 300.716C439.504 288.43 437.963 275.334 434.07 263.413C430.299 252.019 421.785 243.788 412.661 236.409C407.147 231.948 401.268 227.894 395.186 224.285C394.821 224.082 394.213 224.326 394.253 224.812C395.226 234.827 396.645 244.761 398.511 254.614C399.443 259.52 400.457 264.427 401.633 269.252C402.403 272.536 402.93 276.834 406.214 278.618C406.255 278.253 406.296 277.888 406.377 277.523C405.444 277.726 404.552 277.888 403.619 278.091C403.295 278.172 403.092 278.537 403.214 278.821C406.863 289.322 412.743 298.851 420.487 306.839C420.974 307.406 421.825 306.555 421.257 305.987Z" fill="#E8E8E8"/>
<path d="M395.591 225.825C410.269 247.072 420.406 271.238 425.272 296.58C425.434 297.35 426.61 297.026 426.448 296.255C421.541 270.792 411.364 246.504 396.605 225.177C396.2 224.568 395.145 225.177 395.591 225.825Z" fill="#E8E8E8"/>
<path d="M400.457 260.777C406.58 262.115 413.027 263.615 417.284 268.603C417.771 269.211 418.663 268.319 418.136 267.751C413.756 262.602 407.107 260.98 400.781 259.601C400.011 259.439 399.687 260.615 400.457 260.777Z" fill="#E8E8E8"/>
<path d="M416.594 260.859C416.148 255.182 417.04 249.546 419.311 244.316C419.635 243.586 418.581 242.978 418.257 243.707C415.905 249.141 414.892 254.939 415.378 260.859C415.459 261.629 416.676 261.629 416.594 260.859Z" fill="#E8E8E8"/>
<path d="M426.366 249.708C429.286 231.543 441.734 217.432 453.654 204.255C453.33 204.052 452.965 203.849 452.641 203.646C449.843 213.661 456.412 222.947 458.804 232.354C460.101 237.544 460.71 242.896 460.831 248.248C460.912 250.884 460.872 253.56 460.791 256.195C460.75 257.493 460.75 258.831 460.466 260.088C460.061 261.831 458.115 264.548 456.047 262.723C455.803 263.048 455.56 263.372 455.317 263.696C458.885 265.561 457.587 270.914 457.02 274.036C456.29 278.253 455.074 282.267 452.357 285.673C448.424 290.538 442.788 294.147 440.923 300.391C440.679 301.162 441.855 301.445 442.099 300.716C444.41 293.093 452.56 289.444 455.925 282.388C457.669 278.739 458.439 274.441 458.804 270.468C459.088 267.589 458.804 264.142 455.925 262.683C455.357 262.399 454.628 263.169 455.195 263.656C456.452 264.791 458.196 264.791 459.615 263.859C461.196 262.804 461.683 260.858 461.845 259.033C462.494 252.911 462.21 246.464 461.48 240.382C460.75 234.3 459.128 228.583 456.858 222.947C454.465 216.946 451.992 210.58 453.817 204.052C453.979 203.484 453.208 202.998 452.803 203.444C440.76 216.784 428.15 231.097 425.19 249.424C425.069 250.154 426.245 250.478 426.366 249.708Z" fill="#E8E8E8"/>
<path d="M451.262 207.783C442.828 228.583 437.598 250.56 435.733 272.942C435.652 273.712 436.868 273.712 436.949 272.942C438.814 250.681 444.045 228.827 452.438 208.107C452.722 207.418 451.546 207.094 451.262 207.783Z" fill="#E8E8E8"/>
<path d="M335.379 271.482C345.313 273.631 355.004 268.847 364.573 266.941C375.115 264.873 385.982 264.873 396.564 266.779C397.335 266.9 397.659 265.765 396.889 265.603C387.076 263.819 377.061 263.697 367.249 265.238C362.221 266.049 357.355 267.428 352.49 268.806C347.016 270.306 341.38 271.523 335.744 270.306C334.933 270.144 334.609 271.28 335.379 271.482Z" fill="#E8E8E8"/>
<path d="M459.534 267.752C465.291 266.657 470.968 268.035 476.523 269.414C481.956 270.712 487.43 271.887 492.985 272.86C503.689 274.726 514.556 275.82 525.422 276.266C526.193 276.307 526.193 275.091 525.422 275.05C513.866 274.604 502.392 273.347 490.998 271.279C485.484 270.266 480.05 269.009 474.617 267.711C469.549 266.495 464.399 265.603 459.209 266.616C458.479 266.738 458.804 267.914 459.534 267.752Z" fill="#E8E8E8"/>
<path d="M1.23192 233.773C15.5855 230.448 29.9391 226.596 44.4955 224.487C59.0113 222.419 73.7298 222.176 88.3672 223.433C116.507 225.866 143.835 233.245 171.407 238.963C186.612 242.125 201.98 244.72 217.509 245.774C218.28 245.815 218.28 244.599 217.509 244.558C189.045 242.612 161.392 235.354 133.577 229.434C105.924 223.595 77.7845 219.378 49.4828 222.622C33.0613 224.528 17.0047 228.866 0.907545 232.597C0.137153 232.759 0.46153 233.935 1.23192 233.773Z" fill="#E8E8E8"/>
<path d="M116.385 225.825C140.186 223.758 163.501 218.162 186.572 212.161C210.17 205.998 233.768 199.754 257.367 193.51C280.925 187.306 304.442 180.94 328.081 174.899C339.839 171.898 351.719 169.182 363.802 168.046C375.439 166.951 387.198 167.114 398.835 168.208C426.001 170.722 452.438 177.98 478.672 185.198C479.442 185.4 479.767 184.224 478.996 184.022C455.925 177.656 432.732 171.29 408.931 168.127C397.091 166.546 385.09 165.735 373.128 166.222C361.37 166.668 349.773 168.533 338.298 171.128C326.621 173.804 315.065 177.007 303.469 180.089C291.629 183.211 279.789 186.333 267.95 189.455C244.027 195.74 220.064 202.065 196.141 208.35C169.907 215.243 143.511 222.217 116.385 224.569C115.615 224.69 115.615 225.907 116.385 225.825Z" fill="#E8E8E8"/>
<path d="M51.0641 298.73C60.9575 299.094 70.8915 299.459 80.785 299.824C90.4351 300.189 100.126 300.757 109.776 300.838C119.183 300.919 128.265 299.094 137.51 297.432C147.16 295.688 156.932 294.432 166.704 293.742C177.611 292.931 188.559 292.81 199.466 293.256C200.236 293.296 200.236 292.08 199.466 292.039C180.328 291.228 161.149 292.323 142.254 295.405C132.604 296.986 123.035 299.419 113.263 299.622C103.694 299.865 94.0033 299.135 84.4342 298.77C73.3243 298.365 62.2145 297.959 51.1046 297.554C50.2937 297.473 50.2937 298.689 51.0641 298.73Z" fill="#E8E8E8"/>
<path d="M31.1555 351.846C31.7637 352.292 32.3719 352.697 32.9801 353.143C33.5478 353.549 34.1965 352.657 33.7099 352.17C31.8448 350.224 30.0202 348.318 28.155 346.372C27.3035 345.48 26.2899 344.669 25.6006 343.655C24.5463 342.115 25.6411 341.385 25.8844 340.128C26.1682 338.83 24.8707 338.1 24.1409 337.289C22.519 335.546 21.4648 333.356 20.6538 331.126C17.2884 321.922 16.1126 311.542 15.7882 301.811C15.5855 302.014 15.3827 302.216 15.18 302.419C25.3978 301.487 31.3177 311.137 34.7236 319.287C38.535 328.329 42.0221 337.776 42.4681 347.71C42.5086 348.48 43.725 348.48 43.6845 347.71C43.1979 337.087 39.3865 326.788 35.0886 317.138C31.5204 309.069 25.0735 300.27 15.1395 301.162C14.8151 301.203 14.5312 301.406 14.5312 301.77C14.734 307.001 15.2205 312.191 16.072 317.34C16.9235 322.368 17.8966 327.558 19.7618 332.302C20.4511 334.046 21.3026 335.708 22.4379 337.168C23.2488 338.181 24.6274 339.073 24.1409 340.574C23.9381 341.182 23.5327 341.506 23.5732 342.236C23.6543 344.02 25.6006 345.48 26.6953 346.615C28.7227 348.724 30.7906 350.873 32.8179 352.981C33.0612 352.657 33.3045 352.332 33.5478 352.008C32.9396 351.562 32.3314 351.156 31.7232 350.71C31.1149 350.345 30.5067 351.4 31.1555 351.846Z" fill="#E8E8E8"/>
<path d="M38.6973 324.233C42.2249 314.988 48.4285 306.919 56.4974 301.202C56.2136 301.121 55.9297 301.04 55.6459 301C57.9165 306.19 59.4573 311.623 60.2682 317.218C60.3899 316.975 60.5521 316.732 60.6737 316.488C59.7006 316.772 58.7275 317.056 57.7138 317.34C57.3083 317.462 57.1867 317.867 57.3489 318.232C58.4842 320.949 59.7411 324.03 58.4842 326.909C57.43 329.301 55.1593 331.085 53.578 333.072C50.6992 336.64 48.4691 340.614 46.7661 344.831C46.4823 345.561 47.6582 345.885 47.942 345.155C50.2126 339.438 53.6185 334.897 57.6327 330.315C59.0924 328.652 60.1871 326.828 60.2682 324.557C60.3493 322.124 59.3357 319.813 58.4031 317.624C58.2815 317.908 58.1598 318.232 58.0382 318.516C59.0113 318.232 59.9844 317.948 60.9981 317.664C61.3225 317.583 61.4847 317.259 61.4036 316.934C60.5521 311.217 58.9707 305.703 56.6596 300.391C56.5379 300.107 56.0919 299.986 55.8081 300.189C47.4554 306.149 41.0896 314.38 37.4403 323.949C37.2781 324.638 38.4135 324.963 38.6973 324.233Z" fill="#E8E8E8"/>
<path d="M19.3969 308.379C29.7364 320.259 36.4672 335.059 38.5351 350.669C38.6567 351.44 39.8731 351.44 39.7515 350.669C37.6025 334.694 30.8312 319.651 20.2484 307.487C19.7213 306.919 18.8698 307.771 19.3969 308.379Z" fill="#E8E8E8"/>
<path d="M44.2117 337.046C46.1174 330.315 48.7935 323.868 52.24 317.745C52.6049 317.056 51.5912 316.448 51.1858 317.137C47.6987 323.341 44.9821 329.909 43.0358 336.721C42.7925 337.492 43.9684 337.816 44.2117 337.046Z" fill="#E8E8E8"/>
<path d="M19.8024 286.281C33.9938 283.524 48.5096 282.469 62.7821 285.186C69.4318 286.443 76.0004 287.903 82.7312 288.673C89.8269 289.484 97.0037 289.808 104.14 290.092C104.91 290.133 104.91 288.916 104.14 288.876C97.0037 288.551 89.8269 288.268 82.7312 287.457C75.3516 286.605 68.1343 284.862 60.7953 283.605C47.0904 281.253 33.0207 282.51 19.478 285.145C18.7076 285.267 19.032 286.443 19.8024 286.281Z" fill="#E8E8E8"/>
<path d="M73.2839 334.491C81.3933 333.194 89.5027 331.855 97.6932 331.369C106.005 330.882 114.034 331.572 122.184 333.072C129.644 334.45 136.861 335.099 144.484 334.937C152.391 334.734 160.379 334.369 168.083 336.437C168.853 336.64 169.177 335.464 168.407 335.261C160.946 333.234 153.283 333.477 145.62 333.68C141.565 333.802 137.47 333.842 133.415 333.518C129.239 333.194 125.103 332.342 121.008 331.612C113.142 330.193 105.316 329.666 97.2877 330.152C89.1378 330.68 81.0284 331.977 72.9595 333.275C72.1892 333.437 72.5135 334.613 73.2839 334.491Z" fill="#E8E8E8"/>
<path d="M296.17 344.182C311.375 341.993 326.661 340.695 342.029 340.371C356.99 340.046 371.952 340.655 386.914 340.979C387.684 340.979 387.684 339.763 386.914 339.763C371.709 339.438 356.463 338.83 341.218 339.195C326.013 339.56 310.889 340.857 295.846 343.006C295.075 343.128 295.4 344.263 296.17 344.182Z" fill="#E8E8E8"/>
<path d="M363.559 352.9C369.357 350.427 375.601 353.427 381.562 353.143C382.819 353.062 384.116 352.9 385.333 352.495C386.995 351.927 388.536 351.035 390.32 350.954C393.402 350.792 396.28 351.967 399.362 351.481C400.132 351.359 399.808 350.183 399.038 350.305C395.591 350.873 392.226 349.17 388.82 349.94C387.279 350.265 385.9 351.075 384.4 351.521C382.859 351.927 381.278 352.008 379.697 351.967C374.061 351.724 368.425 349.575 362.91 351.927C362.262 352.13 362.87 353.184 363.559 352.9Z" fill="#E8E8E8"/>
<path d="M445.585 308.095C455.803 305.055 466.021 305.136 476.482 306.393C486.335 307.568 496.269 309.109 506.162 307.366C506.933 307.244 506.608 306.068 505.838 306.19C495.539 308.014 485.2 306.149 474.941 305.014C464.845 303.879 454.992 304 445.22 306.96C444.531 307.163 444.815 308.339 445.585 308.095Z" fill="#E8E8E8"/>
<path d="M404.836 76.2481C397.294 72.1934 392.388 64.3273 393.523 55.6097C394.537 47.622 400.943 40.729 408.769 38.8638C416.757 36.9987 425.677 40.7695 430.015 47.7031C434.678 55.1232 433.665 64.9355 427.947 71.5041C421.46 78.9648 410.107 80.1001 401.916 74.829C401.268 74.383 400.659 75.4372 401.308 75.8832C408.931 80.8299 419.473 80.5056 426.528 74.6262C433.543 68.7875 436.138 58.6507 432.651 50.1764C429.326 42.1076 420.811 36.8365 412.094 37.2014C403.498 37.6069 395.713 43.8106 393.118 51.9605C389.874 62.0567 395.307 72.4367 404.268 77.2618C404.917 77.6673 405.525 76.613 404.836 76.2481Z" fill="#E8E8E8"/>
<path d="M54.8756 164.924C59.0114 161.234 64.8096 163.748 67.8912 167.479C69.4725 169.384 70.4051 171.533 71.6215 173.642C72.3919 175.061 73.5272 176.48 75.2302 176.804C76.5682 177.048 77.663 176.561 78.555 175.588C79.1227 174.939 79.4876 174.088 80.0552 173.439C81.2717 172.02 82.853 172.182 84.1505 173.317C86.9888 175.791 87.1104 181.913 92.0977 181.467C92.8681 181.386 92.8681 180.17 92.0977 180.251C86.9077 180.737 87.5159 172.02 82.5286 171.168C81.0689 170.925 79.8931 171.574 79.001 172.709C78.4334 173.439 78.0684 174.453 77.3386 175.061C75.2302 176.804 73.365 174.372 72.5135 172.709C70.4456 168.898 68.4183 164.924 64.323 162.937C60.9576 161.315 56.8624 161.478 54.0241 164.032C53.4565 164.559 54.3079 165.451 54.8756 164.924Z" fill="#E8E8E8"/>
<path d="M327.797 110.349C326.986 108.159 326.013 105.564 327.472 103.415C328.81 101.51 331.081 102.483 332.987 101.875C335.501 101.064 337.041 98.5902 337.731 96.1979C338.541 93.4002 337.568 89.751 339.231 87.2776C341.258 84.2366 345.637 87.9669 348.394 86.1018C349.043 85.6558 348.435 84.6015 347.786 85.0476C344.988 86.9533 341.177 83.0608 338.541 86.1829C336.433 88.6562 337.406 92.4271 336.717 95.3465C336.23 97.3738 335.136 99.5228 333.23 100.496C331.567 101.347 329.662 100.496 327.999 101.347C324.431 103.172 325.567 107.713 326.661 110.673C326.864 111.362 328.04 111.079 327.797 110.349Z" fill="#E8E8E8"/>
<path d="M332.176 81.9242C331.405 79.8969 331.852 77.5857 333.352 75.9638C335.217 73.9365 337.366 74.7474 339.677 73.9365C341.056 73.4499 341.867 72.274 342.394 70.9765C342.718 70.1656 342.921 69.3141 343.205 68.5032C343.448 67.8544 343.732 67.1246 344.218 66.638C344.948 65.9487 346.692 65.381 347.138 66.9218C347.381 67.6517 348.516 67.3678 348.314 66.5974C347.786 64.8945 345.8 64.2863 344.259 65.0972C341.339 66.5974 342.394 71.0576 339.677 72.5579C338.177 73.3688 336.312 72.8822 334.73 73.531C333.717 73.977 332.825 74.7069 332.135 75.5583C330.635 77.4641 330.149 79.978 331 82.2486C331.243 82.9784 332.419 82.6541 332.176 81.9242Z" fill="#E8E8E8"/>
<path d="M366.316 125.229C365.1 123.485 365.465 121.012 367.046 119.552C368.871 117.849 371.506 118.619 372.763 120.566C375.642 124.904 369.276 128.716 366.235 125.107C365.708 124.499 364.857 125.391 365.384 125.958C367.127 128.026 370.371 128.27 372.601 126.81C375.115 125.188 375.318 121.904 373.574 119.593C371.871 117.322 368.709 116.552 366.438 118.417C364.289 120.16 363.64 123.485 365.262 125.796C365.708 126.486 366.762 125.877 366.316 125.229Z" fill="#E8E8E8"/>
<path d="M370.898 131.959C369.763 130.378 368.344 128.472 368.83 126.445C369.56 123.444 373.128 124.215 374.75 125.999C376.088 127.499 376.575 129.851 374.872 131.27C373.574 132.364 371.588 132.567 370.412 131.27C369.885 130.702 369.033 131.554 369.56 132.121C371.182 133.865 373.939 133.703 375.683 132.202C377.751 130.418 377.507 127.458 375.886 125.472C374.264 123.444 370.574 121.984 368.546 124.296C366.276 126.891 368.182 130.256 369.844 132.567C370.29 133.216 371.344 132.608 370.898 131.959Z" fill="#E8E8E8"/>
<path d="M98.22 216.46C102.761 217.838 107.384 218.649 112.087 218.812C112.858 218.852 112.858 217.636 112.087 217.595C107.465 217.433 102.924 216.663 98.5444 215.284C97.774 215.041 97.4497 216.217 98.22 216.46Z" fill="#E8E8E8"/>
<path d="M402.322 184.022C429.894 183.82 455.844 194.119 481.875 201.741C489.336 203.931 496.877 205.918 504.5 207.418C505.27 207.58 505.595 206.404 504.824 206.242C477.78 200.89 452.276 189.415 425.069 184.752C417.568 183.455 409.945 182.725 402.322 182.806C401.552 182.806 401.552 184.022 402.322 184.022Z" fill="#E8E8E8"/>
<path d="M131.266 8.21086C132.685 11.6168 134.429 19.1585 139.537 15.7931C141.24 14.6984 143.754 11.4952 145.579 14.0902C146.674 15.631 146.755 17.6583 148.823 18.3476C149.553 18.5909 149.877 17.415 149.147 17.1717C147.241 16.523 147.241 13.6036 145.701 12.4278C144.687 11.6574 143.43 11.6979 142.335 12.2656C140.713 13.036 139.537 14.7795 137.834 15.3471C134.793 16.3608 133.253 9.83275 132.442 7.88649C132.117 7.19719 130.941 7.48102 131.266 8.21086Z" fill="#E8E8E8"/>
<path d="M143.876 8.94086C146.147 7.19735 149.471 8.00828 150.607 10.6438C151.296 12.3062 151.823 13.2794 153.769 13.401C154.702 13.4416 155.716 13.1172 156.648 13.2794C158.595 13.6037 158.595 15.3067 158.919 16.888C159.243 18.4694 159.973 19.848 161.676 20.0507C162.447 20.1318 162.447 18.9154 161.676 18.8343C159.446 18.591 160.379 14.0092 158.635 12.7117C156.77 11.3331 153.972 13.1577 152.513 11.4548C151.823 10.6438 151.62 9.54906 150.891 8.73813C150.323 8.04883 149.553 7.56227 148.701 7.2379C146.877 6.50805 144.849 6.75133 143.308 7.92719C142.619 8.37321 143.227 9.42742 143.876 8.94086Z" fill="#E8E8E8"/>
<path d="M180.368 47.1765C182.923 47.7036 185.639 46.0817 186.329 43.4867C186.977 41.0539 185.396 38.7428 183.085 37.9724C177.692 36.1478 174.692 43.5678 179.071 46.6089C179.719 47.0549 180.328 46.0007 179.679 45.5546C176.597 43.4056 178.503 38.0129 182.436 39.0266C184.139 39.4726 185.558 41.0134 185.234 42.838C184.869 44.9059 182.76 46.4061 180.693 45.9601C179.922 45.8385 179.598 47.0143 180.368 47.1765Z" fill="#E8E8E8"/>
<path d="M184.301 49.2437C183.328 48.4733 182.152 47.6218 181.747 46.3649C181.179 44.6619 182.801 42.6346 184.707 43.1211C186.045 43.4861 186.977 45.0268 186.653 46.4054C186.247 47.9462 184.504 48.7166 183.044 48.3517C182.274 48.1489 181.949 49.3248 182.72 49.5275C184.707 50.0141 186.896 49.0815 187.707 47.1353C188.478 45.2296 187.423 42.9184 185.558 42.1075C183.693 41.3371 181.544 42.3507 180.733 44.1348C179.598 46.6082 181.666 48.676 183.49 50.0952C184.017 50.5818 184.909 49.7303 184.301 49.2437Z" fill="#E8E8E8"/>
<path d="M103.41 129.324C101.545 127.661 101.18 125.147 103.005 123.282C104.586 121.701 106.938 121.741 108.438 123.404C111.56 126.891 107.059 131.432 103.37 129.04C102.721 128.594 102.113 129.648 102.761 130.094C104.951 131.513 107.951 131.027 109.654 129.08C111.398 127.053 110.871 124.012 109.006 122.228C107.019 120.363 104.059 120.485 102.153 122.39C99.842 124.701 100.207 128.067 102.559 130.175C103.126 130.702 103.978 129.851 103.41 129.324Z" fill="#E8E8E8"/>
<path d="M276.261 14.6981C278.613 9.5486 281.897 4.9668 285.952 1.03375C286.52 0.506641 285.668 -0.385388 285.101 0.182269C280.965 4.19641 277.64 8.85931 275.207 14.1304C274.883 14.7792 275.937 15.4279 276.261 14.6981Z" fill="#E8E8E8"/>
<path d="M281.33 13.8871C283.763 10.8866 286.479 8.08889 289.399 5.53444C290.007 5.00733 289.115 4.15584 288.547 4.68295C285.628 7.2374 282.952 10.0351 280.478 13.0356C279.992 13.6438 280.843 14.4953 281.33 13.8871Z" fill="#E8E8E8"/>
<path d="M284.412 17.5361C285.506 16.6035 286.601 15.7115 287.696 14.7789C288.304 14.2924 287.412 13.4003 286.844 13.9274C285.75 14.86 284.655 15.752 283.56 16.6846C282.952 17.1712 283.803 18.0226 284.412 17.5361Z" fill="#E8E8E8"/>
<path d="M341.786 21.1034C345.055 21.1034 347.705 18.453 347.705 15.1835C347.705 11.9141 345.055 9.26367 341.786 9.26367C338.516 9.26367 335.866 11.9141 335.866 15.1835C335.866 18.453 338.516 21.1034 341.786 21.1034Z" fill="#5222D0"/>
<path d="M339.069 30.3081C341.017 30.3081 342.596 28.7287 342.596 26.7805C342.596 24.8323 341.017 23.2529 339.069 23.2529C337.121 23.2529 335.541 24.8323 335.541 26.7805C335.541 28.7287 337.121 30.3081 339.069 30.3081Z" fill="#5222D0"/>
<path d="M152.188 187.59C154.584 187.59 156.527 185.647 156.527 183.251C156.527 180.855 154.584 178.913 152.188 178.913C149.792 178.913 147.849 180.855 147.849 183.251C147.849 185.647 149.792 187.59 152.188 187.59Z" fill="#5222D0"/>
<path d="M159.243 199.47C160.565 199.47 161.636 198.399 161.636 197.077C161.636 195.756 160.565 194.685 159.243 194.685C157.922 194.685 156.851 195.756 156.851 197.077C156.851 198.399 157.922 199.47 159.243 199.47Z" fill="#5222D0"/>
<path d="M201.493 133.986C201.858 137.514 202.993 140.636 207.008 140.555C208.386 140.555 209.562 140.149 210.616 141.204C211.589 142.177 211.305 143.15 211.711 144.366C211.914 144.974 212.198 145.542 212.765 145.948C213.495 146.475 216.252 146.475 216.009 147.691C215.847 148.462 217.023 148.786 217.185 148.016C217.469 146.637 216.536 145.826 215.239 145.461C213.373 144.934 212.927 144.204 212.644 142.542C212.522 141.771 212.36 141.001 211.833 140.352C210.778 139.095 209.075 139.257 207.616 139.298C206.034 139.379 204.534 139.257 203.683 137.717C203.034 136.581 202.872 135.203 202.75 133.946C202.628 133.216 201.412 133.216 201.493 133.986Z" fill="#5222D0"/>
<path d="M205.629 148.907C207.737 146.677 210.251 148.948 210.9 151.178C211.184 152.07 211.224 152.921 211.873 153.611C213.333 155.233 216.009 154.341 217.347 156.044C217.834 156.652 218.685 155.8 218.198 155.192C217.306 154.057 216.049 153.895 214.711 153.611C213.454 153.327 212.765 152.881 212.279 151.624C211.954 150.854 211.914 150.043 211.468 149.272C210.089 146.799 206.845 145.826 204.777 148.015C204.21 148.623 205.061 149.475 205.629 148.907Z" fill="#5222D0"/>
<path d="M349.652 144.812C348.881 143.352 350.503 142.258 351.72 143.15C352.085 143.393 352.652 143.069 352.652 142.623C352.531 141.244 353.909 140.23 355.207 140.717C355.937 141.001 356.261 139.825 355.531 139.541C353.504 138.771 351.274 140.474 351.436 142.623C351.76 142.46 352.044 142.258 352.368 142.095C350.057 140.433 347.341 142.987 348.638 145.42C348.962 146.11 350.017 145.501 349.652 144.812Z" fill="#5222D0"/>
<path d="M356.545 144.164C356.261 143.475 358.207 143.353 358.531 143.353C359.545 143.393 360.518 143.556 361.532 143.637C362.302 143.718 362.302 142.501 361.532 142.42C359.951 142.258 358.166 141.812 356.626 142.461C355.612 142.907 355.044 143.718 355.49 144.772C355.774 145.502 356.828 144.853 356.545 144.164Z" fill="#5222D0"/>
<path d="M145.255 192.82C147.897 192.82 150.039 190.678 150.039 188.036C150.039 185.393 147.897 183.251 145.255 183.251C142.612 183.251 140.47 185.393 140.47 188.036C140.47 190.678 142.612 192.82 145.255 192.82Z" fill="#EC615B"/>
<path d="M190.545 13.4808C194.106 13.4808 196.992 10.5944 196.992 7.03387C196.992 3.47331 194.106 0.586914 190.545 0.586914C186.985 0.586914 184.099 3.47331 184.099 7.03387C184.099 10.5944 186.985 13.4808 190.545 13.4808Z" fill="#EC615B"/>
<path d="M73.6892 262.722C78.1903 262.722 81.8391 259.073 81.8391 254.572C81.8391 250.071 78.1903 246.422 73.6892 246.422C69.1881 246.422 65.5393 250.071 65.5393 254.572C65.5393 259.073 69.1881 262.722 73.6892 262.722Z" fill="#EC615B"/>
<path d="M351.882 233.975C354.188 233.975 356.058 232.105 356.058 229.798C356.058 227.492 354.188 225.622 351.882 225.622C349.575 225.622 347.705 227.492 347.705 229.798C347.705 232.105 349.575 233.975 351.882 233.975Z" fill="#EC615B"/>
<path d="M305.415 328.977C314.011 326.909 322.647 324.801 331.243 322.733C336.758 323.139 344.948 323.26 354.679 321.638C363.924 320.098 381.643 315.759 381.521 310.975C381.44 307.812 373.534 305.541 360.478 301.77C351.841 299.297 344.583 297.837 339.758 296.986C334.406 299.621 328.648 302.216 322.445 304.69C314.051 308.055 306.064 310.691 298.644 312.759C300.874 318.192 303.144 323.585 305.415 328.977Z" fill="#161616" stroke="#161616" stroke-width="3" stroke-miterlimit="10"/>
<path d="M284.168 320.746C292.764 318.679 301.401 316.57 309.997 314.502C315.511 314.908 323.701 315.029 333.433 313.407C342.677 311.867 360.396 307.528 360.275 302.744C360.194 299.581 352.287 297.31 339.231 293.539C330.594 291.066 323.337 289.606 318.511 288.755C313.159 291.39 307.402 293.985 301.198 296.459C292.805 299.824 284.817 302.46 277.397 304.528C279.627 310.001 281.898 315.394 284.168 320.746Z" fill="#161616" stroke="#161616" stroke-width="3" stroke-miterlimit="10"/>
<path d="M239.81 245.856C232.147 249.991 225.537 254.573 224.402 255.344C220.51 258.06 211.427 264.426 202.426 273.711C189.126 287.416 177.935 298.932 178.665 313.528C179.314 326.666 189.248 335.789 190.343 336.762C208.062 352.575 245.933 346.817 284.168 322.449C282.79 315.191 281.452 307.973 280.073 300.716C283.479 300.026 291.183 297.958 298.197 291.349C306.915 283.118 308.861 273.144 309.348 269.9C309.307 266.21 308.861 261.872 307.604 257.168C303.752 242.733 294.589 233.61 289.723 229.434C277.113 231.624 258.137 236.043 239.81 245.856Z" fill="white" stroke="#161616" stroke-width="3" stroke-miterlimit="10"/>
<path d="M268.801 253.439C261.016 257.656 254.082 262.44 253.393 262.927C243.337 269.941 236.242 276.672 231.417 281.294C214.184 297.838 201.939 309.069 203.561 322.693C205.142 335.79 218.239 343.696 219.334 344.304C226.997 348.765 234.782 348.886 241.026 348.562C269.085 347.102 300.549 335.141 313.159 329.991C311.781 322.733 310.443 315.516 309.064 308.258C312.47 307.123 322.12 303.311 328.486 293.256C329.459 291.715 332.865 286.079 333.798 278.01C334.081 275.699 334.406 270.833 331.851 260.737C330.27 254.493 327.432 245.775 322.12 235.882C310.929 237.869 289.074 242.491 268.801 253.439Z" fill="white" stroke="#161616" stroke-width="3" stroke-miterlimit="10"/>
<path d="M265.111 316.002C280.154 316.367 295.157 314.096 309.389 309.271C310.118 309.028 309.794 307.852 309.064 308.095C294.913 312.92 280.073 315.191 265.111 314.785C264.341 314.745 264.341 315.961 265.111 316.002Z" fill="#161616"/>
<path d="M261.178 311.745C262.192 313.489 263.733 314.868 265.598 315.638C266.328 315.922 266.936 314.908 266.206 314.584C264.503 313.854 263.165 312.719 262.233 311.137C261.827 310.448 260.773 311.056 261.178 311.745Z" fill="#161616"/>
<path opacity="0.12" d="M286.723 281.7C272.612 289.606 265.314 288.309 251.285 299.256C247.636 302.135 226.308 318.8 229.024 335.708C229.268 337.127 230.525 345.074 236.445 348.197C238.958 349.535 241.432 349.454 244.878 349.21C256.434 348.318 265.354 346.129 266.449 345.845C280.641 342.317 278.248 343.777 288.02 341.141C294.467 339.398 303.185 336.641 313.322 332.383C311.983 325.288 310.605 318.232 309.267 311.137C312.227 309.758 316.281 307.447 320.417 303.717C323.418 301 331.973 293.296 333.919 281.132C334.974 274.604 333.676 269.617 331.568 261.548C329.419 253.317 326.418 246.91 324.148 242.653C311.497 264.832 297.305 275.82 286.723 281.7Z" fill="#3D3D3D"/>
<path opacity="0.11" d="M271.558 246.707C270.991 245.734 253.15 253.843 232.755 268.643C207.535 286.93 193.546 297.756 192.938 313.163C192.248 331.126 216.86 346.128 217.915 345.195C218.482 344.668 203.642 334.41 203.399 319.57C203.237 309.879 209.4 302.216 220.266 291.227C248.041 263.128 272.247 247.883 271.558 246.707Z" fill="#3D3D3D"/>
<path opacity="0.12" d="M328.891 255.507C327.026 262.886 323.174 273.793 314.741 284.538C296.778 307.366 271.274 312.637 263.814 313.894C265.071 315.111 266.287 316.489 267.544 317.949C274.275 326.058 277.6 334.735 279.343 341.547C290.372 337.736 301.401 333.884 312.389 330.073C310.686 323.342 309.023 316.57 307.32 309.84C310.807 308.421 316.484 305.542 321.836 300.068C324.066 297.757 329.459 292.121 331.973 283.2C335.622 269.982 330.513 258.71 328.891 255.507Z" fill="#3D3D3D"/>
<path d="M241.229 137.838C244.635 138.325 246.095 148.502 246.581 151.867C248.568 165.532 244.351 171.654 243.703 188.4C243.175 201.699 245.608 202.308 244.513 208.795C242.892 218.283 235.39 230.447 208.751 241.476C206.764 243.625 203.237 246.99 198.128 249.139C187.383 253.681 173.272 251.329 171.367 244.801C170.718 242.611 171.326 239.57 172.826 238.151C175.259 235.799 178.99 239.165 185.153 236.935C185.477 236.813 188.234 235.799 188.153 235.07C188.113 234.624 187.058 234.461 185.802 234.299C180.084 233.488 178.381 233.65 178.26 233.164C178.057 232.353 182.436 229.555 188.113 227.933C192.492 226.676 198.412 225.582 205.71 225.947C212.076 218.77 218.482 211.593 224.848 204.416C224.24 195.171 224.362 181.994 227.849 167.032C230.403 156.165 236.445 137.149 241.229 137.838Z" fill="white" stroke="#161616" stroke-width="3" stroke-miterlimit="10"/>
<path opacity="0.12" d="M241.391 137.635C236.404 137.716 231.903 157.544 230.971 171.613C229.795 189.414 234.458 194.968 230.971 205.876C228.66 213.093 222.821 222.378 207.129 230.812C194.762 241.151 186.531 242.246 181.098 240.949C177.773 240.178 173.637 238.029 171.772 239.854C170.191 241.395 170.921 245.206 172.583 247.801C176.557 253.843 188.518 252.383 195.33 249.991C201.655 247.761 205.832 243.868 208.224 241.232C213.779 239.732 226.754 235.394 237.539 223.149C248.041 211.228 250.514 198.537 251.771 191.644C256.596 165.41 247.473 137.514 241.391 137.635Z" fill="#3D3D3D"/>
<path d="M302.901 114.321C317.336 117.362 328.283 129.567 333.027 140.798C338.258 153.125 335.217 162.775 332.297 183.17C330.311 197.159 328.162 217.31 328.162 242.49C323.783 245.815 303.063 260.979 274.843 257.127C256.921 254.695 244.676 245.815 239.283 241.314C240.175 234.827 241.067 224.771 240.013 212.607C238.472 195.496 234.336 188.806 233.566 175.263C233.079 166.708 233.809 154.098 240.378 138.284C244.067 135.77 249.298 132.446 255.826 128.959C276.099 118.133 288.791 111.361 302.901 114.321Z" fill="#EC615B"/>
<path opacity="0.14" d="M288.872 133.257C292.602 143.231 297.873 161.721 295.075 184.589C290.413 222.582 266.611 246.058 259.232 252.789C265.152 255.141 277.397 259.033 293.007 257.249C310.645 255.222 322.728 247.032 327.797 243.139C327.351 226.271 328.364 212.242 329.5 201.822C332.987 170.438 339.271 159.126 332.581 141.893C331 137.798 325.688 124.093 312.267 117.768C308.74 116.106 305.536 115.376 303.306 115.011C302.495 117.89 300.63 123.039 296.089 127.742C293.575 130.419 290.94 132.122 288.872 133.257Z" fill="#3D3D3D"/>
<path opacity="0.21" d="M334.001 147.732C323.337 176.683 312.632 205.593 301.969 234.543C292.683 242.126 283.357 249.708 274.072 257.29C281.006 257.898 292.034 257.939 304.726 254.209C315.268 251.086 323.256 246.464 328.486 242.855C328.365 238.557 328.284 232.232 328.486 224.609C329.054 205.471 329.297 195.902 331.933 184.306C334.366 173.601 337.65 165.451 335.379 153.287C334.933 150.855 334.406 148.949 334.001 147.732Z" fill="#3D3D3D"/>
<path d="M162.203 231.461C167.028 243.139 171.894 254.816 176.719 266.453C196.344 259.642 216.009 252.789 235.634 245.977C230.93 234.746 226.227 223.474 221.564 212.242C201.777 218.649 181.99 225.055 162.203 231.461Z" fill="white" stroke="#161616" stroke-width="3" stroke-miterlimit="10"/>
<path d="M155.878 192.86C162.446 197.645 170.313 204.335 178.057 213.336C184.342 220.635 189.045 227.73 192.573 233.812C200.277 221.851 207.94 209.89 215.644 197.969C206.683 187.994 197.722 178.06 188.761 168.086C177.773 176.358 166.825 184.589 155.878 192.86Z" fill="white" stroke="#161616" stroke-width="3" stroke-miterlimit="10"/>
<path d="M120.359 137.231C120.359 148.179 120.359 159.126 120.359 170.115C128.752 165.979 137.145 161.843 145.538 157.748C151.093 155.031 156.648 152.315 162.203 149.638C160.622 141.651 159.081 133.704 157.5 125.716C145.133 129.527 132.766 133.379 120.359 137.231Z" fill="white" stroke="#161616" stroke-width="3" stroke-miterlimit="10"/>
<path d="M95.9089 67.3273C100.045 77.1397 104.181 86.952 108.276 96.7643C122.913 88.3711 137.591 79.9779 152.229 71.5847C146.106 59.9072 139.983 48.2297 133.861 36.5928C130.009 41.0529 125.346 45.878 119.791 50.6625C111.317 58.0421 103.005 63.3943 95.9089 67.3273Z" fill="white" stroke="#161616" stroke-width="3" stroke-miterlimit="10"/>
<path d="M35.2913 80.1398C33.9938 87.6815 32.7368 95.2232 31.4393 102.765C46.3606 99.359 61.3224 95.9531 76.2437 92.5066C75.9598 84.235 75.676 76.004 75.3922 67.7324C62.0522 71.8682 48.6718 76.004 35.2913 80.1398Z" fill="white" stroke="#161616" stroke-width="3" stroke-miterlimit="10"/>
<path d="M162.649 232.475C176.678 234.543 190.586 237.138 204.372 240.26C205.142 240.422 205.467 239.246 204.696 239.084C190.87 235.962 176.962 233.326 162.973 231.299C162.203 231.218 161.879 232.394 162.649 232.475Z" fill="#161616"/>
<path d="M220.753 212.81C216.252 222.176 210.778 231.056 204.412 239.246C203.926 239.854 204.777 240.706 205.264 240.098C211.711 231.826 217.266 222.865 221.807 213.418C222.131 212.728 221.077 212.12 220.753 212.81Z" fill="#161616"/>
<path d="M165.933 195.293C172.745 188.076 180.328 181.629 188.599 176.115C189.248 175.669 188.64 174.614 187.991 175.06C179.638 180.656 171.975 187.143 165.082 194.442C164.514 194.969 165.406 195.861 165.933 195.293Z" fill="#161616"/>
<path d="M171.813 198.942C176.922 193.306 182.558 188.197 188.64 183.697C189.248 183.251 188.64 182.196 188.032 182.642C181.828 187.224 176.111 192.374 170.961 198.091C170.394 198.659 171.245 199.51 171.813 198.942Z" fill="#161616"/>
<path d="M176.922 205.754C183.531 198.334 190.789 191.482 198.655 185.359C199.263 184.873 198.411 184.021 197.803 184.508C189.978 190.63 182.679 197.442 176.07 204.903C175.543 205.47 176.435 206.322 176.922 205.754Z" fill="#161616"/>
<path d="M185.599 213.986C187.91 210.256 190.992 207.093 194.033 203.93C197.357 200.565 200.682 197.159 204.007 193.794C204.575 193.226 203.683 192.374 203.156 192.942C199.669 196.51 196.182 200.038 192.695 203.606C189.694 206.647 186.815 209.769 184.545 213.378C184.139 214.027 185.193 214.635 185.599 213.986Z" fill="#161616"/>
<path d="M175.097 249.261C175.827 252.586 177.043 255.708 178.706 258.627C179.071 259.317 180.125 258.709 179.76 258.019C178.138 255.14 176.962 252.14 176.273 248.937C176.111 248.166 174.935 248.491 175.097 249.261Z" fill="#161616"/>
<path d="M176.07 249.991C180.125 247.558 184.504 246.058 189.167 245.409C188.924 245.288 188.68 245.126 188.437 245.004C189.248 247.639 190.018 250.234 190.829 252.87C191.073 253.6 192.249 253.316 192.005 252.546C191.194 249.91 190.424 247.315 189.613 244.679C189.491 244.315 189.207 244.193 188.883 244.274C184.099 244.923 179.638 246.504 175.503 248.978C174.773 249.342 175.381 250.397 176.07 249.991Z" fill="#161616"/>
<path d="M179.476 259.115C183.328 257.534 187.099 255.749 190.829 253.844C191.519 253.479 190.91 252.425 190.221 252.79C186.612 254.655 182.923 256.358 179.152 257.939C178.422 258.263 178.746 259.439 179.476 259.115Z" fill="#161616"/>
<path d="M210.494 240.828C214.955 238.436 219.699 236.773 224.645 235.76C225.416 235.597 225.091 234.421 224.321 234.584C219.253 235.597 214.427 237.341 209.886 239.774C209.156 240.139 209.805 241.193 210.494 240.828Z" fill="#161616"/>
<path d="M211.954 244.314C214.671 243.139 217.387 241.963 220.064 240.787C220.793 240.462 220.145 239.408 219.455 239.733C216.739 240.908 214.022 242.084 211.346 243.26C210.616 243.585 211.265 244.598 211.954 244.314Z" fill="#161616"/>
<path d="M124.008 141.487C133.658 138.284 143.308 134.391 153.323 132.445C154.094 132.283 153.769 131.107 152.999 131.269C143.024 133.256 133.334 137.108 123.683 140.311C122.954 140.554 123.278 141.73 124.008 141.487Z" fill="#161616"/>
<path d="M123.846 146.718C133.09 142.461 142.66 139.014 152.472 136.419C153.242 136.217 152.918 135.041 152.148 135.244C142.214 137.879 132.563 141.366 123.238 145.664C122.548 145.988 123.156 147.043 123.846 146.718Z" fill="#161616"/>
<path d="M123.116 151.989C127.171 150.327 131.144 148.543 135.077 146.637C135.767 146.313 135.158 145.258 134.469 145.583C130.617 147.448 126.725 149.191 122.792 150.813C122.102 151.097 122.386 152.273 123.116 151.989Z" fill="#161616"/>
<path d="M125.346 156.369C133.901 152.03 142.66 148.056 151.58 144.529C152.31 144.245 151.985 143.069 151.256 143.353C142.214 146.921 133.374 150.935 124.738 155.314C124.008 155.679 124.657 156.733 125.346 156.369Z" fill="#161616"/>
<path d="M101.058 69.8409C112.574 64.2454 123.278 57.1903 133.009 48.9187C133.618 48.3916 132.726 47.5401 132.158 48.0672C122.508 56.2982 111.844 63.2318 100.45 68.8272C99.7203 69.1516 100.329 70.2058 101.058 69.8409Z" fill="#161616"/>
<path d="M103.532 75.112C108.357 72.3142 112.979 69.2327 117.439 65.8673C118.048 65.4212 117.439 64.3265 116.831 64.813C112.371 68.1784 107.749 71.26 102.924 74.0577C102.234 74.4632 102.842 75.5174 103.532 75.112Z" fill="#161616"/>
<path d="M106.613 78.8023C116.993 73.2474 126.968 67.0842 136.578 60.2723C137.226 59.8263 136.618 58.7721 135.969 59.2181C126.4 66.03 116.385 72.1931 106.005 77.7481C105.316 78.113 105.924 79.1672 106.613 78.8023Z" fill="#161616"/>
<path d="M109.208 85.087C120.683 79.897 131.631 73.6528 141.93 66.3544C142.578 65.9083 141.97 64.8541 141.321 65.3001C131.063 72.5986 120.115 78.8428 108.6 84.0328C107.87 84.3572 108.478 85.3708 109.208 85.087Z" fill="#161616"/>
<path opacity="0.13" d="M165.609 186.13C169.948 185.157 174.286 184.184 178.625 183.211C184.788 196.186 190.951 209.161 197.114 222.095C203.277 214.107 209.44 206.16 215.604 198.172C206.521 188.401 197.438 178.588 188.397 168.816C180.774 174.615 173.191 180.372 165.609 186.13Z" fill="#3D3D3D"/>
<path opacity="0.21" d="M133.739 134.392C131.469 144.812 129.198 155.274 126.927 165.694C138.524 160.139 150.12 154.544 161.757 148.989C160.054 141.609 158.392 134.189 156.689 126.81C149.025 129.364 141.362 131.878 133.739 134.392Z" fill="#3D3D3D"/>
<path opacity="0.08" d="M186.045 224.446C188.315 229.961 190.586 235.475 192.857 240.989C196.627 241.841 200.358 242.692 204.129 243.503C208.224 246.342 212.279 249.221 216.374 252.059C222.577 249.91 228.822 247.761 235.025 245.652C230.281 234.907 225.578 224.122 220.834 213.377C214.63 215.242 208.386 217.148 202.182 219.013C198.939 224.203 195.695 229.393 192.451 234.583C190.302 231.177 188.194 227.812 186.045 224.446Z" fill="#3D3D3D"/>
<path opacity="0.15" d="M42.9141 80.6269C40.9679 87.3982 39.0622 94.2101 37.1159 100.981C50.0504 97.981 62.9849 94.9805 75.9193 91.98C75.4733 84.195 75.0679 76.41 74.6218 68.625C64.0391 72.6391 53.4563 76.6533 42.9141 80.6269Z" fill="#3D3D3D"/>
<path opacity="0.11" d="M114.277 57.4747C115.777 79.3701 116.912 90.2772 117.723 90.2772C117.966 90.2772 118.169 89.1824 118.372 87.074C128.995 81.7218 139.659 76.3696 150.282 71.0174C144.93 61.0023 139.578 51.0278 134.226 41.0127C127.535 46.4865 120.886 52.0009 114.277 57.4747Z" fill="#3D3D3D"/>
<path d="M323.783 130.662C329.257 129.932 335.906 145.827 338.744 155.314C343.529 171.371 341.826 185.441 340.204 198.497C338.461 212.405 337.609 219.379 334.284 226.677C323.539 250.275 296.535 259.317 285.952 262.237C283.074 264.345 277.924 267.71 270.828 269.9C255.785 274.522 236.039 272.536 233.322 264.791C232.43 262.196 233.282 258.628 235.35 256.966C238.796 254.208 243.946 258.141 252.623 255.506C253.069 255.384 256.921 254.168 256.799 253.316C256.718 252.789 255.299 252.627 253.515 252.424C245.527 251.492 243.135 251.654 242.973 251.086C242.729 250.113 248.852 246.869 256.759 244.923C262.922 243.423 271.193 242.125 281.411 242.571C291.386 233.408 301.36 224.204 311.335 215.04C311.254 192.658 313.038 174.209 314.862 160.667C318.674 133.176 321.958 130.905 323.783 130.662Z" fill="white" stroke="#161616" stroke-width="3" stroke-miterlimit="10"/>
<path d="M232.714 264.467C234.255 266.129 237.093 266.616 239.161 267.224C242.202 268.075 245.324 268.724 248.487 269.13C249.257 269.251 249.582 268.075 248.811 267.954C246.176 267.589 243.54 267.102 240.945 266.413C238.715 265.845 235.147 265.359 233.566 263.575C233.039 263.047 232.187 263.899 232.714 264.467Z" fill="#161616"/>
<path d="M233.404 260.778C238.472 263.9 244.148 265.643 250.109 265.927C250.879 265.968 250.879 264.751 250.109 264.711C244.351 264.468 238.918 262.765 234.012 259.724C233.363 259.318 232.714 260.372 233.404 260.778Z" fill="#161616"/>
<path d="M235.552 257.938C241.229 260.817 247.392 262.318 253.758 262.318C254.528 262.318 254.528 261.101 253.758 261.101C247.595 261.101 241.634 259.682 236.161 256.884C235.471 256.519 234.863 257.574 235.552 257.938Z" fill="#161616"/>
<path opacity="0.15" d="M321.674 132.447C325.324 140.394 330.149 153.288 331.568 169.79C332.622 182.157 334.366 203.242 321.674 224.245C309.186 244.883 290.251 253.074 283.236 256.074C276.181 259.115 264.341 264.062 248.974 262.44C242.77 261.791 237.742 260.251 234.255 258.912C233.485 260.615 232.755 263.048 233.606 265.278C236.364 272.536 253.555 272.415 262.8 270.995C267.95 270.225 276.505 268.157 286.074 261.791C297.59 258.385 326.216 248.249 334.812 225.34C337.326 218.649 338.826 209.04 339.637 203.809C340.772 196.43 342.434 185.36 341.38 171.088C341.38 171.088 339.839 150.45 328.405 133.541C327.878 132.731 326.662 131.028 324.878 130.906C323.499 130.825 322.283 131.839 321.674 132.447Z" fill="#3D3D3D"/>
<path opacity="0.09" d="M340.569 186.698C339.353 186.495 336.758 199.956 334 208.431C329.216 223.109 317.538 242.531 286.561 261.79C293.575 260.209 303.55 256.884 313.565 249.708C318.633 246.058 327.189 239.936 333.108 228.623C337.204 220.798 338.298 213.783 339.677 204.7C340.934 196.713 341.583 186.86 340.569 186.698Z" fill="#3D3D3D"/>
<path d="M228.619 56.176C228.416 65.5423 228.214 74.8681 228.011 84.2344C225.173 96.0741 229.592 108.076 238.796 114.158C248.811 120.767 260.002 117.442 261.624 116.915C261.705 119.186 261.624 122.024 261.016 125.227C260.489 128.187 259.637 130.661 258.867 132.607C263.814 137.229 268.396 138.405 270.91 138.77C282.83 140.514 296.454 130.944 303.59 114.401C301.441 112.131 298.563 108.725 295.886 104.224C294.346 101.67 290.778 95.2226 288.791 86.0185C286.763 76.6116 288.75 75.3547 287.25 68.4617C285.547 60.5956 280.641 51.6753 273.991 47.1746C262.8 39.7545 243.986 43.0388 228.619 56.176Z" fill="white" stroke="#161616" stroke-width="3" stroke-miterlimit="10"/>
<path d="M226.957 87.925C224.118 89.4658 223.916 94.007 223.632 100.008C223.348 105.603 223.064 112.294 227.281 118.984C230.484 124.093 234.823 126.607 236.607 127.62C245.852 132.892 255.258 131.27 258.218 130.621C256.353 129.851 254.447 129.08 252.582 128.31C254.893 128.229 258.786 127.783 262.881 125.634C267.098 123.444 269.49 120.525 271.518 117.97C273.91 114.97 277.681 109.415 279.83 101.022C278.776 99.197 274.721 91.8175 276.829 82.735C278.005 77.7072 280.56 74.2607 282.141 72.4361C284.614 72.5983 285.952 73.6119 286.48 74.0985C289.196 76.5719 289.521 81.6402 286.804 86.4248C287.98 85.5733 290.778 83.2216 292.116 79.0858C293.535 74.7878 292.399 71.1791 291.791 69.1112C291.021 66.6379 289.886 62.9481 286.48 61.1235C285.506 60.5964 283.966 59.9476 282.141 60.1098C276.302 60.6775 275.086 70.0438 268.274 78.6803C263.165 85.1273 252.663 93.9665 242.324 92.7906C234.539 91.8986 230.809 85.8166 226.957 87.925Z" fill="#161616" stroke="#161616" stroke-width="3" stroke-miterlimit="10"/>
<path d="M241.229 71.7462C241.716 78.1526 241.797 84.5995 241.432 91.006C241.391 91.5736 242.121 91.7764 242.486 91.452C244.513 89.6679 246.541 87.8838 248.528 86.0998C249.095 85.5727 248.244 84.7212 247.676 85.2483C245.649 87.0324 243.621 88.8164 241.635 90.6005C242 90.7627 242.324 90.8843 242.689 91.0465C243.054 84.6401 242.973 78.1931 242.486 71.7867C242.405 70.9758 241.189 70.9758 241.229 71.7462Z" fill="#161616"/>
<path d="M232.471 77.9908C232.309 77.5448 231.782 75.7607 232.755 75.7607C233.322 75.7607 233.322 76.7338 233.322 77.0987C233.322 77.4637 233.322 78.0719 233.039 78.3963C232.755 78.7612 232.349 78.4774 232.228 78.0719C232.106 77.6664 232.187 77.2204 232.228 76.8149C232.349 76.0445 231.173 75.7201 231.052 76.4905C230.849 77.788 231.011 79.8965 232.836 79.7749C234.133 79.6938 234.498 78.153 234.498 77.0582C234.498 75.9229 234.012 74.3415 232.552 74.5037C230.646 74.747 230.768 76.9366 231.214 78.2746C231.538 79.045 232.714 78.7206 232.471 77.9908Z" fill="#161616"/>
<path d="M233.322 77.6249C233.039 77.3006 233.039 76.7329 233.322 76.368C232.998 76.3274 232.674 76.2869 232.349 76.2463C232.674 76.6924 232.755 77.3411 232.39 77.7871C232.714 77.8277 233.039 77.8682 233.363 77.9087C233.241 77.706 232.39 76.5302 233.079 76.4896C232.998 76.4896 233.079 76.368 233.039 76.5707C233.039 76.7329 233.079 76.9356 233.079 77.1384C233.079 77.26 232.998 77.7871 232.795 77.6655C232.147 77.2195 231.538 78.2737 232.187 78.7197C232.917 79.2062 233.849 78.7197 234.133 77.9898C234.417 77.3005 234.417 75.922 233.687 75.4759C233.039 75.0705 232.147 75.4354 231.782 76.0436C231.295 76.8951 231.782 77.8277 232.268 78.5575C232.471 78.8413 232.957 79.0035 233.241 78.6791C233.931 77.8277 234.052 76.6112 233.403 75.6787C233.201 75.3948 232.714 75.2327 232.43 75.557C231.701 76.4491 231.701 77.6249 232.43 78.5169C232.957 79.0441 233.809 78.1926 233.322 77.6249Z" fill="#161616"/>
<path d="M256.069 76.3281C255.664 75.9632 255.177 75.1117 255.907 74.7468C256.637 74.3818 256.759 75.355 256.759 75.8416C256.759 76.1254 256.84 77.2607 256.353 77.2607C255.907 77.2607 255.664 76.3281 255.542 76.0443C255.34 75.3144 254.164 75.5983 254.366 76.3687C254.691 77.4229 255.502 78.842 256.799 78.396C258.056 77.9906 258.097 76.1254 257.894 75.0711C257.651 73.8142 256.394 73.0032 255.218 73.7331C253.92 74.544 254.204 76.247 255.218 77.1796C255.786 77.7067 256.637 76.8552 256.069 76.3281Z" fill="#161616"/>
<path d="M256.921 76.6523C256.759 76.1252 256.718 75.5981 256.84 75.071C256.556 75.1926 256.231 75.3143 255.948 75.4359C256.231 75.5981 256.231 76.1252 255.948 76.2874C256.231 76.409 256.556 76.5307 256.84 76.6523C256.596 76.1252 256.394 75.5576 256.15 75.0305C256.029 74.7466 255.745 74.5034 255.42 74.625C255.137 74.7061 254.853 75.071 255.015 75.3548C255.258 75.8819 255.461 76.4496 255.704 76.9767C255.866 77.3416 256.231 77.5849 256.596 77.3416C257.651 76.6929 257.651 75.0305 256.596 74.3817C256.272 74.179 255.785 74.3412 255.704 74.7466C255.542 75.517 255.583 76.2469 255.785 76.9767C255.988 77.7066 257.123 77.3822 256.921 76.6523Z" fill="#161616"/>
<path d="M230.728 70.6102C232.025 68.218 235.228 67.8936 236.85 70.1642C237.296 70.813 238.35 70.2048 237.904 69.556C235.755 66.5961 231.457 66.7177 229.673 70.002C229.308 70.6913 230.363 71.2995 230.728 70.6102Z" fill="#161616"/>
<path d="M252.015 70.4896C253.758 67.6108 257.853 67.854 259.11 71.0167C259.394 71.7465 260.57 71.4222 260.286 70.6923C258.624 66.5566 253.272 66.0294 250.96 69.8814C250.555 70.5301 251.609 71.1383 252.015 70.4896Z" fill="#161616"/>
<path d="M213.576 59.785C234.661 61.0014 255.704 62.7044 276.708 64.8939C279.059 65.1372 279.019 61.488 276.708 61.2447C255.704 59.0146 234.661 57.3116 213.576 56.1358C211.224 56.0141 211.224 59.6634 213.576 59.785Z" fill="#161616"/>
<path d="M227.24 57.1087C227.565 53.9866 228.903 45.9583 235.35 39.3897C244.067 30.51 259.273 27.4284 271.274 34.5241C280.681 40.1196 286.155 50.7834 285.506 62.096C266.084 60.4741 246.662 58.7711 227.24 57.1087Z" fill="#5222D0"/>
<path opacity="0.11" d="M286.196 85.9785C286.155 86.3029 285.628 89.0195 283.195 90.2359C281.938 90.8441 280.762 90.8441 280.195 90.763C282.668 93.9257 292.805 107.631 289.602 124.417C288.75 128.796 287.169 132.486 285.547 135.405C288.223 133.743 291.71 131.188 295.116 127.417C299.333 122.755 301.725 118.092 303.104 114.848C300.549 111.645 297.752 107.712 295.116 102.968C291.67 96.764 289.48 90.9252 288.02 86.1407C287.372 86.1002 286.804 86.0191 286.196 85.9785Z" fill="#3D3D3D"/>
<path opacity="0.12" d="M241.189 71.9897C239.729 77.5852 238.229 83.2212 236.769 88.8167C238.431 89.4654 240.094 90.1142 241.716 90.7629C241.554 84.4782 241.391 78.234 241.189 71.9897Z" fill="#3D3D3D"/>
<path opacity="0.69" d="M253.88 32.2941C249.703 36.1055 252.015 47.6209 259.354 59.8255C268.031 60.5959 276.708 61.4068 285.385 62.1772C285.669 58.6091 285.709 51.6755 281.695 45.0258C274.843 33.7133 259.029 27.6312 253.88 32.2941Z" fill="#3A1DA3"/>
</svg>
