<svg width="523" height="411" viewBox="0 0 523 411" fill="none" xmlns="http://www.w3.org/2000/svg">
<path d="M12.0351 362.496C31.5899 363.371 51.1447 363.808 70.6996 363.768C71.4548 363.768 71.4548 362.576 70.6996 362.576C51.1447 362.615 31.5899 362.178 12.0351 361.304C11.2799 361.264 11.2799 362.456 12.0351 362.496Z" fill="#E8E8E8"/>
<path d="M71.892 332.925C74.9524 344.411 77.8141 355.977 80.4373 367.583C80.5963 368.338 81.7489 368.02 81.5899 367.265C78.927 355.659 76.105 344.093 73.0446 332.607C72.8458 331.891 71.6932 332.209 71.892 332.925Z" fill="#E8E8E8"/>
<path d="M125.151 333.8C124.038 344.73 122.925 355.7 121.852 366.63C121.773 367.385 122.965 367.385 123.045 366.63C124.158 355.7 125.27 344.73 126.343 333.8C126.383 333.045 125.191 333.045 125.151 333.8Z" fill="#E8E8E8"/>
<path d="M80.7554 368.656C87.7109 369.888 94.7459 370.444 101.821 370.246C108.577 370.047 115.97 369.53 122.409 367.384C123.124 367.146 122.806 365.993 122.091 366.232C115.692 368.338 108.498 368.855 101.821 369.053C94.8651 369.252 87.9096 368.696 81.0734 367.503C80.3182 367.344 80.0002 368.497 80.7554 368.656Z" fill="#E8E8E8"/>
<path d="M72.3691 333.322C80.5964 335.627 89.5391 335.667 98.0447 335.707C107.186 335.786 116.328 335.269 125.39 334.236C126.145 334.157 126.145 332.964 125.39 333.044C116.566 334.077 107.703 334.554 98.8396 334.514C90.2148 334.475 81.0733 334.475 72.687 332.169C71.9318 331.971 71.6139 333.123 72.3691 333.322Z" fill="#E8E8E8"/>
<path d="M68.9508 329.228C69.0303 329.983 69.1098 330.778 69.1893 331.533C69.229 332.01 69.229 332.606 69.4278 333.043C69.9047 334.077 71.4945 333.719 72.4087 333.719C73.1638 333.719 73.1638 332.527 72.4087 332.527C71.9715 332.527 71.5343 332.527 71.0573 332.527C70.4611 332.527 70.4611 332.408 70.4214 331.811C70.3419 330.937 70.2624 330.102 70.1829 329.228C70.0637 328.473 68.8713 328.433 68.9508 329.228Z" fill="#E8E8E8"/>
<path d="M69.7458 329.865C79.6822 331.017 89.6583 331.574 99.6742 331.653C104.603 331.693 109.531 331.613 114.499 331.454C116.964 331.375 119.428 331.256 121.892 331.136C123.045 331.097 124.634 330.699 125.787 330.938C127.178 331.176 127.099 332.369 127.258 333.601C127.377 333.362 127.536 333.124 127.655 332.885C127.138 332.885 126.622 332.885 126.105 332.885C125.35 332.726 125.032 333.879 125.787 334.038C126.582 334.197 127.178 334.197 127.933 334.038C128.291 333.958 128.41 333.601 128.331 333.322C128.132 331.931 128.291 330.183 126.622 329.825C125.628 329.586 124.396 329.865 123.363 329.904C122.051 329.984 120.779 330.024 119.468 330.103C113.903 330.342 108.299 330.501 102.695 330.501C91.6456 330.501 80.6361 329.984 69.6663 328.672C68.9906 328.593 68.9906 329.785 69.7458 329.865Z" fill="#E8E8E8"/>
<path d="M78.3706 358.759C81.5502 362.933 85.2863 366.549 89.4994 369.65C90.1353 370.087 90.7315 369.053 90.0955 368.616C86.0415 365.635 82.4246 362.138 79.3642 358.123C78.927 357.527 77.8936 358.123 78.3706 358.759Z" fill="#E8E8E8"/>
<path d="M75.7076 346.637C81.9079 355.579 89.539 363.409 98.3625 369.808C98.9985 370.245 99.5947 369.212 98.9587 368.775C90.3339 362.495 82.822 354.784 76.7409 346.04C76.3037 345.405 75.2704 346.001 75.7076 346.637Z" fill="#E8E8E8"/>
<path d="M73.2832 335.986C84.0145 348.704 95.9381 360.588 110.167 369.412C110.803 369.809 111.439 368.776 110.763 368.378C96.6138 359.634 84.7696 347.83 74.1178 335.151C73.6409 334.555 72.8062 335.429 73.2832 335.986Z" fill="#E8E8E8"/>
<path d="M84.69 335.31C94.9047 347.194 106.232 358.482 118.871 367.782C119.507 368.22 120.103 367.186 119.467 366.749C106.908 357.528 95.6598 346.24 85.5247 334.476C85.008 333.879 84.1734 334.714 84.69 335.31Z" fill="#E8E8E8"/>
<path d="M97.7266 336.144C104.642 344.61 112.592 352.162 121.415 358.64C122.051 359.078 122.647 358.044 122.011 357.607C113.267 351.208 105.398 343.696 98.5613 335.31C98.0844 334.713 97.2497 335.548 97.7266 336.144Z" fill="#E8E8E8"/>
<path d="M108.378 335.708C112.83 340.716 117.917 345.008 123.561 348.625C124.197 349.022 124.793 347.989 124.157 347.592C118.593 344.054 113.585 339.762 109.213 334.873C108.696 334.277 107.862 335.112 108.378 335.708Z" fill="#E8E8E8"/>
<path d="M53.3705 270.206C55.954 275.651 57.7028 281.375 58.6964 287.337C58.7362 287.615 59.0144 287.774 59.2529 287.774C59.4913 287.774 60.7632 287.734 60.8427 288.132C60.8824 288.291 60.0875 289.205 60.008 289.403C59.7696 290.039 59.7696 290.795 60.008 291.43C60.326 292.186 60.9222 292.702 61.6376 292.981C61.8761 293.1 62.1543 293.139 62.4325 293.179C62.671 293.219 62.9095 293.219 63.1479 293.179C63.4659 293.139 63.4262 293.179 63.0684 293.338C62.671 293.934 62.1146 294.014 61.9556 294.888C61.8363 295.723 62.2338 296.518 62.5518 297.233C63.8634 300.015 64.6185 302.957 65.6917 305.858C69.388 315.715 76.4627 323.863 84.4516 330.58C85.0478 331.057 85.8824 330.222 85.2863 329.745C77.0589 322.829 69.7457 314.364 66.2878 303.99C65.8506 302.639 65.4532 301.287 64.9762 299.976C64.5788 298.823 63.8236 297.631 63.4659 296.478C63.0684 295.842 63.1082 295.127 63.6249 294.411C63.7839 294.292 63.9429 294.173 64.1018 294.054C64.2211 293.855 64.4595 293.736 64.5788 293.497C64.7378 293.06 64.6185 292.663 64.3006 292.345C63.7839 291.828 62.989 292.106 62.3133 291.907C59.7298 291.152 61.8363 289.403 62.0351 288.132C62.3133 286.462 60.2465 286.661 59.1336 286.581C59.3324 286.74 59.5311 286.86 59.6901 287.019C58.6964 280.977 56.8681 275.135 54.2449 269.61C54.0859 268.895 53.0525 269.491 53.3705 270.206Z" fill="#E8E8E8"/>
<path d="M53.8078 269.928C66.7251 273.386 78.0526 282.17 86.2799 292.583C95.024 303.633 100.469 316.908 103.41 330.62C103.569 331.375 104.722 331.057 104.563 330.302C101.582 316.391 96.0176 302.957 87.1543 291.749C78.8078 281.216 67.2815 272.313 54.1655 268.816C53.3706 268.577 53.0526 269.73 53.8078 269.928Z" fill="#E8E8E8"/>
<path d="M58.4978 274.857C74.3165 290.238 86.5184 309.117 94.0303 329.904C94.3085 330.62 95.4612 330.302 95.1829 329.586C87.5915 308.64 75.3101 289.562 59.3324 274.022C58.8157 273.465 57.9413 274.3 58.4978 274.857Z" fill="#E8E8E8"/>
<path d="M65.5327 299.856C68.8714 300.214 72.1305 300.969 75.2307 302.201C78.2513 303.394 81.5502 304.904 83.458 307.647C83.8952 308.282 84.9286 307.686 84.4914 307.05C82.5836 304.308 79.6027 302.758 76.582 301.486C73.0447 299.976 69.3483 299.061 65.493 298.664C64.7776 298.584 64.7776 299.777 65.5327 299.856Z" fill="#E8E8E8"/>
<path d="M71.4547 278.075C71.415 282.646 72.1702 287.137 73.6407 291.469C73.8792 292.185 75.0318 291.867 74.7933 291.152C73.3625 286.938 72.6471 282.566 72.6471 278.075C72.6471 277.32 71.4547 277.32 71.4547 278.075Z" fill="#E8E8E8"/>
<path d="M93.2753 299.698C95.2228 292.424 101.701 288.092 107.226 283.64C113.108 278.911 118.792 273.863 124.197 268.617C123.879 268.418 123.522 268.219 123.204 268.02C121.415 272.83 121.057 277.877 121.137 282.965C121.216 288.052 122.369 293.895 120.739 298.823C120.938 298.664 121.137 298.545 121.296 298.386C120.024 298.466 118.752 298.585 117.48 298.664C117.083 298.704 116.685 299.181 116.964 299.578C117.878 300.811 118.951 301.208 118.911 303.036C118.911 304.308 118.593 305.779 118.156 306.971C117.719 308.203 116.566 309.038 116.169 310.191C115.851 311.224 116.646 312.098 116.646 313.132C116.685 314.841 115.453 316.272 114.579 317.623C113.744 318.895 112.989 320.206 112.313 321.558C110.962 324.221 109.889 326.963 109.094 329.825C108.895 330.58 110.048 330.898 110.247 330.143C111.24 326.605 112.671 323.187 114.539 320.008C115.811 317.861 118.196 315.357 117.918 312.655C117.798 311.582 117.242 311.264 117.719 310.032C117.759 309.992 118.474 309.038 118.514 308.958C119.269 307.726 119.627 306.335 119.865 304.944C120.024 303.911 120.342 302.639 120.183 301.605C119.945 300.135 118.832 300.016 117.997 298.903C117.838 299.221 117.639 299.499 117.48 299.817C118.752 299.737 120.024 299.618 121.296 299.539C121.574 299.499 121.773 299.38 121.852 299.102C123.363 294.491 122.449 289.125 122.29 284.356C122.131 278.911 122.329 273.426 124.277 268.259C124.515 267.663 123.681 267.305 123.283 267.663C117.52 273.267 111.479 278.633 105.159 283.64C99.7538 287.933 93.9112 292.305 92.0432 299.3C91.9239 300.135 93.0765 300.453 93.2753 299.698Z" fill="#E8E8E8"/>
<path d="M119.786 273.784C115.89 280.58 111.916 287.297 108.18 294.173C104.682 300.532 101.582 307.13 100.111 314.245C99.9525 315 101.105 315.318 101.264 314.562C102.774 307.289 105.994 300.612 109.571 294.133C113.227 287.496 117.083 280.978 120.819 274.38C121.177 273.744 120.143 273.108 119.786 273.784Z" fill="#E8E8E8"/>
<path d="M108.061 284.833C108.577 287.098 108.816 289.364 108.736 291.669C108.696 292.424 109.889 292.424 109.929 291.669C110.008 289.245 109.77 286.9 109.213 284.515C109.014 283.76 107.902 284.078 108.061 284.833Z" fill="#E8E8E8"/>
<path d="M114.539 277.242C114.976 278.951 115.056 280.62 114.857 282.329C114.778 283.084 115.97 283.084 116.049 282.329C116.288 280.501 116.169 278.712 115.692 276.924C115.493 276.208 114.34 276.526 114.539 277.242Z" fill="#E8E8E8"/>
<path d="M114.817 285.151C117.162 283.76 119.587 282.528 122.091 281.494C122.806 281.216 122.488 280.064 121.773 280.342C119.15 281.415 116.646 282.687 114.181 284.118C113.546 284.515 114.142 285.548 114.817 285.151Z" fill="#E8E8E8"/>
<path d="M104.563 305.103C106.073 303.832 107.584 302.599 109.134 301.407C110.763 300.135 112.552 298.426 114.539 297.631C115.255 297.353 114.937 296.2 114.221 296.479C112.433 297.154 110.962 298.466 109.452 299.658C107.504 301.169 105.596 302.679 103.728 304.269C103.132 304.746 103.967 305.58 104.563 305.103Z" fill="#E8E8E8"/>
<path d="M58.5376 282.806C61.3198 283.084 64.102 283.362 66.8841 283.601C67.6393 283.68 67.6393 282.488 66.8841 282.408C64.102 282.13 61.3198 281.852 58.5376 281.613C57.7824 281.534 57.7824 282.726 58.5376 282.806Z" fill="#E8E8E8"/>
<path d="M131.471 362.098C181.272 362.098 231.033 362.098 280.835 362.098C294.865 362.098 308.895 362.098 322.925 362.098C323.681 362.098 323.681 360.906 322.925 360.906C273.124 360.906 223.363 360.906 173.561 360.906C159.531 360.906 145.501 360.906 131.471 360.906C130.676 360.906 130.676 362.098 131.471 362.098Z" fill="#E8E8E8"/>
<path d="M299.913 264.722C299.913 270.525 299.913 276.327 299.913 282.13C299.913 282.885 301.105 282.885 301.105 282.13C301.105 276.327 301.105 270.525 301.105 264.722C301.105 263.966 299.913 263.966 299.913 264.722Z" fill="#E8E8E8"/>
<path d="M272.488 284.793C291.765 284.793 311.041 284.793 330.318 284.793C331.073 284.793 331.073 283.601 330.318 283.601C311.041 283.601 291.765 283.601 272.488 283.601C271.733 283.601 271.693 284.793 272.488 284.793Z" fill="#E8E8E8"/>
<path d="M285.445 285.111C285.445 290.119 285.445 295.127 285.445 300.175C285.445 300.93 286.638 300.93 286.638 300.175C286.638 295.167 286.638 290.159 286.638 285.111C286.638 284.316 285.445 284.316 285.445 285.111Z" fill="#E8E8E8"/>
<path d="M315.255 284.793C315.255 289.205 315.255 293.656 315.255 298.068C315.255 298.823 316.447 298.823 316.447 298.068C316.447 293.656 316.447 289.205 316.447 284.793C316.447 284.038 315.255 284.038 315.255 284.793Z" fill="#E8E8E8"/>
<path d="M296.375 301.328C311.121 301.328 325.867 301.328 340.612 301.328C341.367 301.328 341.367 300.136 340.612 300.136C325.867 300.136 311.121 300.136 296.375 300.136C295.62 300.136 295.62 301.328 296.375 301.328Z" fill="#E8E8E8"/>
<path d="M263.029 373.625C295.58 373.625 328.132 373.625 360.684 373.625C361.439 373.625 361.439 372.433 360.684 372.433C328.132 372.433 295.58 372.433 263.029 372.433C262.274 372.433 262.274 373.625 263.029 373.625Z" fill="#E8E8E8"/>
<path d="M397.647 363.33C429.603 363.33 461.598 363.33 493.553 363.33C502.536 363.33 511.518 363.33 520.501 363.33C521.256 363.33 521.256 362.138 520.501 362.138C488.545 362.138 456.55 362.138 424.595 362.138C415.612 362.138 406.63 362.138 397.647 362.138C396.892 362.138 396.892 363.33 397.647 363.33Z" fill="#E8E8E8"/>
<path d="M1.423 383.68C34.1734 383.68 66.9635 383.68 99.7139 383.68C100.469 383.68 100.469 382.488 99.7139 382.488C66.9635 382.488 34.1734 382.488 1.423 382.488C0.667837 382.488 0.667837 383.68 1.423 383.68Z" fill="#E8E8E8"/>
<path d="M67.4802 395.603C94.229 395.603 120.978 395.603 147.727 395.603C148.482 395.603 148.482 394.411 147.727 394.411C120.978 394.411 94.229 394.411 67.4802 394.411C66.6853 394.411 66.6853 395.603 67.4802 395.603Z" fill="#E8E8E8"/>
<path d="M474.118 55.7791C474.118 44.6901 474.118 33.6408 474.118 22.5517C474.118 21.7966 472.925 21.7966 472.925 22.5517C472.925 33.6408 472.925 44.6901 472.925 55.7791C472.925 56.5343 474.118 56.5343 474.118 55.7791Z" fill="#E8E8E8"/>
<path d="M473.919 22.313C488.267 22.313 502.615 22.313 516.964 22.313C517.719 22.313 517.719 21.1206 516.964 21.1206C502.615 21.1206 488.267 21.1206 473.919 21.1206C473.164 21.1206 473.164 22.313 473.919 22.313Z" fill="#E8E8E8"/>
<path d="M516.367 21.7964C516.288 33.0444 516.208 44.2924 516.089 55.5404C516.089 56.2956 517.281 56.2956 517.281 55.5404C517.361 44.2924 517.441 33.0444 517.56 21.7964C517.56 21.0412 516.367 21.0412 516.367 21.7964Z" fill="#E8E8E8"/>
<path d="M474.118 56.375C488.267 56.375 502.416 56.375 516.566 56.375C517.321 56.375 517.321 55.1826 516.566 55.1826C502.416 55.1826 488.267 55.1826 474.118 55.1826C473.362 55.1826 473.362 56.375 474.118 56.375Z" fill="#E8E8E8"/>
<path d="M475.27 24.8564C475.27 34.1966 475.27 43.4971 475.27 52.8374C475.27 53.5925 476.463 53.5925 476.463 52.8374C476.463 43.4971 476.463 34.1966 476.463 24.8564C476.463 24.1012 475.27 24.1012 475.27 24.8564Z" fill="#E8E8E8"/>
<path d="M476.145 25.4536C488.704 25.4536 501.224 25.4536 513.784 25.4536C514.539 25.4536 514.539 24.2612 513.784 24.2612C501.224 24.2612 488.704 24.2612 476.145 24.2612C475.35 24.2612 475.35 25.4536 476.145 25.4536Z" fill="#E8E8E8"/>
<path d="M513.148 25.1352C513.108 34.2767 513.068 43.4182 513.029 52.5995C513.029 53.3546 514.221 53.3546 514.221 52.5995C514.261 43.458 514.301 34.3165 514.34 25.1352C514.34 24.3801 513.148 24.3801 513.148 25.1352Z" fill="#E8E8E8"/>
<path d="M476.383 53.5928C488.744 53.5928 501.105 53.5928 513.466 53.5928C514.221 53.5928 514.221 52.4004 513.466 52.4004C501.105 52.4004 488.744 52.4004 476.383 52.4004C475.628 52.4004 475.628 53.5928 476.383 53.5928Z" fill="#E8E8E8"/>
<path d="M476.145 45.3647C480.715 43.7749 485.525 45.2058 489.976 46.5174C494.507 47.829 498.959 49.4188 503.291 51.2471C504.006 51.5253 504.324 50.3727 503.609 50.0945C498.8 48.0674 493.871 46.3584 488.863 44.9673C484.61 43.8147 480.119 42.7018 475.827 44.2121C475.111 44.4506 475.429 45.6032 476.145 45.3647Z" fill="#E8E8E8"/>
<path d="M491.248 46.7168C498.76 46.2795 505.795 43.2589 513.227 42.4242C513.983 42.3447 513.983 41.1523 513.227 41.2318C505.795 42.0665 498.76 45.0474 491.248 45.5244C490.453 45.6039 490.453 46.7962 491.248 46.7168Z" fill="#E8E8E8"/>
<path d="M505.477 32.1694C503.808 31.2155 505.318 28.0755 507.107 28.8307C508.06 29.2282 508.259 30.3808 507.742 31.2155C507.186 32.1296 506.033 32.2886 505.08 32.0104C504.324 31.8116 504.006 32.9643 504.762 33.163C506.351 33.6002 508.14 33.1232 508.935 31.5732C509.65 30.1821 509.094 28.3538 507.583 27.7178C504.483 26.4062 501.94 31.5732 504.881 33.2027C505.517 33.5604 506.153 32.5271 505.477 32.1694Z" fill="#E8E8E8"/>
<path d="M493.315 21.5182C493.354 20.8425 493.394 20.1668 493.593 19.5309C493.752 19.0142 494.149 17.7821 494.746 17.5436C495.819 17.1462 496.216 20.922 496.296 21.6374C496.375 22.3926 497.568 22.3926 497.488 21.6374C497.369 20.2463 497.051 15.8743 494.825 16.1923C493.871 16.3115 493.195 17.3846 492.838 18.1795C492.361 19.2129 492.202 20.3656 492.162 21.4784C492.122 22.2734 493.315 22.2734 493.315 21.5182Z" fill="#E8E8E8"/>
<path d="M499.992 206.932C499.992 211.701 499.992 216.51 499.992 221.28C499.992 222.035 501.185 222.035 501.185 221.28C501.185 216.51 501.185 211.701 501.185 206.932C501.185 206.176 499.992 206.176 499.992 206.932Z" fill="#E8E8E8"/>
<path d="M485.564 223.028C496.375 223.028 507.226 223.028 518.037 223.028C518.792 223.028 518.792 221.836 518.037 221.836C507.226 221.836 496.375 221.836 485.564 221.836C484.809 221.836 484.809 223.028 485.564 223.028Z" fill="#E8E8E8"/>
<path d="M490.135 223.386C490.135 225.652 490.135 227.877 490.135 230.143C490.135 230.898 491.327 230.898 491.327 230.143C491.327 227.877 491.327 225.652 491.327 223.386C491.327 222.631 490.135 222.631 490.135 223.386Z" fill="#E8E8E8"/>
<path d="M507.504 223.745C507.504 226.408 507.504 229.11 507.504 231.773C507.504 232.528 508.696 232.528 508.696 231.773C508.696 229.11 508.696 226.408 508.696 223.745C508.696 222.95 507.504 222.95 507.504 223.745Z" fill="#E8E8E8"/>
<path d="M499.078 233.322C506.59 233.322 514.102 233.322 521.614 233.322C522.369 233.322 522.369 232.13 521.614 232.13C514.102 232.13 506.59 232.13 499.078 232.13C498.323 232.13 498.323 233.322 499.078 233.322Z" fill="#E8E8E8"/>
<path d="M224.078 349.537C236.598 341.071 242.878 336.819 244.507 336.302C248.482 335.03 261.36 330.936 272.608 337.812C280.676 342.741 288.108 353.432 285.008 360.587C282.782 365.674 275.986 367.264 269.825 368.734C260.724 370.881 252.933 369.688 248.561 368.655C246.852 370.324 244.11 372.55 240.255 374.021C233.856 376.485 226.463 376.048 226.105 374.577C225.946 373.822 227.536 372.351 235.247 369.331C234.332 368.337 232.981 367.145 231.073 366.31C225.429 363.726 219.786 366.23 218.712 366.747C224.237 369.967 225.429 371.636 225.151 372.55C224.436 374.855 213.188 375.61 210.167 370.324C209.849 369.808 208.975 368.019 209.69 364.641C211.121 358.44 216.288 354.823 224.078 349.537Z" fill="#161616"/>
<path d="M278.609 358.361C279.881 355.738 285.604 356.374 287.83 356.613C290.692 356.931 293.235 357.209 295.541 359.236C297.29 360.746 299.833 364.045 298.919 366.708C298.084 369.252 294.945 369.053 288.863 372.034C287.83 372.551 277.894 377.439 278.569 380.659C278.848 381.97 280.636 381.931 286.32 384.355C291.248 386.422 294.15 387.694 296.574 390.476C297.766 391.867 300.151 394.609 299.515 397.392C298.323 402.519 287.671 403.393 287.393 402.598C287.154 401.923 294.627 400.055 294.706 396.557C294.786 393.894 290.612 391.748 287.989 390.357C280.278 386.342 275.072 387.773 273.045 383.918C271.892 381.732 272.528 379.387 272.647 378.95C273.243 376.803 274.913 374.975 283.061 370.881C290.493 367.145 293.792 366.271 293.752 364.602C293.712 363.051 290.851 361.78 289.102 361.342C284.173 360.031 280.557 363.131 278.887 361.382C278.172 360.587 278.212 359.236 278.609 358.361Z" fill="#161616"/>
<path d="M210.724 339.124C213.227 340.992 215.731 342.86 218.235 344.728C221.813 344.371 225.35 344.053 228.927 343.695C231.153 341.549 233.379 339.363 235.604 337.216C235.763 338.568 236.081 341.628 236.2 343.099C237.592 356.334 237.711 357.487 236.876 358.997C234.134 363.886 224.873 365.873 219.547 362.455C216.964 360.785 215.97 358.281 214.102 353.472C211.836 347.669 211.041 342.582 210.724 339.124Z" fill="#161616"/>
<path d="M220.819 352.876C220.223 354.108 218.911 354.863 217.56 354.625C217.202 354.545 217.043 355.141 217.401 355.181C219.03 355.459 220.66 354.664 221.336 353.154C221.495 352.836 221.018 352.518 220.819 352.876Z" fill="white"/>
<path d="M226.344 352.478C227.655 353.75 229.404 354.307 231.193 354.028C231.59 353.989 231.391 353.392 231.034 353.472C229.444 353.71 227.894 353.194 226.741 352.081C226.463 351.803 226.065 352.2 226.344 352.478Z" fill="white"/>
<path d="M224.237 356.255C224.118 356.255 224.038 356.215 223.919 356.215C223.959 356.175 223.959 356.096 223.998 356.056C224.078 356.135 224.197 356.215 224.277 356.294C224.277 356.215 224.237 356.175 224.237 356.096C224.118 355.738 223.561 355.897 223.681 356.255C223.879 357.129 224.197 358.48 223.124 358.918C222.766 359.077 222.925 359.633 223.283 359.474C224.714 358.878 224.555 357.328 224.277 356.056C224.078 356.096 223.879 356.175 223.72 356.215C223.72 356.294 223.76 356.334 223.76 356.414C223.8 356.533 223.919 356.652 224.038 356.652C225.072 356.573 224.237 355.142 223.76 355.976C223.561 356.255 224.038 356.573 224.237 356.255Z" fill="white"/>
<path d="M223.84 356.532C224.038 357.208 224.078 357.963 224.515 358.559C224.873 359.036 225.429 359.274 226.025 359.155C226.383 359.075 226.224 358.519 225.866 358.599C224.753 358.837 224.595 357.089 224.396 356.373C224.316 356.016 223.76 356.175 223.84 356.532Z" fill="white"/>
<path d="M221.932 357.09C220.779 356.573 219.587 356.334 218.315 356.414C217.917 356.454 217.917 357.05 218.315 357.01C219.468 356.931 220.58 357.129 221.614 357.606C221.972 357.765 222.29 357.249 221.932 357.09Z" fill="white"/>
<path d="M220.898 357.884C219.904 357.964 219.03 358.361 218.355 359.036C218.077 359.315 218.514 359.712 218.792 359.474C219.388 358.917 220.103 358.56 220.937 358.48C221.255 358.44 221.255 357.844 220.898 357.884Z" fill="white"/>
<path d="M226.582 356.811C227.735 356.374 228.887 356.215 230.119 356.334C230.517 356.374 230.517 355.777 230.119 355.738C228.848 355.618 227.615 355.817 226.423 356.254C226.065 356.374 226.185 356.97 226.582 356.811Z" fill="white"/>
<path d="M227.377 357.884C228.251 357.765 229.085 357.844 229.92 358.162C230.277 358.281 230.436 357.725 230.079 357.606C229.205 357.288 228.291 357.208 227.377 357.328C226.98 357.328 226.98 357.963 227.377 357.884Z" fill="white"/>
<path d="M217.997 351.127C218.593 350.77 219.308 350.77 219.904 351.127C220.222 351.326 220.54 350.809 220.222 350.611C219.427 350.173 218.513 350.173 217.719 350.611C217.361 350.809 217.679 351.326 217.997 351.127Z" fill="white"/>
<path d="M226.343 350.333C226.939 350.015 227.615 349.935 228.33 350.015C228.688 350.055 228.886 349.498 228.489 349.459C227.655 349.339 226.82 349.459 226.065 349.856C225.668 349.975 225.986 350.492 226.343 350.333Z" fill="white"/>
<path d="M216.844 337.852C218.076 337.336 219.309 336.819 220.501 336.263C220.262 336.104 220.064 335.945 219.825 335.746C219.348 337.256 218.633 338.607 217.679 339.879C217.441 340.197 217.838 340.674 218.196 340.555C219.547 340.038 220.898 339.561 222.25 339.045C222.766 338.846 222.568 337.972 222.011 338.17C220.66 338.687 219.309 339.164 217.957 339.681C218.116 339.919 218.275 340.118 218.474 340.356C219.507 339.045 220.223 337.614 220.739 336.024C220.859 335.627 220.421 335.388 220.064 335.507C218.832 336.024 217.599 336.541 216.407 337.097C215.851 337.336 216.328 338.091 216.844 337.852Z" fill="#161616"/>
<path d="M218.832 330.619C219.666 330.142 220.501 329.824 221.415 329.625C221.256 329.386 221.097 329.188 220.898 328.949C220.541 329.744 220.104 330.539 219.587 331.254C219.388 331.572 219.666 331.89 219.984 331.93C221.057 332.01 222.051 331.731 222.886 331.095C223.323 330.738 222.886 329.983 222.449 330.34C221.733 330.897 220.938 331.135 220.024 331.056C220.143 331.294 220.263 331.493 220.422 331.731C220.938 330.976 221.375 330.221 221.733 329.426C221.892 329.068 221.614 328.671 221.216 328.75C220.223 328.949 219.269 329.307 218.394 329.824C217.878 330.142 218.315 330.897 218.832 330.619Z" fill="#161616"/>
<path d="M225.39 340.237C224.078 338.926 226.344 338.17 226.582 337.018C226.821 335.666 225.231 334.395 227.019 333.361C227.536 333.083 227.059 332.288 226.582 332.606C225.946 332.964 225.429 333.52 225.27 334.275C225.032 335.547 226.145 336.302 225.191 337.455C224.754 338.011 224.237 338.17 224.078 338.926C223.919 339.681 224.237 340.317 224.754 340.873C225.191 341.271 225.827 340.635 225.39 340.237Z" fill="#161616"/>
<path d="M335.127 226.764C235.485 233.958 135.843 241.112 36.2402 248.306C33.5375 176.049 30.8348 103.791 28.1718 31.5335C128.251 30.1822 228.331 28.8308 328.41 27.4795C330.636 93.8945 332.862 160.309 335.127 226.764Z" fill="white" stroke="#161616" stroke-width="3.5" stroke-miterlimit="10"/>
<path d="M112.83 66.7085C132.146 66.7085 151.503 66.7085 170.819 66.7085C171.574 66.7085 171.574 65.5161 170.819 65.5161C151.503 65.5161 132.146 65.5161 112.83 65.5161C112.075 65.5161 112.075 66.7085 112.83 66.7085Z" fill="#161616"/>
<path d="M134.531 71.5967C154.444 71.5967 174.356 71.5967 194.269 71.5967C195.024 71.5967 195.024 70.4043 194.269 70.4043C174.356 70.4043 154.444 70.4043 134.531 70.4043C133.736 70.4043 133.736 71.5967 134.531 71.5967Z" fill="#161616"/>
<path d="M40.2545 188.211C40.9699 204.825 41.6853 221.478 42.4007 238.092C42.4405 238.847 43.6328 238.847 43.5931 238.092C42.8777 221.478 42.1622 204.825 41.4468 188.211C41.4071 187.456 40.2147 187.456 40.2545 188.211Z" fill="#161616"/>
<path d="M127.814 178.513C129.523 178.513 131.232 178.513 132.981 178.513C133.736 178.513 133.736 177.32 132.981 177.32C131.272 177.32 129.563 177.32 127.814 177.32C127.059 177.32 127.059 178.513 127.814 178.513Z" fill="#161616"/>
<path d="M137.472 178.513C141.884 178.513 146.256 178.513 150.668 178.513C151.423 178.513 151.423 177.32 150.668 177.32C146.256 177.32 141.884 177.32 137.472 177.32C136.717 177.32 136.717 178.513 137.472 178.513Z" fill="#161616"/>
<path d="M160.644 177.877C165.89 177.877 171.137 177.877 176.423 177.877C177.178 177.877 177.178 176.685 176.423 176.685C171.177 176.685 165.93 176.685 160.644 176.685C159.889 176.685 159.889 177.877 160.644 177.877Z" fill="#161616"/>
<path d="M134.929 186.86C141.367 186.86 147.806 186.86 154.245 186.86C155 186.86 155 185.667 154.245 185.667C147.806 185.667 141.367 185.667 134.929 185.667C134.134 185.667 134.134 186.86 134.929 186.86Z" fill="#161616"/>
<path d="M144.229 182.368C151.741 182.368 159.253 182.368 166.765 182.368C167.52 182.368 167.52 181.175 166.765 181.175C159.253 181.175 151.741 181.175 144.229 181.175C143.474 181.175 143.474 182.368 144.229 182.368Z" fill="#161616"/>
<path d="M184.134 224.856C196.773 224.856 209.452 224.856 222.091 224.856C222.846 224.856 222.846 223.664 222.091 223.664C209.452 223.664 196.773 223.664 184.134 223.664C183.378 223.664 183.378 224.856 184.134 224.856Z" fill="#161616"/>
<path d="M215.334 228.076C221.971 228.076 228.649 228.076 235.286 228.076C236.041 228.076 236.041 226.883 235.286 226.883C228.649 226.883 221.971 226.883 215.334 226.883C214.579 226.883 214.579 228.076 215.334 228.076Z" fill="#161616"/>
<path d="M232.703 223.227C239.261 223.227 245.779 223.227 252.337 223.227C253.092 223.227 253.092 222.034 252.337 222.034C245.779 222.034 239.261 222.034 232.703 222.034C231.948 222.034 231.948 223.227 232.703 223.227Z" fill="#161616"/>
<path d="M266.169 115.477C278.291 115.477 290.413 115.477 302.536 115.477C303.291 115.477 303.291 114.284 302.536 114.284C290.413 114.284 278.291 114.284 266.169 114.284C265.413 114.284 265.413 115.477 266.169 115.477Z" fill="#161616"/>
<path d="M254.921 117.384C258.776 117.384 262.631 117.384 266.487 117.384C267.242 117.384 267.242 116.192 266.487 116.192C262.631 116.192 258.776 116.192 254.921 116.192C254.126 116.192 254.126 117.384 254.921 117.384Z" fill="#161616"/>
<path d="M257.146 120.603C270.103 120.603 283.1 120.603 296.057 120.603C296.812 120.603 296.812 119.411 296.057 119.411C283.1 119.411 270.103 119.411 257.146 119.411C256.391 119.411 256.391 120.603 257.146 120.603Z" fill="#161616"/>
<path d="M305.119 117.702C307.583 117.702 310.048 117.702 312.512 117.702C313.267 117.702 313.267 116.51 312.512 116.51C310.048 116.51 307.583 116.51 305.119 116.51C304.324 116.51 304.324 117.702 305.119 117.702Z" fill="#161616"/>
<path d="M295.461 166.271C299.118 166.271 302.734 166.271 306.391 166.271C307.146 166.271 307.146 165.079 306.391 165.079C302.734 165.079 299.118 165.079 295.461 165.079C294.666 165.079 294.666 166.271 295.461 166.271Z" fill="#161616"/>
<path d="M288.386 169.491C292.361 169.491 296.335 169.491 300.27 169.491C301.025 169.491 301.025 168.299 300.27 168.299C296.296 168.299 292.321 168.299 288.386 168.299C287.591 168.299 287.591 169.491 288.386 169.491Z" fill="#161616"/>
<path d="M294.15 172.71C301.979 172.71 309.809 172.71 317.639 172.71C318.394 172.71 318.394 171.518 317.639 171.518C309.809 171.518 301.979 171.518 294.15 171.518C293.394 171.518 293.394 172.71 294.15 172.71Z" fill="#161616"/>
<path d="M308.975 168.854C311.32 168.854 313.704 168.854 316.049 168.854C316.805 168.854 316.805 167.662 316.049 167.662C313.704 167.662 311.32 167.662 308.975 167.662C308.18 167.662 308.18 168.854 308.975 168.854Z" fill="#161616"/>
<path d="M145.262 119.291C150.827 119.291 156.351 119.291 161.916 119.291C162.671 119.291 162.671 118.099 161.916 118.099C156.351 118.099 150.827 118.099 145.262 118.099C144.507 118.099 144.507 119.291 145.262 119.291Z" fill="#161616"/>
<path d="M157.385 122.71C165.572 122.71 173.8 122.71 181.987 122.71C182.743 122.71 182.743 121.518 181.987 121.518C173.8 121.518 165.572 121.518 157.385 121.518C156.63 121.518 156.59 122.71 157.385 122.71Z" fill="#161616"/>
<path d="M178.967 118.139C183.617 118.139 188.307 118.139 192.957 118.139C193.712 118.139 193.712 116.947 192.957 116.947C188.307 116.947 183.617 116.947 178.967 116.947C178.212 116.947 178.212 118.139 178.967 118.139Z" fill="#161616"/>
<path d="M36.7172 54.7055C37.5916 84.8725 38.466 115.079 39.3404 145.246C39.5789 153.831 39.8173 162.376 40.0956 170.962C40.1353 171.717 41.3277 171.717 41.2879 170.962C40.4135 140.795 39.5391 110.588 38.6647 80.421C38.4262 71.8359 38.1878 63.2906 37.9095 54.7055C37.9095 53.9504 36.7172 53.9504 36.7172 54.7055Z" fill="#161616"/>
<path d="M325.628 153.314C326.224 173.267 326.82 193.179 327.417 213.132C327.456 213.887 328.649 213.887 328.609 213.132C328.013 193.179 327.417 173.267 326.82 153.314C326.82 152.559 325.628 152.559 325.628 153.314Z" fill="#161616"/>
<path d="M243.315 144.173C243.553 146.597 243.792 149.062 243.991 151.486C246.296 150.89 248.561 150.254 250.867 149.658C250.549 147.233 250.27 144.769 249.952 142.345C247.727 142.941 245.541 143.577 243.315 144.173Z" fill="#EC615B"/>
<path d="M241.924 162.734C244.309 162.416 246.654 162.138 249.038 161.82C249.356 164.721 249.634 167.623 249.952 170.524C247.806 170.604 245.66 170.683 243.553 170.763C242.997 168.06 242.48 165.397 241.924 162.734Z" fill="#EC615B"/>
<path d="M250.628 180.34C251.383 182.844 252.138 185.388 252.933 187.892C255.08 186.898 257.226 185.905 259.332 184.911C258.657 182.685 257.941 180.499 257.266 178.273C255.08 178.989 252.854 179.665 250.628 180.34Z" fill="#EC615B"/>
<path d="M93.5135 204.03C94.0302 211.74 94.5469 219.451 95.0636 227.122C108.577 226.247 122.091 225.413 135.604 224.538C135.843 217.623 136.121 210.667 136.359 203.751C122.091 203.871 107.782 203.95 93.5135 204.03Z" fill="#5222D0"/>
<path d="M261.518 47.1539C263.077 47.1539 264.34 46.104 264.34 44.8089C264.34 43.5138 263.077 42.4639 261.518 42.4639C259.96 42.4639 258.696 43.5138 258.696 44.8089C258.696 46.104 259.96 47.1539 261.518 47.1539Z" fill="#5222D0"/>
<path d="M69.7458 64.7212C71.0409 64.7212 72.0908 64.0273 72.0908 63.1712C72.0908 62.3151 71.0409 61.6211 69.7458 61.6211C68.4506 61.6211 67.4008 62.3151 67.4008 63.1712C67.4008 64.0273 68.4506 64.7212 69.7458 64.7212Z" fill="#EC615B"/>
<path d="M107.067 109.673C108.077 109.673 108.895 108.713 108.895 107.527C108.895 106.342 108.077 105.381 107.067 105.381C106.057 105.381 105.239 106.342 105.239 107.527C105.239 108.713 106.057 109.673 107.067 109.673Z" fill="#EC615B"/>
<path opacity="0.21" d="M90.2942 56.1363C91.0097 56.0171 92.4008 62.6546 95.8189 74.6975C100.31 90.556 104.762 103.354 107.981 112.098C103.092 115.119 92.1623 120.882 77.2577 121.081C66.7251 121.2 58.4183 118.497 53.4898 116.43C63.148 117.504 70.9381 117.225 76.3833 116.709C85.0081 115.914 83.4977 115 90.016 114.682C92.7187 114.562 96.2561 114.562 99.8729 112.376C101.185 111.581 102.138 110.707 102.774 110.071C100.231 104.825 96.9715 97.1141 94.3483 87.4559C90.175 71.7564 89.2609 56.3351 90.2942 56.1363Z" fill="#6D6C6C"/>
<path opacity="0.25" d="M127.536 99.2607C128.172 104.308 129.324 109.952 131.232 115.994C136.677 133.164 145.859 145.405 152.774 152.957C148.641 156.017 143.514 159.197 137.353 161.86C118.673 169.928 101.224 168.736 91.8839 167.305C91.5262 165.199 91.1685 163.092 90.8108 160.986C94.7854 161.105 98.9984 161.025 103.41 160.787C119.149 159.793 132.663 156.256 143.434 152.321C140.016 146.518 137.552 141.51 135.843 137.735C131.709 128.712 128.649 121.916 127.576 112.735C126.9 107.13 127.178 102.401 127.536 99.2607Z" fill="#6D6C6C"/>
<path opacity="0.14" d="M253.887 125.571C254.285 134.633 255.239 142.145 256.073 147.551C258.021 159.951 259.452 168.536 264.539 178.195C267.719 184.196 271.296 188.608 273.879 191.47C269.388 195.325 263.347 199.697 255.596 203.195C236.121 212.058 217.838 210.269 209.293 208.838C208.855 206.891 208.418 204.943 207.981 202.956C209.054 203.036 210.724 203.115 212.751 203.155C219.507 203.314 233.577 203.552 249.714 198.147C254.245 196.636 260.604 194.093 267.759 189.88C264.937 186.104 262.154 181.613 259.73 176.406C250.151 155.857 252.059 135.905 253.887 125.571Z" fill="#6D6C6C"/>
<path opacity="0.18" d="M284.332 36.4229C285.127 40.1192 286.28 45.7631 287.433 52.7981C289.579 66.3911 289.42 71.3195 291.924 79.3481C293.235 83.5214 295.58 89.4435 299.992 96.2003C296.296 99.221 291.685 102.361 286.002 104.984C267.401 113.609 249.595 111.184 241.407 109.475C241.487 107.886 241.566 106.296 241.646 104.746C242.679 105.024 244.229 105.382 246.137 105.699C248.641 106.097 257.902 107.448 275.31 103.076C280.119 101.884 286.598 99.9761 294.03 96.9157C292.599 94.372 290.493 90.3974 288.585 85.31C283.021 70.5643 283.061 57.7663 283.14 51.1685C283.18 47.5516 283.418 42.5039 284.332 36.4229Z" fill="#6D6C6C"/>
<path d="M46.733 53.8707C42.7982 74.6975 46.7728 95.7626 50.7473 116.271C50.9063 117.027 52.0589 116.709 51.8999 115.953C47.9651 95.6831 44.0303 74.8167 47.8857 54.1887C48.0049 53.4733 46.8523 53.1156 46.733 53.8707Z" fill="#161616"/>
<path d="M47.8458 53.7112C53.5295 57.5268 60.4055 58.2025 67.1225 57.7255C74.7934 57.1691 82.3848 55.5395 89.9762 54.2676C90.7314 54.1484 90.4134 52.9958 89.6583 53.115C82.3848 54.3074 75.1114 55.8575 67.7584 56.4536C61.0414 57.0101 54.1654 56.4934 48.442 52.6381C47.8061 52.2406 47.2099 53.274 47.8458 53.7112Z" fill="#161616"/>
<path d="M89.1813 55.1025C90.2941 74.1009 93.1558 93.4968 102.774 110.19C103.172 110.866 104.205 110.269 103.808 109.594C94.3085 93.0596 91.4865 73.8624 90.3736 55.1025C90.3339 54.3473 89.1415 54.3473 89.1813 55.1025Z" fill="#161616"/>
<path d="M51.7409 116.59C60.7632 119.213 70.4611 117.623 79.6424 116.868C87.7902 116.192 96.5343 115.874 103.53 111.105C104.165 110.668 103.569 109.634 102.933 110.071C95.8983 114.881 87.0748 115.04 78.8872 115.715C70.0637 116.431 60.7632 117.901 52.0589 115.397C51.3037 115.238 50.9858 116.391 51.7409 116.59Z" fill="#161616"/>
<path d="M67.0032 63.4097C66.2083 63.0519 67.0827 62.2968 67.5597 62.1775C68.1559 62.0186 69.3085 61.9391 69.5867 62.6147C69.7854 63.1314 69.4675 63.8071 68.9905 64.0058C68.2353 64.3635 67.4007 63.9263 66.884 63.4097C66.3275 62.8532 65.4929 63.6879 66.0493 64.2443C67.043 65.2379 68.6725 65.7546 69.9047 64.8405C70.8983 64.1251 71.256 62.5352 70.4214 61.5814C69.4675 60.5082 67.4404 60.6275 66.3673 61.4224C65.4134 62.1378 65.2147 63.8469 66.4468 64.4033C67.1225 64.761 67.7187 63.7276 67.0032 63.4097Z" fill="#161616"/>
<path d="M82.9412 116.748C80.0795 131.255 83.14 145.922 86.2402 160.15C86.3991 160.906 87.5518 160.588 87.3928 159.832C84.3323 145.842 81.3117 131.375 84.0939 117.066C84.2529 116.311 83.1002 115.993 82.9412 116.748Z" fill="#161616"/>
<path d="M99.3562 101.526C108.537 99.7771 117.838 99.1412 127.138 99.4989C126.94 99.3002 126.741 99.1014 126.542 98.9027C124.674 118.06 132.862 136.303 142.798 152.162C143.196 152.798 144.229 152.202 143.832 151.566C134.014 135.866 125.867 117.861 127.735 98.9027C127.774 98.5847 127.417 98.3065 127.138 98.3065C117.719 97.9488 108.299 98.6245 99.0382 100.373C98.2831 100.532 98.601 101.685 99.3562 101.526Z" fill="#161616"/>
<path d="M86.8762 160.985C106.193 163.251 125.787 160.349 143.673 152.718C144.388 152.4 143.752 151.407 143.076 151.685C125.429 159.236 105.954 162.019 86.8762 159.793C86.121 159.713 86.121 160.906 86.8762 160.985Z" fill="#161616"/>
<path d="M106.828 106.414C106.828 106.374 106.948 106.176 106.948 106.096C106.987 105.937 107.107 105.778 107.226 105.659C107.464 105.46 107.742 105.301 108.06 105.262C108.657 105.182 109.213 105.5 109.372 106.096C109.491 106.573 109.293 107.209 108.736 107.289C108.219 107.368 107.742 107.01 107.663 106.494C107.544 105.738 106.391 106.056 106.51 106.812C106.709 108.203 108.498 108.878 109.65 108.203C110.922 107.448 110.843 105.5 109.769 104.586C108.577 103.592 106.59 104.109 105.914 105.46C105.596 106.136 105.596 107.05 106.351 107.448C106.948 107.765 107.822 107.487 107.981 106.732C108.1 105.977 106.948 105.659 106.828 106.414Z" fill="#161616"/>
<path d="M50.6679 75.4926C61.2402 76.9632 71.7331 74.7772 81.8682 71.8757C82.6234 71.677 82.3054 70.5244 81.5503 70.7231C71.6138 73.5451 61.3197 75.7708 50.9858 74.34C50.2307 74.2207 49.9127 75.3734 50.6679 75.4926Z" fill="#161616"/>
<path d="M52.6551 83.2827C58.14 83.8789 63.6248 83.3225 68.911 81.6532C69.6264 81.4147 69.3482 80.2621 68.5931 80.5006C63.4261 82.1301 58.0605 82.6468 52.6551 82.0904C51.8999 82.0109 51.8999 83.2033 52.6551 83.2827Z" fill="#161616"/>
<path d="M52.6551 92.9006C63.1479 94.1327 73.7202 93.3776 83.8951 90.7146C84.6503 90.5159 84.3323 89.3633 83.5771 89.562C73.4818 92.225 63.0287 92.9404 52.6551 91.7083C51.8999 91.589 51.8999 92.7814 52.6551 92.9006Z" fill="#161616"/>
<path d="M91.9238 153.911C102.456 154.388 112.989 153.116 123.084 150.095C123.8 149.897 123.522 148.744 122.766 148.943C112.751 151.924 102.377 153.196 91.9238 152.719C91.1289 152.679 91.1289 153.871 91.9238 153.911Z" fill="#161616"/>
<path d="M93.9508 144.809C98.6408 144.65 103.331 144.292 108.021 143.775C108.776 143.696 108.776 142.503 108.021 142.583C103.331 143.1 98.6805 143.457 93.9508 143.616C93.1956 143.656 93.1956 144.848 93.9508 144.809Z" fill="#161616"/>
<path d="M97.7664 128.433C100.867 128.831 104.086 128.036 107.146 127.599C110.525 127.082 113.863 126.605 117.242 126.088C117.997 125.969 117.679 124.817 116.924 124.936C113.824 125.413 110.684 125.89 107.584 126.327C104.364 126.804 101.026 127.678 97.7664 127.241C97.0113 127.122 97.0113 128.314 97.7664 128.433Z" fill="#161616"/>
<path d="M238.227 39.3234C233.895 60.5873 233.458 82.4474 236.916 103.87C237.035 104.625 238.188 104.307 238.068 103.552C234.65 82.3679 235.127 60.6668 239.38 39.6414C239.539 38.8862 238.386 38.5682 238.227 39.3234Z" fill="#161616"/>
<path d="M239.579 39.6021C254.006 36.3032 268.911 35.6275 283.617 37.6148C284.372 37.734 284.69 36.5814 283.935 36.4621C269.03 34.4351 253.927 35.1108 239.261 38.4494C238.545 38.6482 238.863 39.8008 239.579 39.6021Z" fill="#161616"/>
<path d="M283.259 36.542C282.822 57.011 283.1 78.6326 293.474 96.9553C293.871 97.631 294.865 97.0348 294.507 96.3591C284.253 78.2351 284.014 56.8122 284.452 36.542C284.491 35.7868 283.299 35.7868 283.259 36.542Z" fill="#161616"/>
<path d="M237.83 104.507C242.282 105.858 247.051 105.938 251.662 105.977C256.63 106.017 261.598 105.699 266.566 105.023C276.065 103.752 285.326 101.168 294.189 97.432C294.905 97.1538 294.269 96.1204 293.593 96.3987C284.73 100.135 275.39 102.678 265.851 103.911C261.399 104.467 256.908 104.785 252.417 104.745C247.687 104.745 242.719 104.705 238.188 103.314C237.393 103.155 237.115 104.308 237.83 104.507Z" fill="#161616"/>
<path d="M262.154 40.8745C260.803 41.3514 260.207 42.9015 260.684 44.2131C261.24 45.6837 262.949 46.0414 264.221 45.167C265.453 44.2926 265.851 42.5438 264.658 41.4309C263.625 40.477 261.836 40.4373 260.882 41.4707C260.366 42.0271 261.2 42.8618 261.717 42.3053C262.909 41.0335 265.254 42.822 263.625 44.0939C262.989 44.5708 262.075 44.5708 261.797 43.7362C261.598 43.1002 261.797 42.2258 262.472 41.9874C263.188 41.7489 262.87 40.5963 262.154 40.8745Z" fill="#161616"/>
<path d="M238.824 57.8053C249.674 58.0836 260.485 57.8848 271.296 57.1694C272.051 57.1297 272.051 55.9373 271.296 55.977C260.485 56.6925 249.635 56.9309 238.824 56.613C238.029 56.613 238.029 57.8053 238.824 57.8053Z" fill="#161616"/>
<path d="M239.897 63.8477C243.951 64.0066 248.005 64.1656 252.019 64.3246C252.774 64.3644 252.774 63.172 252.019 63.1322C247.965 62.9732 243.911 62.8143 239.897 62.6553C239.102 62.6155 239.102 63.8079 239.897 63.8477Z" fill="#161616"/>
<path d="M238.784 72.2736C248.998 72.83 259.332 73.307 269.388 71.0812C270.143 70.9222 269.825 69.7696 269.07 69.9286C259.094 72.1146 248.879 71.6376 238.784 71.0812C238.029 71.0415 238.029 72.2338 238.784 72.2736Z" fill="#161616"/>
<path d="M90.6123 201.486C89.6982 209.435 89.3802 217.424 89.6584 225.413C89.6982 226.168 90.8905 226.168 90.8508 225.413C90.5726 217.424 90.8905 209.435 91.8047 201.486C91.8842 200.731 90.6918 200.731 90.6123 201.486Z" fill="#161616"/>
<path d="M91.0096 201.963C105.159 201.963 119.348 201.764 133.498 201.327C134.253 201.287 134.253 200.095 133.498 200.135C119.348 200.572 105.159 200.771 91.0096 200.771C90.2544 200.771 90.2544 201.963 91.0096 201.963Z" fill="#161616"/>
<path d="M133.379 200.771C133.498 207.687 133.617 214.563 133.736 221.478C133.736 222.234 134.929 222.234 134.929 221.478C134.809 214.563 134.69 207.687 134.571 200.771C134.571 200.016 133.339 200.016 133.379 200.771Z" fill="#161616"/>
<path d="M89.5391 224.539C89.6186 227.122 94.1098 225.97 95.5804 225.89C99.7934 225.612 104.006 225.334 108.18 225.016C116.725 224.42 125.27 223.863 133.816 223.267C134.571 223.227 134.571 222.035 133.816 222.075C126.542 222.552 119.309 223.068 112.035 223.545C108.577 223.784 105.119 224.022 101.661 224.261C100.628 224.34 90.7314 225.294 90.6917 224.539C90.7314 223.784 89.5391 223.784 89.5391 224.539Z" fill="#161616"/>
<path d="M94.2291 207.328C103.768 206.891 113.307 207.249 122.766 208.441C123.522 208.521 123.522 207.328 122.766 207.249C113.307 206.057 103.768 205.699 94.2291 206.136C93.4342 206.176 93.4342 207.368 94.2291 207.328Z" fill="#161616"/>
<path d="M94.5868 213.37C99.9127 212.972 105.278 212.535 110.604 212.138C111.359 212.098 111.359 210.906 110.604 210.945C105.278 211.343 99.9127 211.78 94.5868 212.177C93.8316 212.217 93.8316 213.41 94.5868 213.37Z" fill="#161616"/>
<path d="M96.3753 219.451C104.046 218.458 112.393 216.431 120.103 217.822C120.859 217.941 121.177 216.828 120.421 216.669C112.552 215.238 104.205 217.225 96.3753 218.259C95.6599 218.378 95.6201 219.571 96.3753 219.451Z" fill="#161616"/>
<path d="M199.754 133.839C193.434 156.335 194.229 180.421 201.979 202.48C202.218 203.195 203.371 202.877 203.132 202.162C195.461 180.302 194.666 156.454 200.906 134.157C201.105 133.402 199.952 133.084 199.754 133.839Z" fill="#161616"/>
<path d="M200.549 134.236C218.235 134.157 235.843 131.851 252.973 127.36C253.728 127.161 253.41 126.009 252.655 126.208C235.644 130.659 218.156 132.964 200.549 133.044C199.754 133.044 199.754 134.236 200.549 134.236Z" fill="#161616"/>
<path d="M252.655 126.645C251.94 137.694 252.417 148.823 254.404 159.753C255.398 165.278 256.59 170.802 258.776 175.969C260.962 181.096 263.983 185.747 267.52 189.999C267.997 190.596 268.871 189.761 268.355 189.165C264.738 184.833 261.677 180.023 259.531 174.777C257.504 169.769 256.391 164.403 255.477 159.117C253.569 148.426 253.132 137.496 253.808 126.645C253.887 125.89 252.695 125.89 252.655 126.645Z" fill="#161616"/>
<path d="M202.138 203.115C224.634 204.705 248.124 202.162 267.838 190.556C268.514 190.158 267.917 189.125 267.242 189.522C247.647 201.049 224.396 203.473 202.138 201.923C201.383 201.844 201.383 203.036 202.138 203.115Z" fill="#161616"/>
<path d="M226.065 137.814C225.39 136.661 226.741 135.23 227.894 136.144C229.126 137.138 227.814 138.728 226.502 138.211C225.787 137.933 225.469 139.086 226.185 139.364C227.258 139.801 228.569 139.324 229.205 138.37C229.921 137.297 229.603 135.946 228.609 135.19C226.463 133.481 223.76 136.144 225.032 138.41C225.429 139.086 226.463 138.489 226.065 137.814Z" fill="#161616"/>
<path d="M200.946 151.526C212.83 151.327 224.714 150.492 236.558 149.061C237.313 148.982 237.313 147.79 236.558 147.869C224.754 149.34 212.87 150.135 200.946 150.333C200.191 150.373 200.191 151.565 200.946 151.526Z" fill="#161616"/>
<path d="M240.811 143.537C241.169 145.366 241.526 147.234 241.884 149.062C242.043 149.817 243.196 149.499 243.037 148.744C242.679 146.916 242.321 145.048 241.964 143.219C241.844 142.464 240.692 142.782 240.811 143.537Z" fill="#161616"/>
<path d="M241.606 143.379C243.792 143.061 245.978 142.743 248.203 142.385C248.959 142.266 248.641 141.113 247.885 141.232C245.699 141.55 243.514 141.868 241.288 142.226C240.533 142.345 240.851 143.498 241.606 143.379Z" fill="#161616"/>
<path d="M247.846 142.026C248.164 143.735 248.442 145.444 248.76 147.113C248.879 147.869 250.032 147.551 249.913 146.795C249.595 145.086 249.316 143.377 248.998 141.708C248.879 140.993 247.727 141.31 247.846 142.026Z" fill="#161616"/>
<path d="M242.878 149.976C245.223 149.499 247.449 148.863 249.674 147.989C250.39 147.71 250.072 146.558 249.356 146.836C247.131 147.671 244.865 148.346 242.56 148.823C241.805 148.982 242.123 150.135 242.878 149.976Z" fill="#161616"/>
<path d="M243.076 144.729C243.514 145.723 244.11 146.518 244.984 147.193C245.302 147.432 245.898 147.432 245.978 146.915C246.296 144.769 247.051 142.861 248.323 141.073C248.76 140.437 247.727 139.841 247.289 140.476C245.978 142.305 245.143 144.372 244.825 146.597C245.143 146.518 245.501 146.438 245.819 146.319C245.064 145.723 244.507 145.007 244.11 144.093C243.792 143.418 242.758 144.014 243.076 144.729Z" fill="#161616"/>
<path d="M243.514 161.78C242.878 164.642 243.156 167.424 244.308 170.087C244.626 170.803 245.62 170.167 245.342 169.491C244.308 167.146 244.11 164.602 244.666 162.098C244.825 161.343 243.673 161.025 243.514 161.78Z" fill="#161616"/>
<path d="M244.308 162.178C246.693 161.78 249.078 161.422 251.463 161.025C251.224 160.786 250.986 160.548 250.747 160.31C250.35 162.853 250.628 165.278 251.622 167.662C251.9 168.378 253.052 168.06 252.774 167.345C251.86 165.198 251.542 162.933 251.9 160.627C251.979 160.151 251.661 159.833 251.184 159.912C248.8 160.27 246.415 160.667 244.03 161.065C243.235 161.144 243.553 162.297 244.308 162.178Z" fill="#161616"/>
<path d="M244.825 170.127C247.448 170.047 249.952 169.53 252.417 168.656C253.132 168.378 252.814 167.225 252.099 167.503C249.754 168.378 247.329 168.855 244.825 168.934C244.07 168.934 244.07 170.127 244.825 170.127Z" fill="#161616"/>
<path d="M245.183 164.602C245.541 165.635 246.137 166.351 247.091 166.907C247.528 167.146 247.925 166.828 248.005 166.391C248.243 164.284 248.8 162.257 249.674 160.309C249.992 159.634 248.959 158.998 248.641 159.713C247.687 161.86 247.091 164.085 246.812 166.391C247.13 166.232 247.409 166.033 247.727 165.874C247.051 165.476 246.654 164.999 246.375 164.244C246.097 163.569 244.944 163.887 245.183 164.602Z" fill="#161616"/>
<path d="M245.978 180.222C246.256 182.885 246.972 185.389 248.164 187.774C248.482 188.449 249.515 187.853 249.197 187.178C248.124 184.992 247.448 182.647 247.21 180.222C247.091 179.467 245.898 179.467 245.978 180.222Z" fill="#161616"/>
<path d="M246.534 180.103C249.595 180.382 252.456 179.825 255.199 178.474C254.921 178.355 254.603 178.235 254.324 178.116C254.841 180.541 255.914 182.647 257.583 184.515C258.1 185.072 258.935 184.237 258.418 183.681C256.908 181.972 255.954 180.064 255.477 177.838C255.397 177.44 254.921 177.321 254.603 177.48C252.059 178.712 249.356 179.189 246.534 178.951C245.779 178.871 245.779 180.064 246.534 180.103Z" fill="#161616"/>
<path d="M249.237 188.211C252.337 187.058 255.398 185.826 258.379 184.475C259.094 184.157 258.458 183.123 257.782 183.441C254.881 184.753 251.9 185.945 248.919 187.058C248.204 187.336 248.522 188.489 249.237 188.211Z" fill="#161616"/>
<path d="M248.601 182.21C249.555 183.044 251.741 185.906 252.854 183.799C253.371 182.845 253.251 181.534 253.569 180.461C254.046 178.95 254.841 177.559 255.875 176.367C256.351 175.771 255.517 174.936 255.04 175.532C253.927 176.844 253.053 178.275 252.536 179.944C252.297 180.699 252.099 181.494 251.979 182.289C251.82 183.283 251.542 183.044 250.787 182.567C250.31 182.249 249.873 181.772 249.436 181.375C248.879 180.858 248.045 181.693 248.601 182.21Z" fill="#161616"/>
<path d="M202.019 170.961C213.148 170.842 224.237 169.928 235.207 168.179C235.962 168.06 235.644 166.907 234.889 167.026C223.998 168.735 213.029 169.649 202.019 169.729C201.264 169.769 201.264 170.961 202.019 170.961Z" fill="#161616"/>
<path d="M200.747 154.825C207.941 155.024 215.095 154.785 222.25 154.189C223.005 154.109 223.005 152.917 222.25 152.996C215.095 153.593 207.901 153.791 200.747 153.632C199.992 153.593 199.992 154.785 200.747 154.825Z" fill="#161616"/>
<path d="M202.456 173.306C210.008 173.664 217.56 173.385 225.032 172.432C225.787 172.352 225.787 171.16 225.032 171.239C217.52 172.153 209.968 172.471 202.456 172.114C201.701 172.074 201.701 173.266 202.456 173.306Z" fill="#161616"/>
<path d="M227.576 171.876C229.722 171.916 231.828 171.637 233.895 170.962C234.611 170.723 234.293 169.571 233.577 169.809C231.63 170.445 229.642 170.723 227.576 170.684C226.82 170.684 226.82 171.876 227.576 171.876Z" fill="#161616"/>
<path d="M206.51 188.251C215.572 187.694 224.595 186.86 233.577 185.627C234.332 185.508 234.332 184.316 233.577 184.435C224.595 185.627 215.572 186.502 206.51 187.058C205.715 187.098 205.715 188.29 206.51 188.251Z" fill="#161616"/>
<path d="M207.544 191.033C210.525 191.033 213.506 191.033 216.487 191.033C217.242 191.033 217.242 189.841 216.487 189.841C213.506 189.841 210.525 189.841 207.544 189.841C206.789 189.841 206.789 191.033 207.544 191.033Z" fill="#161616"/>
<path d="M210.127 193.696C214.778 193.418 219.428 192.981 224.078 192.424C227.814 191.947 231.828 191.748 235.048 189.562C235.684 189.125 235.088 188.092 234.452 188.529C231.073 190.834 226.542 190.953 222.607 191.391C218.474 191.868 214.301 192.225 210.167 192.504C209.372 192.543 209.332 193.736 210.127 193.696Z" fill="#161616"/>
<path d="M255.517 161.581C262.751 161.223 269.945 160.269 277.059 158.759C276.821 158.64 276.582 158.481 276.344 158.361C279.682 168.298 284.611 177.559 290.93 185.945C291.367 186.541 292.441 185.945 291.964 185.349C285.724 177.082 280.835 167.9 277.496 158.083C277.377 157.765 277.099 157.606 276.781 157.686C269.786 159.196 262.711 160.11 255.557 160.468C254.722 160.428 254.722 161.621 255.517 161.581Z" fill="#161616"/>
<path d="M256.749 195.127C257.822 196.637 258.696 198.227 259.452 199.936C259.531 200.174 259.889 200.293 260.127 200.214C265.97 198.266 271.733 196.12 277.377 193.696C280.239 192.464 283.06 191.192 285.882 189.84C287.234 189.204 288.585 188.529 289.897 187.853C290.692 187.456 291.606 187.217 291.884 186.343C291.963 186.104 291.844 185.786 291.606 185.667C291.248 185.468 291.049 185.468 290.692 185.667C290.453 185.786 290.334 186.104 290.413 186.343C290.413 186.383 290.453 186.422 290.453 186.462C290.652 187.217 291.805 186.899 291.606 186.144C291.606 186.104 291.566 186.065 291.566 186.025C291.487 186.263 291.367 186.462 291.288 186.701C291.208 186.701 291.089 186.701 291.01 186.701C290.93 186.462 290.811 186.263 290.731 186.025C290.493 186.74 287.989 187.495 287.313 187.853C286.2 188.41 285.087 188.926 283.935 189.483C281.272 190.755 278.569 191.947 275.827 193.1C270.58 195.325 265.215 197.313 259.809 199.101C260.048 199.181 260.246 199.3 260.485 199.379C259.77 197.67 258.855 196.08 257.782 194.57C257.345 193.894 256.312 194.491 256.749 195.127Z" fill="#161616"/>
<path d="M263.665 164.681C263.585 164.164 264.539 163.688 264.897 164.045C265.374 164.522 264.579 165.397 264.022 165.198C263.307 164.92 262.989 166.072 263.704 166.351C265.413 166.986 267.083 164.522 265.771 163.211C265.175 162.614 264.261 162.654 263.545 163.012C262.79 163.409 262.393 164.164 262.552 164.999C262.631 165.754 263.784 165.397 263.665 164.681Z" fill="#161616"/>
<path d="M87.5518 132.885C91.9636 132.965 96.4151 132.766 100.787 132.17C105.358 131.534 109.889 130.222 114.539 130.421C115.294 130.461 115.294 129.269 114.539 129.229C110.286 129.07 106.153 130.143 101.979 130.779C97.21 131.534 92.361 131.812 87.512 131.693C86.7966 131.693 86.7966 132.885 87.5518 132.885Z" fill="#161616"/>
<path d="M88.1877 119.729C94.9445 120.245 101.701 119.649 108.259 117.94C109.014 117.741 108.696 116.589 107.941 116.788C101.463 118.457 94.865 119.053 88.1877 118.536C87.4325 118.497 87.4325 119.689 88.1877 119.729Z" fill="#161616"/>
<path d="M241.129 86.2629C240.453 90.6349 239.897 95.3646 242.639 99.1802C243.076 99.8161 244.11 99.2199 243.673 98.584C241.129 95.0466 241.685 90.6349 242.282 86.5808C242.401 85.8256 241.248 85.5077 241.129 86.2629Z" fill="#161616"/>
<path d="M241.487 86.2233C250.946 86.581 260.406 85.6668 269.627 83.4808C269.388 83.3616 269.15 83.2026 268.911 83.0833C269.746 87.1772 271.336 90.9928 273.561 94.4904C273.959 95.1263 274.992 94.5301 274.595 93.8942C272.409 90.4761 270.898 86.74 270.064 82.7654C269.984 82.4474 269.627 82.2884 269.348 82.3679C260.247 84.5142 250.906 85.4284 241.526 85.0706C240.732 84.9911 240.732 86.1835 241.487 86.2233Z" fill="#161616"/>
<path d="M243.633 99.1411C253.887 98.8232 264.022 97.3128 273.879 94.6101C274.634 94.4114 274.317 93.2588 273.561 93.4575C263.784 96.1602 253.768 97.6705 243.633 97.9488C242.838 97.9885 242.838 99.1809 243.633 99.1411Z" fill="#161616"/>
<path d="M383.776 376.764C383.776 381.255 383.776 385.707 383.776 390.198C351.979 402.797 345.501 407.288 345.978 408.918C346.097 409.316 346.932 410.508 363.625 408.56C380.159 406.613 393.553 403.791 402.854 401.486C401.224 392.304 399.555 383.123 397.925 373.942C393.196 374.896 388.466 375.85 383.776 376.764Z" fill="#161616"/>
<path d="M398.045 186.66C397.13 188.369 396.812 189.761 396.733 190.079C391.049 214.244 383.617 228.513 378.768 256.533C369.507 310.508 377.496 371.835 378.251 377.598C380.795 378.711 385.684 380.38 391.924 380.142C397.409 379.904 401.661 378.274 404.086 377.121C403.172 359.514 404.086 337.773 410.167 313.807C417.599 284.435 427.019 274.697 435.485 240.357C441.765 214.92 449.038 185.309 436.479 176.525C426.86 169.689 404.324 174.697 398.045 186.66Z" fill="#EC615B"/>
<path opacity="0.2" d="M420.024 199.34C413.665 228.354 407.742 259.276 402.735 291.986C398.005 322.75 394.467 352.201 391.844 380.182C395.859 379.347 399.833 378.513 403.847 377.678C403.331 365.317 403.887 354.785 404.682 346.716C405.636 336.7 408.06 313.37 417.798 290.079C419.07 287.098 420.7 283.481 423.363 276.684C427.854 265.436 431.113 255.818 432.583 251.287C439.499 229.665 442.957 204.586 444.03 196.319C436.002 197.273 428.013 198.306 420.024 199.34Z" fill="#6D6C6C"/>
<path opacity="0.19" d="M433.14 249.855C417.56 270.166 410.286 288.568 406.63 300.929C403.291 312.177 401.82 322.113 399.913 334.991C397.21 353.274 396.177 368.695 395.739 379.665C398.363 379.029 400.946 378.353 403.569 377.717C403.132 362.336 404.205 349.18 405.517 338.926C407.107 326.763 408.935 312.654 415.294 295.682C417.599 289.522 418.712 287.773 423.959 274.458C428.013 264.045 431.113 255.499 433.14 249.855Z" fill="#6D6C6C"/>
<path d="M469.626 372.193C471.852 377.718 474.118 383.243 476.343 388.807C457.663 400.691 448.84 407.607 449.833 409.634C451.065 412.138 467.202 407.169 498.243 394.808C494.944 384.077 491.646 373.386 488.347 362.654C482.107 365.834 475.867 369.014 469.626 372.193Z" fill="#161616"/>
<path d="M454.285 187.137C464.022 196.04 463.704 208.52 464.936 229.188C464.936 229.188 467.957 280.023 478.092 320.881C480.636 331.096 485.246 346.955 493.792 365.953C492.361 367.781 488.466 372.233 481.63 374.578C474.634 376.962 468.673 375.691 466.447 375.094C454.285 354.347 445.66 336.66 440.095 324.419C414.301 267.9 412.234 238.131 412.234 222.59C412.234 206.613 412.512 187.455 424.396 181.056C433.339 176.247 446.455 179.983 454.285 187.137Z" fill="#EC615B"/>
<path opacity="0.15" d="M426.701 193.218C431.113 210.19 435.882 227.439 440.97 244.928C454.245 290.317 468.672 333.202 483.816 373.425C485.286 372.67 487.075 371.637 488.903 370.245C490.771 368.815 492.242 367.384 493.355 366.112C491.288 361.303 488.426 354.347 485.405 345.802C480.835 332.726 473.402 308.679 469.547 276.645C465.851 245.881 463.982 230.5 464.141 220.802C464.261 212.813 464.976 196.557 454.642 187.813C452.496 186.024 450.389 184.951 448.919 184.315C441.486 187.296 434.094 190.277 426.701 193.218Z" fill="#6D6C6C"/>
<path opacity="0.22" d="M464.618 231.136C462.79 249.617 462.194 274.379 466.645 302.996C471.137 331.772 479.285 355.261 486.638 372.352C488.903 370.484 491.169 368.616 493.434 366.708C490.731 360.309 487.194 351.406 483.657 340.516C476.86 319.57 473.919 303.234 471.375 288.568C468.792 273.544 466.089 254.109 464.618 231.136Z" fill="#6D6C6C"/>
<path d="M278.529 41.9473C276.94 42.7422 274.754 44.1333 273.045 46.518C272.13 47.7501 271.018 49.3797 270.859 51.6849C270.819 52.5991 270.7 54.5864 271.971 55.898C272.329 56.2954 273.283 57.0506 277.973 56.8916C282.146 56.7326 284.253 56.6532 285.326 55.5403C287.393 53.394 286.638 49.34 285.326 46.9155C283.259 43.0601 279.205 42.1062 278.529 41.9473Z" fill="white" stroke="#161616" stroke-width="2" stroke-miterlimit="10"/>
<path d="M302.536 51.923C308.14 58.322 317.122 62.1376 333.617 68.9341C354.404 77.5191 364.817 81.8117 377.138 83.322C390.453 84.9516 397.568 83.2425 400.032 87.5748C403.251 93.1789 395.7 103.672 387.909 112.456C382.107 111.184 376.105 109.594 369.905 107.527C335.922 96.2791 311.359 76.4858 295.223 60.0311C293.196 60.4683 289.738 60.9055 285.803 59.7131C282.425 58.7195 277.655 56.1757 277.933 54.1487C278.291 51.6845 286.916 51.2473 287.433 51.2075C284.809 50.1344 281.033 48.3061 276.94 45.3252C275.747 44.4508 268.911 39.4031 269.746 37.8133C270.461 36.4222 276.661 38.33 282.504 40.1185C287.83 41.7481 291.526 42.9007 295.58 45.6829C299.475 48.3061 301.741 51.0088 302.536 51.923Z" fill="white" stroke="#161616" stroke-width="2" stroke-miterlimit="10"/>
<path d="M275.032 42.3835C275.986 43.4566 276.184 44.8874 277.019 46.0003C277.735 46.9939 278.768 47.7094 279.841 48.3055C283.06 50.0941 286.479 51.5647 289.777 53.1942C290.334 53.4725 291.049 52.7173 290.493 52.2403C288.784 50.7698 286.955 49.4582 285.048 48.2658C284.412 47.8683 283.776 48.9017 284.452 49.2992C286.28 50.4518 288.029 51.6839 289.658 53.075C289.897 52.757 290.135 52.4391 290.374 52.1211C287.234 50.6108 284.094 49.1402 280.994 47.5106C279.523 46.7555 278.211 45.8811 277.456 44.3707C276.94 43.3374 276.661 42.3437 275.867 41.4693C275.35 40.9924 274.515 41.827 275.032 42.3835Z" fill="white"/>
<path d="M278.132 46.5568C279.96 47.3517 281.709 48.3851 283.299 49.6172C283.895 50.0942 284.73 49.2595 284.134 48.7826C282.464 47.471 280.676 46.3978 278.728 45.5234C278.013 45.2054 277.417 46.2388 278.132 46.5568Z" fill="white"/>
<path d="M273.442 41.668C274.952 44.0925 276.94 46.0798 279.285 47.6696C279.921 48.1068 280.517 47.0734 279.881 46.6362C277.695 45.1656 275.867 43.2976 274.475 41.0321C274.078 40.4359 273.045 41.0321 273.442 41.668Z" fill="white"/>
<path d="M275.231 44.9279C276.026 46.0011 276.9 46.9947 277.894 47.8691C278.609 48.5051 281.749 50.7706 280.119 51.9232C279.801 52.1219 280.119 52.6386 280.437 52.4399C281.55 51.6847 281.113 50.3334 280.437 49.4192C279.921 48.7435 279.205 48.2268 278.53 47.6307C277.496 46.7165 276.582 45.7229 275.747 44.6497C275.509 44.292 274.992 44.61 275.231 44.9279Z" fill="#161616"/>
<path d="M274.396 49.0612C275.588 50.6908 277.854 52.996 280.08 52.3204C280.437 52.2011 280.278 51.6447 279.921 51.7639C278.013 52.3601 275.906 50.1741 274.913 48.783C274.674 48.465 274.158 48.7432 274.396 49.0612Z" fill="#161616"/>
<path d="M272.647 51.8432C273.959 53.6318 275.867 54.6652 278.092 54.7844C278.49 54.8242 278.49 54.228 278.092 54.1882C276.105 54.069 274.356 53.1151 273.164 51.5253C272.925 51.2073 272.409 51.5253 272.647 51.8432Z" fill="#161616"/>
<path d="M271.375 55.4199C273.243 57.3674 276.343 57.4071 278.211 55.4199C278.49 55.1416 278.052 54.7044 277.774 54.9827C276.145 56.7315 273.442 56.6917 271.812 54.9827C271.534 54.7044 271.097 55.1416 271.375 55.4199Z" fill="#161616"/>
<path d="M271.772 41.5878C276.184 44.4893 279.364 49.378 284.888 50.3319C285.246 50.4113 285.445 49.8152 285.047 49.7754C279.602 48.8613 276.422 43.9726 272.09 41.1109C271.732 40.8327 271.454 41.3494 271.772 41.5878Z" fill="#161616"/>
<path opacity="0.2" d="M271.296 54.5859C269.865 52.6384 271.057 48.4651 274.515 44.5303C278.41 46.7958 282.266 49.101 286.161 51.3665C285.445 51.3665 279.165 51.446 278.728 53.3936C278.649 53.7115 278.728 54.1885 279.324 54.8641C281.312 55.818 284.65 57.0899 288.943 57.2091C291.169 57.2489 293.116 56.9707 294.626 56.6129C302.735 64.8005 317.003 77.1614 337.989 86.1439C356.431 94.0136 372.965 96.2791 383.895 96.915C383.537 101.605 383.18 106.255 382.822 110.945C364.817 106.176 340.413 97.1138 316.169 78.9103C307.902 72.7099 300.827 66.3109 294.785 60.1503C289.221 61.0645 285.763 60.1106 283.577 58.9977C281.709 58.0438 280.517 56.8514 278.053 56.6527C276.423 56.5335 275.032 56.9309 273.243 56.0565C273.045 55.977 271.892 55.3808 271.296 54.5859Z" fill="#6D6C6C"/>
<path opacity="0.14" d="M322.488 82.646C328.053 85.6269 334.491 88.6476 341.844 91.2311C357.862 96.9147 372.369 98.7032 383.458 99.1007C383.299 103.155 383.18 107.249 383.021 111.303C371.495 108.6 357.027 103.87 341.685 95.2851C334.332 91.1913 327.973 86.859 322.488 82.646Z" fill="#6D6C6C"/>
<path d="M385.326 93.974C383.06 99.1012 382.941 103.354 382.742 110.985C382.583 116.748 382.981 122.949 386.081 139.244C389.857 158.958 391.645 162.138 392.242 172.591C392.719 180.779 392.083 187.495 391.486 191.947C396.494 194.689 404.881 198.426 415.851 199.26C435.246 200.731 449.595 192.185 454.523 188.926C455.119 176.446 455.715 163.926 456.351 151.446C454.165 140.794 451.582 132.448 449.714 126.963C443.831 109.674 438.347 101.486 441.844 92.8214C443.792 88.0122 447.647 85.071 450.31 83.4414C448.442 82.0106 428.847 67.5034 407.464 75.0154C405.238 75.7705 391.168 80.7387 385.326 93.974Z" fill="white" stroke="#161616" stroke-width="2" stroke-miterlimit="10"/>
<path opacity="0.19" d="M407.385 74.9756C413.347 84.5146 416.685 92.9406 418.593 98.823C418.593 98.823 427.933 127.201 421.097 165.278C419.626 173.386 417.003 184.912 411.836 198.108C413.824 198.545 416.208 198.902 418.911 199.022C418.911 199.022 423.084 199.22 427.774 198.624C433.498 197.869 443.315 194.809 454.881 188.926C455.079 175.612 455.278 162.337 455.477 149.022C452.536 137.774 449.555 128.751 447.329 122.432C441.963 107.368 438.188 100.294 441.288 92.8214C443.315 87.9327 447.448 84.912 450.668 83.1632C446.455 80.381 438.665 76.0488 428.013 74.3794C419.229 73.0281 411.995 73.982 407.385 74.9756Z" fill="#6D6C6C"/>
<path opacity="0.11" d="M412.83 74.061C419.229 81.9307 426.701 93.4171 431.312 108.56C444.388 151.803 422.886 189.721 417.917 198.028C422.091 197.988 426.979 197.63 432.305 196.597C441.805 194.768 449.396 191.509 454.841 188.608C455.04 176.207 455.239 163.807 455.437 151.446C452.059 139.959 448.879 129.069 444.547 114.284C441.606 104.148 439.301 95.8416 443.633 89.2041C445.739 85.9847 448.681 84.1962 450.906 83.1628C438.227 80.1024 425.509 77.0817 412.83 74.061Z" fill="#6D6C6C"/>
<path d="M409.889 155.262C409.77 146.756 409.69 138.29 409.571 129.785C429.96 128.751 450.35 127.718 470.779 126.685C471.494 134.554 472.21 142.424 472.965 150.293C451.94 151.963 430.914 153.592 409.889 155.262Z" fill="white" stroke="#161616" stroke-width="2" stroke-miterlimit="10"/>
<path d="M403.688 152.479C403.688 149.379 403.688 146.278 403.688 143.178C429.881 141.231 456.073 139.243 482.266 137.296C482.464 141.111 482.663 144.967 482.901 148.782C456.51 149.975 430.08 151.247 403.688 152.479Z" fill="white" stroke="#161616" stroke-width="2" stroke-miterlimit="10"/>
<path d="M405.875 138.489C406.192 143.06 406.51 147.591 406.789 152.162C431.033 150.214 455.239 148.227 479.483 146.279C479.682 142.146 479.881 138.012 480.119 133.839C455.358 135.389 430.596 136.939 405.875 138.489Z" fill="white" stroke="#161616" stroke-width="2" stroke-miterlimit="10"/>
<path d="M399.952 148.744C400.668 166.868 401.383 184.992 402.138 203.116C429.165 200.095 456.192 197.114 483.219 194.093C484.054 176.287 484.889 158.481 485.723 140.675C457.107 143.378 428.529 146.041 399.952 148.744Z" fill="white" stroke="#161616" stroke-width="2" stroke-miterlimit="10"/>
<path d="M404.563 155.818C416.844 154.188 429.126 153.036 441.487 152.32C442.043 152.281 442.043 151.406 441.487 151.406C429.126 152.122 416.805 153.274 404.563 154.904C404.006 154.983 404.006 155.897 404.563 155.818Z" fill="#161616"/>
<path d="M418.275 158.242C427.695 157.05 437.114 155.818 446.574 154.625C447.13 154.546 447.13 153.672 446.574 153.711C437.154 154.904 427.734 156.136 418.275 157.328C417.719 157.447 417.719 158.322 418.275 158.242Z" fill="#161616"/>
<path d="M463.545 183.68C463.386 186.184 463.386 188.727 463.625 191.231C463.664 191.788 464.579 191.788 464.539 191.231C464.3 188.727 464.261 186.184 464.459 183.68C464.499 183.123 463.585 183.123 463.545 183.68Z" fill="#161616"/>
<path d="M463.943 183.76C468.871 183.879 473.76 183.601 478.649 182.965C478.49 182.806 478.331 182.647 478.211 182.528C478.132 184.833 478.211 187.098 478.37 189.364C478.41 189.92 479.324 189.92 479.285 189.364C479.086 187.098 479.046 184.793 479.126 182.528C479.126 182.289 478.927 182.051 478.688 182.09C473.8 182.726 468.911 182.965 463.983 182.885C463.347 182.845 463.347 183.72 463.943 183.76Z" fill="#161616"/>
<path d="M464.3 191.947C469.189 192.027 473.998 191.51 478.768 190.437C479.324 190.318 479.086 189.443 478.529 189.562C473.839 190.596 469.11 191.112 464.3 191.033C463.744 191.033 463.744 191.907 464.3 191.947Z" fill="#161616"/>
<path d="M466.169 186.542C469.189 186.741 472.17 186.582 475.191 186.105C475.747 186.025 475.509 185.151 474.952 185.23C472.051 185.707 469.11 185.826 466.169 185.628C465.612 185.588 465.612 186.502 466.169 186.542Z" fill="#161616"/>
<path d="M468.077 189.045C471.216 188.966 474.237 188.37 477.218 187.297C477.735 187.098 477.536 186.224 476.979 186.422C474.118 187.495 471.137 188.052 468.077 188.171C467.52 188.131 467.48 189.045 468.077 189.045Z" fill="#161616"/>
<path opacity="0.2" d="M412.79 201.049C413.506 184.276 414.221 167.503 414.897 150.691C438.108 148.823 461.359 146.995 484.571 145.126C484.054 161.025 483.498 176.923 482.981 192.821C459.571 195.564 436.2 198.306 412.79 201.049Z" fill="#6D6C6C"/>
<path opacity="0.2" d="M475.827 134.276C475.946 138.886 475.707 144.371 474.515 150.452C471.574 165.397 464.499 176.168 459.69 182.249C462.949 186.581 466.208 190.913 469.507 195.246C459.531 196.398 449.555 197.551 439.579 198.704C441.168 180.5 442.758 162.297 444.348 144.133C443.831 141.748 443.275 139.363 442.758 136.979C453.768 136.025 464.817 135.15 475.827 134.276Z" fill="#6D6C6C"/>
<path d="M448.164 82.3683C456.471 81.2555 466.367 100.333 470.302 114.046C474.833 129.825 472.846 143.457 471.216 150.651C468.037 164.761 461.439 174.697 457.305 180.063C457.941 182.17 459.412 187.893 456.987 194.173C453.41 203.354 443.712 207.766 442.957 206.931C442.719 206.653 443.196 205.5 446.971 201.168C446.177 202.003 440.453 207.686 434.014 206.335C432.902 206.096 431.51 205.818 430.716 204.705C428.848 202.003 431.948 195.882 438.545 189.085C431.351 190.874 429.444 190.397 429.086 189.602C428.172 187.694 435.525 182.289 438.188 180.302C442.123 177.4 445.66 175.413 448.084 174.181C454.881 160.071 454.523 149.062 453.927 143.895C453.053 136.263 450.191 127.957 449.634 126.367C448.045 121.796 447.289 120.763 444.11 112.535C438.983 99.3397 438.983 97.0742 439.181 95.3254C439.897 90.079 443.434 83.0043 448.164 82.3683Z" fill="white" stroke="#161616" stroke-width="2" stroke-miterlimit="10"/>
<path d="M430.874 203.592C435.286 201.088 439.142 197.869 442.361 193.974C442.838 193.378 442.003 192.543 441.526 193.139C438.387 196.955 434.611 200.134 430.278 202.599C429.603 202.917 430.199 203.95 430.874 203.592Z" fill="#161616"/>
<path d="M434.77 206.256C439.142 203.99 442.878 200.851 445.898 196.955C446.375 196.359 445.342 195.763 444.865 196.359C442.003 200.095 438.347 203.076 434.173 205.223C433.498 205.58 434.094 206.614 434.77 206.256Z" fill="#161616"/>
<path opacity="0.17" d="M444.824 84.2755C436.915 91.1515 469.188 121.318 463.664 155.579C459.888 179.069 444.228 194.411 444.228 194.411C439.856 198.783 431.629 204.148 432.622 206.016C433.338 207.368 438.306 206.136 440.095 205.579C443.473 204.546 445.818 202.797 447.13 201.644C445.142 203.87 442.877 206.612 443.354 207.169C444.029 207.884 449.673 204.943 453.211 200.81C459.331 193.655 458.457 183.719 457.861 179.665C459.292 177.797 461.16 175.174 463.067 171.835C464.816 168.854 469.864 159.554 472.05 146.915C475.905 124.538 467.996 106.891 464.816 99.975C461.955 93.8145 457.106 83.5998 449.753 83.1626C448.799 83.0434 446.374 82.9242 444.824 84.2755Z" fill="#6D6C6C"/>
<path opacity="0.22" d="M471.614 146.28C469.467 152.52 466.924 159.078 463.903 165.954C461.757 170.843 459.571 175.413 457.345 179.746C456.232 183.323 454.126 188.688 449.952 194.213C445.58 200.016 440.771 203.553 437.552 205.58C438.466 205.62 439.579 205.541 440.811 205.223C443.911 204.507 445.978 202.798 447.011 201.765C445.819 203.275 444.587 204.746 443.394 206.256C444.348 206.097 445.859 205.819 447.528 205.064C456.272 201.129 458.1 190.437 458.219 189.722C458.537 187.774 458.736 184.436 457.544 180.302C460.406 176.924 464.022 171.876 466.924 165.079C470.143 157.607 471.216 150.89 471.614 146.28Z" fill="#6D6C6C"/>
<path d="M376.185 56.2152C369.786 63.5284 374.197 73.743 374.793 75.1341C377.019 80.301 382.782 87.654 390.096 87.0578C395.421 86.5808 398.8 82.0896 399.634 80.8972C405.517 72.4314 403.569 56.2549 393.633 52.0816C388.148 49.7764 380.596 51.1278 376.185 56.2152Z" fill="#5222D0"/>
<path d="M392.321 62.7338C392.599 65.8737 395.898 66.5493 398.124 71.7163C399.714 75.4524 399.714 79.1089 399.436 81.7322C402.019 81.9706 406.789 82.0899 412.194 80.0231C416.447 78.3935 419.428 76.0485 421.216 74.419C420.382 72.5509 419.15 69.8085 417.679 66.5493C411.32 52.6781 410.286 51.4858 408.736 50.8896C402.536 48.5446 391.805 56.8912 392.321 62.7338Z" fill="white" stroke="#161616" stroke-width="2" stroke-miterlimit="10"/>
<path d="M369.428 21.6765C368.076 23.5843 367.242 25.9293 367.122 35.985C367.043 44.57 367.52 52.3999 368.315 59.3554C370.103 58.322 371.892 57.2886 373.681 56.2552C374.475 58.2028 375.827 60.8657 378.132 63.4492C382.703 68.5764 388.267 70.3252 390.731 70.9611C393.315 70.3252 399.754 68.3379 404.642 62.2568C407.862 58.2028 408.895 54.1885 409.134 53.2743C410.604 47.2727 409.173 42.3045 408.418 40.2377C409.372 39.8005 410.843 38.9659 411.956 37.4556C414.301 34.2759 414.937 28.5923 412.035 26.6845C409.889 25.2537 406.073 26.0883 403.212 29.0295C402.576 27.5589 401.582 25.5319 399.992 23.4254C399.595 22.9087 396.614 19.0136 392.957 16.9866C385.922 12.9325 374.277 14.8403 369.428 21.6765Z" fill="white" stroke="#161616" stroke-width="2" stroke-miterlimit="10"/>
<path d="M366.526 34.1564C364.937 33.8782 361.995 33.0435 360.604 30.619C358.22 26.5252 361.717 20.2852 362.592 18.7351C363.307 17.4235 365.215 14.2836 373.323 8.59995C379.483 4.26768 382.584 2.12142 385.922 1.08803C397.766 -2.44933 408.617 3.6715 410.644 4.82412C414.897 7.2486 417.6 9.87181 419.746 11.9386C423.045 15.1182 426.741 18.7748 430.875 22.9879C441.487 36.7398 445.223 49.2995 446.733 56.8114C448.442 65.3169 450.191 73.9815 445.104 79.0689C440.016 84.1564 430.716 83.123 425.032 80.6985C417.123 77.3201 413.744 70.1659 411.121 64.6413C406.669 55.1818 406.391 46.1198 406.828 40.2375C410.803 39.0848 412.83 35.3487 411.916 32.5268C411.2 30.3011 408.538 28.0753 405.795 28.8702C403.689 29.4664 402.178 31.6524 402.297 34.1961C400.39 34.1564 395.302 33.7192 390.453 30.0626C386.916 27.3996 385.127 24.22 384.293 22.4712C382.107 22.7494 377.735 23.5443 373.323 26.7239C369.627 29.2677 367.56 32.3281 366.526 34.1564Z" fill="#5222D0"/>
<path opacity="0.24" d="M392.838 41.7478C397.607 47.5109 399.118 53.592 399.118 53.592C400.668 60.4283 398.442 66.2311 397.448 68.5761C399.952 66.6683 402.496 64.7605 405 62.8527C406.749 68.6556 408.458 74.4187 410.207 80.2216C411.518 80.1023 414.221 79.6254 416.924 77.7176C418.991 76.247 420.223 74.538 420.898 73.4648C417.679 70.4839 411.518 63.8861 408.696 53.5125C407.345 48.5046 407.146 44.0531 407.305 40.7144C410.922 39.2439 412.79 35.7065 412.035 32.7653C411.479 30.6191 409.293 28.0356 406.471 28.433C404.126 28.7907 402.178 31.096 402.218 33.9179C400.429 33.9179 396.216 33.7192 391.805 31.0563C387.234 28.3138 385.048 24.4982 384.213 22.8687C384.412 30.4998 386.757 34.9116 388.863 37.5348C390.254 39.3233 390.89 39.4028 392.838 41.7478Z" fill="#6D6C6C"/>
<path d="M374.356 40.0787C373.919 41.6686 373.959 43.2981 374.555 44.8482C374.754 45.4046 375.509 45.4444 375.708 44.8482C376.185 43.4174 376.185 41.907 375.747 40.4762C375.509 39.7608 374.356 40.039 374.595 40.7941C374.992 42.066 374.953 43.2981 374.555 44.57C374.953 44.57 375.31 44.57 375.708 44.57C375.191 43.2186 375.112 41.8275 375.509 40.4364C375.708 39.6415 374.595 39.3236 374.356 40.0787Z" fill="#161616"/>
<path d="M372.925 37.6141C373.959 36.9782 375.231 37.0975 376.105 37.9321C376.661 38.4488 377.496 37.6141 376.94 37.0975C375.707 35.9051 373.8 35.6666 372.329 36.5808C371.693 36.9782 372.289 38.0116 372.925 37.6141Z" fill="#161616"/>
<path d="M377.218 47.7091C377.973 47.7091 377.973 46.5171 377.218 46.5171C376.423 46.5171 376.423 47.7091 377.218 47.7091Z" fill="#161616"/>
<path d="M379.841 44.2513C379.841 44.291 379.841 44.3308 379.841 44.3705C379.841 44.6884 380.119 44.9665 380.437 44.9665C380.755 44.9665 381.033 44.6884 381.033 44.3705C381.033 44.3308 381.033 44.291 381.033 44.2513C381.033 43.9334 380.755 43.6553 380.437 43.6553C380.119 43.6553 379.841 43.8937 379.841 44.2513Z" fill="#161616"/>
<path d="M379.96 47.2326C380.715 47.2326 380.715 46.0405 379.96 46.0405C379.205 46.0405 379.205 47.2326 379.96 47.2326Z" fill="#161616"/>
<path d="M363.585 41.9074C363.108 43.4972 363.148 45.1268 363.704 46.6769C363.903 47.2333 364.658 47.2333 364.857 46.6769C365.334 45.246 365.374 43.7357 364.976 42.3048C364.778 41.5497 363.625 41.8676 363.824 42.6228C364.181 43.8947 364.142 45.1268 363.704 46.3589C364.102 46.3589 364.46 46.3589 364.857 46.3589C364.38 45.0076 364.301 43.6165 364.738 42.2253C364.937 41.4702 363.784 41.1522 363.585 41.9074Z" fill="#161616"/>
<path d="M362.91 38.9258C363.744 38.4886 364.897 38.6874 365.453 39.4823C365.891 40.0785 366.924 39.4823 366.487 38.8861C365.493 37.5745 363.784 37.1373 362.313 37.8925C361.638 38.2502 362.234 39.2836 362.91 38.9258Z" fill="#161616"/>
<path d="M376.304 60.5477C379.364 59.9913 382.027 58.3617 384.014 55.9372C384.372 55.5 383.736 54.864 383.379 55.3012C381.51 57.6065 379.007 59.1168 376.065 59.6733C375.509 59.7925 375.747 60.6669 376.304 60.5477Z" fill="#161616"/>
<path d="M382.504 55.3797C383.219 55.6181 383.815 55.9757 384.332 56.4923C384.729 56.8896 385.365 56.2539 384.968 55.8565C384.332 55.2208 383.577 54.7837 382.742 54.5056C382.186 54.3466 381.948 55.2208 382.504 55.3797Z" fill="#161616"/>
<path opacity="0.45" d="M407.266 3.39307C412.313 10.3883 418.792 20.285 424.952 32.9241C431.471 46.2786 436.24 56.3342 432.544 60.3088C427.655 65.595 410.763 57.2086 408.061 55.8176C408.617 59.4344 410.008 65.1975 414.102 70.9606C416.169 73.8621 419.785 78.9892 426.463 81.374C430.477 82.8048 434.054 82.7253 435.445 82.6061C437.313 82.4869 439.459 82.3279 441.804 81.056C441.804 81.056 444.865 79.4265 446.932 76.0878C450.071 71.0004 448.402 64.1244 446.176 55.4996C443.513 45.1657 439.936 38.2897 436.439 31.4932C435.564 29.8239 434.531 27.8764 432.862 25.6109C431.192 23.3056 429.96 22.0735 424.793 17.1053C417.122 9.67287 415.93 8.59975 413.625 7.04967C411.081 5.30086 408.816 4.14823 407.266 3.39307Z" fill="#371B9B"/>
<path opacity="0.43" d="M397.687 71.0005C398.005 71.9146 398.72 74.4981 397.687 77.3598C396.137 81.6126 391.844 83.0434 391.169 83.2422C386.28 84.832 380.119 82.328 375.986 76.8829C376.542 78.3137 377.774 80.8574 380.318 83.0832C381.59 84.1961 385.048 87.177 389.936 86.8193C390.771 86.7398 396.137 86.3423 398.601 81.6921C400.39 78.3932 399.992 74.2596 397.687 71.0005Z" fill="#371B9B"/>
</svg>
