<svg width="519" height="389" viewBox="0 0 519 389" fill="none" xmlns="http://www.w3.org/2000/svg">
<path d="M302.609 42.0769C294.662 46.7774 292.392 54.8815 291.451 58.2204C291.224 59.0309 288.564 68.9828 293.17 79.3561C294.533 82.4357 295.992 85.6125 299.301 87.1361C301.215 88.0438 302.934 87.9789 309.681 87.3954C312.827 87.1361 316.233 86.8119 319.866 86.4229C322.429 83.1488 326.84 76.6007 328.138 67.3943C328.365 65.6763 331.025 45.1889 319.866 39.7429C312.568 36.1447 303.777 41.3638 302.609 42.0769Z" fill="#EC615B"/>
<path d="M155.862 90.41C159.911 90.41 163.193 86.7816 163.193 82.3058C163.193 77.83 159.911 74.2017 155.862 74.2017C151.813 74.2017 148.531 77.83 148.531 82.3058C148.531 86.7816 151.813 90.41 155.862 90.41Z" fill="#EC615B"/>
<path d="M322.104 220.272C325.114 220.272 327.554 217.92 327.554 215.02C327.554 212.12 325.114 209.769 322.104 209.769C319.095 209.769 316.655 212.12 316.655 215.02C316.655 217.92 319.095 220.272 322.104 220.272Z" fill="#EC615B"/>
<path d="M155.927 188.568C158.166 188.568 159.981 186.754 159.981 184.516C159.981 182.278 158.166 180.464 155.927 180.464C153.687 180.464 151.872 182.278 151.872 184.516C151.872 186.754 153.687 188.568 155.927 188.568Z" fill="#EC615B"/>
<path d="M148.369 87.7196C151.934 87.7196 154.824 84.6863 154.824 80.9445C154.824 77.2027 151.934 74.1694 148.369 74.1694C144.804 74.1694 141.914 77.2027 141.914 80.9445C141.914 84.6863 144.804 87.7196 148.369 87.7196Z" fill="#5222D0"/>
<path d="M320.612 211.973C322.816 211.973 324.602 210.115 324.602 207.823C324.602 205.532 322.816 203.674 320.612 203.674C318.409 203.674 316.623 205.532 316.623 207.823C316.623 210.115 318.409 211.973 320.612 211.973Z" fill="#5222D0"/>
<path d="M373.94 97.5421C376.358 97.5421 378.319 95.4521 378.319 92.8741C378.319 90.296 376.358 88.2061 373.94 88.2061C371.521 88.2061 369.561 90.296 369.561 92.8741C369.561 95.4521 371.521 97.5421 373.94 97.5421Z" fill="#5222D0"/>
<path d="M278.833 126.392C278.119 125.258 276.952 126.328 276.465 127.106C275.459 128.726 274.811 130.736 275.557 132.584C276.108 133.978 277.471 135.145 279.06 134.918C280.52 134.724 281.623 133.524 281.59 132.065C281.59 131.676 281.039 131.385 280.747 131.709C279.028 133.881 276.919 136.96 278.638 139.748C279.839 141.661 282.79 141.92 283.958 139.845C283.666 139.813 283.374 139.781 283.082 139.716C283.244 140.623 283.407 141.531 283.536 142.439C283.634 143.055 284.574 142.795 284.477 142.179C284.315 141.272 284.153 140.364 284.023 139.456C283.958 139.035 283.309 139.003 283.147 139.327C282.628 140.234 281.46 140.559 280.52 140.105C279.482 139.586 279.028 138.419 279.028 137.284C279.028 135.404 280.358 133.751 281.46 132.357C281.168 132.227 280.909 132.13 280.617 132.001C280.649 133.232 279.449 134.14 278.249 133.881C277.341 133.686 276.757 132.908 276.433 132.065C276.108 131.19 276.141 130.315 276.4 129.44C276.433 129.375 277.763 126.49 277.957 126.814C278.314 127.397 279.157 126.911 278.833 126.392Z" fill="#EC615B"/>
<path d="M146.391 129.31C147.104 127.365 149.472 128.208 150.218 129.569C150.478 130.023 150.607 130.542 150.672 131.061C150.802 132.033 150.705 132.422 149.861 133.006C148.953 133.913 148.726 133.557 149.213 131.936C149.44 131.839 149.699 131.741 149.926 131.644C150.543 131.482 151.256 131.514 151.873 131.709C153.43 132.228 154.208 133.881 153.981 135.404C153.916 135.793 154.305 136.182 154.695 135.955C156.803 134.756 159.593 136.085 160.079 138.452C160.209 139.067 161.15 138.808 161.02 138.192C160.404 135.21 156.868 133.654 154.208 135.145C154.435 135.34 154.695 135.502 154.922 135.696C155.343 132.843 153.17 130.185 150.153 130.639C149.115 130.801 147.558 131.45 147.429 132.681C147.331 133.686 148.272 134.432 149.213 134.529C152.002 134.788 151.937 130.736 151.029 129.116C149.797 126.911 146.391 126.36 145.417 129.083C145.223 129.634 146.164 129.894 146.391 129.31Z" fill="#EC615B"/>
<path d="M317.174 251.326C319.672 252.98 321.78 255.087 323.467 257.55C323.824 258.069 324.667 257.583 324.31 257.064C322.526 254.471 320.321 252.266 317.693 250.516C317.142 250.127 316.655 250.97 317.174 251.326Z" fill="#5222D0"/>
<path d="M323.499 253.109C324.018 253.725 324.505 254.374 325.024 254.99C325.413 255.476 326.094 254.795 325.705 254.309C325.186 253.693 324.699 253.045 324.18 252.429C323.791 251.942 323.11 252.656 323.499 253.109Z" fill="#5222D0"/>
<path d="M320.515 244.033C322.753 246.108 324.602 248.474 326.029 251.165C326.321 251.716 327.165 251.23 326.873 250.678C325.413 247.923 323.499 245.459 321.196 243.352C320.742 242.898 320.061 243.612 320.515 244.033Z" fill="#5222D0"/>
<path d="M96.2424 280.534C96.956 287.568 98.1886 294.505 99.9078 301.378C100.07 301.994 101.011 301.734 100.848 301.118C99.1617 294.343 97.9291 287.471 97.2155 280.534C97.1506 279.918 96.1775 279.918 96.2424 280.534Z" fill="#E8E8E8"/>
<path d="M100.102 301.702C106.492 303.355 113.142 303.355 119.532 301.702C120.148 301.54 119.889 300.6 119.273 300.762C113.045 302.383 106.59 302.383 100.362 300.762C99.7777 300.6 99.5182 301.54 100.102 301.702Z" fill="#E8E8E8"/>
<path d="M120.278 300.729C120.7 293.825 121.251 286.92 121.9 280.015C121.965 279.399 120.992 279.399 120.927 280.015C120.278 286.92 119.727 293.825 119.305 300.729C119.273 301.345 120.246 301.345 120.278 300.729Z" fill="#E8E8E8"/>
<path d="M96.7933 281.053C104.87 282.706 113.174 282.641 121.251 280.826C121.868 280.696 121.608 279.756 120.992 279.886C113.109 281.636 104.968 281.733 97.0528 280.113C96.4365 279.983 96.177 280.923 96.7933 281.053Z" fill="#E8E8E8"/>
<path d="M96.6962 283.387C96.9557 284.716 98.6425 284.651 99.6805 284.748C102.308 284.975 104.968 285.04 107.595 284.975C110.125 284.91 112.655 284.716 115.186 284.424C117.197 284.165 119.143 283.905 120.927 282.9C121.478 282.609 120.992 281.766 120.44 282.058C117.229 283.84 112.785 283.776 109.185 283.938C107.401 284.003 105.584 284.035 103.8 284.003C102.859 283.97 97.8316 284.197 97.6369 283.127C97.5072 282.511 96.5989 282.771 96.6962 283.387Z" fill="#E8E8E8"/>
<path d="M98.5454 294.635C100.102 297.39 102.081 299.822 104.449 301.929C104.903 302.35 105.617 301.669 105.13 301.248C102.795 299.206 100.881 296.839 99.3888 294.149C99.0968 293.598 98.2535 294.084 98.5454 294.635Z" fill="#E8E8E8"/>
<path d="M97.28 287.147C100.589 292.723 104.611 297.844 109.217 302.448C109.671 302.901 110.352 302.188 109.898 301.767C105.357 297.229 101.4 292.172 98.1234 286.661C97.799 286.142 96.9556 286.628 97.28 287.147Z" fill="#E8E8E8"/>
<path d="M102.697 284.813C106.136 290.939 110.125 296.742 114.634 302.156C115.024 302.642 115.705 301.961 115.315 301.475C110.872 296.126 106.914 290.388 103.541 284.326C103.249 283.775 102.405 284.262 102.697 284.813Z" fill="#E8E8E8"/>
<path d="M108.892 285.04C112.233 290.032 115.607 294.992 119.013 299.952C119.37 300.47 120.213 299.984 119.856 299.465C116.45 294.506 113.077 289.546 109.736 284.554C109.379 284.035 108.536 284.521 108.892 285.04Z" fill="#E8E8E8"/>
<path d="M114.083 284.748C115.769 287.471 117.586 290.129 119.467 292.722C119.824 293.209 120.668 292.722 120.311 292.236C118.429 289.643 116.613 286.985 114.926 284.262C114.602 283.743 113.758 284.229 114.083 284.748Z" fill="#E8E8E8"/>
<path d="M86.0245 252.007C86.4137 254.244 86.803 256.513 87.2247 258.75C87.3544 259.366 87.4517 260.014 87.9707 260.403C88.3275 260.695 89.4953 260.663 89.7224 260.987C89.7548 260.792 89.7872 260.598 89.7872 260.403C89.3007 260.89 88.8141 261.376 88.2951 261.83C88.1654 261.959 88.1329 262.154 88.1653 262.316C88.4573 263.191 88.6519 264.488 89.2358 265.233C89.5277 265.622 90.0467 265.558 90.2738 265.785C90.4684 265.979 90.4035 265.849 90.3062 266.433C90.2413 266.919 90.2413 267.438 90.3062 267.956C90.4035 268.734 90.6306 269.48 90.9225 270.193C92.6093 274.278 95.8855 277.584 99.0319 280.631C99.486 281.053 100.167 280.372 99.7131 279.951C97.702 278.006 95.6908 275.996 94.0365 273.727C92.4147 271.49 90.5009 268.475 91.5064 265.622C91.5713 265.46 91.5064 265.233 91.3767 265.136C90.7604 264.65 90.144 264.844 89.7224 264.066C88.9114 262.608 89.3655 262.121 90.4035 261.117C90.5657 260.987 90.5982 260.695 90.4684 260.533C90.2089 260.144 90.0143 260.014 89.5926 259.885C89.3331 259.787 88.9438 259.885 88.6843 259.755C88.1329 259.463 88.1329 258.75 88.0356 258.231C87.6463 256.092 87.2571 253.92 86.9003 251.781C86.8354 251.132 85.8947 251.392 86.0245 252.007Z" fill="#E8E8E8"/>
<path d="M86.7378 251.878C99.3884 256.092 108.049 267.891 108.309 281.247C108.309 281.863 109.282 281.863 109.282 281.247C109.022 267.47 100.07 255.314 86.9973 250.937C86.4134 250.743 86.1539 251.683 86.7378 251.878Z" fill="#E8E8E8"/>
<path d="M106.168 267.956C109.314 259.236 113.953 250.808 121.381 245.07C121.867 244.681 121.381 243.838 120.894 244.227C113.239 250.159 108.471 258.717 105.227 267.697C105.032 268.28 105.973 268.54 106.168 267.956Z" fill="#E8E8E8"/>
<path d="M120.538 244.876C120.765 247.858 121.024 250.84 121.252 253.855C121.316 254.471 122.29 254.471 122.225 253.855C121.998 250.873 121.738 247.89 121.511 244.876C121.479 244.26 120.505 244.26 120.538 244.876Z" fill="#E8E8E8"/>
<path d="M121.673 253.531C121.251 253.628 120.83 253.725 120.44 253.855C119.824 254.017 120.083 254.957 120.7 254.795C121.121 254.698 121.543 254.6 121.932 254.471C122.549 254.309 122.289 253.401 121.673 253.531Z" fill="#E8E8E8"/>
<path d="M119.954 254.73C120.084 255.346 120.603 255.735 121.187 255.8C121.446 255.832 121.673 255.573 121.673 255.314C121.673 255.022 121.446 254.86 121.187 254.827C121.284 254.827 121.187 254.827 121.154 254.827C121.122 254.827 121.057 254.795 121.122 254.827C121.089 254.795 121.057 254.795 121.024 254.763C120.96 254.73 121.089 254.827 120.992 254.73C120.96 254.698 120.96 254.698 120.927 254.665C120.992 254.73 120.927 254.665 120.927 254.633C120.895 254.601 120.895 254.536 120.895 254.601C120.895 254.568 120.862 254.503 120.862 254.471C120.797 254.212 120.505 254.049 120.278 254.147C120.019 254.212 119.889 254.471 119.954 254.73Z" fill="#E8E8E8"/>
<path d="M120.7 255.444C120.732 257.291 120.668 259.107 120.473 260.922C120.408 261.506 120.505 262.867 120.116 263.321C120.084 263.353 119.5 263.45 119.37 263.548C118.883 263.937 119.565 264.617 120.051 264.228C120.213 264.099 120.603 264.228 120.862 263.937C121.251 263.548 121.187 262.64 121.251 262.186C121.543 259.95 121.673 257.68 121.641 255.411C121.673 254.828 120.7 254.828 120.7 255.444Z" fill="#E8E8E8"/>
<path d="M118.981 264.39C120.019 265.622 119.727 267.665 119.629 269.156C119.5 270.874 119.208 272.462 118.364 273.953C117.164 276.158 115.477 278.005 114.601 280.404C114.374 280.988 115.315 281.247 115.542 280.664C116.71 277.519 119.402 275.185 120.213 271.879C120.797 269.512 121.348 265.72 119.662 263.71C119.272 263.256 118.591 263.937 118.981 264.39Z" fill="#E8E8E8"/>
<path d="M111.325 280.858C112.234 271.652 114.666 262.672 118.559 254.309C118.818 253.758 117.975 253.239 117.716 253.823C113.758 262.381 111.26 271.49 110.352 280.891C110.287 281.507 111.26 281.474 111.325 280.858Z" fill="#E8E8E8"/>
<path d="M92.1875 257.291C97.8641 264.423 102.016 272.624 104.449 281.377C104.611 281.993 105.552 281.734 105.39 281.118C102.892 272.171 98.6426 263.872 92.8687 256.611C92.4794 256.124 91.7983 256.805 92.1875 257.291Z" fill="#E8E8E8"/>
<path d="M92.8039 269.253C95.5287 269.091 98.0588 269.739 100.362 271.165C100.881 271.49 101.4 270.647 100.848 270.323C98.4156 268.831 95.6585 268.118 92.8039 268.28C92.1552 268.313 92.1552 269.285 92.8039 269.253Z" fill="#E8E8E8"/>
<path d="M98.7399 264.909C98.5453 263.126 98.7724 261.408 99.4535 259.723C99.6806 259.139 98.7399 258.88 98.5129 259.463C97.7992 261.214 97.5722 263.029 97.7668 264.909C97.8317 265.525 98.8048 265.525 98.7399 264.909Z" fill="#E8E8E8"/>
<path d="M109.249 259.528C110.32 262.153 111.877 264.941 112.266 267.729C112.363 268.345 113.304 268.086 113.207 267.47C112.785 264.65 111.228 261.862 110.19 259.268C109.963 258.685 109.022 258.944 109.249 259.528Z" fill="#E8E8E8"/>
<path d="M115.218 262.608C116.159 261.538 117.067 260.274 118.267 259.463C119.273 258.782 120.376 258.329 121.154 257.389C121.543 256.902 120.862 256.222 120.473 256.708C119.63 257.713 118.397 258.134 117.391 258.912C116.289 259.755 115.445 260.89 114.537 261.927C114.115 262.413 114.796 263.094 115.218 262.608Z" fill="#E8E8E8"/>
<path d="M115.542 280.534C117.099 280.112 118.689 279.95 120.311 280.047C120.927 280.08 120.927 279.107 120.311 279.075C118.591 278.978 116.937 279.14 115.283 279.594C114.699 279.756 114.926 280.696 115.542 280.534Z" fill="#E8E8E8"/>
<path d="M115.412 280.923C117.229 281.085 118.981 280.858 120.732 280.307C121.316 280.112 121.057 279.172 120.473 279.367C118.818 279.885 117.132 280.08 115.412 279.95C114.796 279.918 114.796 280.89 115.412 280.923Z" fill="#E8E8E8"/>
<path d="M97.2152 280.761C97.6368 280.761 98.0261 280.761 98.4478 280.761C99.0641 280.761 99.0641 279.788 98.4478 279.788C98.0261 279.788 97.6368 279.788 97.2152 279.788C96.5989 279.788 96.5989 280.761 97.2152 280.761Z" fill="#E8E8E8"/>
<path d="M120.992 288.606C131.275 288.606 141.59 288.606 151.873 288.606C152.489 288.606 152.489 287.633 151.873 287.633C141.59 287.633 131.275 287.633 120.992 287.633C120.376 287.633 120.376 288.606 120.992 288.606Z" fill="#E8E8E8"/>
<path d="M295.052 282.187C301.182 282.187 307.281 282.187 313.411 282.187C314.028 282.187 314.028 281.215 313.411 281.215C307.281 281.215 301.182 281.215 295.052 281.215C294.435 281.215 294.435 282.187 295.052 282.187Z" fill="#E8E8E8"/>
<path d="M350.714 282.771C377.151 282.771 403.587 282.771 430.024 282.771C437.549 282.771 445.075 282.771 452.6 282.771C453.217 282.771 453.217 281.798 452.6 281.798C426.164 281.798 399.727 281.798 373.291 281.798C365.765 281.798 358.24 281.798 350.714 281.798C350.098 281.798 350.098 282.771 350.714 282.771Z" fill="#E8E8E8"/>
<path d="M311.562 176.347C309.097 181.436 306.437 186.428 303.615 191.323C303.485 191.582 303.583 192.004 303.907 192.036C317.823 194.143 330.279 201.048 342.281 208.018C342.832 208.342 343.319 207.499 342.767 207.175C330.668 200.173 318.147 193.236 304.134 191.096C304.231 191.323 304.329 191.582 304.426 191.809C307.281 186.914 309.908 181.922 312.373 176.833C312.665 176.282 311.854 175.763 311.562 176.347Z" fill="#E8E8E8"/>
<path d="M313.703 194.014C314.676 191.226 315.649 188.406 316.622 185.618C317.044 184.451 317.336 183.154 317.887 182.02C318.017 181.339 318.439 180.82 319.088 180.431C319.477 180.528 319.866 180.626 320.255 180.723C320.839 180.885 321.423 181.015 321.974 181.177C323.304 181.501 325.445 181.501 325.218 183.284C325.056 184.548 324.31 185.91 323.888 187.141C322.915 189.897 321.974 192.652 321.001 195.408C320.807 195.991 321.747 196.251 321.942 195.667C323.207 192.036 324.472 188.373 325.737 184.743C326.029 183.9 326.84 182.473 326.191 181.566C325.478 180.593 323.337 180.528 322.234 180.237C321.164 179.977 319.282 179.005 318.179 179.524C317.239 179.945 317.044 181.566 316.752 182.376C315.422 186.169 314.092 189.994 312.762 193.787C312.568 194.338 313.508 194.597 313.703 194.014Z" fill="#E8E8E8"/>
<path d="M326.224 197.483C328.3 193.106 330.408 188.698 332.484 184.321C333.522 182.117 334.56 179.945 335.631 177.741C336.117 176.736 336.507 175.537 337.123 174.596C337.642 173.786 337.772 173.592 338.68 173.948C339.166 174.143 339.75 174.629 340.172 174.921C340.723 175.31 341.599 175.731 341.988 176.25C342.475 176.866 342.28 177.514 341.988 178.292C341.599 179.329 341.015 180.334 340.529 181.339C339.458 183.543 338.388 185.748 337.253 187.952C335.112 192.134 332.873 196.283 330.57 200.4C330.246 200.951 331.089 201.437 331.414 200.886C334.236 195.894 336.928 190.837 339.458 185.715C340.723 183.187 342.118 180.594 343.189 177.968C343.935 176.055 342.313 175.277 340.886 174.272C339.75 173.494 337.966 171.711 336.734 173.17C335.955 174.078 335.533 175.601 335.014 176.704C334.366 178.033 333.749 179.362 333.101 180.723C330.506 186.169 327.911 191.615 325.348 197.061C325.121 197.547 325.964 198.066 326.224 197.483Z" fill="#E8E8E8"/>
<path d="M336.993 204.225C339.783 199.849 342.929 195.699 346.4 191.874C346.205 191.907 346.011 191.939 345.816 191.939C347.049 192.782 348.249 193.592 349.481 194.435C349.417 194.208 349.352 193.981 349.319 193.754C346.562 198.066 343.805 202.345 341.048 206.656C340.723 207.175 341.534 207.661 341.891 207.143C344.648 202.831 347.405 198.552 350.163 194.241C350.325 194.014 350.195 193.722 350 193.56C348.768 192.717 347.568 191.907 346.335 191.064C346.173 190.934 345.881 190.999 345.751 191.129C342.215 195.051 339.004 199.233 336.182 203.674C335.825 204.29 336.669 204.776 336.993 204.225Z" fill="#E8E8E8"/>
<path d="M375.691 173.397C372.447 172.165 370.404 168.923 370.988 165.455C371.571 161.921 375.042 158.777 378.61 160.884C381.076 162.343 382.341 165.649 381.4 168.34C380.427 171.225 377.248 172.943 374.296 172.489C373.68 172.392 373.42 173.332 374.037 173.429C377.507 173.948 381.173 172.035 382.341 168.599C383.508 165.163 381.627 161.014 378.254 159.62C374.296 157.999 370.696 161.403 370.014 165.195C369.301 169.215 371.669 172.911 375.399 174.337C376.015 174.564 376.275 173.624 375.691 173.397Z" fill="#E8E8E8"/>
<path d="M382.341 172.781C375.886 172.587 378.319 162.246 384.027 162.635C389.736 163.056 387.401 174.694 381.141 172.554C380.557 172.36 380.297 173.3 380.881 173.494C388.115 175.958 391.358 162.797 384.449 161.695C381.076 161.143 378.027 164.32 377.508 167.465C376.989 170.577 379.097 173.624 382.341 173.721C382.957 173.786 382.957 172.813 382.341 172.781Z" fill="#E8E8E8"/>
<path d="M377.508 143.444C376.956 142.86 376.697 141.92 377.118 141.207C377.54 140.526 378.578 140.202 379.227 140.721C379.811 141.175 379.94 142.147 379.389 142.633C378.74 143.217 377.702 142.925 377.086 142.439C376.599 142.05 375.918 142.731 376.405 143.12C377.41 143.898 378.967 144.287 380.038 143.347C381.011 142.471 380.913 140.851 379.94 140.008C378.935 139.132 377.345 139.392 376.502 140.364C375.561 141.466 375.821 143.12 376.794 144.125C377.248 144.578 377.929 143.898 377.508 143.444Z" fill="#E8E8E8"/>
<path d="M283.374 167.853C282.466 162.343 285.677 155.697 291.905 155.762C295.084 155.794 298.166 157.091 301.377 156.637C303.648 156.313 305.594 155.016 306.956 153.234C308.319 151.451 309.097 149.214 309.227 146.977C309.389 143.671 308.124 140.299 309.032 137.025C309.486 135.372 310.459 133.848 312.114 133.232C313.703 132.681 315.422 133.006 317.077 132.941C319.477 132.843 321.358 131.806 322.559 129.699C324.245 126.749 323.856 123.216 325.024 120.104C326.419 116.343 330.344 113.134 334.496 114.982C335.047 115.241 335.566 114.398 334.982 114.139C329.338 111.611 324.635 116.7 323.532 121.822C322.818 125.161 322.948 130.347 318.958 131.676C316.168 132.617 313.022 131.158 310.459 133.07C308.351 134.626 307.735 137.479 307.767 139.975C307.864 143.638 309 147.204 307.378 150.705C305.886 154.012 302.934 155.989 299.268 155.762C296.025 155.568 292.813 154.238 289.537 155.081C283.99 156.475 281.623 163.023 282.498 168.145C282.563 168.696 283.504 168.437 283.374 167.853Z" fill="#E8E8E8"/>
<path d="M324.375 144.74C323.175 142.017 324.829 139.424 327.456 138.549C329.37 137.901 331.479 137.868 333.133 136.571C334.431 135.567 334.852 134.302 334.69 132.681C334.528 131.158 334.528 129.958 335.728 128.921C336.734 128.046 338.064 127.722 339.361 127.657C342.929 127.527 347.827 129.343 350.422 125.874C351.622 124.253 351.266 122.243 351.817 120.428C352.563 117.899 354.996 116.343 357.591 116.473C358.207 116.506 358.207 115.533 357.591 115.501C355.612 115.403 353.698 116.149 352.336 117.575C350.649 119.358 350.876 121.368 350.357 123.605C348.963 129.732 340.431 125.42 336.409 127.333C334.917 128.046 333.717 129.31 333.587 130.996C333.425 132.973 334.333 134.594 332.322 135.956C331.252 136.669 330.019 136.896 328.786 137.187C326.743 137.674 324.732 138.29 323.694 140.267C322.85 141.823 322.85 143.606 323.564 145.194C323.791 145.81 324.602 145.292 324.375 144.74Z" fill="#E8E8E8"/>
<path d="M382.178 101.561C382.049 101.27 381.919 100.945 381.822 100.621C382.243 100.135 382.633 99.6487 383.054 99.1625C383.184 99.1301 383.768 99.5191 383.962 99.5191C384.449 99.5839 384.871 99.4542 385.26 99.1625C386.46 98.2224 386.038 96.7312 386.395 95.467C386.979 93.2951 389.542 94.7862 390.709 93.1654C391.877 91.577 391.455 88.2056 394.569 89.1133C395.186 89.2754 395.445 88.3353 394.829 88.1732C393.045 87.6546 391.423 88.4974 390.774 90.2155C390.58 90.7017 390.515 91.2528 390.32 91.7391C389.899 92.8736 389.444 93.0357 388.212 93.1006C387.304 93.1654 386.59 93.1006 385.974 93.8786C385.455 94.5593 385.455 95.4346 385.357 96.245C385.26 97.4444 385.357 98.4493 383.573 98.3196C383.216 98.2872 382.924 97.9631 382.535 97.9631C380.394 97.9306 380.751 100.556 381.27 101.821C381.465 102.404 382.438 102.145 382.178 101.561Z" fill="#E8E8E8"/>
<path d="M388.277 104.252C387.758 103.571 386.882 101.594 388.406 101.075C388.958 100.881 389.671 101.108 390.255 101.108C390.774 101.108 391.228 101.108 391.65 100.751C392.948 99.7138 392.007 97.8661 392.688 96.5694C393.791 94.4623 395.997 96.1156 397.554 95.0134C398.657 94.2354 398.948 92.7442 399.143 91.5124C399.24 90.8965 398.3 90.6371 398.202 91.2531C397.975 92.7118 397.716 94.3326 395.899 94.4947C394.959 94.592 394.245 94.2678 393.369 94.6892C391.942 95.37 391.488 96.6342 391.455 98.093C391.423 99.3248 391.715 99.9407 389.639 100.038C389.379 100.038 389.12 99.9731 388.86 99.9731C388.114 100.038 387.466 100.427 387.044 101.043C386.136 102.34 386.655 103.831 387.563 104.965C387.985 105.452 388.666 104.738 388.277 104.252Z" fill="#E8E8E8"/>
<path d="M112.493 121.822C115.186 118.58 119.013 115.922 123.425 116.376C128.226 116.862 130.594 120.687 131.048 125.161C131.826 132.584 130.01 141.466 135.038 147.787C137.016 150.284 139.968 151.613 143.147 150.835C146.975 149.927 149.959 146.912 153.365 145.129C157.387 143.022 162.934 141.888 166.567 145.421C169.227 148.014 169.811 151.969 170.686 155.405C171.497 158.517 172.892 161.954 175.682 163.801C177.368 164.903 179.217 165.001 181.164 164.871C183.337 164.709 187.781 164.579 187.327 167.983C187.262 168.599 188.235 168.599 188.3 167.983C188.462 166.654 187.846 165.584 186.775 164.806C185.089 163.574 183.142 163.769 181.164 163.899C178.925 164.061 177.012 163.866 175.292 162.278C173.735 160.851 172.795 158.842 172.114 156.864C170.978 153.46 170.654 149.732 168.708 146.62C166.794 143.541 163.485 142.05 159.917 142.179C155.408 142.341 151.613 144.935 148.013 147.334C146.293 148.468 144.444 149.668 142.336 150.024C139.806 150.446 137.568 149.343 135.946 147.463C132.897 143.897 132.41 138.808 132.248 134.335C132.086 130.153 132.637 125.614 131.242 121.562C129.977 117.867 126.766 115.565 122.906 115.371C118.43 115.144 114.505 117.834 111.747 121.141C111.391 121.627 112.072 122.308 112.493 121.822Z" fill="#E8E8E8"/>
<path d="M96.1125 171.841C101.173 180.269 105.682 188.989 109.671 197.969C109.931 198.552 110.774 198.034 110.515 197.483C106.525 188.503 101.984 179.783 96.9559 171.355C96.6315 170.804 95.7881 171.29 96.1125 171.841Z" fill="#E8E8E8"/>
<path d="M96.7286 171.452C104.611 166.557 112.72 161.986 121.057 157.837C121.608 157.545 121.122 156.702 120.57 156.994C112.266 161.143 104.157 165.714 96.2421 170.609C95.6906 170.966 96.1772 171.808 96.7286 171.452Z" fill="#E8E8E8"/>
<path d="M120.473 157.415C124.592 166.07 128.939 174.596 133.545 182.992C133.837 183.543 134.68 183.057 134.389 182.506C129.782 174.11 125.403 165.584 121.316 156.929C121.024 156.345 120.213 156.832 120.473 157.415Z" fill="#E8E8E8"/>
<path d="M110.774 198.163C118.526 193.495 126.182 188.698 133.772 183.77C134.291 183.446 133.804 182.603 133.285 182.927C125.695 187.855 118.04 192.652 110.287 197.32C109.768 197.645 110.255 198.487 110.774 198.163Z" fill="#E8E8E8"/>
<path d="M110.157 168.599C109.963 174.823 110.32 181.015 111.228 187.174C111.325 187.79 112.266 187.53 112.169 186.915C111.26 180.853 110.936 174.726 111.131 168.599C111.163 167.983 110.19 167.983 110.157 168.599Z" fill="#E8E8E8"/>
<path d="M110.19 168.275C114.699 171.808 119.208 175.277 123.782 178.713C124.268 179.102 124.755 178.259 124.268 177.87C119.759 174.499 115.283 171.063 110.872 167.594C110.385 167.205 109.704 167.886 110.19 168.275Z" fill="#E8E8E8"/>
<path d="M112.234 187.368C115.964 184.029 120.83 182.247 124.366 178.648C124.82 178.194 124.106 177.514 123.684 177.968C120.149 181.533 115.316 183.349 111.553 186.688C111.066 187.077 111.78 187.757 112.234 187.368Z" fill="#E8E8E8"/>
<path d="M97.4098 176.93C98.4478 176.411 99.4858 175.925 100.524 175.406C101.075 175.147 100.589 174.304 100.037 174.564C98.9992 175.082 97.9612 175.569 96.9232 176.087C96.3718 176.379 96.8584 177.189 97.4098 176.93Z" fill="#E8E8E8"/>
<path d="M100.751 182.441C101.627 181.857 102.568 181.371 103.541 180.95C104.125 180.723 103.865 179.783 103.281 180.01C102.211 180.463 101.205 180.982 100.232 181.598C99.7454 181.955 100.232 182.797 100.751 182.441Z" fill="#E8E8E8"/>
<path d="M104.416 188.795C105.324 188.341 106.233 187.887 107.141 187.466C107.692 187.174 107.206 186.363 106.654 186.623C105.746 187.077 104.838 187.53 103.93 187.952C103.378 188.211 103.865 189.054 104.416 188.795Z" fill="#E8E8E8"/>
<path d="M106.298 195.148C107.303 194.273 108.341 193.528 109.509 192.879C110.061 192.555 109.574 191.745 109.023 192.036C107.822 192.717 106.687 193.528 105.617 194.468C105.13 194.889 105.811 195.57 106.298 195.148Z" fill="#E8E8E8"/>
<path d="M122.322 163.801C123.068 163.283 123.846 162.926 124.722 162.699C125.338 162.537 125.079 161.63 124.463 161.759C123.522 161.986 122.614 162.375 121.803 162.959C121.316 163.315 121.803 164.158 122.322 163.801Z" fill="#E8E8E8"/>
<path d="M125.209 169.345C126.247 168.697 127.285 168.048 128.29 167.367C128.809 167.043 128.323 166.2 127.804 166.525C126.766 167.173 125.728 167.821 124.722 168.502C124.171 168.859 124.657 169.701 125.209 169.345Z" fill="#E8E8E8"/>
<path d="M128.517 175.99C129.62 175.504 130.756 175.018 131.858 174.531C132.442 174.272 131.923 173.429 131.372 173.689C130.269 174.175 129.134 174.661 128.031 175.147C127.447 175.407 127.966 176.25 128.517 175.99Z" fill="#E8E8E8"/>
<path d="M130.885 180.334C131.761 179.491 132.734 178.778 133.805 178.162C134.356 177.87 133.869 177.028 133.318 177.319C132.183 177.968 131.145 178.713 130.204 179.621C129.75 180.075 130.431 180.755 130.885 180.334Z" fill="#E8E8E8"/>
<path d="M113.531 193.884C114.342 195.084 115.023 196.348 115.542 197.677C115.769 198.261 116.71 198.001 116.483 197.418C115.931 195.991 115.25 194.63 114.374 193.366C114.018 192.879 113.174 193.366 113.531 193.884Z" fill="#E8E8E8"/>
<path d="M118.494 191.194C119.11 192.296 119.694 193.365 120.311 194.468C120.603 195.019 121.446 194.532 121.154 193.981C120.538 192.879 119.954 191.809 119.337 190.707C119.046 190.156 118.202 190.642 118.494 191.194Z" fill="#E8E8E8"/>
<path d="M124.236 187.077C124.885 188.244 125.533 189.411 126.182 190.578C126.474 191.129 127.317 190.643 127.025 190.092C126.377 188.925 125.728 187.758 125.079 186.591C124.787 186.039 123.944 186.526 124.236 187.077Z" fill="#E8E8E8"/>
<path d="M129.393 183.997C129.912 185.229 130.431 186.461 130.983 187.66C131.242 188.244 132.053 187.725 131.826 187.174C131.307 185.942 130.788 184.71 130.237 183.511C129.977 182.96 129.134 183.446 129.393 183.997Z" fill="#E8E8E8"/>
<path d="M99.9724 166.459C100.589 167.464 101.173 168.469 101.789 169.442C102.113 169.993 102.957 169.474 102.632 168.956C102.016 167.951 101.432 166.946 100.816 165.973C100.491 165.455 99.648 165.941 99.9724 166.459Z" fill="#E8E8E8"/>
<path d="M105.551 163.218C106.135 164.515 106.719 165.811 107.303 167.108C107.563 167.691 108.406 167.173 108.146 166.622C107.563 165.325 106.979 164.028 106.395 162.732C106.103 162.148 105.292 162.634 105.551 163.218Z" fill="#E8E8E8"/>
<path d="M110.579 160.106C111.455 161.273 112.136 162.537 112.591 163.899C112.785 164.482 113.726 164.223 113.531 163.639C113.045 162.18 112.363 160.819 111.423 159.62C111.066 159.133 110.223 159.587 110.579 160.106Z" fill="#E8E8E8"/>
<path d="M115.996 157.61C116.678 158.647 117.326 159.652 118.007 160.689C118.332 161.208 119.175 160.722 118.851 160.203C118.17 159.166 117.521 158.161 116.84 157.124C116.483 156.605 115.64 157.091 115.996 157.61Z" fill="#E8E8E8"/>
<path d="M166.437 93.3274C163.29 92.3549 163.128 89.016 164.62 86.52C166.08 84.0887 168.902 83.4404 171.108 85.4502C172.924 87.1359 173.087 90.021 171.4 91.8687C169.713 93.7489 166.956 93.7165 165.01 92.2901C164.523 91.9011 164.037 92.7439 164.523 93.1329C166.988 94.9483 170.589 94.6565 172.438 92.0956C174.352 89.5023 173.67 85.8716 170.978 84.1211C164.491 79.9394 158.911 91.9984 166.177 94.2675C166.794 94.462 167.053 93.5219 166.437 93.3274Z" fill="#E8E8E8"/>
<path d="M171.659 94.1703C169.226 94.9159 168.642 91.9984 169.713 90.4424C170.589 89.1781 172.308 88.4325 173.865 88.854C175.357 89.243 176.427 90.7665 176.038 92.2901C175.552 94.2027 173.541 94.8834 171.756 94.5917C171.14 94.4944 170.881 95.4345 171.497 95.5318C173.897 95.9532 176.492 94.9159 177.011 92.3225C177.465 90.0858 175.714 88.0435 173.541 87.7842C171.14 87.4925 168.513 89.243 168.188 91.7066C167.896 93.8461 169.843 95.7587 171.984 95.0779C172.535 94.9159 172.275 93.9758 171.659 94.1703Z" fill="#E8E8E8"/>
<path d="M150.964 115.274C150.186 116.862 151.289 118.451 152.911 118.872C154.143 119.196 155.441 118.904 156.706 118.969C158.068 119.034 159.43 119.358 160.663 119.909C163.388 121.141 165.139 123.378 165.237 126.393C165.334 128.921 164.588 131.547 165.691 133.946C168.026 139.003 174.449 135.145 177.758 138.419C180.515 141.175 179.38 146.199 183.077 148.306C183.629 148.63 184.115 147.788 183.564 147.463C180.255 145.583 181.034 140.688 178.698 137.965C177.466 136.539 175.682 136.15 173.865 136.02C171.659 135.891 168.805 136.344 167.183 134.464C165.302 132.26 166.307 128.953 166.21 126.36C166.145 124.318 165.464 122.47 164.037 121.011C162.772 119.747 161.117 118.872 159.398 118.418C158.522 118.191 157.614 118.029 156.706 117.997C155.538 117.932 150.478 118.515 151.84 115.76C152.1 115.209 151.256 114.723 150.964 115.274Z" fill="#E8E8E8"/>
<path d="M75.1252 290.259C80.9964 290.259 86.8352 290.259 92.7064 290.259C93.3227 290.259 93.3227 289.287 92.7064 289.287C86.8352 289.287 80.9964 289.287 75.1252 289.287C74.4765 289.287 74.4765 290.259 75.1252 290.259Z" fill="#E8E8E8"/>
<path d="M84.5969 312.238C95.8852 312.238 107.141 312.238 118.429 312.238C119.046 312.238 119.046 311.265 118.429 311.265C107.141 311.265 95.8852 311.265 84.5969 311.265C83.9482 311.265 83.9482 312.238 84.5969 312.238Z" fill="#E8E8E8"/>
<path d="M117.067 306.143C127.544 306.143 138.054 306.143 148.532 306.143C149.148 306.143 149.148 305.17 148.532 305.17C138.054 305.17 127.544 305.17 117.067 305.17C116.418 305.17 116.418 306.143 117.067 306.143Z" fill="#E8E8E8"/>
<path d="M291.548 304.457C296.835 303.161 302.155 303.031 307.54 303.874C309.81 304.23 312.114 304.587 314.417 304.392C316.655 304.198 318.828 303.517 321.001 302.934C323.467 302.253 325.932 301.734 328.527 301.929C331.187 302.123 333.749 302.869 336.344 303.452C338.583 303.971 340.853 304.328 343.156 304.295C345.589 304.23 347.989 303.809 350.357 303.452C356.845 302.415 362.943 303.063 369.366 304.133C369.982 304.23 370.242 303.29 369.625 303.193C364.435 302.35 359.213 301.475 353.925 301.993C348.411 302.545 343.286 303.906 337.707 302.772C333.036 301.831 328.592 300.373 323.791 301.28C321.228 301.767 318.796 302.674 316.233 303.161C313.379 303.712 310.621 303.387 307.767 302.934C302.22 302.091 296.738 302.156 291.256 303.517C290.705 303.679 290.964 304.619 291.548 304.457Z" fill="#E8E8E8"/>
<path d="M341.372 294.603C351.558 294.052 361.743 293.5 371.928 292.982C376.956 292.722 381.822 292.82 386.817 293.5C389.055 293.792 391.196 293.857 393.434 293.598C395.932 293.306 398.527 292.917 400.863 294.116C401.414 294.408 401.901 293.565 401.349 293.274C397.392 291.264 392.818 293.144 388.569 292.755C386.039 292.528 383.573 292.042 381.043 291.912C378.416 291.782 375.788 291.847 373.161 291.977C362.554 292.463 351.947 293.111 341.34 293.663C340.756 293.663 340.756 294.635 341.372 294.603Z" fill="#E8E8E8"/>
<path d="M141.914 322.449C146.715 322.903 151.548 323.356 156.349 322.805C158.587 322.546 160.728 322.06 162.901 321.411C165.723 320.569 168.253 320.342 171.173 320.86C173.411 321.249 175.617 321.8 177.855 321.995C180.223 322.189 182.591 322.06 184.959 321.833C189.921 321.347 194.884 320.504 199.815 321.606C200.431 321.736 200.691 320.796 200.074 320.666C195.339 319.629 190.603 320.309 185.834 320.796C183.466 321.022 181.098 321.249 178.731 321.12C176.038 320.99 173.443 320.277 170.816 319.855C168.61 319.499 166.502 319.499 164.328 320.018C161.993 320.601 159.787 321.379 157.387 321.736C152.262 322.481 147.039 321.963 141.914 321.509C141.265 321.411 141.298 322.384 141.914 322.449Z" fill="#E8E8E8"/>
<path d="M193.23 60.8785C191.965 60.0033 190.246 58.6094 190.765 56.8589C191.316 55.0435 192.679 55.9188 193.944 55.4974C195.631 54.9463 195.533 52.904 195.047 51.575C194.56 50.2783 193.522 47.1339 196.214 48.2036C196.831 48.463 197.285 48.8844 197.998 48.6575C198.647 48.463 198.972 47.8795 199.134 47.2635C199.264 46.7125 199.166 46.129 199.134 45.5455C199.069 45.1565 199.036 44.735 199.036 44.346C198.907 43.406 199.491 43.017 200.723 43.179C200.756 43.795 201.729 43.795 201.696 43.179C201.631 42.2714 200.95 41.623 199.977 41.6555C198.842 41.6879 198.226 42.79 198.096 43.8274C197.998 44.5405 198.582 46.1938 198.258 46.7773C197.869 47.0366 197.479 47.3284 197.058 47.5877C196.896 47.4905 196.733 47.3932 196.571 47.296C196.279 47.1987 196.052 47.0042 195.76 46.9394C194.755 46.7125 193.944 47.3284 193.587 48.236C192.971 49.792 194.074 51.0887 194.398 52.5475C194.82 54.5573 193.295 54.3304 191.965 54.5573C191.381 54.6545 190.895 54.9463 190.505 55.3677C188.462 57.7341 190.83 60.3599 192.776 61.7214C193.263 62.078 193.749 61.2351 193.23 60.8785Z" fill="#E8E8E8"/>
<path d="M199.62 59.9711C198.55 58.7392 197.739 57.0536 199.815 56.4052C200.334 56.2432 200.918 56.308 201.405 55.9838C202.475 55.2382 202.021 54.2333 201.826 53.196C201.729 52.6125 201.502 51.8345 201.859 51.251C202.118 50.8296 203.059 50.6675 203.545 50.5702C204.227 50.4081 204.94 50.3109 205.524 49.9219C206.4 49.306 206.724 48.2038 206.14 47.2637C205.816 46.7451 204.973 47.2313 205.297 47.75C206.27 49.306 201.729 49.7274 200.95 50.862C200.042 52.1911 201.956 54.5251 200.367 55.3679C199.75 55.6921 198.972 55.4651 198.388 55.8866C197.966 56.1783 197.674 56.6322 197.544 57.1184C197.188 58.5123 198.128 59.7117 198.972 60.6842C199.361 61.1381 200.042 60.4573 199.62 59.9711Z" fill="#E8E8E8"/>
<path d="M161.311 52.288C160.468 51.7045 160.371 50.6672 160.63 49.7595C160.792 49.1436 161.571 47.458 162.317 47.3931C163.55 47.2635 164.166 48.8195 164.49 49.7271C164.782 50.6024 164.88 51.4776 164.912 52.3853C164.912 53.0012 165.885 53.0012 165.885 52.3853C165.853 50.57 164.653 44.9943 161.668 46.6151C160.533 47.231 159.69 49.014 159.56 50.2458C159.43 51.4128 159.884 52.4501 160.825 53.1309C161.311 53.4875 161.798 52.6446 161.311 52.288Z" fill="#E8E8E8"/>
<path d="M160.922 52.8067C159.755 53.0984 158.587 53.3902 157.387 53.6819C156.706 53.844 155.538 53.9089 154.986 54.4275C154.046 55.3028 154.305 57.9934 154.305 59.1279C154.305 59.4521 154.63 59.679 154.922 59.5818C155.084 59.5494 155.246 59.4845 155.441 59.4521C156.284 58.9983 156.706 59.29 156.738 60.2625C157.387 60.9109 157.387 61.2999 156.738 61.3647C156.349 61.5268 155.96 61.5916 155.538 61.5916C155.278 61.624 155.051 61.7861 155.051 62.0779C155.116 64.1525 155.278 66.1948 155.505 68.2694C155.57 68.8854 156.543 68.8854 156.479 68.2694C156.252 66.1948 156.089 64.1525 156.024 62.0779C155.862 62.2399 155.7 62.402 155.538 62.5641C156.9 62.402 159.074 61.8509 158.782 60.0032C158.457 58.0258 156.057 58.2527 154.695 58.6417C154.889 58.8038 155.116 58.9659 155.311 59.0955C155.311 58.3499 155.311 57.6368 155.376 56.8912C155.473 55.7242 155.408 55.3028 156.479 54.8814C157.938 54.2979 159.657 54.1034 161.182 53.7144C161.798 53.6171 161.539 52.677 160.922 52.8067Z" fill="#E8E8E8"/>
<path d="M165.594 53.0983C166.956 53.0335 168.351 53.0335 169.713 53.1956C171.011 53.3576 170.946 53.5521 171.14 54.6867C171.27 55.3999 171.303 56.1455 171.367 56.8586C171.627 59.6465 171.822 62.4343 171.984 65.2221C172.016 65.838 172.989 65.838 172.957 65.2221C172.762 61.4294 172.633 57.5394 172.016 53.779C171.854 52.839 171.692 52.5472 170.719 52.3851C169.032 52.061 167.28 52.061 165.594 52.1582C164.977 52.1582 164.977 53.1307 165.594 53.0983Z" fill="#E8E8E8"/>
<path d="M156.219 68.9503C158.133 68.6261 160.046 68.302 161.928 67.9778C164.101 67.6212 166.177 67.7833 168.35 67.6212C169.356 67.524 174.124 67.0377 172.373 65.0603C171.951 64.6065 171.27 65.2872 171.692 65.7411C171.951 66.0328 167.54 66.6811 167.442 66.6811C166.08 66.7136 164.717 66.6487 163.355 66.8108C160.89 67.1026 158.425 67.6212 155.959 68.0426C155.343 68.1075 155.603 69.0476 156.219 68.9503Z" fill="#E8E8E8"/>
<path d="M328.527 255.638C328.429 259.041 328.332 262.445 328.235 265.881C332.549 266.173 336.831 266.432 341.145 266.724C341.145 263.223 341.145 259.722 341.145 256.221C336.928 256.027 332.744 255.832 328.527 255.638Z" fill="white" stroke="#161616" stroke-width="2" stroke-miterlimit="10"/>
<path d="M334.139 293.468C334.723 297.228 334.982 300.34 335.112 302.577C335.534 310.001 335.209 311.719 334.56 313.08C332.971 316.419 330.084 317.813 330.344 318.267C330.538 318.559 331.965 318.234 338.323 314.895C337.934 307.504 337.577 300.146 337.188 292.755C336.182 293.014 335.177 293.241 334.139 293.468Z" fill="white" stroke="#161616" stroke-width="2" stroke-miterlimit="10"/>
<path d="M325.737 269.642C331.252 269.674 336.766 269.739 342.281 269.771C341.664 277.162 341.08 284.521 340.464 291.912C335.663 291.523 330.83 291.166 326.029 290.777C325.899 283.743 325.802 276.708 325.737 269.642Z" fill="white" stroke="#161616" stroke-width="2" stroke-miterlimit="10"/>
<path d="M327.976 293.208C329.727 297.455 330.311 301.118 330.506 303.582C330.798 307.212 330.992 310 329.241 311.848C328.592 312.561 327.521 313.242 325.445 314.636C323.597 315.868 322.721 316.322 322.786 316.451C322.883 316.646 324.667 316.257 332.452 313.501C332.971 310.876 333.393 307.504 333.295 303.549C333.166 299.335 332.484 295.737 331.738 293.046C330.506 293.111 329.241 293.144 327.976 293.208Z" fill="white" stroke="#161616" stroke-width="2" stroke-miterlimit="10"/>
<path d="M330.798 318.558C331.771 317.748 332.679 316.873 333.555 315.933C334.56 314.83 336.053 313.145 337.61 314.603C337.642 314.344 337.674 314.085 337.707 313.825C335.404 314.96 333.133 316.095 330.83 317.197C330.376 317.424 330.603 318.104 331.09 318.104C333.263 318.137 334.625 314.344 336.864 315.057C337.447 315.252 337.707 314.312 337.123 314.117C336.15 313.825 335.404 314.085 334.593 314.668C333.652 315.349 332.322 317.132 331.122 317.132C331.219 317.424 331.284 317.748 331.382 318.04C333.685 316.905 335.955 315.77 338.258 314.668C338.55 314.539 338.583 314.117 338.356 313.89C337.48 313.08 335.923 312.788 334.82 313.307C334.009 313.663 333.49 314.603 332.906 315.219C332.03 316.159 331.122 317.002 330.149 317.845C329.63 318.267 330.311 318.98 330.798 318.558Z" fill="#161616"/>
<path d="M334.787 313.501C335.761 313.534 336.701 313.728 337.61 314.117C338.161 314.377 338.68 313.534 338.096 313.275C337.026 312.788 335.955 312.529 334.787 312.497C334.171 312.529 334.171 313.501 334.787 313.501Z" fill="#161616"/>
<path d="M329.468 312.367C330.214 312.561 330.863 312.95 331.382 313.534C331.803 313.987 332.485 313.307 332.063 312.853C331.414 312.172 330.603 311.686 329.695 311.459C329.143 311.264 328.884 312.205 329.468 312.367Z" fill="#161616"/>
<path d="M324.213 316.289C325.218 315.544 326.256 314.863 327.327 314.215C327.813 313.923 328.332 313.534 328.851 313.372C329.662 313.08 330.149 313.275 330.895 313.599C330.895 313.307 330.895 313.048 330.895 312.756C329.857 313.21 328.689 313.177 327.619 313.631C326.581 314.053 325.608 315.09 324.537 315.284C324.667 315.576 324.797 315.868 324.926 316.16C326.84 315.22 328.981 315.057 330.895 314.117C331.446 313.826 330.96 313.015 330.408 313.275C328.494 314.215 326.354 314.377 324.44 315.317C323.921 315.576 324.31 316.289 324.829 316.192C325.997 315.998 326.938 314.928 328.04 314.506C329.143 314.085 330.343 314.053 331.414 313.599C331.738 313.469 331.738 312.886 331.414 312.756C330.181 312.205 329.63 311.881 328.397 312.529C326.775 313.372 325.251 314.377 323.791 315.446C323.207 315.803 323.694 316.646 324.213 316.289Z" fill="#161616"/>
<path d="M329.76 298.168C330.57 297.877 331.381 297.909 332.127 298.298C332.679 298.59 333.165 297.747 332.614 297.455C331.641 296.937 330.538 296.839 329.5 297.228C328.916 297.455 329.176 298.395 329.76 298.168Z" fill="#161616"/>
<path d="M330.571 301.41C331.252 301.345 331.901 301.507 332.42 301.961C332.906 302.35 333.587 301.669 333.101 301.28C332.387 300.697 331.511 300.373 330.571 300.437C329.954 300.47 329.954 301.442 330.571 301.41Z" fill="#161616"/>
<path d="M330.927 305.462C331.544 305.397 332.128 305.624 332.484 306.143C332.809 306.662 333.652 306.175 333.328 305.657C332.841 304.846 331.901 304.36 330.96 304.49C330.7 304.522 330.473 304.684 330.473 304.976C330.441 305.203 330.668 305.495 330.927 305.462Z" fill="#161616"/>
<path d="M335.112 297.941C335.696 297.617 336.442 297.65 336.993 298.103C337.48 298.492 338.161 297.812 337.675 297.423C336.799 296.709 335.631 296.547 334.625 297.098C334.074 297.423 334.561 298.265 335.112 297.941Z" fill="#161616"/>
<path d="M335.663 304.068C336.182 303.841 336.766 303.939 337.188 304.328C337.642 304.749 338.356 304.068 337.869 303.647C337.123 302.966 336.085 302.804 335.144 303.258C334.593 303.485 335.112 304.328 335.663 304.068Z" fill="#161616"/>
<path d="M335.793 309.255C336.312 308.931 336.961 308.931 337.447 309.32C337.934 309.709 338.615 309.028 338.128 308.639C337.318 307.958 336.182 307.861 335.306 308.445C334.787 308.769 335.274 309.612 335.793 309.255Z" fill="#161616"/>
<path d="M343.059 269.739C342.41 277.195 341.762 284.65 341.113 292.106" stroke="#161616" stroke-width="6" stroke-miterlimit="10"/>
<path d="M325.932 291.069C331.349 291.458 336.766 291.815 342.183 292.204" stroke="#161616" stroke-width="6" stroke-miterlimit="10"/>
<path d="M342.216 255.93C342.086 259.625 341.924 263.288 341.794 266.984" stroke="#161616" stroke-width="6" stroke-miterlimit="10"/>
<path d="M342.897 274.115C345.914 273.564 349.125 275.93 349.352 279.042C349.676 282.932 345.232 283.613 342.313 283.192C341.697 283.094 341.437 284.035 342.054 284.132C345.622 284.65 350.649 283.645 350.325 279.042C350.066 275.25 346.27 272.494 342.637 273.175C342.021 273.272 342.281 274.212 342.897 274.115Z" fill="#161616"/>
<path d="M342.183 284.91C343.448 285.169 344.454 286.077 344.811 287.309C344.973 287.924 345.914 287.665 345.752 287.049C345.33 285.493 344.065 284.261 342.475 283.97C341.827 283.872 341.567 284.78 342.183 284.91Z" fill="#161616"/>
<path d="M341.697 284.586C342.475 285.721 342.832 286.985 342.702 288.379C342.67 288.995 343.643 288.995 343.675 288.379C343.773 286.855 343.384 285.364 342.508 284.1C342.183 283.581 341.34 284.067 341.697 284.586Z" fill="#161616"/>
<path d="M325.705 273.662C323.564 272.3 319.639 276.223 319.153 278.135C318.18 282.025 323.175 281.571 325.251 282.868C325.77 283.192 326.256 282.349 325.737 282.025C324.245 281.085 322.04 281.442 320.742 280.275C319.153 278.848 320.612 277.13 321.715 276.125C322.299 275.607 324.278 273.889 325.218 274.472C325.737 274.861 326.256 274.018 325.705 273.662Z" fill="#161616"/>
<path d="M325.186 282.414C324.342 282.738 323.564 283.224 322.915 283.905C322.428 284.424 321.812 285.234 322.299 285.947C322.655 286.466 323.499 285.98 323.142 285.461C322.915 285.137 323.758 284.424 323.985 284.229C324.407 283.84 324.894 283.549 325.445 283.354C326.029 283.127 325.802 282.187 325.186 282.414Z" fill="#161616"/>
<path d="M324.797 283.095C324.18 284.067 323.986 285.169 324.213 286.272C324.343 286.888 325.283 286.628 325.154 286.012C324.959 285.137 325.154 284.327 325.64 283.581C325.997 283.062 325.153 282.576 324.797 283.095Z" fill="#161616"/>
<path d="M327.878 273.045C327.716 275.412 327.748 277.811 327.911 280.177C327.975 280.793 328.949 280.793 328.884 280.177C328.689 277.811 328.689 275.412 328.851 273.045C328.916 272.43 327.943 272.43 327.878 273.045Z" fill="#161616"/>
<path d="M328.592 273.305C332.03 273.499 335.436 273.629 338.875 273.694C338.713 273.532 338.55 273.37 338.388 273.208C338.291 275.639 338.194 278.103 338.064 280.534C338.031 281.15 339.005 281.15 339.037 280.534C339.134 278.103 339.232 275.639 339.361 273.208C339.361 272.948 339.134 272.721 338.875 272.721C335.436 272.657 332.03 272.527 328.592 272.332C327.976 272.3 327.976 273.272 328.592 273.305Z" fill="#161616"/>
<path d="M328.203 280.598C329.63 280.987 331.219 280.89 332.647 280.987C334.398 281.085 336.182 281.214 337.934 281.312C338.55 281.344 338.55 280.372 337.934 280.339C336.377 280.242 334.82 280.145 333.263 280.047C331.706 279.95 329.954 280.047 328.43 279.658C327.878 279.496 327.619 280.436 328.203 280.598Z" fill="#161616"/>
<path d="M329.305 285.623C329.889 286.887 331.154 285.785 332.127 286.239C332.582 286.433 332.484 286.725 333.101 286.758C333.814 286.79 335.566 285.364 335.923 286.693C336.02 287.049 336.474 287.147 336.734 286.92C337.058 286.822 337.415 286.725 337.739 286.66C338.128 287.147 338.842 286.433 338.42 285.98C337.674 285.104 336.734 285.591 336.02 286.239C336.279 286.304 336.571 286.369 336.831 286.466C336.539 285.331 335.339 284.586 334.203 285.104C333.652 285.364 333.587 285.85 332.744 285.526C332.582 285.461 332.517 285.202 332.355 285.137C331.998 285.007 330.116 285.202 330.116 285.169C329.889 284.553 329.046 285.039 329.305 285.623Z" fill="#161616"/>
<path d="M331.025 260.111C331.09 259.755 331.511 259.657 331.803 259.787C332.225 259.949 332.452 260.435 332.646 260.792C332.906 261.343 333.749 260.857 333.49 260.306C333.133 259.593 332.582 258.847 331.706 258.75C330.992 258.685 330.246 259.106 330.116 259.819C329.954 260.468 330.895 260.727 331.025 260.111Z" fill="#161616"/>
<path d="M336.993 260.565C337.058 260.241 337.35 260.046 337.674 260.176C338.064 260.306 338.226 260.792 338.291 261.149C338.388 261.765 339.329 261.505 339.231 260.889C339.102 260.111 338.583 259.301 337.739 259.171C336.993 259.074 336.182 259.528 336.052 260.306C335.955 260.922 336.896 261.181 336.993 260.565Z" fill="#161616"/>
<path d="M331.511 262.153C332.614 264.098 335.242 264.39 336.669 262.64C337.058 262.153 336.377 261.473 335.988 261.959C334.95 263.223 333.166 263.126 332.355 261.667C332.063 261.116 331.219 261.602 331.511 262.153Z" fill="#161616"/>
<path d="M297.484 86.0015C293.397 84.3483 290.932 80.3934 289.44 76.4386C287.85 72.3217 287.169 67.8482 287.396 63.4395C287.785 55.3029 291.256 47.0691 297.679 41.8824C303.745 36.9551 312.73 35.5612 319.477 40.0347C326.516 44.7027 327.781 54.3304 327.846 62.078C327.911 70.7008 325.9 79.7451 319.509 85.9367C319.055 86.3581 319.736 87.0713 320.191 86.6174C326.256 80.7176 328.559 72.2893 328.786 64.0554C329.013 55.9837 328.04 45.7724 321.391 40.2292C315.163 35.0425 305.918 35.3018 299.268 39.516C291.905 44.184 287.558 52.6448 286.618 61.1703C286.034 66.4543 286.683 71.9327 288.629 76.9248C290.283 81.139 292.911 85.1587 297.257 86.9092C297.809 87.1685 298.036 86.2284 297.484 86.0015Z" fill="#161616"/>
<path d="M297.03 86.6175C295.927 88.1735 296.154 90.4751 297.776 91.6421C299.009 92.5173 300.825 92.647 302.285 92.8415C304.037 93.1008 305.821 93.198 307.605 93.198C310.784 93.1656 314.417 92.9387 317.368 91.7069C319.509 90.7992 321.131 88.6597 319.996 86.3581C319.736 85.8071 318.893 86.2933 319.152 86.8444C321.585 91.8041 310.07 92.2255 307.572 92.2255C305.269 92.2255 302.966 92.031 300.728 91.6096C299.657 91.4151 298.457 91.2206 297.776 90.2806C297.095 89.3081 297.225 88.0438 297.873 87.1361C298.23 86.5851 297.387 86.0988 297.03 86.6175Z" fill="#161616"/>
<path d="M298.068 91.8691C298.068 93.4899 298.101 95.1432 298.295 96.764C298.393 97.5096 298.555 98.1579 299.171 98.6118C300.047 99.2601 301.507 99.2277 302.545 99.3249C304.296 99.4546 306.08 99.4546 307.832 99.3898C309.486 99.3249 311.141 99.1953 312.795 99.0332C313.768 98.9359 314.871 98.9683 315.617 98.2228C317.271 96.6019 317.304 93.5224 316.882 91.4801C316.752 90.8642 315.812 91.1235 315.941 91.7394C316.168 92.8416 316.233 93.9438 316.006 95.0783C315.682 96.6668 315.228 97.7041 313.444 98.0283C311.368 98.4173 309.032 98.4173 306.924 98.4497C304.848 98.4821 302.512 98.5793 300.469 98.0931C298.587 97.6393 299.074 93.4251 299.074 91.8691C299.041 91.2532 298.068 91.2532 298.068 91.8691Z" fill="#161616"/>
<path d="M298.392 56.9563C302.285 59.3876 305.237 62.9534 306.891 67.2324C307.118 67.8159 308.059 67.5566 307.832 66.9731C306.08 62.4348 302.998 58.6744 298.911 56.1135C298.36 55.7569 297.873 56.5997 298.392 56.9563Z" fill="#161616"/>
<path d="M307.67 67.2322C309.584 63.2125 312.373 59.7764 315.941 57.1182C316.428 56.7616 315.941 55.8864 315.455 56.2754C311.757 59.0308 308.837 62.5966 306.826 66.7459C306.567 67.297 307.41 67.7833 307.67 67.2322Z" fill="#161616"/>
<path d="M306.891 66.0976C307.377 72.7754 307.604 79.4533 307.507 86.1311C307.507 86.747 308.48 86.747 308.48 86.1311C308.578 79.4533 308.351 72.743 307.864 66.0976C307.799 65.4492 306.826 65.4492 306.891 66.0976Z" fill="#161616"/>
<path d="M268.907 82.4354C273.221 80.9767 277.503 79.5179 281.817 78.0592C282.401 77.8647 282.141 76.9246 281.557 77.1191C277.243 78.5779 272.962 80.0366 268.647 81.4954C268.031 81.6899 268.291 82.6299 268.907 82.4354Z" fill="#161616"/>
<path d="M273.837 75.9522C275.329 75.5308 276.821 75.077 278.314 74.6556C278.897 74.4935 278.67 73.5534 278.054 73.7155C276.562 74.1369 275.07 74.5907 273.578 75.0121C272.994 75.2066 273.221 76.1467 273.837 75.9522Z" fill="#161616"/>
<path d="M263.035 65.1575C268.745 65.0927 274.421 65.2547 280.098 65.6113C280.714 65.6437 280.714 64.6712 280.098 64.6388C274.421 64.2822 268.712 64.1526 263.035 64.185C262.419 64.185 262.419 65.1575 263.035 65.1575Z" fill="#161616"/>
<path d="M275.102 60.7488C276.465 61.1054 277.86 61.2675 279.254 61.2999C279.871 61.2999 279.871 60.3274 279.254 60.3274C277.924 60.295 276.627 60.1329 275.362 59.8087C274.746 59.6467 274.486 60.5867 275.102 60.7488Z" fill="#161616"/>
<path d="M272.994 30.5687C278.086 34.945 282.725 39.7426 286.909 44.9941C287.299 45.4804 287.98 44.7996 287.591 44.3134C283.406 39.0619 278.768 34.2318 273.675 29.888C273.221 29.4666 272.507 30.1473 272.994 30.5687Z" fill="#161616"/>
<path d="M287.234 39.7752C288.11 40.6829 288.953 41.5906 289.829 42.5307C290.25 42.9845 290.932 42.3037 290.51 41.8499C289.634 40.9422 288.791 40.0346 287.915 39.0945C287.493 38.6407 286.812 39.3214 287.234 39.7752Z" fill="#161616"/>
<path d="M267.479 41.5906C269.069 42.5306 270.691 43.4059 272.345 44.2163C272.896 44.508 273.383 43.6652 272.831 43.3735C271.177 42.5306 269.555 41.6554 267.966 40.7477C267.415 40.4235 266.928 41.2664 267.479 41.5906Z" fill="#161616"/>
<path d="M323.921 34.1995C328.722 29.4018 333.522 24.6042 338.323 19.8065C338.777 19.3527 338.063 18.6719 337.642 19.1257C332.841 23.9234 328.04 28.7211 323.24 33.5187C322.785 33.9726 323.467 34.6533 323.921 34.1995Z" fill="#161616"/>
<path d="M328.754 36.4365C329.986 35.5288 331.219 34.6536 332.452 33.7459C332.938 33.3893 332.484 32.5465 331.965 32.903C330.733 33.8107 329.5 34.686 328.267 35.5936C327.748 35.9502 328.235 36.7931 328.754 36.4365Z" fill="#161616"/>
<path d="M308.934 27.846C309.908 23.1456 310.654 18.4127 311.108 13.6475C311.173 13.0316 310.199 13.0316 310.135 13.6475C309.68 18.3155 308.967 22.9835 307.994 27.5867C307.864 28.2026 308.805 28.4619 308.934 27.846Z" fill="#161616"/>
<path d="M336.215 57.669C345.038 56.8586 353.828 56.0482 362.651 55.2378C363.268 55.173 363.268 54.2005 362.651 54.2653C353.828 55.0757 345.038 55.8861 336.215 56.6966C335.598 56.729 335.566 57.7015 336.215 57.669Z" fill="#161616"/>
<path d="M299.139 87.7842C304.62 88.9837 310.2 88.9512 315.649 87.7194C316.266 87.5897 316.006 86.6497 315.39 86.7793C310.102 87.9787 304.685 88.0112 299.398 86.8442C298.782 86.7145 298.522 87.6546 299.139 87.7842Z" fill="#161616"/>
<path d="M299.95 96.0181C304.134 96.5692 308.318 96.6988 312.535 96.4071C313.152 96.3747 313.152 95.4022 312.535 95.4346C308.318 95.7263 304.134 95.5967 299.95 95.0456C299.333 94.9807 299.333 95.9533 299.95 96.0181Z" fill="#161616"/>
<path d="M330.084 84.5105C336.669 89.1461 343.383 93.6196 350.195 97.931C350.714 98.2552 351.201 97.4124 350.682 97.0882C343.87 92.7768 337.155 88.3033 330.57 83.6677C330.051 83.3111 329.565 84.154 330.084 84.5105Z" fill="#161616"/>
<path d="M247.206 312.529C241.043 320.082 234.912 327.603 228.749 335.156C235.983 360.571 240.07 367.249 242.503 366.892C244.254 366.633 245.098 362.84 246.038 358.593C248.374 347.993 246.979 338.884 245.552 333.211C249.444 328.867 253.304 324.491 257.197 320.147C253.856 317.619 250.547 315.09 247.206 312.529Z" fill="#161616" stroke="#161616" stroke-width="2" stroke-miterlimit="10"/>
<path d="M224.468 273.629C228.328 276.612 232.025 275.542 239.681 276.839C246.201 277.941 253.531 280.372 261.316 285.234C253.012 294.959 244.709 305.236 236.469 316.063C234.491 318.688 232.512 321.314 230.598 323.94C233.777 324.686 237.605 325.853 241.757 327.733C245.811 329.548 249.12 331.59 251.747 333.438C264.106 322.676 275.135 312.27 284.963 302.448C289.505 297.909 295.927 290.972 296.933 281.15C296.998 280.599 296.998 280.113 296.998 279.626C296.771 263.321 276.238 251.521 263.749 247.177C250.093 242.444 226.608 239.884 220.056 251.197C216.196 257.875 218.467 268.994 224.468 273.629Z" fill="#EC615B"/>
<path opacity="0.26" d="M248.439 257.324C248.212 260.403 247.66 264.066 246.525 268.118C245.714 271.004 244.741 273.564 243.768 275.736C242.697 276.158 241.659 276.579 240.589 277.001C247.563 279.756 254.569 282.511 261.543 285.267C256.353 291.199 251.131 297.423 245.876 303.906C240.459 310.584 235.301 317.133 230.403 323.583C233.874 324.718 237.313 325.853 240.783 326.955C253.207 313.275 265.63 299.563 278.054 285.883C279.352 282.155 279.287 279.237 278.897 277.195C277.113 267.211 264.884 259.074 248.439 257.324Z" fill="#6D6C6C"/>
<path opacity="0.23" d="M261.479 285.202C262.614 286.92 263.717 288.671 264.852 290.389C255.186 302.026 245.519 313.632 235.853 325.269C234.134 324.815 232.382 324.329 230.663 323.875C236.859 315.382 243.541 306.662 250.774 297.877C254.375 293.501 257.943 289.287 261.479 285.202Z" fill="#6D6C6C"/>
<path d="M229.203 300.211C238.772 301.961 248.373 303.68 257.943 305.43C269.004 329.548 270.236 337.328 268.16 338.657C266.668 339.597 263.554 337.263 260.083 334.637C251.39 328.057 246.557 320.212 243.93 314.928C238.156 314.15 232.382 313.34 226.608 312.562C227.451 308.445 228.327 304.328 229.203 300.211Z" fill="#161616" stroke="#161616" stroke-width="2" stroke-miterlimit="10"/>
<path d="M209.481 246.496C192.03 251.618 181.39 262.251 174.546 269.253C165.301 278.751 153.948 290.388 157.224 298.979C158.911 303.355 164.036 306.046 187.91 310.195C205.945 313.339 221.58 315.025 233.777 315.965C235.301 310.39 236.826 304.846 238.318 299.271C226.057 295.316 213.828 291.393 201.566 287.439C209.092 285.85 217.007 283.97 225.246 281.668C231.506 279.918 237.475 278.103 243.151 276.19C248.406 265.59 249.541 254.147 244.06 247.663C236.404 238.587 219.245 243.611 209.481 246.496Z" fill="#EC615B"/>
<path opacity="0.29" d="M248.309 257.712C248.147 260.922 247.595 265.039 246.103 269.577C245.195 272.332 244.157 274.731 243.119 276.709C242.243 276.773 241.367 276.871 240.491 276.935C233.096 279.367 225.213 281.668 216.877 283.808C211.492 285.202 206.237 286.401 201.145 287.503C213.438 291.361 225.732 295.186 238.026 299.044C237.767 300.373 237.442 301.767 237.053 303.225C236.599 304.911 236.08 306.467 235.593 307.893C218.628 303.712 201.664 299.53 184.699 295.348C183.92 294.408 181.358 291.004 181.747 286.498C182.169 281.603 186.84 278.135 192.808 274.958C210.065 265.817 238.999 259.625 248.309 257.712Z" fill="#6D6C6C"/>
<path opacity="0.24" d="M192.419 288.184C195.501 287.957 198.614 287.731 201.696 287.471C213.795 291.491 225.894 295.543 237.994 299.563C237.475 301.475 236.956 303.42 236.437 305.333C221.775 299.595 207.081 293.89 192.419 288.184Z" fill="#6D6C6C"/>
<path d="M204.908 173.04C209.708 170.22 218.045 166.2 229.139 165.033C246.136 163.25 259.176 169.345 264.333 172.1C263.393 184.84 261.933 195.019 260.765 202.021C259.37 210.384 258.235 215.02 257.716 222.702C257.067 232.33 257.878 240.24 258.624 245.427C252.98 247.177 244.449 249.09 233.939 248.863C223.819 248.636 215.645 246.431 210.163 244.519C211.622 232.914 211.136 223.707 210.422 217.451C209.611 210.481 208.508 207.078 207.178 198.649C205.459 187.757 205.005 178.843 204.908 173.04Z" fill="white" stroke="#161616" stroke-width="2" stroke-miterlimit="10"/>
<path opacity="0.14" d="M240.005 168.891C240.686 171.355 241.465 174.758 241.984 178.843C242.34 181.598 243.8 194.079 239.259 210.546C236.469 220.693 233.517 231.423 223.851 240.24C220.737 243.093 217.72 245.005 215.515 246.205C220.413 247.469 226.803 248.668 234.361 248.733C244.254 248.83 252.428 247.048 258.105 245.297C257.781 242.866 257.359 239.203 257.197 234.794C257.067 230.936 257.067 224.777 259.727 207.434C261.835 193.787 263.327 187.92 264.074 175.569C264.171 174.142 264.203 172.943 264.268 172.133C261.9 170.739 258.819 169.215 255.023 167.983C251.52 166.849 248.374 166.265 245.779 166.006C243.897 166.946 241.951 167.918 240.005 168.891Z" fill="#6D6C6C"/>
<path opacity="0.17" d="M263.328 177.417C261.511 187.693 259.111 195.991 257.23 201.761C251.715 218.618 247.855 229.964 237.443 238.263C230.988 243.417 224.273 245.589 219.959 246.626C224.338 247.858 230.534 249.057 238.027 248.895C246.655 248.701 253.629 246.756 258.203 245.103C257.587 241.148 256.873 235.215 257.068 227.987C257.295 218.618 258.819 212.978 260.506 202.702C261.447 196.672 262.647 188.049 263.328 177.417Z" fill="#6D6C6C"/>
<path d="M204.713 172.878C200.496 175.795 195.079 180.399 190.343 187.239C179.671 202.734 179.963 219.169 180.385 225.231C182.331 230.45 185.672 237.29 191.511 244C194.917 247.923 199.912 253.563 208.443 257.194C211.298 258.425 213.796 259.106 215.612 259.495C217.169 258.101 218.694 256.707 220.251 255.313C215.255 249.478 210.228 243.352 205.2 237.031C201.34 232.2 197.642 227.403 194.074 222.67C194.203 218.683 195.047 211.454 199.393 203.901C201.859 199.622 204.746 196.51 207.049 194.403C206.27 187.239 205.492 180.074 204.713 172.878Z" fill="white" stroke="#161616" stroke-width="2" stroke-miterlimit="10"/>
<path opacity="0.13" d="M205.329 180.107C195.987 190.642 191.543 200.627 189.338 206.916C185.477 217.808 186.288 223.513 186.872 226.236C187.359 228.375 188.429 232.038 192.354 237.614C195.76 242.444 202.929 251.099 216.585 258.231C217.785 257.064 218.985 255.93 220.186 254.763C216.326 250.419 212.433 245.848 208.508 241.083C203.351 234.826 198.55 228.667 194.106 222.638C194.236 219.364 194.787 214.793 196.701 209.671C199.588 201.988 204.129 196.931 206.951 194.241C206.367 189.54 205.848 184.84 205.329 180.107Z" fill="#6D6C6C"/>
<path opacity="0.16" d="M194.074 223.059C194.658 226.852 195.858 231.682 198.388 236.901C203.967 248.247 212.693 254.503 217.137 257.226C218.013 256.448 218.856 255.703 219.732 254.925C211.168 244.292 202.637 233.659 194.074 223.059Z" fill="#6D6C6C"/>
<path d="M264.82 172.294C269.556 175.18 275.654 179.685 280.941 186.396C292.943 201.599 292.587 217.743 292.132 223.707C289.927 228.829 286.196 235.539 279.644 242.152C275.816 245.978 270.205 251.521 260.636 255.119C257.424 256.318 254.602 256.999 252.559 257.388C250.839 256.027 249.088 254.665 247.369 253.304C252.948 247.566 258.624 241.569 264.269 235.345C268.583 230.58 272.735 225.879 276.757 221.244C276.595 217.354 275.687 210.254 270.789 202.799C267.999 198.584 264.788 195.537 262.193 193.463C263.101 186.396 263.977 179.361 264.82 172.294Z" fill="white" stroke="#161616" stroke-width="2" stroke-miterlimit="10"/>
<path opacity="0.16" d="M264.593 180.172C268.712 184.483 274.324 191.388 278.703 201.016C280.779 205.587 284.153 213.01 284.218 220.012C284.445 241.31 254.278 255.962 252.526 256.805C250.807 255.703 249.12 254.633 247.401 253.531C257.165 242.833 266.896 232.136 276.66 221.438C276.465 217.937 275.654 211.422 271.761 204.484C268.55 198.779 264.56 195.084 261.933 193.041C262.841 188.762 263.717 184.483 264.593 180.172Z" fill="#6D6C6C"/>
<path opacity="0.12" d="M276.984 221.535C276.497 224.355 275.686 227.435 274.421 230.612C268.712 245.005 257.165 252.882 251.326 256.253C249.931 255.346 248.569 254.438 247.174 253.53C257.1 242.865 267.026 232.2 276.984 221.535Z" fill="#6D6C6C"/>
<path d="M272.28 223.934H192.517V274.407H272.28V223.934Z" fill="white" stroke="#161616" stroke-width="2" stroke-miterlimit="10"/>
<path d="M231.247 253.985C227.03 254.503 224.987 249.381 226.09 245.978C227.16 242.606 231.15 241.018 234.394 242.185C237.605 243.352 239.162 247.274 238.027 250.419C236.761 253.92 232.35 255.346 229.106 253.79C228.555 253.531 228.036 254.374 228.62 254.633C231.507 256.027 235.042 255.508 237.345 253.239C239.584 251.002 239.908 247.469 238.513 244.713C235.334 238.425 225.506 240.434 224.824 247.339C224.468 251.035 227.128 255.476 231.247 254.989C231.863 254.892 231.863 253.92 231.247 253.985Z" fill="#161616"/>
<path opacity="0.14" d="M222.456 223.804C233.258 227.565 240.621 237.193 240.848 247.533C241.14 260.5 230.241 272.689 215.385 273.921C234.296 274.083 253.207 274.245 272.15 274.407C272.085 257.485 272.053 240.564 271.988 223.675C255.477 223.675 238.967 223.74 222.456 223.804Z" fill="#6D6C6C"/>
<path opacity="0.26" d="M272.151 223.643C271.859 233.951 269.815 241.99 268.096 247.274C265.566 254.957 263.75 260.565 258.527 265.525C251.423 272.332 242.568 273.597 238.675 273.921C249.736 274.018 260.798 274.115 271.859 274.245C271.891 264.617 271.956 254.989 272.021 245.329C272.021 238.1 272.086 230.871 272.151 223.643Z" fill="#6D6C6C"/>
<path d="M230.046 146.88C228.262 149.052 229.982 151.71 229.657 158.809C229.495 162.343 228.911 165.195 228.457 167.108C229.982 167.821 232.674 168.826 236.145 168.923C240.426 169.02 243.67 167.691 245.26 166.913C244.546 165.487 243.605 163.283 243.021 160.43C241.562 153.169 244.157 149.765 242.016 147.074C239.518 143.962 232.447 143.93 230.046 146.88Z" fill="white" stroke="#161616" stroke-width="2" stroke-miterlimit="10"/>
<path d="M218.726 115.695C216.683 120.947 217.461 125.68 217.915 127.722C217.721 127.754 213.925 128.565 212.887 131.482C211.849 134.432 213.99 138.614 218.467 139.975C220.089 143.93 224.013 151.58 232.285 155.762C233.68 156.443 235.01 156.994 236.34 157.383C237.54 156.929 239.162 156.216 241.011 155.146C246.785 151.807 249.996 147.658 250.742 146.653C252.104 144.838 253.953 141.92 255.251 137.901C255.964 138.03 257.229 138.095 258.462 137.479C261.252 136.053 262.647 131.612 260.7 128.727C259.078 126.328 255.932 126.231 255.543 126.231C255.964 124.545 257.262 118.483 253.986 112.486C250.223 105.581 242.146 101.951 234.556 102.988C223.332 104.447 218.921 115.177 218.726 115.695Z" fill="white" stroke="#161616" stroke-width="2" stroke-miterlimit="10"/>
<path d="M229.625 155.47C231.604 156.637 233.777 158.453 236.21 158.258C238.221 158.096 240.459 156.929 241.984 155.697C242.47 155.308 241.789 154.628 241.303 155.017C239.875 156.151 237.572 157.351 235.691 157.318C233.712 157.286 231.701 155.633 230.079 154.628C229.593 154.303 229.106 155.146 229.625 155.47Z" fill="#161616"/>
<path d="M229.495 155.892C231.344 157.48 233.453 159.263 236.048 159.133C238.578 159.004 240.946 157.318 242.6 155.503C243.022 155.049 242.341 154.368 241.919 154.822C240.492 156.378 238.481 157.902 236.275 158.129C233.842 158.355 231.896 156.702 230.177 155.211C229.723 154.79 229.041 155.47 229.495 155.892Z" fill="#161616"/>
<path d="M230.728 156.086C230.728 156.054 230.728 156.054 230.728 156.086C230.533 155.794 230.176 155.729 229.949 155.956C229.949 155.956 229.949 155.956 229.917 155.989C229.722 156.151 229.722 156.507 229.917 156.67C233.485 160.073 240.037 161.175 242.6 155.956C242.86 155.405 242.049 154.887 241.757 155.47C239.486 160.138 233.745 159.004 230.631 155.989C230.631 156.216 230.631 156.443 230.631 156.67C230.631 156.67 230.631 156.67 230.663 156.637C230.404 156.605 230.144 156.572 229.885 156.54V156.572C230.209 157.091 231.052 156.605 230.728 156.086Z" fill="#161616"/>
<path d="M234.62 126.101C234.199 131.352 234.426 136.571 235.269 141.758C235.301 142.017 235.626 142.179 235.853 142.082C237.118 141.661 238.026 140.915 238.707 139.781C239.032 139.229 238.188 138.743 237.864 139.294C237.313 140.234 236.631 140.785 235.593 141.142C235.788 141.239 235.983 141.369 236.177 141.466C235.334 136.377 235.139 131.223 235.561 126.068C235.658 125.452 234.685 125.452 234.62 126.101Z" fill="#161616"/>
<path d="M228.847 131.255C228.911 131.547 229.398 133.362 228.847 133.654C228.295 133.946 226.738 132.779 226.252 131.255C225.862 129.959 226.187 128.338 226.803 128.208C227.452 128.046 228.457 129.829 228.847 131.255Z" fill="#161616" stroke="#161616" stroke-miterlimit="10"/>
<path d="M245.584 131.255C245.649 131.547 246.136 133.362 245.584 133.654C245.033 133.946 243.476 132.779 242.989 131.255C242.6 129.959 242.924 128.338 243.541 128.208C244.19 128.046 245.195 129.829 245.584 131.255Z" fill="#161616" stroke="#161616" stroke-miterlimit="10"/>
<path d="M233.453 146.037C237.41 147.723 241.011 145.356 243.93 142.795C244.417 142.374 243.703 141.693 243.249 142.115C240.719 144.319 237.475 146.685 233.972 145.194C233.356 144.967 232.869 145.81 233.453 146.037Z" fill="#161616"/>
<path d="M244.87 136.41C245.487 136.41 245.487 135.437 244.87 135.437C244.254 135.437 244.254 136.41 244.87 136.41Z" fill="#161616"/>
<path d="M248.471 134.594C248.504 134.561 248.536 134.529 248.569 134.497C248.763 134.302 248.763 134.01 248.569 133.816C248.374 133.621 248.082 133.621 247.887 133.816C247.855 133.848 247.822 133.881 247.79 133.913C247.595 134.108 247.595 134.399 247.79 134.594C247.985 134.788 248.277 134.788 248.471 134.594Z" fill="#161616"/>
<path d="M247.401 136.96C247.433 136.96 247.465 136.96 247.498 136.96C247.757 136.96 247.984 136.733 247.984 136.474C247.984 136.215 247.757 135.988 247.498 135.988C247.465 135.988 247.433 135.988 247.401 135.988C247.141 135.988 246.914 136.215 246.914 136.474C246.914 136.733 247.109 136.96 247.401 136.96Z" fill="#161616"/>
<path d="M225.019 125.453C226.251 124.415 228.068 124.383 229.3 125.388C229.787 125.777 230.468 125.096 229.982 124.707C228.295 123.346 225.959 123.346 224.305 124.772C223.851 125.161 224.565 125.842 225.019 125.453Z" fill="#161616"/>
<path d="M240.849 125.096C242.243 123.864 244.222 123.637 245.876 124.513C246.428 124.804 246.914 123.961 246.363 123.67C244.319 122.567 241.887 122.859 240.167 124.415C239.681 124.837 240.362 125.517 240.849 125.096Z" fill="#161616"/>
<path d="M225.278 136.312C225.895 136.312 225.895 135.34 225.278 135.34C224.662 135.34 224.662 136.312 225.278 136.312Z" fill="#161616"/>
<path d="M228.717 135.858C229.333 135.858 229.333 134.886 228.717 134.886C228.1 134.886 228.1 135.858 228.717 135.858Z" fill="#161616"/>
<path d="M226.998 136.604C226.965 136.636 226.933 136.669 226.9 136.701C226.706 136.896 226.706 137.187 226.9 137.382C227.095 137.576 227.387 137.576 227.582 137.382C227.614 137.349 227.646 137.317 227.679 137.285C227.873 137.09 227.873 136.798 227.679 136.604C227.484 136.409 227.192 136.409 226.998 136.604Z" fill="#161616"/>
<path d="M224.013 105.16C222.067 106.359 217.818 108.985 214.931 114.366C212.044 119.715 212.076 124.772 212.206 126.944C207.47 135.469 205.329 142.99 204.291 148.112C202.605 156.248 203.513 159.231 204.681 161.208C207.535 166.071 213.277 167.27 214.671 167.562C221.84 169.085 227.549 165.422 228.847 164.579C229.203 163.51 229.56 162.181 229.755 160.689C230.112 158.129 229.917 155.924 229.625 154.336C228.003 153.007 226.122 151.224 224.305 148.89C221.548 145.324 219.991 141.823 219.115 139.294C216.261 139.003 214.12 137.058 213.925 134.886C213.731 132.844 215.158 130.218 217.039 130.218C218.434 130.218 219.44 131.644 219.634 131.903C220.705 131.288 222.197 130.218 223.527 128.532C225.441 126.101 225.765 123.929 226.641 121.66C227.484 119.455 229.106 116.408 232.609 113.231C235.983 114.431 238.675 115.598 240.524 116.473C246.46 119.229 249.834 120.849 252.461 124.383C253.921 126.328 254.667 128.24 255.056 129.44C258.073 127.138 259.305 127.754 259.565 127.884C261.479 128.954 261.414 134.821 258.43 136.442C257.294 137.058 255.997 136.896 255.186 136.701C254.245 139.975 252.169 145.324 247.401 150.057C245.811 151.645 244.189 152.877 242.73 153.817C242.6 155.017 242.535 156.67 242.86 158.615C243.151 160.398 243.67 161.856 244.157 162.894C252.039 168.08 261.835 167.14 267.155 161.565C271.891 156.573 271.891 149.019 270.107 143.865C268.485 139.165 265.339 136.345 263.782 135.113C264.203 133.297 266.539 122.535 259.759 112.648C258.008 110.087 253.11 103.895 244.287 101.756C234.945 99.4867 227.257 103.182 224.013 105.16Z" fill="#5222D0"/>
<path opacity="0.17" d="M244.578 118.483C248.244 123.086 249.217 127.333 249.541 129.537C250.871 138.808 245.487 146.329 242.762 150.186C240.524 153.331 238.221 155.568 236.566 157.026C237.994 160.851 239.388 164.644 240.816 168.469C242.275 167.983 243.735 167.497 245.195 167.011C244.514 165.811 243.8 164.32 243.249 162.505C242.243 159.263 242.178 156.41 242.275 154.465C244.059 153.201 246.135 151.483 248.147 149.214C252.169 144.676 254.18 140.008 255.218 136.863C255.867 136.993 257.262 137.155 258.591 136.409C261.381 134.821 260.927 130.866 260.895 130.607C260.797 129.764 260.603 128.402 259.629 127.851C258.494 127.235 256.613 127.819 255.121 129.569C254.667 127.981 253.369 124.318 249.866 121.4C247.92 119.78 245.941 118.937 244.578 118.483Z" fill="#6D6C6C"/>
<path opacity="0.19" d="M235.075 126.392C234.88 126.36 234.231 129.18 232.252 141.628C233.388 141.628 234.523 141.628 235.658 141.628C235.431 139.975 235.172 137.576 235.042 134.659C234.88 129.666 235.269 126.425 235.075 126.392Z" fill="#6D6C6C"/>
<path opacity="0.54" d="M263.587 135.437C263.036 135.761 265.112 138.549 264.82 142.698C264.723 143.995 264.528 146.945 262.193 148.922C262.03 149.052 258.56 151.905 255.121 150.089C253.078 149.02 251.845 146.75 251.91 144.287C250.937 146.102 249.347 148.501 246.85 150.835C245.293 152.294 243.768 153.363 242.438 154.174C242.341 155.6 242.341 157.545 242.86 159.75C243.152 160.949 243.509 161.986 243.865 162.829C244.871 163.477 246.363 164.353 248.309 165.033C249.542 165.455 256.321 167.821 262.939 164.547C264.106 163.964 266.701 162.635 268.583 159.782C268.81 159.425 269.653 158.161 270.269 156.022C272.475 148.695 269.231 142.082 268.94 141.531C267.155 137.933 264.269 135.048 263.587 135.437Z" fill="#341999"/>
<path opacity="0.35" d="M219.083 139.424C218.791 139.456 219.44 142.115 218.726 144.74C218.207 146.685 216.553 149.862 213.731 150.511C210.779 151.159 207.114 148.987 205.427 144.935C204.648 146.718 203.61 149.57 203.448 153.201C203.351 155.568 203.221 158.096 204.389 160.592C207.016 166.168 214.736 168.34 220.478 167.821C224.305 167.464 227.192 165.973 228.749 164.968C229.139 163.866 229.528 162.537 229.787 161.014C230.209 158.388 230.112 156.086 229.885 154.401C227.322 152.553 225.571 150.64 224.468 149.246C222.911 147.269 220.802 144.611 219.732 140.915C219.57 140.494 219.278 139.392 219.083 139.424Z" fill="#341999"/>
</svg>
