<svg width="839" height="629" viewBox="0 0 839 629" fill="none" xmlns="http://www.w3.org/2000/svg">
<path d="M541.679 155.992C546.4 155.992 550.227 152.167 550.227 147.448C550.227 142.73 546.4 138.904 541.679 138.904C536.959 138.904 533.132 142.73 533.132 147.448C533.132 152.167 536.959 155.992 541.679 155.992Z" fill="#EC615B"/>
<path d="M550.751 132.3C552.952 132.3 554.736 130.516 554.736 128.316C554.736 126.116 552.952 124.333 550.751 124.333C548.55 124.333 546.766 126.116 546.766 128.316C546.766 130.516 548.55 132.3 550.751 132.3Z" fill="#EC615B"/>
<path d="M289.455 80.4597C291.714 80.4597 293.545 78.6292 293.545 76.3712C293.545 74.1132 291.714 72.2827 289.455 72.2827C287.196 72.2827 285.365 74.1132 285.365 76.3712C285.365 78.6292 287.196 80.4597 289.455 80.4597Z" fill="#EC615B"/>
<path d="M557.096 558.971C560.919 558.971 564.018 555.873 564.018 552.052C564.018 548.231 560.919 545.133 557.096 545.133C553.273 545.133 550.174 548.231 550.174 552.052C550.174 555.873 553.273 558.971 557.096 558.971Z" fill="#EC615B"/>
<path d="M242.104 582.664C243.871 582.664 245.303 581.232 245.303 579.466C245.303 577.701 243.871 576.269 242.104 576.269C240.337 576.269 238.905 577.701 238.905 579.466C238.905 581.232 240.337 582.664 242.104 582.664Z" fill="#EC615B"/>
<path d="M282.061 346.475C283.886 346.475 285.365 344.996 285.365 343.172C285.365 341.349 283.886 339.87 282.061 339.87C280.237 339.87 278.758 341.349 278.758 343.172C278.758 344.996 280.237 346.475 282.061 346.475Z" fill="#EC615B"/>
<path d="M288.564 363.3C290.33 363.3 291.762 361.869 291.762 360.103C291.762 358.337 290.33 356.905 288.564 356.905C286.797 356.905 285.365 358.337 285.365 360.103C285.365 361.869 286.797 363.3 288.564 363.3Z" fill="#5222D0"/>
<path d="M284.736 452.409C288.037 452.409 290.714 449.733 290.714 446.433C290.714 443.133 288.037 440.458 284.736 440.458C281.434 440.458 278.758 443.133 278.758 446.433C278.758 449.733 281.434 452.409 284.736 452.409Z" fill="#5222D0"/>
<path d="M536.908 112.801C538.993 112.801 540.683 111.111 540.683 109.027C540.683 106.943 538.993 105.253 536.908 105.253C534.822 105.253 533.132 106.943 533.132 109.027C533.132 111.111 534.822 112.801 536.908 112.801Z" fill="#5222D0"/>
<path d="M393.281 119.406C395.106 119.406 396.585 117.927 396.585 116.104C396.585 114.28 395.106 112.801 393.281 112.801C391.457 112.801 389.978 114.28 389.978 116.104C389.978 117.927 391.457 119.406 393.281 119.406Z" fill="#5222D0"/>
<path d="M98.7399 377.715C100.13 377.715 101.257 376.588 101.257 375.199C101.257 373.809 100.13 372.683 98.7399 372.683C97.3498 372.683 96.2229 373.809 96.2229 375.199C96.2229 376.588 97.3498 377.715 98.7399 377.715Z" fill="#5222D0"/>
<path d="M548.339 576.269C551.814 576.269 554.631 573.453 554.631 569.979C554.631 566.505 551.814 563.689 548.339 563.689C544.864 563.689 542.046 566.505 542.046 569.979C542.046 573.453 544.864 576.269 548.339 576.269Z" fill="#5222D0"/>
<path d="M615.721 37.7402C617.545 37.7402 619.025 36.2618 619.025 34.438C619.025 32.6142 617.545 31.1357 615.721 31.1357C613.896 31.1357 612.417 32.6142 612.417 34.438C612.417 36.2618 613.896 37.7402 615.721 37.7402Z" fill="#5222D0"/>
<path d="M294.751 182.882C294.227 179.632 293.755 173.133 298.946 173.657C300.834 173.867 301.883 175.544 303.98 174.81C307.913 173.447 307.021 168.363 308.647 165.427C311.321 160.71 316.513 167.577 320.498 165.323C321.809 164.589 322.123 163.226 322.071 161.811C321.966 156.517 326.633 156.883 330.461 157.932C331.457 158.194 331.877 156.674 330.881 156.412C327 155.363 320.55 154.996 320.393 160.605C320.341 161.968 321.075 163.331 319.082 164.169C318.453 164.432 317.404 164.117 316.827 163.96C315.464 163.54 314.258 162.597 312.842 162.23C311.007 161.706 309.224 162.073 307.965 163.54C306.392 165.427 306.445 167.996 305.711 170.197C304.924 172.556 303.403 173.919 300.834 172.766C299.785 172.294 298.841 171.875 297.635 172.032C292.234 172.766 292.496 179.318 293.178 183.302C293.388 184.297 294.908 183.878 294.751 182.882Z" fill="#5222D0"/>
<path d="M300.939 185.922C301.358 182.672 303.98 181.257 307.022 181.257C308.647 181.257 310.273 181.519 311.846 180.943C315.412 179.58 314.73 175.701 315.569 172.661C317.142 166.895 324.431 170.459 328.469 169.516C331.195 168.834 333.503 166.109 332.349 163.226C331.982 162.282 330.461 162.702 330.828 163.645C332.611 167.996 326.528 168.258 323.959 167.943C322.071 167.734 320.236 167.419 318.348 167.891C315.359 168.677 314.206 170.879 313.786 173.709C313.419 176.33 313.471 179.213 310.063 179.632C308.228 179.842 306.392 179.318 304.557 179.737C301.621 180.418 299.733 182.882 299.366 185.817C299.208 186.918 300.782 186.918 300.939 185.922Z" fill="#5222D0"/>
<path d="M409.275 57.1867C407.439 59.493 405.499 62.3235 406.391 65.4161C407.125 67.9321 409.117 68.8756 411.529 68.7184C412.945 68.6135 414.414 68.2466 415.567 69.5046C416.459 70.4481 415.882 72.4399 415.62 73.4883C415.2 75.1132 414.414 76.6857 414.571 78.4154C414.833 80.7742 416.721 82.6088 419.133 82.0846C420.129 81.8749 419.71 80.3548 418.713 80.5645C414.151 81.6128 417.298 74.0124 417.507 72.1778C417.665 70.6578 417.403 68.9804 416.249 67.8797C415.095 66.7789 413.679 66.8838 412.211 67.041C409.904 67.3031 407.754 66.5693 407.649 63.7912C407.597 61.6945 409.065 59.8075 410.323 58.235C411.058 57.5536 409.904 56.4004 409.275 57.1867Z" fill="#5222D0"/>
<path d="M421.65 56.4006C419.185 57.4489 417.612 60.0173 418.241 62.6906C418.556 63.8962 419.29 65.0493 420.339 65.7832C421.597 66.7267 423.066 66.517 424.324 67.3032C426.684 68.7185 424.796 71.4966 424.901 73.6981C424.953 74.7988 425.216 75.7947 426.16 76.4762C427.575 77.5769 429.673 77.21 430.25 75.4278C430.564 74.4843 429.044 74.065 428.729 75.0085C426.736 74.7464 426.055 73.8553 426.631 72.3353C426.736 71.8111 426.841 71.2869 426.946 70.7628C427.051 70.2386 427.103 69.7144 427.103 69.1903C427.103 68.0895 426.789 66.9363 425.95 66.1501C424.691 64.9969 422.751 65.4687 421.388 64.5252C418.609 62.5858 419.605 58.9166 422.436 57.711C423.38 57.3441 422.541 56.0337 421.65 56.4006Z" fill="#5222D0"/>
<path d="M78.7611 366.236C77.5551 364.349 77.5551 362.042 78.7611 360.103C79.9672 358.216 81.6452 358.163 83.5854 357.43C86.2597 356.329 86.3121 353.551 86.1548 351.035C86.1024 350.144 86.0499 349.2 86.3121 348.309C86.9938 346.212 88.7767 346.789 90.4023 347.051C91.3461 347.208 92.2376 347.051 93.0241 346.527C94.0204 345.845 94.6497 344.64 94.9643 343.487C95.2265 342.543 95.2789 341.547 95.4887 340.604C95.5936 339.922 95.8033 339.293 96.1179 338.717C96.9569 337.406 97.9533 337.302 99.1593 338.455C99.4215 339.451 100.942 339.031 100.68 338.035C99.7361 334.628 95.5411 336.148 94.4924 338.56C94.0204 339.66 93.968 340.866 93.7058 342.019C93.5485 342.7 93.4436 343.434 93.0766 344.063C92.29 345.479 90.8218 345.216 89.4584 345.059C87.8328 344.902 86.5743 344.745 85.5256 346.265C84.3195 347.995 84.6341 350.039 84.6341 352.031C84.6866 354.442 84.1622 355.385 81.8025 356.172C80.8586 356.486 80.0721 356.643 79.2331 357.272C76.1917 359.421 75.4051 363.877 77.3978 366.969C77.9221 367.86 79.2855 367.074 78.7611 366.236Z" fill="#EC615B"/>
<path d="M85.3158 369.853C83.1135 369.538 83.9525 367.127 84.9488 366.183C85.6829 365.502 86.6792 365.083 87.6231 364.611C88.7767 364.034 89.9303 363.353 90.7693 362.357C93.0242 359.526 89.773 355.752 92.9193 353.498C96.0655 351.297 104.508 350.301 102.043 344.43C101.676 343.487 100.313 344.326 100.68 345.217C102.463 349.462 93.8107 350.72 91.6083 352.503C90.8218 353.132 90.1401 353.97 89.8255 354.966C89.1962 357.168 91.0315 359.422 89.406 361.518C87.5182 363.825 83.4805 363.825 82.5366 367.074C81.9598 368.909 82.9561 371.111 84.9488 371.425C85.8926 371.53 86.3121 370.01 85.3158 369.853Z" fill="#EC615B"/>
<path d="M660.136 248.036C659.454 246.831 659.559 245.52 660.293 244.367C661.447 242.69 662.81 243.057 664.593 243.214C665.799 243.319 666.9 243.581 668.054 242.899C670.099 241.641 669.784 239.02 670.151 237.029C670.99 232.364 675.028 236.609 677.755 235.142C678.751 234.617 679.118 233.622 679.328 232.573C679.695 230.529 679.8 224.449 683.732 226.912C684.571 227.436 685.41 226.074 684.519 225.549C681.006 223.4 678.174 226.965 677.859 230.267C677.65 232.154 677.859 233.988 675.343 233.726C674.451 233.622 673.56 233.15 672.668 233.045C671.252 232.888 669.994 233.307 669.207 234.565C668.316 236.033 668.631 237.867 668.263 239.44C667.477 243.004 664.436 241.012 661.971 241.432C658.667 242.008 657.147 245.992 658.72 248.77C659.244 249.713 660.608 248.927 660.136 248.036Z" fill="#EC615B"/>
<path d="M667.949 251.338C667.058 248.927 669.837 246.254 672.249 247.512C672.563 247.669 672.983 247.669 673.193 247.407C674.399 246.096 674.713 244.576 675.238 242.899C676.182 239.859 678.436 239.439 681.163 238.601C683.838 237.762 686.826 235.561 685.725 232.416C685.358 231.472 683.838 231.891 684.205 232.835C685.725 236.976 678.279 237.29 676.077 238.81C673.402 240.697 674.189 244.105 672.144 246.306C672.459 246.254 672.773 246.201 673.088 246.201C669.574 244.367 665.117 247.983 666.481 251.81C666.795 252.701 668.316 252.334 667.949 251.338Z" fill="#EC615B"/>
<path d="M456.154 265.071C456.259 265.071 457.412 267.902 457.884 268.269C458.618 268.845 459.51 268.898 460.401 268.74C461.974 268.478 462.971 267.325 464.334 266.591C467.271 264.914 467.271 267.797 468.424 269.422C469.735 271.361 471.151 270.418 472.672 269.474C473.668 268.845 474.612 268.426 475.503 269.317C475.975 269.789 476.29 270.575 476.657 271.152C477.234 271.99 477.863 272.672 478.807 273.091C479.698 273.51 480.537 272.148 479.593 271.728C477.443 270.785 477.181 267.22 474.612 266.853C473.406 266.696 472.881 267.378 471.938 267.902C470.784 268.583 470.102 269.055 469.368 267.745C469.053 267.22 469.001 266.487 468.634 265.962C466.956 263.184 464.334 264.704 462.237 266.067C461.87 266.329 461.502 266.591 461.083 266.801C460.191 266.539 459.248 266.277 458.356 266.015C457.989 265.648 457.989 264.757 457.674 264.285C457.15 263.551 456.626 263.342 455.787 263.499C454.738 263.708 455.158 265.229 456.154 265.071Z" fill="#EC615B"/>
<path d="M468.477 260.039C470.05 257.576 473.668 262.712 475.136 263.341C476.028 263.708 476.867 263.708 477.811 263.446C478.23 263.341 478.597 263.132 478.964 262.975C480.38 262.398 481.586 262.765 482.74 263.761C484.418 265.176 484.89 267.063 487.302 267.587C488.718 267.902 490.029 267.482 490.658 266.12C491.077 265.228 489.714 264.39 489.295 265.333C487.826 268.478 483.789 262.293 482.74 261.612C480.8 260.354 479.594 261.402 477.653 261.821C474.56 262.45 473.563 258.991 470.994 258.152C469.473 257.628 468.005 257.89 467.166 259.305C466.537 260.144 467.9 260.93 468.477 260.039Z" fill="#EC615B"/>
<path d="M664.436 351.663C692.28 351.663 720.124 351.663 748.021 351.663C749.017 351.663 749.017 350.091 748.021 350.091C720.177 350.091 692.332 350.091 664.436 350.091C663.439 350.091 663.439 351.663 664.436 351.663Z" fill="#E8E8E8"/>
<path d="M687.246 351.297C687.246 359.421 687.246 367.493 687.246 375.618C687.246 376.614 688.819 376.614 688.819 375.618C688.819 367.493 688.819 359.421 688.819 351.297C688.819 350.301 687.246 350.301 687.246 351.297Z" fill="#E8E8E8"/>
<path d="M726.154 350.51C726.154 339.188 726.154 327.866 726.154 316.544C726.154 315.548 724.581 315.548 724.581 316.544C724.581 327.866 724.581 339.188 724.581 350.51C724.581 351.559 726.154 351.559 726.154 350.51Z" fill="#E8E8E8"/>
<path d="M707.644 317.173C718.184 317.173 728.724 317.173 739.264 317.173C740.26 317.173 740.26 315.601 739.264 315.601C728.724 315.601 718.184 315.601 707.644 315.601C706.648 315.601 706.648 317.173 707.644 317.173Z" fill="#E8E8E8"/>
<path d="M686.931 128.421C686.931 138.223 686.931 148.025 686.931 157.774C686.931 158.77 688.505 158.77 688.505 157.774C688.505 147.972 688.505 138.17 688.505 128.421C688.505 127.425 686.931 127.425 686.931 128.421Z" fill="#E8E8E8"/>
<path d="M662.443 160.028C681.373 160.028 700.25 160.028 719.18 160.028C720.176 160.028 720.176 158.456 719.18 158.456C700.25 158.456 681.373 158.456 662.443 158.456C661.394 158.456 661.394 160.028 662.443 160.028Z" fill="#E8E8E8"/>
<path d="M718.656 159.818C718.656 166.318 718.656 172.818 718.656 179.317C718.656 180.313 720.229 180.313 720.229 179.317C720.229 172.818 720.229 166.318 720.229 159.818C720.229 158.822 718.656 158.822 718.656 159.818Z" fill="#E8E8E8"/>
<path d="M192.026 97.8621C210.536 97.8621 229.099 97.8621 247.61 97.8621C248.606 97.8621 248.606 96.2896 247.61 96.2896C229.099 96.2896 210.536 96.2896 192.026 96.2896C191.03 96.2896 190.977 97.8621 192.026 97.8621Z" fill="#E8E8E8"/>
<path d="M245.302 97.7047C245.302 102.737 245.302 107.769 245.302 112.801C245.302 113.797 246.876 113.797 246.876 112.801C246.876 107.769 246.876 102.737 246.876 97.7047C246.876 96.6564 245.302 96.6564 245.302 97.7047Z" fill="#E8E8E8"/>
<path d="M228.47 96.4467C228.47 88.3745 228.47 80.3547 228.47 72.2826C228.47 71.2867 226.897 71.2867 226.897 72.2826C226.897 80.3547 226.897 88.3745 226.897 96.4467C226.897 97.495 228.47 97.495 228.47 96.4467Z" fill="#E8E8E8"/>
<path d="M82.0646 259.41C94.8594 259.41 107.654 259.41 120.449 259.41C121.445 259.41 121.445 257.838 120.449 257.838C107.654 257.838 94.8594 257.838 82.0646 257.838C81.0683 257.838 81.0683 259.41 82.0646 259.41Z" fill="#E8E8E8"/>
<path d="M105.504 243.633C105.504 248.35 105.504 253.068 105.504 257.785C105.504 258.781 107.077 258.781 107.077 257.785C107.077 253.068 107.077 248.35 107.077 243.633C107.077 242.637 105.504 242.637 105.504 243.633Z" fill="#E8E8E8"/>
<path d="M96.2751 244.419C103.092 244.419 109.909 244.419 116.726 244.419C117.722 244.419 117.722 242.847 116.726 242.847C109.909 242.847 103.092 242.847 96.2751 242.847C95.2263 242.847 95.2263 244.419 96.2751 244.419Z" fill="#E8E8E8"/>
<path d="M327.21 574.906C344.305 574.906 361.399 574.906 378.494 574.906C379.49 574.906 379.49 573.334 378.494 573.334C361.399 573.334 344.305 573.334 327.21 573.334C326.161 573.334 326.161 574.906 327.21 574.906Z" fill="#E8E8E8"/>
<path d="M358.777 573.333C358.777 569.664 358.777 565.995 358.777 562.273C358.777 561.277 357.204 561.277 357.204 562.273C357.204 565.942 357.204 569.612 357.204 573.333C357.204 574.382 358.777 574.382 358.777 573.333Z" fill="#E8E8E8"/>
<path d="M354.006 562.326C361.085 562.326 368.216 562.326 375.295 562.326C376.292 562.326 376.292 560.754 375.295 560.754C368.216 560.754 361.085 560.754 354.006 560.754C353.009 560.754 353.009 562.326 354.006 562.326Z" fill="#E8E8E8"/>
<path d="M83.2707 547.335C100.365 547.335 117.46 547.335 134.555 547.335C135.551 547.335 135.551 545.762 134.555 545.762C117.46 545.762 100.365 545.762 83.2707 545.762C82.2744 545.762 82.2744 547.335 83.2707 547.335Z" fill="#E8E8E8"/>
<path d="M106.972 526.787C106.972 532.815 106.972 538.896 106.972 544.924C106.972 545.92 108.546 545.92 108.546 544.924C108.546 538.896 108.546 532.815 108.546 526.787C108.546 525.792 106.972 525.792 106.972 526.787Z" fill="#E8E8E8"/>
<path d="M106.972 524.429C100.156 524.429 93.2863 524.429 86.4694 524.429C85.4731 524.429 85.4731 526.001 86.4694 526.001C93.2863 526.001 100.156 526.001 106.972 526.001C107.969 526.001 107.969 524.429 106.972 524.429Z" fill="#E8E8E8"/>
<path d="M653.319 501.208C651.589 499.478 652.008 496.124 654.682 495.547C656.098 495.233 657.462 496.124 658.825 496.281C659.874 496.438 660.975 496.333 661.657 495.39C662.705 494.027 661.866 492.455 661.814 490.934C661.709 486.165 667.372 486.479 670.204 488.156C670.833 488.523 671.515 487.894 671.358 487.265C669.994 480.713 677.493 476.205 682.632 480.556C683.418 481.185 684.519 480.084 683.733 479.455C677.388 474.109 668.106 479.56 669.837 487.737C670.204 487.423 670.623 487.16 670.99 486.846C668.578 485.378 665.484 484.644 662.915 486.269C661.971 486.846 661.132 487.737 660.713 488.785C660.398 489.519 660.241 490.201 660.293 490.987C660.346 492.402 660.818 492.297 659.769 493.66C658.615 495.18 658.51 494.499 656.885 494.132C656.308 493.975 655.784 493.87 655.154 493.922C653.843 493.975 652.637 494.604 651.798 495.547C649.963 497.591 650.435 500.474 652.27 502.309C652.952 503.043 654.053 501.942 653.319 501.208Z" fill="#E8E8E8"/>
<path d="M663.544 502.781C662.967 498.011 670.781 497.959 672.983 494.656C673.56 493.818 673.769 492.874 674.137 491.983C674.818 490.358 676.024 489.31 677.807 488.838C680.691 488.104 683.68 489.415 686.302 490.515C687.246 490.882 687.665 489.362 686.722 488.995C681.897 487.004 675.395 485.483 672.721 491.354C671.777 493.451 671.462 494.604 669.26 495.705C667.949 496.334 666.586 496.701 665.327 497.434C663.334 498.588 661.761 500.37 662.024 502.781C662.128 503.777 663.702 503.777 663.544 502.781Z" fill="#E8E8E8"/>
<path d="M438.01 350.353C439.059 352.974 440.108 355.647 441.157 358.268C441.261 357.953 441.419 357.691 441.524 357.377C440.947 357.743 440.37 358.11 439.793 358.53C438.902 356.433 439.269 355.909 440.947 356.852C441.943 357.481 442.415 358.844 442.625 359.945C443.097 362.461 442.572 365.082 441.733 367.493C441.524 368.122 442.153 368.541 442.677 368.436C445.824 367.807 447.082 371.581 446.453 373.94C445.981 375.67 445.037 377.19 444.093 378.71C443.569 379.549 444.932 380.335 445.456 379.496C447.135 376.875 449.075 373.626 447.921 370.376C447.03 367.965 444.827 366.445 442.258 366.916C442.572 367.231 442.887 367.545 443.202 367.86C444.25 364.82 444.932 360.993 443.621 357.901C442.73 355.856 440.685 354.284 438.377 354.965C436.595 355.49 435.703 357.272 436.542 359.001C437.958 361.884 440.423 359.945 442.258 358.739C442.52 358.582 442.73 358.163 442.625 357.848C441.576 355.227 440.527 352.554 439.479 349.933C439.164 349.042 437.643 349.409 438.01 350.353Z" fill="#E8E8E8"/>
<path d="M127.895 102.37C126.899 99.8538 130.255 99.1724 131.828 100.063C133.034 100.745 133.82 101.95 134.554 103.051C135.236 104.047 135.97 105.148 136.337 106.301C136.757 107.297 136.704 108.24 136.18 109.184C134.345 110.023 133.401 109.813 133.348 108.607C132.876 106.878 134.712 105.724 136.285 105.777C137.91 105.829 139.431 106.773 140.532 107.926C142.42 109.918 143.102 112.539 142.84 115.212C143.311 115.055 143.836 114.95 144.308 114.793C143.259 113.272 144.255 111.648 145.671 110.861C146.877 110.232 148.241 110.39 149.394 111.019C151.282 112.014 152.593 113.849 153.799 115.526C154.376 116.365 155.739 115.579 155.162 114.74C153.17 111.962 150.181 108.083 146.248 108.974C143.364 109.603 141.057 112.958 142.944 115.579C143.416 116.26 144.308 115.946 144.413 115.159C144.885 110.18 141.214 103.366 135.341 104.204C133.243 104.519 131.723 105.987 131.723 108.136C131.723 109.813 132.772 111.543 134.554 111.648C136.652 111.805 138.068 109.761 138.173 107.874C138.33 105.253 136.285 102.422 134.712 100.483C133.243 98.7531 131.094 97.2854 128.786 98.1765C126.899 98.8579 125.64 100.745 126.427 102.684C126.741 103.733 128.262 103.313 127.895 102.37Z" fill="#E8E8E8"/>
<path d="M404.136 179.265C401.933 177.955 403.506 174.076 405.971 175.701C408.331 177.273 405.184 179.947 403.664 178.112C403.034 177.326 401.933 178.426 402.562 179.213C403.768 180.68 406.076 180.576 407.439 179.37C409.012 177.955 408.593 175.648 406.967 174.495C405.342 173.342 402.982 173.552 401.986 175.439C400.989 177.221 401.671 179.632 403.401 180.628C404.188 181.1 404.975 179.789 404.136 179.265Z" fill="#E8E8E8"/>
<path d="M571.202 64.6298C570.048 63.0049 572.041 60.5413 573.876 61.2751C573.719 61.1703 573.561 61.0131 573.404 60.9082C574.4 62.638 572.932 64.9967 570.992 64.8919C571.254 65.1016 571.516 65.2588 571.726 65.4685C571.411 64.5774 571.044 63.6339 570.73 62.7428C570.363 61.7993 568.842 62.2186 569.209 63.1621C569.524 64.0532 569.891 64.9967 570.205 65.8878C570.31 66.2547 570.572 66.4644 570.94 66.4644C572.618 66.5692 574.086 65.5209 574.82 64.0532C575.397 62.9001 575.711 60.4889 574.295 59.7551C571.202 58.235 568.003 62.8476 569.838 65.4161C570.415 66.2547 571.779 65.4685 571.202 64.6298Z" fill="#E8E8E8"/>
<path d="M613.886 142.573C613.624 141.367 614.515 140.057 615.721 139.795C616.822 139.585 617.819 140.476 618.081 141.472C618.763 143.831 615.669 144.932 614.2 143.307C613.519 142.573 612.418 143.674 613.099 144.408C615.826 147.448 621.07 144.46 619.392 140.581C618.658 138.851 616.822 137.751 614.987 138.327C613.047 138.956 611.893 141.001 612.313 142.992C612.627 143.988 614.148 143.569 613.886 142.573Z" fill="#E8E8E8"/>
<path d="M443.674 576.426C441.681 575.483 441.838 572.757 443.674 571.709C445.456 570.713 447.134 571.604 448.76 572.338C450.123 572.967 451.696 573.543 452.903 572.338C454.004 571.289 453.794 569.664 453.846 568.302C454.056 563.007 459.195 564.056 462.708 565.366C463.652 565.733 464.072 564.213 463.128 563.846C460.034 562.641 455.734 561.487 453.27 564.528C452.535 565.419 452.326 566.467 452.273 567.568C452.221 568.302 452.535 569.926 452.116 570.608C450.962 572.338 449.389 570.765 448.183 570.241C445.876 569.245 442.572 569.507 441.157 571.918C439.95 573.963 440.685 576.741 442.835 577.737C443.778 578.208 444.565 576.845 443.674 576.426Z" fill="#E8E8E8"/>
<path d="M469.053 452.881C467.48 472.118 468.319 491.407 471.57 510.434C471.728 511.43 473.248 511.011 473.091 510.015C469.892 491.145 469.053 471.96 470.627 452.881C470.731 451.885 469.158 451.885 469.053 452.881Z" fill="#E8E8E8"/>
<path d="M470.102 454.086C478.282 456.917 486.725 458.804 495.324 459.747C503.4 460.586 512.681 461.477 520.442 458.437C521.386 458.07 520.966 456.55 520.023 456.917C512.472 459.904 503.295 459.013 495.324 458.175C486.882 457.283 478.544 455.344 470.521 452.566C469.525 452.199 469.158 453.719 470.102 454.086Z" fill="#E8E8E8"/>
<path d="M482.582 456.235C479.856 451.989 477.601 447.482 476.028 442.659C475.294 440.353 474.664 438.047 474.192 435.688C473.93 434.273 473.668 432.857 473.511 431.442C473.511 431.285 472.934 427.563 474.035 428.087C474.559 428.35 475.451 427.878 475.189 427.196C472.305 419.91 470.732 412.258 470.574 404.395C470.312 404.657 470.05 404.919 469.788 405.181C470.207 405.339 470.574 405.496 470.994 405.653C471.518 406.282 472.514 405.601 472.305 404.867C471.256 401.512 470.574 398.053 470.364 394.488C470.312 393.65 470.469 384.215 471.046 384.372C471.675 384.529 472.095 383.953 471.99 383.428C470.994 377.505 470.522 371.477 470.784 365.502C470.889 362.514 471.151 359.579 471.623 356.644C472.042 353.97 472.252 350.72 474.35 348.781C473.93 348.729 473.511 348.676 473.091 348.624C477.496 356.906 479.96 365.974 482.215 374.989C484.418 383.848 486.358 392.811 488.036 401.827C491.444 420.435 493.594 439.252 494.538 458.175C494.591 459.17 496.164 459.17 496.111 458.175C495.167 439.147 493.017 420.173 489.557 401.407C487.826 392.077 485.833 382.799 483.526 373.574C481.271 364.716 478.807 355.91 474.455 347.785C474.192 347.313 473.563 347.313 473.196 347.628C471.413 349.253 470.889 351.402 470.469 353.656C469.893 356.853 469.473 360.155 469.263 363.405C468.844 370.219 469.263 377.034 470.417 383.795C470.731 383.481 471.046 383.166 471.361 382.852C468.319 382.013 468.686 388.565 468.634 390.033C468.424 395.17 469.211 400.307 470.732 405.234C471.151 404.972 471.623 404.71 472.042 404.448C471.361 403.661 470.784 403.399 469.735 403.504C469.316 403.556 468.949 403.819 468.949 404.29C469.106 412.258 470.679 420.068 473.616 427.511C473.983 427.196 474.402 426.934 474.769 426.62C469.525 424.104 472.567 435.95 472.986 437.732C474.559 444.546 477.391 451.046 481.167 456.917C481.796 457.86 483.159 457.074 482.582 456.235Z" fill="#E8E8E8"/>
<path d="M490.92 403.871C490.448 400.516 490.343 397.109 490.763 393.754C490.868 392.916 492.86 383.061 493.856 383.481C494.381 383.743 495.01 383.428 495.062 382.799C495.377 376.09 497.475 370.115 499.939 363.929C502.404 357.797 504.816 351.874 508.906 346.579C508.539 346.579 508.172 346.579 507.805 346.579C510.794 349.987 510.427 355.176 510.584 359.422C510.794 364.191 510.951 368.961 511.003 373.731C511.108 383.114 510.951 392.496 510.532 401.879C509.64 421.064 507.49 440.196 504.239 459.118C504.082 460.114 505.602 460.533 505.76 459.537C509.168 439.829 511.318 419.858 512.21 399.835C512.629 389.771 512.734 379.707 512.524 369.643C512.419 364.611 512.314 359.579 511.947 354.547C511.738 351.245 511.213 347.995 508.906 345.426C508.644 345.112 508.067 345.112 507.805 345.426C503.767 350.668 501.25 356.434 498.838 362.567C496.164 369.171 493.909 375.566 493.542 382.799C493.961 382.59 494.328 382.328 494.748 382.118C491.549 380.703 490.5 387.517 490.081 389.351C488.927 394.279 488.822 399.258 489.557 404.238C489.504 405.286 491.025 404.867 490.92 403.871Z" fill="#E8E8E8"/>
<path d="M472.305 511.745C488.717 517.039 506.494 516.777 522.749 511.011C523.693 510.696 523.274 509.176 522.33 509.491C506.336 515.152 488.875 515.414 472.724 510.225C471.728 509.91 471.308 511.43 472.305 511.745Z" fill="#E8E8E8"/>
<path d="M520.232 457.912C520.861 466.404 521.543 474.895 522.12 483.387C522.697 492.036 522.907 500.789 521.491 509.386C521.333 510.382 522.854 510.801 523.011 509.805C524.427 501.366 524.322 492.874 523.746 484.383C523.169 475.577 522.487 466.718 521.805 457.912C521.753 456.917 520.18 456.917 520.232 457.912Z" fill="#E8E8E8"/>
<path d="M240.374 525.215C251.071 519.501 261.82 513.788 272.518 508.075C277.552 508.913 284.473 510.014 292.759 511.167C309.329 513.474 336.02 517.195 369.789 518.191C403.559 519.187 428.886 517.038 438.535 516.094C461.765 513.893 475.818 510.905 487.302 507.813C497.737 504.982 506.337 501.89 512.472 499.531C517.506 501.208 523.117 503.462 529.094 506.555C532.503 508.337 535.649 510.171 538.428 512.006C528.57 514.836 515.303 518.453 499.52 522.122C466.274 529.88 440.79 533.549 435.441 534.335C404.87 538.686 361.294 544.819 306.497 538.476C289.455 536.432 266.75 532.71 240.374 525.215Z" fill="white"/>
<path d="M239.797 525.268C240.059 527.469 240.373 529.618 240.636 531.82C244.568 532.92 250.337 534.493 257.468 536.065C271.102 539.106 284.945 541.202 303.036 542.617C369.842 547.859 423.223 543.194 423.223 543.194C449.914 540.835 475.818 538.424 509.273 528.675C521.858 525.005 532.136 521.284 539.477 518.401C538.9 515.937 538.323 513.474 537.747 511.01C535.702 511.849 532.66 513.055 528.937 514.417C503.662 523.643 482.845 526.683 464.282 528.937C423.485 533.969 403.087 536.432 373.145 536.904C339.061 537.481 293.335 535.436 239.797 525.268Z" fill="#161616"/>
<path d="M239.429 526.263C239.429 527.941 239.429 529.618 239.429 531.295C239.429 532.291 241.003 532.291 241.003 531.295C241.003 529.618 241.003 527.941 241.003 526.263C241.003 525.215 239.429 525.215 239.429 526.263Z" fill="#161616"/>
<path d="M240.006 532.763C279.177 543.351 320.079 544.714 360.403 545.291C399.154 545.815 438.168 544.137 476.342 537.061C497.842 533.077 519.026 527.259 539.477 519.344C540.421 518.977 540.001 517.457 539.058 517.824C502.981 531.82 464.649 538.948 426.107 541.936C387.251 544.924 348.028 544.242 309.172 541.884C285.942 540.416 262.922 537.376 240.426 531.295C239.43 530.981 239.01 532.501 240.006 532.763Z" fill="#161616"/>
<path d="M539.477 518.244C539.792 516.042 539.896 513.788 539.687 511.587C539.582 510.591 538.009 510.591 538.113 511.587C538.271 513.683 538.271 515.78 537.956 517.824C537.799 518.768 539.32 519.24 539.477 518.244Z" fill="#161616"/>
<path d="M240.688 526.106C251.7 520.864 262.502 515.256 273.094 509.175C273.986 508.651 273.199 507.341 272.308 507.813C261.715 513.841 250.913 519.501 239.901 524.743C238.958 525.162 239.744 526.525 240.688 526.106Z" fill="#161616"/>
<path d="M272.675 508.442C335.233 520.341 400.255 522.542 463.338 513.527C480.118 511.115 496.793 507.394 512.314 500.475C513.258 500.055 512.419 498.693 511.528 499.112C497.579 505.297 482.687 508.914 467.638 511.273C452.326 513.684 436.857 515.151 421.388 516.147C389.978 518.139 358.41 517.615 327.105 514.627C308.962 512.897 290.976 510.277 273.094 506.922C272.098 506.765 271.679 508.285 272.675 508.442Z" fill="#161616"/>
<path d="M512 500.213C521.334 503.253 530.091 507.498 538.271 512.897C539.11 513.474 539.897 512.111 539.058 511.535C530.772 506.083 521.858 501.785 512.419 498.692C511.423 498.378 511.004 499.898 512 500.213Z" fill="#161616"/>
<path d="M240.793 525.268C259.303 531.505 278.6 534.441 298.002 536.013C317.666 537.586 337.488 538.058 357.204 538.058C396.375 538.058 435.651 535.384 474.245 528.36C496.163 524.377 517.873 518.978 539.005 511.902C539.949 511.587 539.529 510.067 538.585 510.381C501.407 522.752 462.761 529.985 423.747 533.55C384.943 537.114 345.72 537.324 306.812 535.017C284.578 533.655 262.292 530.876 241.107 523.748C240.268 523.433 239.849 524.953 240.793 525.268Z" fill="#161616"/>
<path d="M270.997 225.916C335.076 211.082 401.042 207.832 466.589 207.203C485.152 206.994 503.715 207.046 522.278 207.046C523.274 207.046 523.274 205.473 522.278 205.473C456.521 205.369 390.45 205.316 325.165 214.384C306.812 216.953 288.616 220.203 270.577 224.396C269.581 224.658 270.001 226.178 270.997 225.916Z" fill="#161616"/>
<path d="M525.529 205.631C526.21 230.004 526.63 258.257 526.472 289.655C526.368 307.896 526.21 299.194 524.585 375.094C523.641 418.809 523.379 435.268 520.285 460.533C518.292 476.992 515.88 490.515 514.097 499.688C527.626 503.462 540.526 507.027 551.852 510.172C569.366 515.046 574.033 516.357 581.007 517.353C591.81 518.82 604.971 519.03 620.178 515.937C625.789 470.02 628.883 430.865 630.666 400.883C637.063 295.525 631.085 246.987 628.778 229.952C625.632 206.994 621.751 188.124 618.762 175.072C607.541 177.221 598.417 179.527 592.019 181.257C570.048 187.285 552.639 194.361 538.061 200.337C532.66 202.591 528.308 204.425 525.529 205.631Z" fill="white"/>
<path d="M164.024 176.015C163.605 180.523 163.133 186.079 162.713 190.901C154.009 290.126 149.657 339.765 148.241 371.687C146.772 405.967 146.668 455.658 153.956 517.457C154.533 518.715 155.582 520.445 157.47 521.86C159.934 523.695 162.189 523.643 166.646 524.901C170.16 525.897 171.995 526.892 173.673 527.521C178.497 529.408 189.299 531.558 203.038 531.033C222.754 530.247 237.909 524.219 249.026 519.659C259.461 515.413 267.798 510.853 273.566 507.393C270.315 478.197 267.903 447.376 266.54 415.035C263.76 346.265 266.54 283.102 272.255 226.807C269.843 225.863 266.33 224.553 262.187 222.876C255.056 219.993 237.961 213.021 207.862 198.345C195.959 192.579 181.067 185.083 164.024 176.015Z" fill="white"/>
<path d="M618.448 174.862C619.077 178.321 619.916 183.091 620.86 188.805C622.171 196.929 625.108 216.166 627.257 241.431C629.46 267.744 629.984 290.388 630.037 308.419C630.194 345.006 628.831 371.844 625.265 434.429C624.164 453.928 622.538 482.495 620.493 517.352C622.643 517.195 624.74 517.09 626.89 516.933C627.939 508.232 629.355 495.285 630.456 479.455C631.295 468.028 631.662 459.694 632.029 450.731C633.865 409.636 634.179 410.108 634.808 393.335C636.067 360.26 635.805 334.837 635.595 311.984C635.438 296.206 634.966 281.268 634.022 251.39C633.34 231.052 632.659 213.021 628.044 189.591C626.838 183.615 625.684 178.636 624.845 175.229C622.695 175.124 620.598 175.019 618.448 174.862Z" fill="#161616"/>
<path d="M156.001 176.959C155.634 178.794 155.058 181.624 154.481 185.084C152.803 195.095 152.383 202.643 152.226 205.107C151.072 222.928 148.765 231.63 145.409 271.204C144.78 278.438 144.308 284.78 143.364 297.517C141.424 323.516 140.48 336.515 139.798 351.192C139.064 367.598 138.959 379.182 138.802 402.351C138.645 422.374 138.54 436.841 139.064 455.763C139.484 470.859 140.323 491.354 142.368 515.78C146.615 517.038 150.81 518.296 155.058 519.554C155.005 517.196 154.848 512.95 154.533 507.656C153.275 484.121 151.23 474.581 150.758 454.977C150.6 448.949 150.705 444.965 150.758 439.252C151.334 398.262 150.653 379.549 151.02 352.922C151.649 309.468 154.586 275.502 157.103 246.568C159.462 219.207 162.137 195.777 164.444 177.431C161.56 177.273 158.781 177.116 156.001 176.959Z" fill="#161616"/>
<path d="M524.27 206.521C526.21 244.995 525.948 283.574 525.424 322.048C524.847 359.683 524.585 397.423 521.701 435.006C520.075 456.392 517.506 477.725 513.52 498.849C513.311 499.845 514.831 500.264 515.041 499.268C522.015 462.315 524.585 424.732 525.738 387.202C526.944 348.885 527.469 310.464 527.416 272.095C527.364 250.237 526.997 228.379 525.896 206.521C525.791 205.525 524.218 205.525 524.27 206.521Z" fill="#161616"/>
<path d="M526.21 206.522C555.313 192.107 586.199 181.729 618.081 175.596C619.077 175.386 618.657 173.866 617.661 174.076C585.674 180.261 554.631 190.744 525.424 205.159C524.532 205.631 525.319 206.994 526.21 206.522Z" fill="#161616"/>
<path d="M617.556 175.124C626.209 218.682 628.831 263.184 628.778 307.529C628.673 351.873 626.051 396.113 623.901 440.405C622.643 465.932 621.384 491.406 620.126 516.933C620.073 517.929 621.647 517.929 621.699 516.933C623.954 471.75 626.314 426.567 628.359 381.331C630.351 336.987 631.61 292.537 628.621 248.245C626.943 223.557 623.954 198.974 619.13 174.757C618.867 173.709 617.347 174.128 617.556 175.124Z" fill="#161616"/>
<path d="M513.783 499.164C516.142 501.89 520.337 502.414 523.641 503.41C528.15 504.773 532.712 506.135 537.222 507.498C546.346 510.224 555.418 513.107 564.647 515.413C582.685 519.816 601.196 520.707 619.496 517.562C620.493 517.405 620.073 515.885 619.077 516.042C601.038 519.135 582.79 518.244 565.066 513.893C556.624 511.849 548.339 509.228 540.054 506.712C535.859 505.454 531.664 504.196 527.469 502.938C525.371 502.309 523.274 501.68 521.176 501.051C518.974 500.37 516.509 499.898 514.936 498.063C514.202 497.329 513.101 498.43 513.783 499.164Z" fill="#161616"/>
<path d="M618.605 175.177C620.545 175.648 622.485 176.12 624.478 176.592C625.474 176.854 625.894 175.334 624.898 175.072C622.957 174.6 621.017 174.128 619.025 173.657C618.028 173.447 617.609 174.967 618.605 175.177Z" fill="#161616"/>
<path d="M624.373 176.068C629.617 197.244 631.033 219.364 632.554 241.117C634.127 263.342 634.966 285.619 635.333 307.948C635.962 352.24 634.441 396.533 631.924 440.772C630.508 465.827 628.726 490.883 626.89 515.938C626.838 516.934 628.411 516.934 628.463 515.938C631.767 471.384 634.756 426.829 636.172 382.17C637.588 337.616 637.483 292.957 634.651 248.403C633.13 224.186 631.767 199.341 625.946 175.701C625.632 174.653 624.111 175.072 624.373 176.068Z" fill="#161616"/>
<path d="M620.965 517.824C623.272 517.615 625.527 517.405 627.834 517.195C628.83 517.09 628.83 515.518 627.834 515.623C625.527 515.832 623.272 516.042 620.965 516.252C619.968 516.357 619.968 517.929 620.965 517.824Z" fill="#161616"/>
<path d="M270.944 226.388C267.431 262.712 265.334 299.142 264.652 335.624C263.97 372.263 264.704 408.955 266.907 445.542C268.113 466.089 269.843 486.584 271.941 507.026C272.046 508.022 273.619 508.022 273.514 507.026C269.738 470.754 267.379 434.324 266.435 397.842C265.491 361.203 265.963 324.512 267.903 287.925C269.004 267.377 270.525 246.882 272.465 226.388C272.622 225.392 271.049 225.392 270.944 226.388Z" fill="#161616"/>
<path d="M165.021 177.273C199.053 196.196 234.396 212.759 270.682 226.859C271.626 227.226 272.046 225.706 271.102 225.339C234.92 211.292 199.734 194.78 165.807 175.91C164.916 175.386 164.129 176.749 165.021 177.273Z" fill="#161616"/>
<path d="M163.395 176.906C157.575 221.251 153.537 265.857 151.335 310.569C149.132 355.28 148.818 400.044 150.286 444.755C151.125 469.863 152.541 494.97 154.533 520.026C154.638 521.021 156.211 521.021 156.106 520.026C152.541 475.419 150.863 430.655 150.968 385.944C151.072 341.18 153.065 296.469 156.841 251.862C158.991 226.807 161.717 201.856 164.968 176.906C165.073 175.91 163.5 175.91 163.395 176.906Z" fill="#161616"/>
<path d="M154.481 521.021C183.688 536.904 218.664 533.497 248.344 520.917C257.258 517.143 265.858 512.582 274.143 507.603C274.982 507.079 274.196 505.716 273.357 506.24C245.722 522.961 213.316 534.65 180.647 528.569C171.785 526.945 163.185 523.957 155.267 519.659C154.428 519.187 153.589 520.55 154.481 521.021Z" fill="#161616"/>
<path d="M142.892 516.672C146.563 518.401 150.338 519.869 154.166 521.179C155.11 521.494 155.53 519.974 154.586 519.659C150.863 518.401 147.244 516.986 143.679 515.309C142.735 514.889 141.948 516.252 142.892 516.672Z" fill="#161616"/>
<path d="M154.953 177.273C149.29 221.198 144.57 265.228 141.476 309.416C138.435 353.393 136.967 397.476 137.911 441.558C138.435 466.508 139.693 491.459 141.843 516.304C141.948 517.3 143.521 517.3 143.417 516.304C139.641 472.222 138.54 427.982 139.589 383.742C140.585 339.66 143.626 295.63 147.979 251.705C150.443 226.859 153.327 202.014 156.526 177.221C156.683 176.277 155.11 176.277 154.953 177.273Z" fill="#161616"/>
<path d="M155.844 178.374C158.886 177.745 161.927 177.535 165.073 177.692C166.07 177.745 166.07 176.172 165.073 176.12C161.822 175.963 158.624 176.225 155.425 176.854C154.429 177.063 154.848 178.583 155.844 178.374Z" fill="#161616"/>
<path d="M544.354 210.086C546.556 270.89 546.451 331.745 543.934 392.549C543.252 409.584 542.361 426.567 541.26 443.603C541.207 444.598 542.781 444.598 542.833 443.603C546.661 382.904 548.129 322.048 547.238 261.193C546.975 244.157 546.556 227.122 545.927 210.086C545.874 209.09 544.301 209.09 544.354 210.086Z" fill="#161616"/>
<path d="M569.786 188.281C571.883 230.581 572.932 272.986 572.88 315.339C572.88 357.691 571.831 400.096 569.733 442.397C568.58 466.351 567.059 490.253 565.224 514.155C565.172 515.151 566.745 515.151 566.797 514.155C570.048 471.907 572.25 429.607 573.456 387.254C574.61 344.902 574.767 302.497 573.876 260.144C573.352 236.189 572.513 212.235 571.359 188.281C571.307 187.285 569.733 187.285 569.786 188.281Z" fill="#161616"/>
<path d="M600.304 178.951C603.241 222.928 605.024 267.011 605.496 311.145C605.968 355.438 605.234 399.677 603.241 443.917C602.14 468.71 600.619 493.503 598.679 518.244C598.626 519.24 600.199 519.24 600.252 518.244C603.608 474.266 605.81 430.184 606.702 386.101C607.593 341.862 607.279 297.57 605.705 253.277C604.814 228.484 603.556 203.691 601.878 178.898C601.825 177.902 600.252 177.902 600.304 178.951Z" fill="#161616"/>
<path d="M538.953 463.259C537.746 476.992 535.544 490.62 532.345 504.039C532.136 505.035 533.604 505.454 533.866 504.458C537.117 490.882 539.32 477.149 540.526 463.259C540.63 462.263 539.057 462.263 538.953 463.259Z" fill="#161616"/>
<path d="M182.22 187.495C175.928 231.472 173.254 275.921 172.834 320.318C172.467 364.977 174.302 409.584 177.029 454.138C178.55 479.351 180.333 504.511 182.115 529.723C182.168 530.719 183.741 530.719 183.689 529.723C180.542 485.326 177.396 440.929 175.666 396.48C173.935 352.135 173.673 307.686 176.242 263.341C177.711 238.129 180.123 212.917 183.689 187.914C183.898 186.97 182.378 186.499 182.22 187.495Z" fill="#161616"/>
<path d="M212.372 202.171C208.387 244.681 205.712 287.348 204.821 330.068C203.982 372.735 204.978 415.402 208.492 457.965C210.432 481.604 213.159 505.14 216.724 528.57C216.882 529.566 218.402 529.146 218.245 528.15C211.848 485.903 208.177 443.235 206.814 400.516C205.45 358.373 206.237 316.125 208.544 274.034C209.855 250.08 211.69 226.126 213.945 202.224C214.05 201.175 212.477 201.175 212.372 202.171Z" fill="#161616"/>
<path d="M242.576 214.699C237.437 254.378 234.448 294.32 233.661 334.314C232.875 374.308 234.238 414.354 237.752 454.191C239.744 476.415 242.366 498.535 245.67 520.603C245.827 521.599 247.348 521.179 247.19 520.183C241.265 480.661 237.489 440.877 235.864 400.988C234.238 361.204 234.815 321.314 237.489 281.53C239.01 259.201 241.212 236.871 244.096 214.647C244.306 213.703 242.733 213.703 242.576 214.699Z" fill="#161616"/>
<path opacity="0.12" d="M588.558 182.515C594.379 206.26 599.098 234.093 600.671 265.281C604.604 344.64 585.936 409.479 569.681 451.098C558.197 469.496 546.766 487.894 535.282 506.293C546.451 511.115 563.021 516.723 583.682 518.401C597.945 519.554 610.32 518.506 619.968 516.933C620.073 514.627 621.804 479.56 621.909 477.254C627.624 359.788 627.991 351.768 628.201 343.696C629.145 310.831 628.988 263.656 623.377 204.792C621.437 194.78 619.496 184.769 617.556 174.81C607.96 177.326 598.259 179.894 588.558 182.515Z" fill="#3F3F3F"/>
<path opacity="0.13" d="M222.597 208.147C221.234 213.86 219.189 222.404 216.777 232.835C206.079 279.381 198.214 313.609 194.019 345.112C186.573 400.621 179.389 454.4 210.012 498.535C218.927 511.377 228.68 520.026 235.182 525.163C228.89 527.626 221.077 529.88 211.952 530.981C186.573 533.969 166.227 525.739 156.264 520.812C152.488 486.06 149.866 448.844 149.027 409.479C147.14 322.363 154.219 244.052 165.021 176.697C184.161 187.18 203.353 197.663 222.597 208.147Z" fill="#3F3F3F"/>
<path d="M167.59 151.746C166.908 152.271 167.433 154.315 168.377 157.827C168.744 159.19 169.111 160.238 169.321 160.919C168.901 163.75 168.534 166.58 168.114 169.411C167.275 169.516 165.126 169.987 163.133 171.717C161.298 173.342 160.563 175.229 160.301 176.068C161.979 176.225 164.024 176.592 166.227 177.273C169.425 178.269 171.942 179.632 173.778 180.785C173.778 181.414 173.883 182.62 174.722 183.511C175.456 184.245 176.347 184.35 176.872 184.454C178.759 184.769 181.014 185.188 183.898 185.817C185.157 186.551 187.254 187.757 189.824 189.172C198.528 193.889 201.674 194.676 210.379 199.288C215.99 202.276 215.518 202.381 219.451 204.268C225.481 207.203 230.672 208.933 234.186 209.929C235.654 208.304 238.014 205.159 239.325 200.599C240.373 196.982 240.321 193.837 240.111 191.793C241.003 192.264 242.418 192.789 244.044 192.579C248.239 192.107 250.913 187.337 251.752 183.93C252.486 180.942 251.805 179.055 251.228 175.544C249.917 167.681 248.763 160.657 252.014 156.202C254.741 152.48 260.352 150.75 264.862 145.771C265.281 145.299 266.068 144.408 265.806 143.989C265.334 143.202 261.663 144.565 259.88 145.352C258.726 145.876 250.074 149.859 247.452 158.875C247.033 160.29 246.98 164.379 246.928 172.503C246.876 178.426 246.98 181.781 244.621 183.721C243.415 184.716 241.632 185.293 240.006 184.926C237.594 184.402 236.441 182.043 235.392 180.471C232.665 176.33 228.785 174.6 224.013 172.241C220.29 170.407 217.091 169.725 210.641 168.31C204.559 167 202.723 167.157 200.101 165.217C197.165 163.016 195.539 159.923 194.7 158.194C193.861 156.569 192.55 154 191.974 150.331C191.659 148.182 191.711 146.662 191.187 146.557C190.243 146.347 189.771 150.698 186.572 152.218C184.632 153.162 183.374 152.271 179.965 152.375C177.763 152.428 175.246 152.9 172.414 154.158C171.47 153.476 168.534 151.065 167.59 151.746Z" fill="black"/>
<path d="M169.163 168.992C168.062 160.343 175.928 152.48 184.632 153.371C192.865 154.21 198.319 164.222 198.056 171.717C198.004 172.713 199.577 172.713 199.63 171.717C199.892 163.435 193.704 152.533 184.632 151.799C175.089 151.013 166.384 159.452 167.59 168.992C167.748 169.935 169.321 169.988 169.163 168.992Z" fill="black"/>
<path d="M169.006 174.443C172.204 180.681 179.074 185.084 186.258 184.14C192.812 183.249 198.371 177.955 199.367 171.403C199.524 170.407 198.004 169.988 197.846 170.984C196.955 176.959 192.026 181.781 186.048 182.568C179.493 183.459 173.306 179.37 170.369 173.657C169.897 172.766 168.534 173.552 169.006 174.443Z" fill="black"/>
<path d="M174.669 182.043C174.512 180.051 180.175 179.213 181.591 178.898C184.16 178.322 186.782 178.007 189.404 178.007C194.281 178.007 198.948 179.265 203.09 181.834C203.929 182.358 204.768 180.995 203.877 180.471C198.528 177.169 192.288 176.015 186.101 176.592C182.849 176.906 179.651 177.588 176.557 178.636C174.879 179.213 172.886 179.947 173.044 182.043C173.149 183.039 174.774 183.039 174.669 182.043Z" fill="black"/>
<path d="M197.217 163.907C200.521 167.891 205.87 168.834 210.641 169.883C216.986 171.35 223.541 172.661 229.099 176.173C240.583 183.406 242.733 199.184 233.661 209.3C232.98 210.034 234.081 211.187 234.763 210.401C242.838 201.438 243.048 187.704 234.71 178.794C230.305 174.076 224.013 171.612 217.878 169.988C211.638 168.363 202.671 168.101 198.266 162.754C197.689 162.02 196.588 163.121 197.217 163.907Z" fill="black"/>
<path d="M233.923 191.321C231.302 187.861 226.687 186.656 222.649 188.333C217.668 190.377 217.406 196.51 217.982 201.175C218.087 202.171 219.66 202.171 219.556 201.175C219.084 197.506 219.031 191.845 222.807 190.01C226.058 188.386 230.305 189.224 232.508 192.16C233.137 192.946 234.5 192.16 233.923 191.321Z" fill="black"/>
<path d="M219.346 200.441C216.462 198.24 213.473 196.353 209.75 197.349C209.33 197.454 209.121 197.925 209.225 198.292C210.169 201.961 215.937 203.482 218.979 204.792C223.646 206.836 228.418 208.566 233.242 210.086C234.186 210.401 234.605 208.88 233.661 208.566C229.781 207.36 226.005 206.05 222.23 204.477C220.185 203.639 218.192 202.748 216.2 201.804C214.417 200.966 211.218 199.97 210.694 197.873C210.536 198.187 210.327 198.502 210.169 198.816C213.42 197.925 216.095 199.865 218.507 201.752C219.346 202.433 220.132 201.07 219.346 200.441Z" fill="black"/>
<path d="M173.253 181.886C175.298 185.24 179.441 185.817 183.059 186.341C188.408 187.127 193.756 187.127 199.105 186.551C200.101 186.446 200.101 184.874 199.105 184.978C194.805 185.45 190.505 185.555 186.205 185.136C182.587 184.769 176.767 184.559 174.564 181.1C174.092 180.208 172.729 180.995 173.253 181.886Z" fill="black"/>
<path d="M161.035 176.539C161.717 172.87 164.916 170.983 168.482 170.826C168.219 170.616 167.957 170.459 167.747 170.249C168.01 171.507 168.377 172.713 168.901 173.866C169.268 174.81 170.789 174.39 170.422 173.447C169.95 172.241 169.583 171.088 169.268 169.83C169.216 169.516 168.849 169.253 168.534 169.253C164.339 169.463 160.354 171.769 159.567 176.12C159.357 177.116 160.878 177.535 161.035 176.539Z" fill="black"/>
<path d="M170.16 160.29C169.373 158.036 168.796 155.678 168.586 153.266C168.586 153.057 168.534 152.847 168.534 152.637C168.482 152.166 168.534 152.218 168.744 152.795C169.216 153.109 169.688 153.476 170.16 153.843C170.946 154.524 171.68 155.258 172.309 156.045C172.991 156.831 174.092 155.678 173.411 154.944C172.519 153.895 168.796 149.597 167.223 151.275C166.436 152.113 167.013 154.053 167.171 154.996C167.433 156.936 167.957 158.875 168.586 160.71C169.006 161.653 170.527 161.286 170.16 160.29Z" fill="black"/>
<path d="M187.883 152.952C188.355 152.113 188.827 151.275 189.352 150.436C189.561 150.069 189.771 149.755 189.928 149.388C190.243 148.864 190.243 148.392 190.872 148.549C191.606 148.706 191.344 150.436 191.344 151.065C191.344 152.061 191.397 153.057 191.397 154.053C191.397 155.049 192.97 155.049 192.97 154.053C192.97 152.428 193.022 150.803 192.917 149.178C192.865 148.13 192.498 146.977 191.344 146.61C190.296 146.295 189.561 146.977 189.037 147.763C188.146 149.178 187.359 150.698 186.52 152.113C185.996 153.057 187.359 153.843 187.883 152.952Z" fill="black"/>
<path d="M238.118 187.233C238.433 191.216 242.89 192.527 245.984 190.587C250.546 187.757 251.542 181.362 250.966 176.539C250.179 169.935 248.606 163.802 250.861 157.25C253.011 151.013 258.359 145.928 265.124 145.509C266.12 145.456 266.12 143.884 265.124 143.936C255.895 144.513 249.602 152.375 248.291 161.077C247.505 166.266 248.658 171.088 249.34 176.173C249.76 179.527 249.55 182.725 248.029 185.817C247.347 187.128 246.404 188.438 245.145 189.277C243.205 190.482 239.849 190.115 239.639 187.285C239.639 186.237 238.066 186.184 238.118 187.233Z" fill="black"/>
<path d="M238.958 190.063C240.583 194.413 246.246 192.474 248.711 189.958C252.749 185.869 251.857 179.055 251.543 173.866C251.49 172.87 249.917 172.87 249.969 173.866C250.179 177.168 250.494 180.733 249.917 184.035C249.655 185.607 249.078 187.075 248.029 188.333C246.876 189.748 241.842 193.313 240.478 189.643C240.111 188.7 238.591 189.119 238.958 190.063Z" fill="black"/>
<path d="M265.176 143.884C259.198 146.19 253.168 149.44 250.756 155.73C247.977 162.964 249.969 170.826 249.812 178.322C249.812 179.318 251.385 179.318 251.385 178.322C251.543 171.77 249.969 165.06 251.543 158.561C253.273 151.432 259.198 147.868 265.596 145.404C266.54 145.037 266.12 143.517 265.176 143.884Z" fill="black"/>
<path d="M263.97 144.775C258.464 147.291 253.43 151.694 250.861 157.303C249.497 160.238 249.707 163.488 249.707 166.685C249.707 170.774 249.864 174.915 250.179 179.003C250.232 179.999 251.805 179.999 251.752 179.003C251.542 175.701 251.385 172.451 251.333 169.149C251.28 165.689 250.808 161.601 252.119 158.351C254.374 152.847 259.461 148.601 264.757 146.138C265.701 145.718 264.914 144.356 263.97 144.775Z" fill="black"/>
<path d="M172.257 163.75C173.725 166.318 177.448 165.427 177.815 162.596C177.868 162.072 177.081 162.125 177.029 162.596C176.767 164.745 174.04 165.165 172.939 163.383C172.676 162.911 171.995 163.33 172.257 163.75Z" fill="white"/>
<path d="M183.374 161.706C184.999 164.484 189.142 163.383 189.194 160.186C189.194 159.661 188.408 159.661 188.408 160.186C188.355 162.649 185.314 163.435 184.055 161.339C183.793 160.867 183.111 161.234 183.374 161.706Z" fill="white"/>
<path d="M180.228 165.165C180.595 166.685 180.28 168.205 179.336 169.463C179.022 169.883 179.703 170.249 180.018 169.883C181.067 168.467 181.381 166.685 181.014 164.955C180.857 164.484 180.07 164.693 180.228 165.165Z" fill="white"/>
<path d="M180.542 165.112C180.385 167.104 181.486 168.991 183.321 169.83C183.793 170.04 184.16 169.358 183.741 169.148C182.168 168.415 181.171 166.842 181.329 165.112C181.329 164.588 180.542 164.588 180.542 165.112Z" fill="white"/>
<path d="M167.748 169.778C172.362 169.411 175.299 173.185 178.392 175.963C178.759 176.277 179.336 175.753 178.969 175.386C175.718 172.451 172.572 168.625 167.748 168.939C167.276 168.992 167.276 169.778 167.748 169.778Z" fill="white"/>
<path d="M176.347 179.003C182.273 175.229 189.299 173.971 196.169 175.491C196.641 175.596 196.85 174.862 196.378 174.757C189.299 173.237 182.063 174.495 175.98 178.374C175.508 178.583 175.928 179.265 176.347 179.003Z" fill="white"/>
<path d="M191.239 186.184C196.116 186.498 200.731 184.978 204.454 181.781C204.821 181.466 204.296 180.89 203.877 181.204C200.311 184.244 195.906 185.712 191.239 185.398C190.768 185.398 190.768 186.184 191.239 186.184Z" fill="white"/>
<path d="M189.824 148.968C188.67 150.907 188.408 153.161 189.09 155.31C189.247 155.782 189.981 155.573 189.824 155.101C189.194 153.161 189.404 151.117 190.453 149.387C190.768 148.916 190.086 148.496 189.824 148.968Z" fill="white"/>
<path d="M169.058 153.843C170.317 154.629 171.103 155.835 171.418 157.25C171.523 157.722 172.257 157.512 172.152 157.04C171.785 155.415 170.841 154.053 169.425 153.161C169.006 152.899 168.639 153.581 169.058 153.843Z" fill="white"/>
<path d="M196.798 162.23C197.794 163.435 198.948 164.484 200.259 165.27C200.678 165.532 201.098 164.851 200.678 164.588C199.42 163.802 198.266 162.806 197.375 161.653C197.008 161.286 196.483 161.863 196.798 162.23Z" fill="white"/>
<path d="M229.152 187.966C228.05 185.188 222.754 187.075 221.024 188.176C217.93 190.22 216.567 194.047 217.72 197.559C217.878 198.03 218.612 197.821 218.454 197.349C217.563 194.571 218.297 191.583 220.499 189.539C221.443 188.648 222.702 188.019 223.96 187.704C224.852 187.442 227.893 186.866 228.365 188.124C228.575 188.648 229.309 188.438 229.152 187.966Z" fill="white"/>
<path d="M218.35 197.611C214.26 195.881 209.907 195.724 205.66 197.034C205.188 197.192 205.398 197.926 205.87 197.768C210.012 196.458 214.155 196.668 218.14 198.345C218.612 198.555 218.822 197.768 218.35 197.611Z" fill="white"/>
<path d="M362.395 415.612C360.245 420.749 360.246 424.575 359.931 434.429C359.564 446.59 358.515 458.698 358.41 470.807C358.305 481.028 358.148 496.491 357.729 516.619C374.509 517.562 393.071 517.772 413.207 516.776C432.4 515.833 450.123 513.893 466.117 511.482C458.566 485.955 453.584 467.347 450.019 452.933C448.131 445.227 445.352 433.696 437.696 420.225C433.501 412.834 429.148 407.278 425.95 403.556C425.111 402.822 406.6 387.254 385.206 394.593C384.157 395.012 368.583 400.673 362.395 415.612Z" fill="#EC615B"/>
<path d="M393.281 446.171C396.794 452.408 400.308 458.646 403.769 464.884C404.241 465.775 405.604 464.988 405.132 464.097C401.619 457.86 398.105 451.622 394.645 445.385C394.173 444.494 392.809 445.28 393.281 446.171Z" fill="#C64F4F"/>
<path d="M392.862 445.856C400.937 455.92 405.604 467.399 408.121 479.979C410.481 491.878 412.001 503.934 412.893 516.042C412.945 517.038 414.518 517.038 414.466 516.042C413.522 503.619 411.949 491.196 409.537 478.983C407.02 466.351 402.091 454.819 394.015 444.755C393.386 443.917 392.232 445.07 392.862 445.856Z" fill="#C64F4F"/>
<path opacity="0.19" d="M405.499 393.387C407.334 397.056 409.956 402.455 412.893 408.954C421.44 427.929 430.302 447.952 435.021 472.588C436.962 482.548 438.797 496.962 438.01 514.941C442.415 514.731 447.082 514.364 451.959 513.84C456.835 513.316 461.502 512.687 465.907 511.953C464.544 507.341 462.341 500.002 459.877 490.934C453.007 465.565 452.064 457.65 446.191 440.929C441.838 428.506 437.801 420.067 431.98 411.995C426.736 404.709 421.807 400.148 415.567 396.951C411.687 394.959 408.068 393.963 405.499 393.387Z" fill="#3F3F3F"/>
<path opacity="0.11" d="M392.967 446.433C395.012 454.086 396.794 463.206 397.633 473.48C399.102 491.249 397.214 506.398 394.907 517.72C400.937 517.353 406.915 516.986 412.945 516.619C412.316 504.72 410.953 494.709 409.642 487.108C406.338 467.767 402.877 460.586 400.098 455.973C397.476 451.727 394.854 448.53 392.967 446.433Z" fill="#3F3F3F"/>
<path d="M325.794 326.294C324.064 327.447 323.015 329.649 320.97 333.999C319.292 337.563 318.505 340.342 317.247 344.482C313.786 356.224 314.153 354.232 312.947 358.687C311.374 364.61 308.542 374.989 306.969 388.67C305.448 401.931 305.763 412.152 305.815 414.616C306.392 430.184 309.119 441.768 310.954 449.211C314.205 462.577 318.558 473.689 327.21 495.862C329.098 500.632 330.671 504.563 331.772 507.288C330.985 507.393 329.727 507.551 328.206 507.76C320.288 508.704 319.187 508.494 315.988 509.176C311.898 510.067 308.227 510.958 306.812 514.05C306.182 515.466 305.92 517.457 306.707 518.139C307.703 518.977 309.643 517.09 312.999 515.99C315.831 515.099 318.348 515.151 320.078 515.413C318.715 518.086 317.928 520.497 317.457 522.227C316.303 526.211 315.411 529.461 316.88 531.767C317.614 532.92 319.03 533.969 320.183 533.654C320.812 533.497 321.389 532.92 322.962 528.779C324.483 524.638 324.588 523.328 325.847 521.703C326.948 520.34 328.206 519.606 329.045 519.187C328.626 520.497 328.154 522.437 327.944 524.796C327.839 526.211 327.682 527.521 327.944 529.199C328.154 530.719 328.626 533.969 331.038 535.751C331.457 536.065 333.188 537.376 334.237 536.694C335.128 536.17 334.866 534.702 335.233 529.985C335.547 526.001 335.862 524.9 336.124 524.271C336.806 522.437 337.855 521.127 338.641 520.34C338.379 524.114 338.432 527.259 338.536 529.566C338.746 533.287 339.113 534.964 340.319 536.013C341.001 536.589 342.155 537.166 343.098 536.747C344.042 536.327 344.357 535.017 344.619 533.392C345.773 527.259 345.091 525.477 346.402 522.384C346.926 521.179 347.503 519.711 348.919 518.663C351.908 516.461 356.155 517.772 356.732 517.929C359.249 518.715 360.193 520.078 361.452 519.502C362.5 519.03 363.077 517.51 363.13 516.252C363.182 513.159 359.774 510.8 356.837 508.861C355.369 507.865 353.166 506.555 350.23 505.506C347.661 500.422 344.409 493.031 341.735 483.649C339.952 477.359 339.113 472.536 338.327 467.976C335.547 451.989 336.544 445.856 333.45 429.974C332.716 426.148 331.982 423.107 331.562 421.378C331.772 418.757 332.139 414.668 332.663 409.689C334.394 393.44 335.547 383.271 339.061 371.32C341.84 361.937 344.672 354.232 344.672 354.232C348.237 344.64 349.391 343.329 348.971 340.237C347.503 330.487 332.244 321.996 325.794 326.294Z" fill="white"/>
<path d="M321.756 331.273C312.423 352.817 306.55 375.828 305.291 399.31C303.98 423.265 308.123 446.695 315.884 469.339C320.288 482.286 325.637 494.866 331.09 507.446C331.51 508.389 332.821 507.551 332.454 506.66C323.015 484.854 313.786 462.735 309.381 439.357C305.029 416.293 305.92 392.444 310.954 369.538C313.786 356.696 317.876 344.168 323.12 332.112C323.487 331.169 322.176 330.33 321.756 331.273Z" fill="#161616"/>
<path d="M341.316 361.203C334.709 381.174 331.248 402.088 330.881 423.107C330.881 424.103 332.454 424.103 332.454 423.107C332.821 402.193 336.282 381.488 342.836 361.623C343.151 360.679 341.63 360.26 341.316 361.203Z" fill="#161616"/>
<path d="M325.375 413.567C330.042 420.067 331.929 427.825 333.031 435.582C334.184 443.497 334.709 451.517 335.862 459.432C338.169 475.524 341.945 491.563 349.548 505.978C350.02 506.869 351.384 506.083 350.912 505.192C342.994 490.201 339.271 473.48 337.068 456.811C335.128 442.187 335.705 425.256 326.738 412.781C326.161 411.995 324.798 412.781 325.375 413.567Z" fill="#161616"/>
<path d="M330.881 506.712C326.004 506.974 321.127 507.446 316.355 508.337C312.947 509.019 309.329 510.119 306.969 512.845C305.606 514.47 303.875 518.349 306.864 519.449C308.175 519.921 309.329 519.03 310.43 518.401C313.157 516.829 315.988 515.204 319.239 516.095C320.236 516.357 320.655 514.837 319.659 514.575C316.985 513.841 314.573 514.47 312.16 515.675C311.426 516.042 310.745 516.409 310.063 516.829C309.643 517.038 309.276 517.3 308.857 517.562C308.385 516.724 307.861 515.885 307.389 515.046C307.493 513.736 310.115 512.216 311.059 511.692C313.629 510.329 316.618 509.857 319.449 509.438C323.277 508.861 327.105 508.494 330.933 508.285C331.929 508.232 331.929 506.66 330.881 506.712Z" fill="#161616"/>
<path d="M326.581 511.377C322.438 512.059 319.03 514.889 317.457 518.715C315.779 522.699 314.363 528.622 316.303 532.711C317.771 535.803 321.389 536.904 322.753 533.13C323.592 530.771 323.435 528.203 324.274 525.844C325.322 522.909 327.105 520.393 329.727 518.663C330.566 518.086 329.779 516.724 328.94 517.3C326.476 518.925 324.641 521.127 323.434 523.8C322.805 525.163 322.333 526.578 322.019 528.046C321.756 529.251 321.599 535.332 318.715 533.549C317.09 532.553 316.932 529.356 316.985 527.731C317.09 525.32 317.719 522.542 318.505 520.236C319.816 516.357 322.91 513.579 326.948 512.897C327.997 512.74 327.577 511.22 326.581 511.377Z" fill="#161616"/>
<path d="M331.51 515.256C328.259 517.353 327.105 521.913 326.791 525.582C326.476 529.513 327.577 533.759 330.514 536.537C332.244 538.162 334.918 539.001 335.39 535.961C336.177 530.876 334.132 523.695 339.69 520.655C340.582 520.183 339.795 518.82 338.904 519.292C336.911 520.393 335.653 522.175 334.866 524.324C333.765 527.469 334.394 530.667 333.922 533.916C333.712 535.384 333.293 536.957 331.667 535.436C331.091 534.912 330.566 534.231 330.147 533.549C329.15 531.977 328.574 530.195 328.416 528.36C328.049 524.691 328.993 518.82 332.349 516.619C333.136 516.042 332.349 514.679 331.51 515.256Z" fill="#161616"/>
<path d="M338.956 519.449C337.96 523.223 337.016 527.154 337.645 531.086C337.907 532.973 339.008 537.585 341.421 538.057C344.147 538.581 345.248 533.759 345.511 531.977C346.087 528.098 345.353 523.433 348.395 520.445C349.129 519.711 348.028 518.61 347.294 519.344C343.623 522.961 344.881 528.203 343.78 532.815C343.413 534.493 342.364 537.009 340.634 535.069C339.69 534.073 339.428 532.134 339.218 530.823C338.694 527.154 339.585 523.485 340.529 519.921C340.739 518.925 339.218 518.506 338.956 519.449Z" fill="#161616"/>
<path d="M350.283 506.869C353.376 508.127 356.575 509.49 358.987 511.901C360.088 513.002 361.452 514.679 361.766 516.252C362.553 520.603 359.302 517.824 358.096 517.3C354.792 515.833 348.238 516.881 346.35 520.236C345.878 521.127 347.241 521.913 347.713 521.022C348.709 519.187 351.436 518.716 353.324 518.453C354.478 518.296 355.789 518.191 356.89 518.506C358.148 518.873 358.935 519.974 360.141 520.34C361.871 520.865 363.182 519.659 363.444 517.982C363.916 515.256 361.557 512.216 359.721 510.434C357.152 507.97 353.848 506.607 350.597 505.297C349.758 504.982 349.391 506.503 350.283 506.869Z" fill="#161616"/>
<path opacity="0.13" d="M339.69 344.273C333.66 344.64 330.042 360.05 328.049 368.594C325.794 378.186 323.749 391.395 324.169 410.632C324.536 427.825 326.738 440.929 327.472 445.489C330.776 465.093 335.967 481.552 341.054 494.447C342.732 499.164 344.357 503.882 346.035 508.547C345.091 512.426 344.147 516.409 343.256 520.55C342.102 526.001 341.054 531.348 340.215 536.485C341.211 536.59 342.574 536.537 343.518 535.594C344.724 534.388 344.567 532.449 344.619 530.771C344.672 529.199 344.829 521.598 348.238 518.768C350.335 517.038 353.691 517.038 355.998 517.877C358.358 518.768 359.407 520.498 360.98 519.974C362.186 519.607 363.025 518.139 363.182 516.986C363.707 513.159 356.365 509.228 355.159 508.599C352.8 507.341 351.698 507.184 350.178 505.611C348.29 503.62 347.661 501.261 347.399 500.212C343.046 483.649 340.896 484.697 337.96 465.67C335.757 451.308 337.173 452.146 334.918 440.72C333.345 432.647 332.034 429.345 331.615 422.374C331.143 414.721 332.034 408.745 332.978 403.451C336.911 381.803 344.462 355.595 346.297 349.357C344.619 346.736 342.312 344.116 339.69 344.273Z" fill="#3F3F3F"/>
<path d="M446.715 128.788C445.089 128.735 443.831 131.671 443.516 132.457C443.044 133.61 442.31 135.864 442.835 139.061C442.835 139.061 443.149 141.263 444.198 154.577C444.46 157.564 444.513 161.915 443.726 167.366C441.628 173.132 439.636 177.64 438.272 180.575C433.658 190.43 430.564 194.361 424.114 206.836C421.702 211.501 421.493 212.235 418.661 218.001C411.582 232.311 406.391 241.274 401.094 250.866C396.427 259.253 389.873 271.571 382.164 287.401C381.797 288.763 379.962 296.049 384.209 302.444C388.719 309.206 398.158 312.246 407.282 309.311C408.698 307.319 410.69 304.226 412.526 300.19C414.309 296.259 415.148 293.219 415.724 291.279C416.301 289.34 418.608 282.788 423.275 269.579C424.744 265.49 426.526 260.616 430.145 251.076C435.651 236.452 438.377 229.166 440.213 224.605C444.355 214.227 447.501 207.046 453.689 193.103C456.94 185.765 460.925 176.906 465.54 166.842C468.214 165.322 471.885 162.963 475.818 159.556C481.481 154.682 484.313 150.541 489.766 142.678C493.279 137.541 495.954 133.033 495.22 128.526C495.115 127.897 494.853 126.062 493.856 125.8C492.598 125.433 491.025 127.949 489.294 130.151C487.511 132.404 484.837 135.34 480.852 138.38C482.215 134.606 483.578 131.671 484.522 129.731C486.672 125.328 488.455 122.498 489.556 117.623C490.762 112.434 489.661 111.49 489.347 111.228C487.931 110.18 485.519 112.172 484.103 111.018C482.844 109.918 483.946 107.507 482.949 106.93C481.953 106.353 479.751 108.083 478.177 109.918C475.451 113.063 474.821 116.103 473.825 119.038C472.881 121.921 471.151 125.852 467.9 130.203C467.113 130.308 466.064 130.36 465.592 129.731C465.068 128.997 465.802 127.792 466.484 125.852C466.641 125.381 466.536 125.643 467.637 120.82C468.057 118.986 468.844 115.579 469.473 112.853C470.364 108.922 470.784 107.297 469.945 105.567C469.787 105.2 469.106 103.785 468.109 103.733C466.956 103.68 466.064 105.515 465.383 106.93C462.603 112.643 461.188 115.526 460.821 116.522C458.985 121.502 456.521 129.102 456.154 131.723C456.101 132.038 455.996 133.138 455.472 134.554C455.21 135.235 455.052 135.497 454.895 135.916C453.584 138.852 454.685 140.791 453.322 141.839C453.165 141.944 452.378 142.521 451.749 142.311C451.067 142.102 450.753 141.21 450.386 138.223C449.861 134.134 450.176 132.929 449.232 131.146C448.603 130.36 447.816 128.84 446.715 128.788Z" fill="white"/>
<path d="M444.198 153.057C444.565 149.231 443.988 145.509 443.778 141.683C443.674 139.848 443.674 137.961 443.936 136.127C444.093 135.078 444.303 134.03 444.617 133.034C445.142 131.514 445.194 130.256 446.872 130.203C448.445 130.151 448.34 131.095 448.603 132.405C448.865 133.558 448.917 134.764 448.97 135.917C449.075 137.542 449.127 139.219 449.494 140.792C449.861 142.417 450.857 143.779 452.693 143.203C453.637 142.888 453.27 141.368 452.273 141.683C450.438 142.207 450.595 136.022 450.49 134.973C450.333 133.296 450.176 131.566 449.547 129.994C448.655 127.792 446.61 126.692 444.88 128.736C442.625 131.357 442.153 136.074 442.153 139.324C442.153 143.937 443.044 148.444 442.625 153.057C442.572 154.053 444.145 154.053 444.198 153.057Z" fill="#161616"/>
<path d="M453.322 142.574C455.944 137.489 456.731 131.723 458.251 126.272C459.877 120.401 461.922 114.635 464.963 109.394C465.645 108.241 466.327 106.616 467.323 105.725C469.263 103.942 469.263 107.35 469.106 108.817C468.791 112.067 467.952 115.369 467.218 118.567C466.536 121.502 465.592 124.333 464.911 127.268C464.544 128.893 464.544 130.308 465.697 131.566C466.379 132.3 467.48 131.199 466.799 130.465C465.488 129.05 466.851 126.22 467.27 124.699C467.742 122.97 468.214 121.24 468.581 119.51C469.316 116.313 470.05 113.063 470.522 109.761C470.784 108.031 471.151 104.991 469.63 103.68C468.319 102.58 467.008 103.628 466.117 104.676C462.289 109.446 459.929 115.736 458.041 121.502C455.891 128.159 455.21 135.602 451.959 141.84C451.487 142.678 452.85 143.465 453.322 142.574Z" fill="#161616"/>
<path d="M466.064 131.723C467.637 131.881 468.214 130.727 468.948 129.469C470.102 127.478 471.151 125.381 472.147 123.337C474.087 119.353 475.451 115.002 477.81 111.281C478.335 110.442 478.964 109.394 479.803 108.765C480.485 107.979 481.376 107.717 482.53 108.083C482.687 108.817 482.792 109.551 482.792 110.285C482.844 112.853 482.005 115.422 481.114 117.833C479.331 122.603 477.338 127.32 475.398 132.09C475.031 133.034 476.552 133.453 476.919 132.51C478.02 129.784 489.347 105.882 481.953 105.725C480.485 105.672 478.807 107.507 477.968 108.503C476.499 110.233 475.451 112.224 474.507 114.269C473.406 116.732 472.409 119.196 471.256 121.607C470.574 123.075 469.787 124.595 469.053 126.01C468.581 126.953 467.428 130.203 466.117 130.098C465.068 130.046 465.068 131.619 466.064 131.723Z" fill="#161616"/>
<path d="M484.627 112.434C485.204 109.394 488.508 111.49 488.927 113.43C489.294 115.055 488.665 116.68 488.141 118.2C487.354 120.506 486.463 122.76 485.519 124.961C483.683 129.26 481.533 133.348 479.121 137.384C478.597 138.275 479.96 139.062 480.485 138.17C482.74 134.449 484.732 130.57 486.515 126.639C488.036 123.232 489.871 119.458 490.448 115.736C490.815 113.377 490.133 110.337 487.511 109.499C485.571 108.87 483.474 110.075 483.107 112.067C482.949 113.01 484.47 113.43 484.627 112.434Z" fill="#161616"/>
<path d="M481.586 138.8C483.579 136.546 485.519 134.292 487.511 132.038C488.56 130.832 489.504 129.522 490.658 128.474C491.025 128.159 491.392 127.897 491.706 127.583C492.598 127.897 493.489 128.212 494.433 128.526C494.695 128.998 494.066 130.361 493.909 130.78C492.283 135.76 489.923 140.477 487.144 144.88C481.533 153.739 473.825 161.182 464.806 166.581C463.914 167.105 464.753 168.468 465.592 167.943C476.814 161.234 486.043 151.38 491.864 139.691C493.279 136.86 494.643 133.873 495.534 130.832C496.059 129.05 496.373 126.639 494.328 125.696C492.336 124.752 490.238 126.587 488.98 127.897C485.991 130.99 483.264 134.449 480.432 137.699C479.803 138.433 480.904 139.534 481.586 138.8Z" fill="#161616"/>
<path d="M442.835 151.432C443.202 156.254 443.569 161.182 442.782 166.004C441.996 170.774 440.003 175.177 437.801 179.475C433.343 188.176 428.676 196.772 424.114 205.421C414.99 222.719 405.866 239.964 396.742 257.261C391.498 267.168 386.254 277.127 381.011 287.034C380.539 287.925 381.902 288.711 382.374 287.82C401.199 252.124 420.391 216.586 438.902 180.681C441.104 176.435 443.149 172.084 444.041 167.419C445.089 162.125 444.722 156.778 444.303 151.432C444.355 150.436 442.782 150.436 442.835 151.432Z" fill="#161616"/>
<path d="M464.701 166.213C447.921 201.647 433.291 237.919 420.391 274.925C416.616 285.671 412.84 296.416 408.278 306.847C407.859 307.791 409.222 308.577 409.642 307.633C417.455 289.864 423.17 271.256 429.882 253.12C436.752 234.46 444.198 215.957 452.116 197.716C456.626 187.39 461.24 177.168 466.064 167C466.484 166.108 465.12 165.322 464.701 166.213Z" fill="#161616"/>
<path opacity="0.1" d="M488.403 111.805C486.253 111.491 483.369 120.297 481.691 124.7C476.604 138.223 472.304 139.796 461.397 158.141C457.36 164.903 451.801 175.072 446.19 188.333C429.41 223.662 412.683 259.043 395.903 294.372C399.993 299.352 404.031 304.384 408.121 309.363C410.166 303.545 413.155 295.001 416.878 284.675C423.642 266.067 432.399 242.113 444.775 212.969C449.704 201.438 456.521 185.87 465.278 167.576C467.69 166.056 471.046 163.698 474.716 160.448C479.646 156.15 486.148 150.331 490.605 140.844C492.021 137.909 493.804 133.401 494.747 127.478C494.066 127.163 493.07 126.796 491.968 127.006C490.081 127.373 489.084 129.207 488.298 130.465C485.256 135.13 480.799 138.223 480.222 137.856C479.908 137.594 480.799 136.074 483.211 131.147C488.14 121.03 486.095 123.704 488.036 120.297C489.137 118.357 490.238 116.68 489.871 114.531C489.871 113.587 489.294 111.962 488.403 111.805Z" fill="#3F3F3F"/>
<path opacity="0.13" d="M485.204 147.553C482.582 149.231 478.859 151.694 474.612 154.944C469.735 158.613 464.491 162.597 460.086 167.629C454.109 174.443 451.487 181.205 449.914 185.136C435.493 221.932 418.346 261.874 413.469 272.986C410.795 279.067 406.6 288.24 401.042 299.247C403.559 302.549 406.128 305.852 408.645 309.154C415.882 287.086 424.219 263.971 433.763 240.016C444.041 214.28 454.685 190.22 465.383 167.838C468.267 165.899 471.518 163.435 474.821 160.238C479.488 155.783 482.844 151.275 485.204 147.553Z" fill="#3F3F3F"/>
<path d="M345.773 299.3C343.833 300.61 339.48 303.65 335.023 308.577C330.409 313.662 327.734 318.432 325.532 322.468C323.802 325.56 322.543 328.286 321.652 330.278C323.015 332.899 325.217 336.935 328.259 341.757C333.66 350.301 337.855 354.914 345.091 364.191C348.133 368.07 352.537 373.888 357.781 381.227C358.62 385.158 359.354 389.299 359.983 393.65C361.242 402.56 361.714 410.842 361.714 418.285C363.654 420.382 367.01 423.422 371.939 425.571C380.119 429.188 387.566 428.14 391.446 427.511C400.046 426.2 405.919 422.374 409.956 419.701C417.298 414.878 422.279 409.112 425.583 404.343C424.901 396.166 424.01 387.726 422.908 378.973C421.965 371.53 420.916 364.296 419.762 357.272C419.657 351.769 419.133 344.273 417.35 335.572C415.882 328.286 414.099 319.794 408.803 309.73C402.196 297.203 393.963 289.602 390.764 286.824C387.933 284.361 385.363 282.526 383.475 281.216C375.82 286.091 369.212 289.131 364.703 290.965C356.313 294.425 352.38 294.949 345.773 299.3Z" fill="white"/>
<path d="M322.491 330.487C324.116 324.302 328.626 318.536 332.506 313.504C336.596 308.263 341.211 303.493 346.717 299.666C347.556 299.09 346.769 297.727 345.93 298.303C340.267 302.235 335.495 307.109 331.3 312.508C327.263 317.698 322.7 323.568 321.022 330.016C320.76 331.064 322.281 331.431 322.491 330.487Z" fill="#161616"/>
<path d="M321.337 331.011C332.139 349.881 344.934 367.598 359.459 383.795C360.141 384.529 361.242 383.428 360.56 382.694C346.14 366.602 333.45 348.99 322.701 330.225C322.176 329.334 320.813 330.12 321.337 331.011Z" fill="#161616"/>
<path d="M365.699 291.699C371.572 287.558 378.022 284.466 384.891 282.474C385.888 282.212 385.468 280.692 384.472 280.954C377.445 282.998 370.891 286.143 364.913 290.336C364.074 290.913 364.86 292.276 365.699 291.699Z" fill="#161616"/>
<path d="M383.58 282.893C408.646 300.348 419.395 330.959 418.189 360.574C418.137 361.57 419.71 361.57 419.762 360.574C421.021 330.33 409.904 299.299 384.367 281.53C383.58 280.953 382.794 282.316 383.58 282.893Z" fill="#161616"/>
<path d="M356.051 380.703C358.777 386.311 359.092 393.283 359.669 399.363C360.298 405.548 360.508 411.786 360.508 418.023C360.508 419.019 362.081 419.019 362.081 418.023C362.133 411.104 361.819 404.185 361.032 397.319C360.403 391.501 359.983 385.211 357.414 379.864C356.942 378.973 355.631 379.759 356.051 380.703Z" fill="#161616"/>
<path d="M361.504 418.338C369.37 427.982 382.794 430.708 394.487 427.72C400.99 426.043 407.02 422.845 412.421 418.862C417.822 414.878 422.961 410.265 426.002 404.185C426.474 403.294 425.111 402.508 424.639 403.399C421.703 409.217 416.773 413.673 411.582 417.499C406.548 421.221 400.937 424.261 394.855 425.99C383.423 429.188 370.261 426.724 362.553 417.237C361.976 416.451 360.875 417.551 361.504 418.338Z" fill="#161616"/>
<path d="M418.766 358.216C421.335 373.574 423.852 388.932 424.744 404.447C424.796 405.443 426.369 405.443 426.317 404.447C425.373 388.775 422.856 373.259 420.286 357.796C420.129 356.801 418.608 357.22 418.766 358.216Z" fill="#161616"/>
<path opacity="0.13" d="M367.692 289.602C373.512 296.469 381.483 307.162 388.142 321.629C397.896 342.805 399.836 361.099 401.304 376.667C402.458 388.513 403.087 405.024 400.78 424.733C405.237 422.793 411.53 419.439 417.612 413.62C420.968 410.37 423.485 407.121 425.373 404.29C423.643 389.666 421.912 374.989 420.182 360.365C420.496 348.309 418.609 338.56 416.826 331.955C411.32 311.513 400.727 298.356 397.162 294.215C392.285 288.502 387.513 284.308 384 281.53C378.546 284.256 373.145 286.929 367.692 289.602Z" fill="#3F3F3F"/>
<path opacity="0.14" d="M406.758 307.948C405.814 308.21 408.016 316.754 410.114 329.387C410.114 329.387 413.313 348.571 413.994 367.127C414.466 379.392 413.837 397.318 408.331 419.596C410.848 418.338 413.942 416.503 417.14 413.935C421.021 410.79 423.8 407.487 425.688 404.866C425.006 383.743 423.223 372.787 421.545 366.602C421.231 365.397 420.392 362.566 419.71 358.583C418.451 351.139 419.081 347.942 418.399 341.757C417.875 336.83 416.878 333.58 415.043 327.552C412.264 318.484 407.807 307.634 406.758 307.948Z" fill="#3F3F3F"/>
<path d="M345.039 213.074C341.578 215.013 337.174 217.949 332.926 222.404C324.117 231.787 321.285 242.27 320.289 247.459C319.502 247.354 317.352 247.197 315.622 248.56C313.052 250.552 313 254.483 313.996 256.789C314.363 257.628 314.888 258.309 315.989 259.672C317.3 261.297 318.139 262.293 319.502 262.87C320.079 263.132 321.39 263.499 323.278 263.079C323.854 264.809 324.798 267.22 326.214 269.998C328.049 273.563 330.829 278.857 336.387 283.469C338.013 284.832 340.53 286.614 343.938 288.239C345.196 289.864 347.504 293.271 347.766 297.884C348.29 306.009 342.365 312.77 336.754 315.758C327.001 320.947 316.408 315.758 312.528 313.819C310.43 312.77 299.89 307.319 295.486 295.368C290.137 280.953 297.111 266.539 301.254 257.942C305.449 249.294 307.389 249.87 310.588 241.431C314.835 230.266 312.58 226.335 317.457 217.791C319.345 214.437 323.173 207.727 331.196 204.582C338.065 201.909 344.41 203.272 347.137 204.058C349.391 202.695 353.377 200.756 358.411 200.756C370.366 200.756 378.022 212.078 379.858 214.804C385.311 222.823 382.427 225.287 387.304 236.556C393.439 250.761 399.417 249.923 404.923 263.237C407.597 269.736 412.054 280.482 407.125 290.755C402.039 301.343 390.45 304.436 388.982 304.803C386.307 305.484 379.124 307.267 371.94 303.44C371.258 303.073 362.239 298.146 361.505 289.707C361.242 286.614 362.134 283.731 362.344 283.102C363.445 279.695 365.332 277.494 365.909 276.76C368.164 273.982 370.891 268.845 372.779 258.624C373.67 258.571 375.138 258.362 376.607 257.523C379.7 255.741 381.169 252.124 381.011 248.979C380.959 248.245 380.749 244.052 377.708 242.637C376.449 242.06 375.138 242.217 374.404 242.375C364.651 232.52 354.845 222.823 345.039 213.074Z" fill="#5222D0"/>
<path d="M345.039 213.021C339.218 216.429 335.18 220.203 332.611 222.981C324.064 232.258 321.337 241.955 320.76 244.209C320.393 245.625 320.131 246.778 320.026 247.616C319.449 247.407 318.138 247.04 316.827 247.616C314.835 248.508 314.415 250.919 314.205 252.124C313.681 254.902 314.73 257.104 315.149 257.943C315.726 259.148 316.67 261.088 318.925 262.083C320.76 262.922 322.491 262.608 323.225 262.45C323.959 264.337 325.008 266.958 326.633 269.946C329.098 274.663 331.405 279.014 335.862 282.893C337.593 284.413 340.424 286.51 344.514 288.135C345.353 289.445 346.507 291.489 347.136 294.162C347.661 296.259 347.765 298.041 347.713 299.404C349.076 300.086 351.646 301.134 354.845 301.081C360.98 300.977 365.017 297.15 365.961 296.207C364.965 293.219 364.073 289.55 363.706 285.304C363.549 283.365 363.497 281.53 363.497 279.853C365.122 278.123 367.115 275.659 368.74 272.357C371.625 266.644 372.096 261.35 372.149 258.257C372.883 258.362 374.351 258.519 375.924 257.89C378.127 256.999 379.123 255.06 379.7 253.959C379.857 253.697 382.06 249.189 380.067 244.734C379.595 243.738 378.808 241.903 377.235 241.746C376.082 241.641 375.138 242.532 374.771 242.899C372.621 240.331 368.583 235.561 362.92 229.009C358.043 223.295 354.949 219.731 349.758 216.062C347.87 214.699 346.192 213.703 345.039 213.021Z" fill="white"/>
<path d="M337.802 268.636C337.278 269.841 339.742 271.99 340.896 272.881C343.308 274.664 345.878 274.926 346.821 274.978C347.923 275.083 351.541 275.345 354.844 272.986C355.631 272.41 357.833 270.89 358.672 268.059C359.249 266.015 359.092 263.184 357.991 262.713C357.152 262.398 356.365 263.446 354.582 264.704C351.436 266.854 348.185 267.378 345.406 267.797C340.686 268.531 338.327 267.587 337.802 268.636Z" fill="black"/>
<path d="M321.18 256.527C323.067 264.39 326.109 272.095 331.143 278.49C335.6 284.203 342.207 289.707 349.915 288.973C357.047 288.292 362.868 282.735 366.643 277.074C371.1 270.47 373.25 262.555 373.04 254.588C372.988 253.592 371.415 253.592 371.467 254.588C371.677 261.874 369.789 269.002 365.961 275.187C362.343 281.006 356.365 287.138 349.076 287.453C341.368 287.767 335.023 281.477 330.933 275.607C326.843 269.736 324.326 262.974 322.648 256.055C322.438 255.112 320.918 255.531 321.18 256.527Z" fill="#161616"/>
<path d="M343.466 288.239C345.668 291.594 346.769 295.263 346.769 299.299C346.769 300.295 348.342 300.295 348.342 299.299C348.342 295.053 347.136 291.017 344.829 287.453C344.305 286.562 342.941 287.348 343.466 288.239Z" fill="#161616"/>
<path d="M347.503 299.928C353.901 303.597 362.186 301.815 366.538 295.944C367.168 295.158 365.804 294.372 365.175 295.158C361.295 300.347 353.848 301.815 348.29 298.565C347.399 298.093 346.612 299.456 347.503 299.928Z" fill="#161616"/>
<path d="M362.605 281.215C362.658 285.985 363.392 290.703 364.913 295.263C365.227 296.207 366.748 295.787 366.433 294.844C365.018 290.388 364.231 285.881 364.179 281.215C364.179 280.167 362.605 280.167 362.605 281.215Z" fill="#161616"/>
<path d="M322.753 261.507C322.071 262.24 320.393 261.978 319.607 261.559C318.977 261.244 318.4 260.773 317.928 260.301C316.88 259.305 316.041 258.099 315.516 256.789C314.468 254.325 313.996 247.249 318.663 248.507C319.659 248.769 320.078 247.249 319.082 246.987C313.314 245.467 312.423 253.12 313.891 256.946C315.044 260.039 320.341 266.434 323.906 262.607C324.536 261.873 323.434 260.773 322.753 261.507Z" fill="#161616"/>
<path d="M375.453 243.161C376.082 241.064 378.809 245.1 379.123 245.834C379.752 247.512 379.962 249.346 379.7 251.128C379.28 254.693 376.449 258.1 372.516 257.104C371.52 256.842 371.1 258.362 372.097 258.624C378.441 260.249 381.85 253.644 381.273 248.245C381.011 245.887 380.067 242.846 377.812 241.588C376.344 240.802 374.456 241.012 373.932 242.689C373.617 243.737 375.138 244.104 375.453 243.161Z" fill="#161616"/>
<path d="M328.364 232.048C330.094 228.746 333.135 226.597 336.806 226.073C337.802 225.916 337.383 224.396 336.387 224.553C332.349 225.129 328.888 227.645 327 231.262C326.528 232.153 327.892 232.94 328.364 232.048Z" fill="#161616"/>
<path d="M352.59 223.977C356.995 222.928 361.399 225.13 363.392 229.113C363.864 230.004 365.175 229.218 364.755 228.327C362.448 223.662 357.204 221.251 352.17 222.456C351.174 222.719 351.593 224.239 352.59 223.977Z" fill="#161616"/>
<path d="M341.158 230.424C342.155 235.98 342.417 241.694 341.84 247.355C341.63 249.084 340.791 251.548 341.578 253.278C342.417 255.165 344.672 256.79 346.088 258.257C346.769 258.991 347.923 257.89 347.189 257.156C346.245 256.161 345.301 255.217 344.357 254.221C342.889 252.701 342.732 252.229 343.046 250.028C343.308 248.036 343.571 245.992 343.675 243.947C343.885 239.282 343.518 234.617 342.679 230.057C342.522 229.009 341.001 229.428 341.158 230.424Z" fill="#161616"/>
<path d="M334.551 243.895C333.765 242.637 333.397 241.274 333.502 239.806C333.502 239.492 333.712 238.129 333.974 238.076C334.132 238.076 334.394 239.911 334.446 240.121C334.551 240.802 334.604 241.536 334.604 242.217C334.604 242.427 334.551 244.157 334.551 243.108C334.499 241.588 334.604 240.068 334.656 238.548C334.132 238.601 333.607 238.705 333.135 238.758C333.397 240.383 333.555 242.008 333.555 243.685C334.079 243.685 334.604 243.685 335.128 243.685C335.128 243.475 335.128 243.266 335.128 243.056C335.128 242.06 333.555 242.06 333.555 243.056C333.555 243.266 333.555 243.475 333.555 243.685C333.555 244.681 335.128 244.681 335.128 243.685C335.128 241.903 334.971 240.121 334.656 238.339C334.499 237.447 333.135 237.71 333.135 238.548C333.083 240.226 332.873 242.06 333.083 243.737C333.188 244.524 333.555 245.258 334.446 245.415C337.068 245.939 336.282 240.802 336.072 239.544C335.914 238.548 335.757 237.028 334.813 236.452C334.027 235.98 333.188 236.452 332.716 237.185C331.405 239.387 332.139 242.637 333.345 244.629C333.712 245.52 335.075 244.733 334.551 243.895Z" fill="#161616"/>
<path d="M358.777 241.116C357.991 239.858 357.624 238.496 357.729 237.028C357.729 236.713 357.938 235.351 358.201 235.298C358.358 235.298 358.62 237.133 358.673 237.342C358.777 238.024 358.83 238.758 358.83 239.439C358.83 239.649 358.777 241.378 358.777 240.33C358.725 238.81 358.83 237.29 358.882 235.77C358.358 235.822 357.834 235.927 357.362 235.98C357.624 237.604 357.781 239.229 357.781 240.907C358.305 240.907 358.83 240.907 359.354 240.907C359.354 240.697 359.354 240.487 359.354 240.278C359.354 239.282 357.781 239.282 357.781 240.278C357.781 240.487 357.781 240.697 357.781 240.907C357.781 241.903 359.354 241.903 359.354 240.907C359.354 239.125 359.197 237.342 358.882 235.56C358.725 234.669 357.362 234.931 357.362 235.77C357.309 237.447 357.099 239.282 357.309 240.959C357.414 241.745 357.781 242.479 358.673 242.636C361.294 243.161 360.508 238.024 360.298 236.766C360.141 235.77 359.983 234.25 359.04 233.673C358.253 233.201 357.414 233.673 356.942 234.407C355.631 236.609 356.365 239.858 357.571 241.85C357.938 242.794 359.302 242.007 358.777 241.116Z" fill="#161616"/>
<path d="M326.79 248.717C327.787 248.717 327.787 247.145 326.79 247.145C325.794 247.145 325.794 248.717 326.79 248.717Z" fill="#161616"/>
<path d="M332.978 249.87C333.031 249.87 333.083 249.87 333.188 249.87C333.607 249.87 333.975 249.503 333.975 249.084C333.975 248.665 333.607 248.298 333.188 248.298C333.136 248.298 333.083 248.298 332.978 248.298C332.559 248.298 332.192 248.665 332.192 249.084C332.192 249.503 332.506 249.87 332.978 249.87Z" fill="#161616"/>
<path d="M329.308 254.693C330.304 254.693 330.304 253.12 329.308 253.12C328.311 253.12 328.259 254.693 329.308 254.693Z" fill="#161616"/>
<path d="M359.092 247.931C359.144 247.931 359.197 247.931 359.302 247.931C359.721 247.931 360.088 247.564 360.088 247.145C360.088 246.725 359.721 246.358 359.302 246.358C359.249 246.358 359.197 246.358 359.092 246.358C358.672 246.358 358.305 246.725 358.305 247.145C358.305 247.564 358.62 247.931 359.092 247.931Z" fill="#161616"/>
<path d="M364.86 244.052C365.856 244.052 365.856 242.479 364.86 242.479C363.864 242.479 363.864 244.052 364.86 244.052Z" fill="#161616"/>
<path d="M364.074 248.298C364.126 248.298 364.179 248.298 364.283 248.298C364.703 248.298 365.07 247.931 365.07 247.511C365.07 247.092 364.703 246.725 364.283 246.725C364.231 246.725 364.179 246.725 364.074 246.725C363.654 246.725 363.287 247.092 363.287 247.511C363.34 247.931 363.654 248.298 364.074 248.298Z" fill="#161616"/>
<path d="M339.113 269.841C338.274 268.636 336.911 266.906 337.488 265.333C338.169 263.551 340.319 263.813 341.735 264.023C343.466 264.285 344.881 264.599 346.559 264.075C347.923 263.656 349.129 262.765 350.387 262.083C353.376 260.406 356.89 260.249 357.833 264.18C360.508 274.926 341.525 277.966 338.589 268.531C338.274 267.587 336.754 267.954 337.068 268.95C340.686 280.534 363.13 276.236 359.197 263.394C358.515 261.245 356.89 259.41 354.582 259.148C350.807 258.781 348.342 262.555 344.724 262.817C342.05 263.027 338.799 260.983 336.649 263.499C334.709 265.753 336.282 268.636 337.697 270.627C338.327 271.466 339.69 270.68 339.113 269.841Z" fill="#161616"/>
<path d="M336.072 266.853C337.226 270.051 342.994 269.055 345.511 268.688C350.335 267.954 354.74 265.857 358.463 262.765C359.249 262.136 358.148 260.983 357.362 261.664C354.635 263.97 351.489 265.648 348.028 266.591C346.507 267.011 338.484 268.793 337.645 266.486C337.226 265.49 335.705 265.91 336.072 266.853Z" fill="#161616"/>
<path d="M345.406 289.864C351.541 291.437 359.721 287.558 363.182 282.473C363.759 281.635 362.395 280.848 361.819 281.687C358.777 286.143 351.174 289.707 345.825 288.344C344.829 288.082 344.409 289.602 345.406 289.864Z" fill="#161616"/>
<path d="M345.982 290.336C351.436 293.743 360.403 288.921 363.025 283.731C363.497 282.84 362.133 282.054 361.661 282.945C359.459 287.348 351.436 291.909 346.769 289.026C345.878 288.449 345.091 289.812 345.982 290.336Z" fill="#161616"/>
<path opacity="0.2" d="M367.744 234.774C368.111 236.661 368.583 239.649 368.898 243.266C369.632 252.911 370.89 269.055 361.137 279.8C359.039 282.107 354.582 286.195 346.35 288.502C348.971 288.397 352.17 288.082 355.631 287.191C357.361 286.772 358.935 286.248 360.35 285.671C360.56 290.336 360.717 295.001 360.927 299.666C362.71 298.513 364.441 297.412 366.223 296.259C363.811 290.913 363.811 286.772 364.126 284.151C364.598 280.482 365.961 277.494 367.325 274.506C368.531 271.885 369.789 269.789 370.785 268.321C370.89 269.422 371.153 270.575 371.887 271.676C375.085 276.446 385.101 276.917 391.393 272.829C397.214 269.055 400.046 261.402 398.577 253.54C399.574 254.378 400.622 255.374 401.619 256.58C402.405 257.523 404.45 260.249 407.282 269.841C408.173 272.829 408.593 274.349 408.855 275.869C409.17 277.966 409.747 281.949 408.645 286.457C406.758 294.215 401.147 298.67 399.469 299.928C398.263 300.819 394.592 303.493 389.086 304.751C386.464 305.327 378.599 307.214 371.205 302.916C368.426 301.291 366.905 300.086 366.066 298.618C365.175 296.993 365.07 295.473 364.965 294.32C364.493 287.139 364.283 283.522 364.755 281.058C366.171 273.93 369.37 273.196 371.153 265.071C371.782 262.136 371.939 259.672 371.992 258.1C372.673 258.205 373.722 258.31 374.98 257.995C377.602 257.314 378.913 255.164 379.385 254.378C381.273 251.39 382.112 246.044 379.175 243.58C378.756 243.214 377.288 242.113 374.456 242.322C372.306 239.806 370.051 237.29 367.744 234.774Z" fill="#3F3F3F"/>
<path opacity="0.13" d="M342.889 251.757C345.563 252.544 348.29 253.382 350.964 254.168C350.282 254.798 349.601 255.374 348.867 256.003C348.185 256.58 347.556 257.051 346.874 257.576C346.035 256.947 344.829 255.846 343.885 254.168C343.361 253.277 343.046 252.439 342.889 251.757Z" fill="#3F3F3F"/>
<path opacity="0.16" d="M300.834 258.309C295.118 278.49 299.366 294.791 307.913 298.356C314.625 301.134 326.738 297.203 328.993 290.336C329.308 289.445 329.622 287.872 328.416 283.05C327.367 278.804 325.217 272.409 320.393 265.124C319.554 264.599 318.453 263.761 317.404 262.503C315.569 260.249 315.044 257.838 314.887 256.684C316.408 258.257 318.61 260.249 320.026 259.62C321.389 258.991 322.228 257.104 321.756 255.217C322.228 257.628 322.963 260.93 324.326 264.757C326.109 269.841 327.892 274.768 332.034 279.433C333.922 281.582 337.645 285.094 343.938 287.61C344.986 288.921 346.926 291.751 347.556 295.892C347.661 296.521 348.028 299.404 347.084 303.021C346.874 303.86 345.616 308.42 341.473 312.351C336.649 316.964 330.881 317.802 328.993 318.064C314.782 319.951 303.77 307.529 301.83 305.38C299.89 303.178 296.691 299.509 294.856 293.848C291.92 284.832 294.174 276.708 295.8 270.785C297.321 265.228 299.366 261.035 300.834 258.309Z" fill="#3F3F3F"/>
</svg>
